<?xml version="1.0" encoding="UTF-8"?>
<svg id="Layer_1" data-name="Layer 1" xmlns="http://www.w3.org/2000/svg" viewBox="0 0 997.6892076 300">
  <defs>
    <style>
      .cls-1 {
        fill: none;
      }

      .cls-2 {
        fill: #fff;
      }
    </style>
  </defs>
  <polygon class="cls-1" points="679.1199341 226.3484344 727.7297974 226.3484344 703.3396606 164.5120697 679.1199341 226.3484344"/>
  <path class="cls-1" d="M591.5501099,71.4237518c1.2617188-.0895996,2.4018555-.329895,3.4194336-.7423096,1.0200195-.406189,1.8608398-1.0441284,2.53125-1.9063721,.6616211-.8626099,.9912109-2.0679321,.9868164-3.625-.0112305-1.4522095-.3144531-2.6072998-.9082031-3.4590454-.5922852-.8560181-1.3476562-1.508728-2.262207-1.9628296-.9155273-.4568481-1.972168-.7536011-3.1513672-.9109497-1.1816406-.1549683-2.3344727-.2293701-3.4633789-.2184448l-8.2216797,.041687,.0678711,12.960022,7.4160156-.0369873c1.1240234-.0042725,2.3251953-.0525513,3.5854492-.1397705Z"/>
  <path class="cls-1" d="M161.2127228,80.6060638c.0952148,.3790283,.1611328,.7694092,.1611328,1.1776733,0,2.6799316-2.1806641,4.8596191-4.8598633,4.8596191-2.6787109,0-4.859375-2.1796875-4.859375-4.8596191,0-.4078979,.065918-.7982788,.1611328-1.1772461-3.2470703,1.703064-5.4858398,5.0661621-5.4858398,8.9859619,0,5.624939,4.5595703,10.1848145,10.1850586,10.1848145,5.6245117,0,10.1845703-4.5598755,10.1845703-10.1848145,0-3.9205933-2.2402344-7.2836914-5.4868164-8.9863892Z"/>
  <path class="cls-1" d="M910.836731,70.2183685c1.1245117,0,2.3212891-.0525513,3.5854492-.135498,1.2578125-.0895996,2.3979492-.329895,3.4179688-.7470093,1.0151367-.4014893,1.8579102-1.0394287,2.5263672-1.9016724,.6679688-.8626099,.9975586-2.0679321,.9931641-3.624939-.0107422-1.4522705-.3139648-2.6073608-.9038086-3.4591064-.5961914-.8560181-1.3515625-1.508728-2.2734375-1.9628296-.9125977-.4567871-1.9697266-.7578735-3.144043-.9108887-1.1860352-.1616211-2.3344727-.2294312-3.4702148-.2247314l-8.2148438,.0479126,.0678711,12.960083,7.4155273-.0413208Z"/>
  <path class="cls-1" d="M494.5344849,160.7326508c-25.765625,0-42.0839844,19.755127-42.0839844,46.5512695,0,26.6234131,16.3183594,46.5485229,42.0839844,46.5485229,25.5932617,0,42.2539062-19.9251099,42.2539062-46.5485229,0-26.7961426-16.6606445-46.5512695-42.2539062-46.5512695Z"/>
  <path class="cls-1" d="M488.0256958,72.1216278c1.1333008-.0023193,2.2138672-.118042,3.2666016-.3388062,1.043457-.2138062,1.9780273-.5892334,2.8144531-1.1025391,.8300781-.5175781,1.4936523-1.2162476,2.0004883-2.1049805,.5063477-.8867798,.7509766-2.0006104,.746582-3.3434448-.0107422-1.4456177-.3491211-2.6159058-1.0219727-3.4979858-.6811523-.8844604-1.5415039-1.5636597-2.5942383-2.0438232-1.0415039-.4696655-2.2182617-.777771-3.5092773-.9042969-1.2905273-.1242676-2.5283203-.1877441-3.7094727-.1768188l-6.4462891,.0303955,.0737305,13.5258789,8.3793945-.0435791Z"/>
  <path class="cls-1" d="M750.2937622,63.5132294c-1.7773438-1.3342285-3.8735352-2.3296509-6.2583008-2.9827881-2.3935547-.6640015-4.9111328-.9825439-7.5444336-.9716797l-7.4135742,.0413208,.1791992,33.8251343,6.5288086-.0369873c2.8979492-.015564,5.6010742-.3232422,8.090332-.9237671,2.4985352-.6114502,4.65625-1.5986938,6.4726562-2.9785156,1.8188477-1.3735962,3.2495117-3.1817627,4.284668-5.4176025,1.034668-2.2296143,1.5458984-4.9569092,1.5302734-8.1799927-.0151367-2.7907715-.5546875-5.2189941-1.6132812-7.2826538-1.0551758-2.0637207-2.4765625-3.7558594-4.2563477-5.0924683Z"/>
  <polygon class="cls-2" points="356.9924927 105.0962372 356.8616333 80.4554291 381.2839966 80.3245697 381.414856 104.9649506 393.9817505 104.9042206 393.6848755 47.8881683 381.111145 47.9516449 381.2268677 69.213974 356.8045044 69.3386078 356.68927 48.0825043 344.1194458 48.1502533 344.4192505 105.1639862 356.9924927 105.0962372"/>
  <polygon class="cls-2" points="458.1438599 47.9345551 443.2337036 48.0062103 430.5335083 69.4149628 418.3313599 48.1374359 402.696106 48.2203827 424.3123169 80.8028412 424.43927 105.1246796 437.0061646 105.0568695 436.8816528 80.7397308 458.1438599 47.9345551"/>
  <path class="cls-2" d="M479.8147583,105.022995l-.1157227-22.2277832,9.1889648-.0459595c3.0087891-.0170898,5.7973633-.31427,8.3789062-.8953247,2.5761719-.5740356,4.7949219-1.53479,6.675293-2.8865967,1.8710938-1.3583984,3.3388672-3.1619263,4.4042969-5.4176025,1.059082-2.2669678,1.5830078-5.057373,1.5678711-8.3898926-.0219727-3.3804321-.6113281-6.1864014-1.7817383-8.4070435-1.1660156-2.218689-2.7338867-3.9785767-4.6972656-5.2910156-1.9741211-1.3015747-4.2773438-2.2144165-6.9111328-2.7362671-2.6313477-.5285034-5.4306641-.7792969-8.3833008-.7617798l-21.1992188,.1090698,.3041992,57.0133057,12.5688477-.0631104Zm6.2041016-46.4140625c1.1811523-.0109253,2.4189453,.0525513,3.7094727,.1768188,1.2910156,.1265259,2.4677734,.4346313,3.5092773,.9042969,1.0527344,.4801636,1.9130859,1.1593628,2.5942383,2.0438232,.6728516,.8820801,1.0112305,2.0523682,1.0219727,3.4979858,.0043945,1.3428345-.2402344,2.456665-.746582,3.3434448-.5068359,.8887329-1.1704102,1.5874023-2.0004883,2.1049805-.8364258,.5133057-1.7709961,.8887329-2.8144531,1.1025391-1.0527344,.2207642-2.1333008,.3364868-3.2666016,.3388062l-8.3793945,.0435791-.0737305-13.5258789,6.4462891-.0303955Z"/>
  <polygon class="cls-2" points="531.4363403 93.4789886 531.3753052 81.8815765 556.1204224 81.7507172 556.0593872 70.1529388 531.3186646 70.2842255 531.2595825 59.658493 557.4529419 59.5186615 557.3919067 47.9213104 518.6292114 48.1241913 518.9260864 105.1378632 559.1409302 104.9303436 559.0818481 93.3395233 531.4363403 93.4789886"/>
  <path class="cls-2" d="M580.598938,82.2328949l6.2124023-.0327148,12.0410156,22.7297363,15.0717773-.0786743-14.637207-24.005188c4.0332031-.7727051,7.0878906-2.567627,9.1601562-5.4000854,2.081543-2.8363647,3.1142578-6.2627563,3.0942383-10.2915649-.0195312-3.321228-.6108398-6.0968628-1.7817383-8.3217773-1.1635742-2.2190552-2.7314453-3.9852295-4.6948242-5.2914429-1.9765625-1.3011475-4.2602539-2.2315063-6.8696289-2.77948-2.6010742-.5526123-5.3613281-.8189697-8.2587891-.803833l-22.081543,.1203613,.2905273,57.0133057,12.5737305-.067749-.1201172-22.7908936Zm-.1181641-23.5924072l8.2216797-.041687c1.1289062-.0109253,2.2817383,.0634766,3.4633789,.2184448,1.1791992,.1573486,2.2358398,.4541016,3.1513672,.9109497,.9145508,.4541016,1.6699219,1.1068115,2.262207,1.9628296,.59375,.8517456,.8969727,2.0068359,.9082031,3.4590454,.0043945,1.5570679-.3251953,2.7623901-.9868164,3.625-.6704102,.8622437-1.5112305,1.5001831-2.53125,1.9063721-1.0175781,.4124146-2.1577148,.65271-3.4194336,.7423096-1.2602539,.0872192-2.4614258,.135498-3.5854492,.1397705l-7.4160156,.0369873-.0678711-12.960022Z"/>
  <polygon class="cls-2" points="658.5003052 104.8469696 658.4348755 93.2495575 635.1414185 93.3715057 634.9011841 47.9532318 622.3342896 48.0167084 622.6311646 105.0303802 658.5003052 104.8469696"/>
  <polygon class="cls-2" points="707.7283325 104.8925629 707.6692505 93.3017426 680.0237427 93.4415741 679.9602661 81.844223 704.708313 81.7129364 704.6448364 70.1221771 679.9060669 70.2464447 679.8469849 59.6207123 706.0379028 59.4808807 705.9768677 47.8835297 667.2146606 48.0864105 667.5134888 105.1001434 707.7283325 104.8925629"/>
  <path class="cls-2" d="M759.1116333,54.3289032c-3.0722656-2.2623291-6.6733398-3.9022827-10.7851562-4.9000854-4.1137695-.9938354-8.4619141-1.4829712-13.0258789-1.456543l-18.8579102,.0981445,.3037109,57.0137329,20.550293-.109436c4.2407227-.0194702,8.293457-.6574097,12.1611328-1.9172363,3.8603516-1.2532959,7.2607422-3.0813599,10.206543-5.4896851,2.9389648-2.3978271,5.2753906-5.3654175,7.0004883-8.8919067,1.7294922-3.5202026,2.5791016-7.5950317,2.5546875-12.213501-.0214844-5.2080688-.9472656-9.6275635-2.7641602-13.274353-1.8232422-3.6467896-4.269043-6.5925903-7.34375-8.8591309Zm-4.4785156,29.7394409c-1.0351562,2.2358398-2.4658203,4.0440063-4.284668,5.4176025-1.8164062,1.3798218-3.9741211,2.3670654-6.4726562,2.9785156-2.4892578,.6005249-5.1923828,.9082031-8.090332,.9237671l-6.5288086,.0369873-.1791992-33.8251343,7.4135742-.0413208c2.6333008-.0108643,5.1508789,.3076782,7.5444336,.9716797,2.3847656,.6531372,4.480957,1.6485596,6.2583008,2.9827881,1.7797852,1.3366089,3.2011719,3.0287476,4.2563477,5.0924683,1.0585938,2.0636597,1.5981445,4.4918823,1.6132812,7.2826538,.015625,3.2230835-.4956055,5.9503784-1.5302734,8.1799927Z"/>
  <path class="cls-2" d="M786.7595825,98.5095062c2.753418,2.5921631,6.0117188,4.5705566,9.7783203,5.9507446,3.7670898,1.3731689,7.8833008,2.0457764,12.3442383,2.0263062,4.190918-.0217896,8.2958984-.4696655,12.3227539-1.354126,4.0224609-.8778076,7.8852539-2.296936,11.5820312-4.2515869l-.1572266-29.7982788-22.3212891,.1203613,.0566406,11.5973511,10.2348633-.0525513,.050293,9.2634277c-1.1791992,.65271-2.762207,1.2902222-4.7407227,1.9172363-1.9873047,.6266479-4.3476562,.9451904-7.0908203,.9607544-2.6835938,.0109253-5.1225586-.4279785-7.3017578-1.3280029-2.1772461-.9039307-4.0551758-2.1680298-5.6230469-3.8013916-1.5654297-1.6248169-2.7666016-3.5529785-3.6142578-5.7782593-.8447266-2.2206421-1.2680664-4.6710205-1.2856445-7.3609619-.015625-2.6271973,.3886719-5.072937,1.2070312-7.3286743,.8256836-2.2622681,2.0068359-4.2165527,3.5532227-5.8674316,1.5566406-1.6442261,3.4155273-2.9196777,5.5859375-3.8496704,2.1723633-.9237671,4.6005859-1.3953857,7.2866211-1.406311,3.2231445-.0198364,5.9135742,.4237061,8.0644531,1.3233643,2.1533203,.9015503,4.0966797,2.2358398,5.8261719,4.0004272l8.8110352-9.7109375c-2.9130859-2.6708374-6.2998047-4.5440674-10.1435547-5.6275024-3.8452148-1.0807495-8.0551758-1.6068726-12.621582-1.5807495-4.4609375,.0198364-8.5683594,.7402954-12.3110352,2.1618042-3.7626953,1.4105835-7.0009766,3.4263916-9.7241211,6.0442505-2.7319336,2.6229248-4.8457031,5.7891235-6.3632812,9.4970703-1.5087891,3.7145386-2.2558594,7.8481445-2.2294922,12.4117432,.0263672,4.5662842,.8105469,8.6932373,2.3608398,12.3969116,1.5522461,3.6947021,3.703125,6.8371582,6.4633789,9.4246826Z"/>
  <polygon class="cls-2" points="854.3108521 92.1299286 854.2478638 80.528244 878.992981 80.3970184 878.9314575 68.8038788 854.1863403 68.9308929 854.1316528 58.3047333 880.3206177 58.1630096 880.2634888 46.5722504 841.5012817 46.7751312 841.8005981 103.7884369 882.0130005 103.5746307 881.9495239 91.9835052 854.3108521 92.1299286"/>
  <path class="cls-2" d="M903.5911255,103.6829071l-.1201172-22.7908936,6.2060547-.0327148,12.0478516,22.7254639,15.0712891-.0786743-14.6328125-24.0009155c4.0288086-.7769775,7.0839844-2.5742798,9.1625977-5.4000854,2.074707-2.8363647,3.1074219-6.2627563,3.0878906-10.2915649-.0195312-3.321228-.6118164-6.1011353-1.7753906-8.3217773-1.1704102-2.2252808-2.7319336-3.9898682-4.7011719-5.2913818-1.972168-1.3011475-4.2583008-2.2315674-6.8657227-2.779541-2.6118164-.5592041-5.3652344-.8189697-8.2631836-.803772l-22.0810547,.1156616,.296875,57.0113525,12.5668945-.0611572Zm7.9770508-46.4312134c1.1357422-.0046997,2.2841797,.0631104,3.4702148,.2247314,1.1743164,.1530151,2.2314453,.4541016,3.144043,.9108887,.921875,.4541016,1.6772461,1.1068115,2.2734375,1.9628296,.5898438,.8517456,.8930664,2.0068359,.9038086,3.4591064,.0043945,1.5570068-.3251953,2.7623291-.9931641,3.624939-.668457,.8622437-1.5112305,1.5001831-2.5263672,1.9016724-1.0200195,.4171143-2.1601562,.6574097-3.4179688,.7470093-1.2641602,.0829468-2.4609375,.135498-3.5854492,.135498l-7.4155273,.0413208-.0678711-12.960083,8.2148438-.0479126Z"/>
  <path class="cls-2" d="M356.8347778,179.1119843c0-10.8204346,9.9628906-18.206665,23.5322266-18.206665,12.5385742,0,24.5620117,4.1220093,33.1489258,13.7420044l8.5893555-10.4778442c-9.6201172-10.1351929-23.1894531-16.1456299-40.5380859-16.1456299-22.6713867,0-39.5048828,13.0540771-39.5048828,31.9486694,0,40.8807373,67.8466797,24.3897705,67.8466797,53.9348145,0,8.9320679-6.5253906,19.9251099-26.9658203,19.9251099-16.1455078,0-28.5146484-7.9014893-35.9008789-16.4909668l-8.5869141,10.993103c9.4472656,10.6504669,24.2202148,18.2066803,43.9726562,18.2066803,30.9179688,0,42.253418-17.1761475,42.253418-33.6644287,0-42.7717896-67.8466797-27.9992676-67.8466797-53.7648315v-.0000153Z"/>
  <path class="cls-2" d="M494.5344849,148.0238495c-33.8369141,0-56.8535156,25.4202881-56.8535156,59.2600708,0,33.8370361,23.0166016,59.2573395,56.8535156,59.2573395,33.8398438,0,57.0263672-25.4202881,57.0263672-59.2573242,0-33.8397827-23.1865234-59.2600708-57.0263672-59.2600708v-.0000153Zm0,105.8085938c-25.765625,0-42.0839844-19.9251099-42.0839844-46.5485229,0-26.7961426,16.3183594-46.5512695,42.0839844-46.5512695,25.5932617,0,42.2539062,19.755127,42.2539062,46.5512695,0,26.6234131-16.6606445,46.5485229-42.2539062,46.5485229Z"/>
  <polygon class="cls-2" points="585.2747192 149.9122162 571.017395 149.9122162 571.017395 264.4801941 638.5217896 264.4801941 638.5217896 251.7714081 585.2747192 251.7714081 585.2747192 149.9122162"/>
  <path class="cls-2" d="M694.5803833,149.9122162l-46.2060547,114.5680084h16.3183594l10.1352539-25.5929565h57.0263672l10.1323242,25.5929565h16.3183594l-46.0332031-114.5679932h-17.6914062v-.0000153Zm-15.4604492,76.4362183l24.2197266-61.8363647,24.3901367,61.8363647h-48.6098633Z"/>
  <polygon class="cls-2" points="852.3557739 239.4025116 786.3977661 149.9122162 771.7952271 149.9122162 771.7952271 264.4801941 786.052063 264.4801941 786.052063 173.1015472 852.8713989 264.4801941 866.6106567 264.4801941 866.6106567 149.9122162 852.3557739 149.9122162 852.3557739 239.4025116"/>
  <path class="cls-2" d="M937.1653442,205.5654755v12.7114868h39.5073242v23.1865845c-5.840332,5.8405151-17.1787109,12.3688965-30.9179688,12.3688965-25.0776367,0-44.1450195-19.4098511-44.1450195-46.5485229,0-27.4840698,19.0673828-46.5512695,44.1450195-46.5512695,13.7392578,0,25.9355469,6.5283813,33.1489258,15.8030396l11.3383789-7.213623c-9.9624023-12.3661499-24.046875-21.2982178-44.4873047-21.2982178-32.6367188,0-58.9174805,23.5319214-58.9174805,59.2600708,0,35.555481,26.2807617,59.4300079,58.9174805,59.4300079,18.7216797,0,34.3520508-7.9015503,45.0024414-19.9251099v-41.2233276h-53.5917969v-.0000153Z"/>
  <path class="cls-2" d="M95.8948517,245.3495331c-5.5709229-3.9428711-10.7766113-8.2427368-15.616333-12.843689-2.7268066-2.5921021-5.3188477-5.2910156-7.8059082-8.0684204C34.0722198,181.5635223,24.4412384,117.6504364,53.1688995,63.9581757c4.6798096-8.7456665,10.1584473-16.7876587,16.2833252-24.1036987-18.6136475,12.4432373-34.5358887,29.4953613-45.8365479,50.6161499C-5.4707494,144.8322601,4.750442,209.6820526,44.3556671,252.554245c2.5280762,2.7369385,5.1889648,5.37117,7.9539795,7.9203644,7.4678955,6.883728,15.7674561,13.0698853,24.8947754,18.3570557l18.6904297-33.4821167v-.0000153Z"/>
  <path class="cls-2" d="M183.6761017,49.4329681l-23.7929688-32.9165039-6.2485352-8.6439209c-.2768555,2.2936401-.4785156,5.1340942-.4194336,8.2341919,.2470703,13.0859375,5.3232422,30.9212646,30.4609375,33.3262329Z"/>
  <path class="cls-2" d="M206.6194611,46.9961395l7.8496094-14.0616455-8.0771484-4.1652222L154.6458282,2.0841508l10.8730469,15.0431514,9.1162109,12.6121826,14.4492188,19.9901752h-.0004883l-3.7856445,1.947998-115.6610107,59.512146h101.1478271l35.8344727-64.1936646Zm-50.1044922,52.7811279c-5.6254883,0-10.1850586-4.5598755-10.1850586-10.1848145,0-3.9197998,2.2387695-7.2828979,5.4858398-8.9859619-.0952148,.3789673-.1611328,.7693481-.1611328,1.1772461,0,2.6799316,2.1806641,4.8596191,4.859375,4.8596191,2.6791992,0,4.8598633-2.1796875,4.8598633-4.8596191,0-.4082642-.065918-.798645-.1611328-1.1776733,3.246582,1.7026978,5.4868164,5.0657959,5.4868164,8.9863892,0,5.624939-4.5600586,10.1848145-10.1845703,10.1848145Z"/>
  <path class="cls-2" d="M242.3211212,128.4111786c-3.3789062-11.1643066-8.6767578-21.5020142-15.5268555-30.6152954l-26.7470703,20.9603882c4.1411133,5.6390991,7.3950195,11.9671021,9.5429688,18.7839355l32.730957-9.1290283Z"/>
  <path class="cls-2" d="M107.8157501,251.5884857c-2.8500977-1.2120972-5.6298828-2.5571289-8.3417969-4.0124512l-.0800781,.1442261-18.5360107,33.2053375c.1807861,.0997314,.354248,.2072754,.536377,.3045654,2.4311523,1.3008423,4.8881836,2.5023193,7.3581543,3.6469116,.777832,.3600464,1.5622559,.6882324,2.3432617,1.0335693,1.7230225,.7605591,3.4520264,1.4937134,5.1903076,2.1802368,.8925781,.3529053,1.7871094,.6923828,2.6831055,1.0250854,1.7084961,.6347656,3.4238281,1.2295532,5.1445312,1.7937622,.8442383,.2768555,1.6870117,.56427,2.5336914,.8242798,2.1083984,.647522,4.2250977,1.2374268,6.3466797,1.7814941,.362793,.0924683,.722168,.2038574,1.0849609,.2935791,.0732422,.0181885,.1459961,.0414429,.2192383,.0592651,.1875,.0462646,.3769531,.0760498,.5649414,.1219482,2.1982422,.5310669,4.4033203,1.0014038,6.6113281,1.4231567,.1713867,.0328979,.3422852,.0787964,.5136719,.1110229,.5219727,.09729,1.0444336,.1691895,1.5668945,.2606812,.2011719,.0352783,.4033203,.0661011,.6054688,.100708,1.5678711,.2682495,3.1376953,.5026245,4.7089844,.7163696l4.597168-37.8988037c-8.9697266-1.2689819-17.5756836-3.6801147-25.6508789-7.1149292v-.0000153Z"/>
  <path class="cls-2" d="M138.1487579,255.0428314c3.21875,.3186035,6.480957,.4882202,9.7827148,.4882202,8.440918,0,16.6357422-1.0695801,24.4604492-3.0740967l-9.1352539-32.7540894c-4.9155273,1.2004395-10.0449219,1.8513184-15.3251953,1.8513184-1.918457,0-3.8129883-.1003418-5.6889648-.2648315l-4.09375,33.753479Z"/>
  <path class="cls-2" d="M165.8235626,176.3403778l20.9799805,26.7714844c4.9658203-4.1864624,9.2109375-9.1766968,12.6210938-14.7389526l-29.5712891-16.6732788c-1.1533203,1.7061157-2.5209961,3.2491455-4.0297852,4.6407471Z"/>
  <path class="cls-2" d="M177.5745392,255.3662567l10.2333984,36.690506c1.5527344-.4584351,3.1044922-.9161377,4.640625-1.4279175,.6298828-.210022,1.2646484-.4039307,1.8916016-.6228638,2.6132812-.9116211,5.2016602-1.8966064,7.7592773-2.9606934,.5517578-.2294922,1.0927734-.4837036,1.6411133-.7200928,2.0581055-.8873291,4.0957031-1.8233032,6.1118164-2.8078613,.7324219-.3583984,1.4638672-.71875,2.1904297-1.0894775,2.2075195-1.1260986,4.3911133-2.3042603,6.5405273-3.5478516,.2900391-.1678467,.5878906-.3200073,.8774414-.4899292,2.4042969-1.4141846,4.7597656-2.9188843,7.0830078-4.4786987,.6381836-.4282227,1.2641602-.8753052,1.8959961-1.3145142,1.6074219-1.1174927,3.1850586-2.2816162,4.7485352-3.4690552l-23.5341797-30.0315552c-9.5429688,7.1862183-20.3759766,12.7388916-32.0795898,16.2700195v-.0000153Z"/>
  <path class="cls-2" d="M157.0345001,181.7197723l9.1464844,32.7935181c6.2773438-1.9942627,12.0800781-5.0261841,17.2871094-8.8320312l-20.9428711-26.7248535c-1.7006836,1.1298828-3.5463867,2.0473633-5.4907227,2.7633667Z"/>
  <path class="cls-2" d="M171.9021759,168.0222626l29.6191406,16.7006226c2.9604492-5.6828613,5.0073242-11.8947144,6.0327148-18.4501953l-33.7060547-4.088501c-.4145508,2.0455933-1.0878906,3.9929199-1.9458008,5.8380737Z"/>
  <path class="cls-2" d="M208.3533478,156.922348c0-4.8901978-.6474609-9.6213379-1.7495117-14.1777954l-32.7236328,9.1265869c.3178711,1.6369019,.496582,3.3231812,.496582,5.0512085,0,.3651733-.0405273,.7200928-.0551758,1.0811768l33.7695312,4.0960083c.1459961-1.7102051,.262207-3.4293213,.262207-5.1771851Z"/>
  <path class="cls-2" d="M170.2971954,142.8747406c.9765625,1.5484619,1.7905273,3.2039185,2.4316406,4.9462891l32.7939453-9.1464844c-1.9941406-6.2776489-5.0258789-12.0804443-8.8320312-17.2878418l-24.4672852,19.1741333-1.0854492,.8503418-1.171875,.9188232c.0654297,.0983276,.1201172,.2041626,.1845703,.3035278,.0507812,.0787964,.0966797,.1616821,.1464844,.2412109Z"/>
  <path class="cls-2" d="M212.9641876,236.4939423l23.5390625,30.0370026c1.8574219-1.5012207,3.7075195-3.0140991,5.4941406-4.6157227,.3017578-.2703247,.5893555-.5598145,.8886719-.8331909,1.8173828-1.6577759,3.5913086-3.3728027,5.328125-5.1343994,.5874023-.5961304,1.168457-1.2004395,1.7460938-1.8082275,1.6083984-1.6913452,3.1791992-3.4286499,4.7109375-5.2104492,.3803711-.4422607,.7749023-.868103,1.1499023-1.3158569,1.8451996-2.2015381,3.625473-4.4746094,5.3481293-6.8079834,.4262695-.5776367,.8325195-1.175415,1.2509766-1.7609253,1.3320312-1.8630371,2.6235352-3.7657471,3.8740234-5.7092896,.4555664-.7074585,.9130859-1.4124756,1.3574219-2.1305542,.6625977-1.0709839,1.2714844-2.1918945,1.9086914-3.2861328l-33.15625-18.694519c-6.1757812,10.4065552-14.1225586,19.6407471-23.4399414,27.2702637l.0000153-.0000153Z"/>
  <path class="cls-2" d="M147.9314728,183.3675995c-.2973633,0-.5864258-.0346069-.8813477-.0444946-.0673828-.0020752-.1337891-.0075684-.2011719-.0103149l-.0551758,.456665-4.0405273,33.312561c1.7104492,.1463013,3.4301758,.2624512,5.1782227,.2624512,4.890625,0,9.6225586-.647522,14.1791992-1.7496338l-9.1264648-32.723938c-1.637207,.3186035-3.3237305,.4967041-5.0527344,.4967041Z"/>
  <path class="cls-2" d="M246.3753204,127.2806244l36.6415863-10.2194824c-.53125-1.7958374-1.0786133-3.5869141-1.6801758-5.3608398-1.421875-4.1906128-3.0410156-8.31604-4.8520508-12.3607178-1.4951172-3.3399048-3.152832-6.6092529-4.9072266-9.8306274-.7680664-1.4104614-1.5605469-2.8065186-2.3774414-4.1915894-2.7666016-4.6911011-5.800293-9.2396851-9.1171875-13.6083984l-29.9765625,23.4914551c7.1860352,9.5435791,12.7382812,20.3766479,16.269043,32.0802002h.0000153Z"/>
  <path class="cls-2" d="M238.4886017,205.5665131l33.1860199,18.7113037c.152832-.2816162,.3286133-.5426636,.4799805-.8256836,2.2529297-4.2104492,4.2700195-8.4838867,6.0556641-12.8053589,4.6782227-11.3192139,7.7412109-22.9672852,9.3305664-34.6722412l-37.8286133-4.5883789c-1.7270508,12.2075806-5.5898438,23.7351074-11.2236328,34.1803589h.0000153Z"/>
  <path class="cls-2" d="M287.4724731,137.5080414c-.7768555-5.5314941-1.918457-10.9971924-3.3398438-16.387207l-36.6083984,10.2106323c2.1040039,8.1845093,3.2255859,16.7588501,3.2255859,25.5908813,0,3.4724731-.1777344,6.9038696-.5161133,10.2890015l37.8212891,4.5876465c.9741211-9.2554321,1.0366211-18.5263062,.1884766-27.6793213-.2050781-2.2114258-.4628906-4.4159546-.7709961-6.6116333Z"/>
  <path class="cls-2" d="M245.5345001,170.8795013l-33.7241211-4.0905762c-1.0957031,7.12146-3.3710938,13.8551025-6.5976562,20.015564l29.6074219,16.6937866c5.3676758-9.9735107,9.0561523-20.9720459,10.7143555-32.6187744Z"/>
  <path class="cls-2" d="M232.7386017,207.1564789l-29.5869141-16.6818237c-3.6860352,6.0446777-8.3417969,11.4329834-13.7412109,15.9637451l20.9584961,26.7440186c8.8852539-7.2879028,16.4677734-16.1000366,22.3696289-26.0259399Z"/>
  <path class="cls-2" d="M147.9314728,259.7407532c-3.4731445,0-6.9052734-.1781006-10.2900391-.5159302l-4.5947266,37.8809814c1.3564453,.1431885,2.7133789,.2651978,4.0698242,.3682861,.1962891,.0147705,.3925781,.0390625,.5888672,.0531006,.3076172,.0222778,.6152344,.0418091,.9223633,.0617065,.5874023,.0383301,1.1748047,.0869751,1.762207,.1177979,1.940918,.1021118,3.8808594,.1535034,5.8188477,.1747437,.6391602,.0072021,1.2792969,.0363159,1.9179688,.0342407,2.7963867-.0068359,5.5859375-.1072388,8.3676758-.2802124,.7050781-.0438843,1.40625-.1120605,2.109375-.1665039,2.1762695-.1678467,4.3461914-.385437,6.5083008-.6536865,.7792969-.0966187,1.5585938-.1884155,2.3354492-.2980347,2.7631836-.3895264,5.5180664-.8345337,8.2495117-1.3861084,.1147461-.0229492,.2275391-.053772,.3417969-.0774536,2.59375-.5299683,5.1650391-1.1548462,7.7236328-1.8291016l-10.2387695-36.7092896c-8.1845703,2.1044922-16.7602539,3.2254639-25.5922852,3.2254639Z"/>
  <path class="cls-2" d="M101.5266876,243.8990326c2.7285156,1.461853,5.53125,2.8027344,8.4052734,4.0079956,7.581543,3.1781616,15.644043,5.4228516,24.0410156,6.6181641l4.0908203-33.723999c-3.7832031-.5817261-7.4516602-1.5101318-10.9902344-2.7201538-3.0942383-1.0584717-6.0827637-2.3428345-8.9470215-3.8383179l-9.4108887,16.777771-7.1889648,12.87854Z"/>
  <path class="cls-2" d="M207.0594025,235.7847748l-20.9609375-26.7468262c-5.6386719,4.1412964-11.9667969,7.3952026-18.7832031,9.5429077l9.1289062,32.7311401c11.1645508-3.3789673,21.5014648-8.6768188,30.6152344-15.5272217Z"/>
  <path class="cls-2" d="M246.5398712,156.922348c0-8.4401245-1.0693359-16.6348877-3.0737305-24.4589844l-32.7539062,9.1351929c1.199707,4.9155273,1.8510742,10.0440674,1.8510742,15.3237915,0,1.9177856-.1005859,3.8116455-.2651367,5.6876831l33.753418,4.0939331c.3188477-3.2182617,.4882812-6.4804077,.4882812-9.7816162Z"/>
  <path class="cls-2" d="M129.2215118,214.3440399c3.0195312,.9866333,6.1518555,1.6992188,9.3588867,2.2008057l2.8413086-23.428772,1.246582-10.2774048c-2.0449219-.4145508-3.9912109-1.0874023-5.8359375-1.9452515l-.0129395,.0230713-16.6193848,29.6297607c2.8823242,1.4971924,5.8925781,2.7757568,9.0214844,3.7977905Z"/>
  <path class="cls-2" d="M179.3816681,105.4294891l-3.2480469,5.7603149-12.3925781,21.9789429-1.0327148,1.831543c1.7060547,1.1535034,3.2495117,2.5211182,4.6416016,4.0305786l9.3828125-7.3533936,17.3881836-13.6262207c-1.8520508-2.1973877-3.8833008-4.2303467-6.0258789-6.144043-.5449219-.486145-1.0585938-1.0058594-1.6196289-1.4724731-1.8666992-1.5498657-3.8491211-2.9558716-5.894043-4.2755127-.3925781-.25354-.800293-.4851074-1.199707-.7297363Z"/>
  <path class="cls-2" d="M218.919754,35.3058929l-3.4536133,6.1248169-12.6728516,22.4760742-2.5610352,4.5427246c.0439453,.026062,.0888672,.0507202,.1328125,.0767822,3.159668,1.8814697,6.2197266,3.9137573,9.1494141,6.1124878,2.4194336,1.8153687,4.7490234,3.7424927,6.9970703,5.7596436,2.7871094,2.5002441,5.4370117,5.1494751,7.9379883,7.9364624,1.0429688,1.1627808,2.0634766,2.3464355,3.0537109,3.5557861l29.9701996-23.4863892c-.7797852-.9653931-1.5400391-1.9438477-2.3466797-2.8900757-1.2006836-1.40802-2.4511719-2.7804565-3.7114258-4.1453247-2.5283203-2.7366333-5.1889648-5.3711548-7.9541016-7.9200439-4.6401367-4.2775879-9.6010742-8.2832031-14.8896484-11.96875-2.1000977-1.463562-4.2558594-2.8709106-6.4560547-4.2323608-1.0576172-.6550903-2.1152344-1.3114624-3.1958008-1.9418335h.0000153Z"/>
  <path class="cls-2" d="M213.529129,83.380661c-1.9755859-1.7643433-4.0200195-3.4529419-6.1333008-5.055603-2.8779297-2.1829834-5.878418-4.2097778-8.9902344-6.0714111-.0795898-.0476074-.1611328-.0911255-.2407227-.1383667l-16.6816406,29.5864868c.3647461,.2223511,.7177734,.4621582,1.078125,.6917114,2.4111328,1.5368652,4.7177734,3.2227173,6.8984375,5.0566406,.2700195,.2268066,.5332031,.4607544,.7993164,.6920166,2.5629883,2.2268677,4.9526367,4.6455688,7.1386719,7.2444458,.0161133,.019165,.0336914,.0383911,.0498047,.0575562l26.7441406-20.958374c-.8833008-1.0777588-1.7973633-2.1295166-2.7250977-3.1682739-2.4941406-2.7935181-5.144043-5.4423828-7.9375-7.9368286Z"/>
  <path class="cls-2" d="M100.7713165,196.1387177l-17.3570557-17.3566895c-8.0159912,8.0162964-8.0159912,21.0128174,0,29.0291138,.9732666,.9733276,2.0222168,1.822937,3.1243896,2.5601807,3.7498779,2.5067749,8.1394043,3.6280518,12.473877,3.4002075,4.8857422-.2572632,9.6987305-2.2285156,13.4306641-5.9603882l-3.7348633-3.7352295-7.9370117-7.9371948Z"/>
  <path class="cls-2" d="M130.0764923,158.6195526c4.6826172,0,8.9853516-1.5855713,12.4394531-4.2255249,1.453125-1.1110229,2.7504883-2.4080811,3.8618164-3.8616943,2.6396484-3.4540405,4.2255859-7.7562866,4.2255859-12.4395142h-41.0537109c0,11.3366699,9.1904297,20.5267334,20.5268555,20.5267334Z"/>
  <path class="cls-2" d="M138.9016876,177.2232513c1.3608398,.6074219,2.7890625,1.0849609,4.2768555,1.4107666,1.3510742,.2956543,2.7480469,.4580688,4.1777344,.4950562,.1928711,.0048218,.3808594,.0288086,.5751953,.0288086,.5258789,0,1.0410156-.0424805,1.5576172-.0787964,.7983398-.055542,1.5839844-.1497192,2.3569336-.2877808,1.402832-.2507935,2.7563477-.6337891,4.0551758-1.1350098,1.4121094-.5450439,2.7553711-1.2240601,4.012207-2.0325928,1.1860352-.7626343,2.2924805-1.6334839,3.3100586-2.6009521,1.0883789-1.0339355,2.0751953-2.1710205,2.9375-3.4050293,.8017578-1.1473389,1.4936523-2.3737793,2.0703125-3.6646729,.6079102-1.361145,1.0864258-2.7904053,1.4116211-4.2789917,.2958984-1.3504639,.4580078-2.74823,.4946289-4.1779175,.0048828-.1925049,.0292969-.3798828,.0292969-.5737915,0-1.3371582-.1396484-2.6403809-.3666992-3.9130859-.2504883-1.4025879-.6333008-2.7561646-1.1347656-4.0549316-.2416992-.6269531-.5112305-1.2380981-.8071289-1.8363037-.2397461-.4851074-.4941406-.9598999-.7675781-1.4244385-.1489258-.2528687-.2988281-.5056763-.4575195-.7520142-.7626953-1.1864014-1.6337891-2.2929688-2.6010742-3.3111572-1.034668-1.0880737-2.1713867-2.0753784-3.4052734-2.9373779-.0297852-.020813-.0585938-.0429077-.0874023-.0650635l-21.6459961,38.5912476c.0026855,.0012817,.0053711,.0027466,.0083008,.0040283Z"/>
</svg>