<svg id="Layer_1" data-name="Layer 1" xmlns="http://www.w3.org/2000/svg" viewBox="0 0 500 461.41"><defs><style>.cls-1{fill:#003b45;}</style></defs><path class="cls-1" d="M240.72,347l.25,0c7-.6,19.33-2,26.44-2.89a11.52,11.52,0,0,1,1.18,0A17.56,17.56,0,0,1,282,350.68l16.49,22.41a5.63,5.63,0,0,0,3.92,1.73l47.8-5.05a5.46,5.46,0,0,0,3.4-2.48l18.56-42.19a7.73,7.73,0,0,0-.72-6.87L354,294.08a16.89,16.89,0,0,1-1.65-15.71l7.11-16.18a6.23,6.23,0,0,0-.23-4.13,2.31,2.31,0,0,0-.27-.42l-10.75-13.57a3.39,3.39,0,0,0-5.77.74l-11.94,27.13a16.73,16.73,0,0,1-12.76,9.35l-24.17,2.62a7.56,7.56,0,0,0-5.53,4l-9.95,22.6A17.14,17.14,0,0,1,266,320c-32.43,3.93-139,15.53-169.45,19.66A16.65,16.65,0,0,1,82,332.87l-22.11-31C58,299.28,55,295.2,53,292.67L31.19,262.75A16.9,16.9,0,0,1,29.51,247l34.6-78.64A16.77,16.77,0,0,1,76.86,159l53.37-5.94a7.63,7.63,0,0,0,5.54-4.07l7-16a3.13,3.13,0,0,0-3.2-4.37c-11.3,1.24-27.57,3.14-42.46,4.7-12.43,1.17-29.64,2-41.72,3.94l-.42.1a8.29,8.29,0,0,0-3.84,3.48L.24,256.62A5.82,5.82,0,0,0,.68,261C16.73,283.57,39,314,56.39,335.63l.11.13.11.15,5,6.77c5,6.5,21.57,29.64,26.62,36.61,4.62,5.87,13.12,16.88,17.64,22.93,5.48,6.85,20.81,28.82,26.11,36.14,6.48,9.05,7.55,10.06,17,22a2.64,2.64,0,0,0,2.34,1c39-3.88,55-6,85.4-9.46a3.68,3.68,0,0,0,2.54-5.87c-3.4-4.53-7.91-10.44-10.76-14.1a7,7,0,0,0-6.52-2.64c-.82.11-1.64.25-2.47.35-19.74,2.37-49.15,5.94-51.28,6-4.91,0-9.12-1.15-12.15-4.81l-1.34-1.43-.18-.22-7.75-10.39c-4.95-6.41-19.82-27.35-24.83-34.19-1.62-2.11-6.86-9.59-8-12.72a8.06,8.06,0,0,1,.8-7.31,10.81,10.81,0,0,1,8.59-4.5l9.68-.86c7.42-.54,31-3.89,38.8-4.83"/><path class="cls-1" d="M421.28,307.44a16.5,16.5,0,0,1,2,15.69l-35,79.59a16.78,16.78,0,0,1-12.76,9.36l-86,9.49a13.59,13.59,0,0,1-1.44.08c-4.9,0-9.94-3-12.72-6.81L242,370a6.2,6.2,0,0,0-3.94-1.87l-21.8,3.35a.78.78,0,0,0-.54,1.19c12.46,19.81,21,29.39,29.19,40.31l22,30.31a8.1,8.1,0,0,0,5.95,3.5c9.66,0,9.31-1.4,23.95-2.92,30.38-3.41,38.13-4,59.16-6,8.13-.62,33-3.89,41.38-4.87a5.8,5.8,0,0,0,3.48-2.62l99-225a5.87,5.87,0,0,0-.44-4.35c-16.06-21.64-34.67-47.43-53-71.53a.7.7,0,0,0-1.2.14l-9,20.43a5.49,5.49,0,0,0,.47,4.18l28.18,35.48c7.7,9.81,5.92,30,3.22,35l-24.25,51.09c-2.94,7-11.41,7.85-15.72,1.73L340.87,158.8a16.72,16.72,0,0,1-1.72-15.72l10.5-23.88A8,8,0,0,0,350,117a9.15,9.15,0,0,0-1.56-5.74c-.55-.8-1.2-1.71-1.9-2.64L334.25,92.21C328.6,84.88,327.64,83,321,74.42A6.14,6.14,0,0,0,316.46,72a18.2,18.2,0,0,0-2.48,0c-.06,0-6.3.61-12.14,1.34-12.46,1.54-31.92,4.18-32.12,4.21a5.94,5.94,0,0,0-3.54,2.67L254,108.07c-2,4.56-7.67,8.82-12.61,9.47L222.79,120a6.3,6.3,0,0,0-3.64,2.63l-8.52,20.65a1,1,0,0,0,1.05,1.39c13-1.54,29-3.4,33.7-3.33a60.24,60.24,0,0,1,9.26.67c2.44.42,4.9,2.36,7.3,5.78,5.55,7.93,11.46,17.36,11.46,17.36,3.51,4.13,10,3.28,12,3,.13,0,14-2.72,14.16-2.72a80.35,80.35,0,0,1,8.45-.39c1.57,0,3,0,4.2.11,3.21.22,8,2.68,12.74,10.4"/><path class="cls-1" d="M103.75,27.14a5.15,5.15,0,0,0-3.27,2.32L64.2,111.94a.47.47,0,0,0,.46.66l22.41-1.8a6.06,6.06,0,0,0,3.44-2.64l22.34-50.79A16.76,16.76,0,0,1,125.61,48L193,40.66c.45,0,.88-.07,1.29-.07,6.88-.09,11,6.59,8.06,12.83L142.89,188.66A16.81,16.81,0,0,1,130.17,198l-27.65,3.19a4.76,4.76,0,0,0-3.44,2.55l-19.36,44a5.73,5.73,0,0,0,.45,4.31l6,8.37c4.25,5.8,11.76,16,16,21.94,1.5,2.05,4.33,5.91,6.77,7.85l.5.29a8.85,8.85,0,0,0,4.69,1.15,214.75,214.75,0,0,0,26.3-2.26c5-.72,12.59-3.92,14.88-.73l15.63,20.52a3.37,3.37,0,0,0,3,1.52,144.79,144.79,0,0,0,20.33-2.91,1,1,0,0,0,.62-1.55l-20.05-27.55c-2.95-4.05-3.71-11.13-1.69-15.72l9.76-22.18a6,6,0,0,0-.43-4.42c-.11-.37-15.89-22.29-16.41-22.73a16.55,16.55,0,0,1-1.83-15.74L232.07,43.71c2.12-4.84,7-8.4,11.81-8.65l1.79-.34c23.79-4,33.23-3.71,47-5.64,9.19-.59,33.93-3.09,43-2.69.8,0,7.37.87,12.71,8.64,3.4,4.95,6.73,9.42,11.4,15.9,9.86,13.61,11.54,15.18,18.76,24.53l18.34,26.45a16.52,16.52,0,0,1,1.78,15.63L376.4,168c-.45,1-.46,3.71.35,4.37l13.31,16.85a1,1,0,0,0,1.61-.21l35.85-81.48a5.61,5.61,0,0,0-.43-4.19l-3.68-4.77C418.82,92.19,403.73,72,398.69,65.4c-4.25-6-16.77-23.15-21.33-29.36-4.28-6.55-20.27-27.89-25.11-34.57A5,5,0,0,0,348.64,0c-.51.08-12.62,2-21.7,2.93"/></svg>