<?xml version="1.0" encoding="utf-8"?>
<!-- Generator: Adobe Illustrator 25.4.1, SVG Export Plug-In . SVG Version: 6.00 Build 0)  -->
<svg version="1.1" id="Layer_1" xmlns="http://www.w3.org/2000/svg" xmlns:xlink="http://www.w3.org/1999/xlink" x="0px" y="0px"
	 viewBox="0 0 500 500" style="enable-background:new 0 0 500 500;" xml:space="preserve">
<style type="text/css">
	.st0{fill:#FFFFFF;}
	.st1{fill:#373A36;}
</style>
<g>
	<path class="st0" d="M143.7108765,464.4741821c-0.747818,0-1.4567871-0.3625793-1.8938293-0.9776611L3.3545864,267.4133911
		c-0.47912-0.6798401-0.5600526-1.5603943-0.2136617-2.3114319L103.4259415,46.9404449
		c0.3463898-0.7542915,1.068306-1.2657852,1.8938141-1.3402405l238.7409973-22.0816097
		c0.8222656-0.126255,1.6251221,0.2881184,2.1074829,0.9711895l138.4624634,196.079895
		c0.479126,0.6798401,0.5600586,1.560379,0.2136536,2.3114319L384.5625916,441.0490723
		c-0.3463745,0.7510681-1.0682983,1.2625732-1.8938293,1.3402405L143.92453,464.4677124
		C143.8533173,464.4741821,143.7820892,464.4741821,143.7108765,464.4741821z M7.9159389,265.8270874l136.9150391,193.8947449
		l236.0767059-21.8323364l99.1616821-215.7335358L343.1543274,28.2612362L107.0808487,50.0935707L7.9159389,265.8270874z
		 M382.4551086,440.0779114h0.0582886H382.4551086z"/>
	<path class="st0" d="M142.878891,463.9756165l-38.3199005-199.5081787l-0.1877594-218.1097107l186.6981964,54.9531288
		l193.5968933,120.4371872L340.8817444,349.5565796L142.878891,463.9756165z M106.69561,49.4590607l0.1618652,214.7882538
		l37.6853867,196.0895996l194.9889069-112.6514893l141.2756958-125.6136475l-190.82901-118.7084656L106.69561,49.4590607z"/>
	<g>
		<ellipse class="st0" cx="294.1344604" cy="103.5039368" rx="6.9527035" ry="6.9649897"/>
		<path class="st0" d="M294.1351624,117.8502197c-7.9022522,0-14.3347473-6.4357529-14.3347473-14.3477097
			c0-7.9087143,6.4324951-14.3444672,14.3347473-14.3444672c7.9022217,0,14.3315125,6.4357529,14.3315125,14.3444672
			C308.4666748,111.4144669,302.037384,117.8502197,294.1351624,117.8502197z M294.1351624,103.0881348l-0.4305725,0.4143753
			c0,0.2298508,0.1942444,0.4176102,0.4305725,0.4176102V103.0881348z"/>
	</g>
	<g>
		<ellipse class="st0" cx="340.5491943" cy="348.2731323" rx="6.9527035" ry="6.9649897"/>
		<path class="st0" d="M340.5483093,362.6223145c-7.9022522,0-14.331543-6.4357605-14.331543-14.3477173
			s6.4292908-14.3476868,14.331543-14.3476868c7.9022217,0,14.3347473,6.43573,14.3347473,14.3476868
			S348.450531,362.6223145,340.5483093,362.6223145z M340.5483093,347.8602295l-0.4273376,0.4143677
			c0,0.2266235,0.1910095,0.4143677,0.4273376,0.4143677V347.8602295z"/>
	</g>
	<g>
		<ellipse class="st0" cx="145.4117889" cy="462.1568604" rx="6.9527035" ry="6.9649897"/>
		<path class="st0" d="M145.4104614,476.5039673c-7.9022522,0-14.3315277-6.43573-14.3315277-14.3476868
			s6.4292755-14.3477173,14.3315277-14.3477173c7.9022369,0,14.3347473,6.4357605,14.3347473,14.3477173
			S153.3126984,476.5039673,145.4104614,476.5039673z M145.4104614,461.7418823l-0.4273376,0.4143982
			c0,0.226593,0.1910095,0.4143677,0.4273376,0.4143677V461.7418823z"/>
	</g>
	<g>
		<ellipse class="st0" cx="105.5319366" cy="266.5688171" rx="6.9527035" ry="6.9649897"/>
		<path class="st0" d="M105.5334167,280.9129028c-7.9022446,0-14.3347549-6.43573-14.3347549-14.341217
			c0-7.9119568,6.4325104-14.347702,14.3347549-14.347702s14.3315201,6.4357452,14.3315201,14.347702
			C119.8649368,274.4771729,113.4356613,280.9129028,105.5334167,280.9129028z M105.5334167,266.1508179l-0.4305573,0.4208679
			c0,0.226593,0.1974716,0.4143677,0.4305573,0.4143677V266.1508179z"/>
	</g>
	<g>
		<ellipse class="st0" cx="482.7369995" cy="222.2576904" rx="6.9527035" ry="6.9649897"/>
		<path class="st0" d="M482.7368774,236.6007843c-7.9022217,0-14.3347473-6.4357605-14.3347473-14.3412323
			c0-7.9119568,6.4325256-14.347702,14.3347473-14.347702c7.9022522,0,14.3347778,6.4357452,14.3347778,14.347702
			C497.0716553,230.1650238,490.6391296,236.6007843,482.7368774,236.6007843z M482.7368774,221.8386993l-0.4273071,0.4208527
			c0,0.2266083,0.1910095,0.4143677,0.4273071,0.4143677V221.8386993z"/>
	</g>
	<g>
		<ellipse class="st0" cx="105.5319366" cy="47.909317" rx="6.9527035" ry="6.9649897"/>
		<path class="st0" d="M105.5334167,62.2560997c-7.9022446,0-14.3347549-6.4357491-14.3347549-14.347702
			c0-7.9087219,6.4325104-14.3444672,14.3347549-14.3444672s14.3315201,6.4357452,14.3315201,14.3444672
			C119.8649368,55.8203506,113.4356613,62.2560997,105.5334167,62.2560997z M105.5334167,47.4940224l-0.4305573,0.4143753
			c0,0.229847,0.1942368,0.4176102,0.4305573,0.4176102V47.4940224z"/>
	</g>
	<path class="st0" d="M382.4551086,442.395813c-0.2589722,0-0.5212097-0.0388489-0.7737122-0.1295166l-182.0332489-64.2603455
		L4.112114,268.0932007c-0.6474595-0.3625793-1.0844946-1.01651-1.1686645-1.7546082
		c-0.0841696-0.7380981,0.1910005-1.4761963,0.7381039-1.974762l147.1157684-134.8075409L343.1575623,23.7937641
		c0.634491-0.356102,1.3952637-0.382,2.068634-0.0841694c0.6636353,0.3010693,1.149231,0.8934937,1.3110962,1.6024628
		l43.0981445,189.466095l-4.8624268,225.3515472c-0.0161743,0.7445679-0.3884583,1.4308777-1.0003052,1.8582153
		C383.3809814,442.2598267,382.9212952,442.395813,382.4551086,442.395813z M9.1752481,265.6199036l192.3829041,108.1775513
		l178.647049,63.0301819l4.8494568-221.5865479l-42.3600464-185.901825l-189.2135773,103.959343L9.1752481,265.6199036z"/>
	<path class="st0" d="M341.3058167,349.1486816l-0.9485168-0.3237305l-235.9634094-82.0331421l0.7607651-0.6604004
		l189.3624878-163.7263489L341.3058167,349.1486816z M106.6729507,266.351532l233.1178284,81.0490112l-46.0376282-242.8005981
		L106.6729507,266.351532z"/>
	<path class="st0" d="M198.913269,380.168457l-49.6115875-252.4606628l242.6095734,86.7434006L198.913269,380.168457z
		 M155.426651,134.8233643l46.5037842,236.6432495l180.9034576-155.3320312L155.426651,134.8233643z"/>
	
		<rect x="126.6282425" y="41.7812881" transform="matrix(0.8718331 -0.489803 0.489803 0.8718331 -27.353014 74.6415939)" class="st0" width="4.6410975" height="95.6113968"/>
	<polygon class="st0" points="147.3657837,463.4058533 143.4551239,460.9066772 198.4665222,374.5679321 202.377182,377.0671387 	
		"/>
	
		<rect x="432.7363586" y="170.9661255" transform="matrix(0.072859 -0.9973422 0.9973422 0.072859 185.1631165 636.7341309)" class="st0" width="4.6367197" height="95.6185684"/>
</g>
</svg>
