<?xml version="1.0" encoding="utf-8"?>
<!-- Generator: Adobe Illustrator 25.4.1, SVG Export Plug-In . SVG Version: 6.00 Build 0)  -->
<svg version="1.1" id="Layer_1" xmlns="http://www.w3.org/2000/svg" xmlns:xlink="http://www.w3.org/1999/xlink" x="0px" y="0px"
	 viewBox="0 0 1000 760" style="enable-background:new 0 0 1000 760;" xml:space="preserve">
<style type="text/css">
	.st0{fill:#FFFFFF;}
	.st1{fill:#373A36;}
</style>
<g>
	<g>
		<path class="st0" d="M402.7041626,406.8659363c-0.6845398,0-1.3335266-0.3319092-1.7335815-0.8949585L274.2236328,226.4787445
			c-0.4385986-0.6223145-0.5126648-1.4283447-0.1955872-2.11586l91.7997437-199.7025299
			c0.3170776-0.6904697,0.9779053-1.1586838,1.7335815-1.226841l218.540741-20.2132511
			c0.7527466-0.115572,1.4876709,0.2637413,1.9291992,0.8890154l126.7469482,179.4892731
			c0.4385986,0.6223145,0.5126343,1.42836,0.1955566,2.11586L623.177063,385.4228821
			c-0.3170776,0.6875-0.9779053,1.1557312-1.7335815,1.2268372l-218.5437317,20.2102966
			C402.8345337,406.8659363,402.7693481,406.8659363,402.7041626,406.8659363z M278.3990173,225.0266876L403.7294922,402.515686
			l216.1019287-19.9850769l90.7714233-197.4799957L585.2723999,7.5616212l-216.098938,19.9850712L278.3990173,225.0266876z
			 M621.2478638,384.5338745h0.0533447H621.2478638z"/>
		<path class="st0" d="M401.9425659,406.4095764l-35.0776062-182.6275177l-0.171875-199.6551208l170.9013977,50.3034668
			l177.2163696,110.2468185L583.1920776,301.6716919L401.9425659,406.4095764z M368.8208008,26.965868l0.1481628,196.6146851
			l34.4967651,179.4981842l178.4906311-103.119873l129.3221436-114.9852905L536.5958252,76.3091965L368.8208008,26.965868z"/>
		<g>
			<ellipse class="st0" cx="540.4002075" cy="76.4379196" rx="6.3644252" ry="6.3756714"/>
			<path class="st0" d="M540.4008179,89.570343c-7.2336426,0-13.1218872-5.8912048-13.1218872-13.1337204
				c0-7.2395477,5.8882446-13.1307602,13.1218872-13.1307602s13.1188965,5.8912125,13.1188965,13.1307602
				C553.5197144,83.6791382,547.6344604,89.570343,540.4008179,89.570343z M540.4008179,76.057312l-0.394104,0.3793106
				c0,0.2104034,0.1777954,0.3822784,0.394104,0.3822784V76.057312z"/>
		</g>
		<g>
			<ellipse class="st0" cx="582.8876953" cy="300.4968262" rx="6.3644252" ry="6.3756714"/>
			<path class="st0" d="M582.8868408,313.631897c-7.2335815,0-13.1188965-5.8912048-13.1188965-13.133728
				c0-7.2424927,5.8853149-13.1336975,13.1188965-13.1336975c7.2336426,0,13.1218872,5.8912048,13.1218872,13.1336975
				C596.008728,307.7406921,590.1204834,313.631897,582.8868408,313.631897z M582.8868408,300.118866l-0.3911133,0.379303
				c0,0.2074585,0.1748047,0.3793335,0.3911133,0.3793335V300.118866z"/>
		</g>
		<g>
			<ellipse class="st0" cx="404.2611389" cy="404.7446899" rx="6.3644252" ry="6.3756714"/>
			<path class="st0" d="M404.2599182,417.8778687c-7.2336121,0-13.1188965-5.8912048-13.1188965-13.133728
				c0-7.2424927,5.8852844-13.133728,13.1188965-13.133728c7.2336426,0,13.1218872,5.8912354,13.1218872,13.133728
				C417.3818054,411.9866638,411.4935608,417.8778687,404.2599182,417.8778687z M404.2599182,404.3648376l-0.3911438,0.379303
				c0,0.2074585,0.1748352,0.3793335,0.3911438,0.3793335V404.3648376z"/>
		</g>
		<g>
			<ellipse class="st0" cx="367.7555847" cy="225.7056427" rx="6.3644252" ry="6.3756714"/>
			<path class="st0" d="M367.756958,238.8360596c-7.2336426,0-13.1218872-5.8912048-13.1218872-13.1277924
				c0-7.2425079,5.8882446-13.133728,13.1218872-13.133728c7.2336121,0,13.1188965,5.8912201,13.1188965,13.133728
				C380.8758545,232.9448547,374.9905701,238.8360596,367.756958,238.8360596z M367.756958,225.3230286l-0.3941345,0.3852386
				c0,0.207428,0.1807556,0.3793182,0.3941345,0.3793182V225.3230286z"/>
		</g>
		<g>
			<ellipse class="st0" cx="713.0447998" cy="185.1437531" rx="6.3644252" ry="6.3756714"/>
			<path class="st0" d="M713.0446777,198.2732391c-7.2336426,0-13.1218872-5.8912048-13.1218872-13.1277924
				c0-7.2425079,5.8882446-13.133728,13.1218872-13.133728s13.1218872,5.8912201,13.1218872,13.133728
				C726.1665649,192.3820343,720.2783203,198.2732391,713.0446777,198.2732391z M713.0446777,184.7602081l-0.3911743,0.3852386
				c0,0.2074432,0.1748657,0.3793182,0.3911743,0.3793182V184.7602081z"/>
		</g>
		<g>
			<ellipse class="st0" cx="367.7555847" cy="25.5472488" rx="6.3644252" ry="6.3756714"/>
			<path class="st0" d="M367.756958,38.68013c-7.2336426,0-13.1218872-5.8912086-13.1218872-13.1337242
				c0-7.2395496,5.8882446-13.1307592,13.1218872-13.1307592c7.2336121,0,13.1188965,5.8912096,13.1188965,13.1307592
				C380.8758545,32.7889214,374.9905701,38.68013,367.756958,38.68013z M367.756958,25.1670933l-0.3941345,0.3793125
				c0,0.2104015,0.1777954,0.3822765,0.3941345,0.3822765V25.1670933z"/>
		</g>
		<path class="st0" d="M621.2478638,386.6556396c-0.2370605,0-0.4770508-0.035553-0.7081909-0.1185303l-166.6311951-58.8231812
			L274.9170532,227.101059c-0.5926819-0.3318939-0.9927368-0.9305115-1.0697937-1.6061554
			c-0.0770264-0.6756592,0.1748657-1.3513031,0.6756592-1.807663l134.6680908-123.4012909l176.0843201-96.813797
			c0.5808716-0.3259726,1.2772217-0.3496795,1.8936157-0.0770481c0.6074829,0.2755947,1.052002,0.8178945,1.2001953,1.4668756
			l39.4515381,173.4350739l-4.4509888,206.2842102c-0.0148315,0.6815796-0.3555908,1.3098145-0.9157104,1.7009888
			C622.0953979,386.531189,621.6746216,386.6556396,621.2478638,386.6556396z M279.5517883,224.8370361l176.1051025,99.0244751
			l163.5314636,57.697113l4.4391479-202.8377991L584.8516235,8.5484285L411.647644,103.7116165L279.5517883,224.8370361z"/>
		<path class="st0" d="M583.5803223,301.2983093l-0.8682861-0.2963562l-215.9981995-75.0921783l0.6964111-0.6045227
			L540.7504883,75.4320374L583.5803223,301.2983093z M368.8000488,225.5067596l213.3933716,74.1912994L540.0511475,77.4412079
			L368.8000488,225.5067596z"/>
		<path class="st0" d="M453.2358093,329.6934509L407.8219299,98.5938568l222.0820007,79.4039001L453.2358093,329.6934509z
			 M413.4286499,105.1073761l42.5690308,216.6204987l165.5969238-142.1891479L413.4286499,105.1073761z"/>
		
			<rect x="387.066925" y="19.9377232" transform="matrix(0.8718331 -0.489803 0.489803 0.8718331 18.6816864 198.7910309)" class="st0" width="4.2484074" height="87.5215759"/>
		<polygon class="st0" points="406.0498047,405.888031 402.4700317,403.6002808 452.8268433,324.566803 456.4066162,326.8545227 		
			"/>
		
			<rect x="667.2747803" y="138.1920319" transform="matrix(0.072859 -0.9973422 0.9973422 0.072859 439.1528625 836.3168335)" class="st0" width="4.2444" height="87.5281372"/>
	</g>
	<g>
		<g>
			<g>
				<path class="st0" d="M6.1135507,654.3209839h59.849865v8.4693604H15.4296684v35.5710449h47.0050163v8.4693604H15.4296684
					v47.4273071H6.1135507V654.3209839z"/>
				<path class="st0" d="M86.8681641,704.2905884c0-7.6226807,1.2700882-14.6311035,3.8102646-21.0337524
					c2.5412445-6.3984375,6.0699768-11.9266968,10.5872726-16.5847778c4.5162277-4.65802,9.9506302-8.3051147,16.3032074-10.9391479
					c6.3515091-2.6340332,13.3385925-3.9520874,20.9612579-3.9520874c7.6215973,0,14.6086884,1.3180542,20.9623413,3.9520874
					c6.3515015,2.6340332,11.7859039,6.2811279,16.3031921,10.9391479
					c4.5173035,4.6580811,8.0449677,10.1863403,10.585144,16.5847778
					c2.5423126,6.4026489,3.8113403,13.4110718,3.8113403,21.0337524s-1.2690277,14.6566772-3.8113403,21.1020508
					c-2.5401764,6.4453125-6.0678406,11.9970703-10.585144,16.6572266
					c-4.5172882,4.6580811-9.9516907,8.2796021-16.3031921,10.8688354
					c-6.353653,2.5849609-13.340744,3.8817139-20.9623413,3.8817139c-7.6226654,0-14.6097488-1.2967529-20.9612579-3.8817139
					c-6.3525772-2.5892334-11.7869797-6.2107544-16.3032074-10.8688354
					c-4.5172958-4.6601562-8.0460281-10.2119141-10.5872726-16.6572266
					C88.1382523,718.9472656,86.8681641,711.913269,86.8681641,704.2905884z M96.1842804,704.2905884
					c0,6.2107544,0.9874954,11.9970703,2.9635391,17.361084c1.9760513,5.3640137,4.7998886,10.0220947,8.4693909,13.9741821
					c3.6705704,3.9520874,8.1164169,7.0574951,13.3386002,9.3161011c5.2232513,2.258667,11.0810242,3.3869019,17.5743561,3.3869019
					c6.4933472,0,12.3511047-1.1282349,17.5733032-3.3869019c5.2232513-2.258606,9.670166-5.3640137,13.3407288-9.3161011
					c3.6684265-3.9520874,6.4922791-8.6101685,8.4672546-13.9741821c1.9771118-5.3640137,2.9646149-11.1503296,2.9646149-17.361084
					s-0.9875031-11.9992065-2.9646149-17.3632202c-1.9749756-5.3640137-4.7988281-10.0220337-8.4672546-13.9741821
					c-3.6705627-3.9520874-8.1174774-7.0574341-13.3407288-9.3161011
					c-5.2221985-2.258667-11.0799561-3.3869019-17.5733032-3.3869019c-6.4933319,0-12.3511047,1.1282349-17.5743561,3.3869019
					c-5.2221832,2.258667-9.6680298,5.3640137-13.3386002,9.3161011c-3.6695023,3.9521484-6.4933395,8.6101685-8.4693909,13.9741821
					C97.1717758,692.2913818,96.1842804,698.079834,96.1842804,704.2905884z"/>
				<path class="st0" d="M291.3151245,716.0039673c0,5.3661499-0.6142273,10.4956055-1.834198,15.3861084
					c-1.2242432,4.8948364-3.2717285,9.2244263-6.1403809,12.9888306
					c-2.8728943,3.7622681-6.6351624,6.7738037-11.2932129,9.0324707
					c-4.6580811,2.258606-10.3739929,3.3890381-17.1499481,3.3890381c-6.7759399,0-12.4918671-1.1304321-17.1499176-3.3890381
					c-4.6580658-2.258667-8.4224701-5.2702026-11.2932434-9.0324707c-2.8707581-3.7644043-4.9182587-8.0939941-6.1403656-12.9888306
					c-1.2242279-4.8905029-1.8342133-10.0199585-1.8342133-15.3861084v-61.6829834h9.3161163v59.2857056
					c0,3.5767212,0.3284607,7.3880615,0.9875031,11.4318848c0.6568909,4.0480957,1.9536438,7.8125,3.8817139,11.2932129
					c1.9280548,3.4829102,4.6580505,6.3515625,8.187851,8.6101685c3.5276794,2.258667,8.209198,3.3869019,14.0445557,3.3869019
					c5.8332367,0,10.5168915-1.1282349,14.0445709-3.3869019c3.5297852-2.258606,6.2576599-5.1272583,8.1878662-8.6101685
					c1.9259033-3.4807129,3.22052-7.2451172,3.8817139-11.2932129c0.6568909-4.0438232,0.9874878-7.8551636,0.9874878-11.4318848
					v-59.2857056h9.3161011V716.0039673z"/>
				<path class="st0" d="M325.9391785,654.3209839h11.9970703l60.8384094,87.515625h0.2815552v-87.515625h9.3161011v99.9370728
					h-11.999176l-60.8363037-87.515564h-0.2836609v87.515564h-9.3139954V654.3209839z"/>
				<path class="st0" d="M443.5892944,654.3209839h30.9129639c8.657074,0,15.9960632,1.0599976,22.0191345,3.1757202
					c6.0209045,2.1179199,11.03302,4.8244629,15.0341797,8.1174927c3.9968567,3.2930908,7.1492004,6.9401855,9.4568787,10.939209
					c2.3034058,3.9990234,3.9990234,7.8338013,5.0803833,11.5022583c1.0812988,3.6726685,1.7659302,6.9870605,2.0474854,9.9516602
					c0.2814941,2.9645996,0.4244385,5.059021,0.4244385,6.2832642s-0.1429443,3.3165283-0.4244385,6.2789917
					c-0.2815552,2.9645996-0.9661865,6.2832642-2.0474854,9.9517212c-1.0813599,3.6705322-2.7769775,7.5075073-5.0803833,11.5043945
					c-2.3076782,4.0010986-5.460022,7.6482544-9.4568787,10.9412842c-4.0011597,3.2930908-9.0132751,5.9974976-15.0341797,8.1153564
					c-6.0230713,2.1178589-13.3620605,3.1757202-22.0191345,3.1757202h-30.9129639V654.3209839z M452.9053955,745.7886963
					h19.1974487c6.5861206,0,12.749939-0.821106,18.4914551-2.4697876
					c5.7372742-1.6444092,10.7259216-4.1654053,14.9616699-7.5523071
					c4.2336426-3.3869019,7.5736084-7.6930542,10.0220947-12.9162598
					c2.4462891-5.2211304,3.6705322-11.4084473,3.6705322-18.5597534s-1.2242432-13.338562-3.6705322-18.5639648
					c-2.4484863-5.2211304-5.7884521-9.5251465-10.0220947-12.9141846
					c-4.2357483-3.3890381-9.2243958-5.9057617-14.9616699-7.5523071
					c-5.7415161-1.6443481-11.9053345-2.4697876-18.4914551-2.4697876h-19.1974487V745.7886963z"/>
				<path class="st0" d="M584.6448364,654.3209839h9.5997925l42.0632935,99.9370728h-10.4464722l-10.8688354-26.536377h-52.9320679
					l-11.2932739,26.536377h-9.7384033L584.6448364,654.3209839z M589.0213623,664.4838257l-23.2902832,54.7684326h45.8746338
					L589.0213623,664.4838257z"/>
				<path class="st0" d="M670.2111206,662.7903442H636.052002v-8.4693604h77.6342773v8.4693604h-34.1590576v91.4677124h-9.3161011
					V662.7903442z"/>
				<path class="st0" d="M737.9939575,654.3209839h9.3161011v99.9370728h-9.3161011V654.3209839z"/>
				<path class="st0" d="M777.2312622,704.2905884c0-7.6226807,1.2711792-14.6311035,3.8113403-21.0337524
					c2.5401611-6.3984375,6.0700073-11.9266968,10.5872803-16.5847778c4.5172729-4.65802,9.9516602-8.3051147,16.3032227-10.9391479
					c6.3515015-2.6340332,13.338562-3.9520874,20.9612427-3.9520874s14.6097412,1.3180542,20.9612427,3.9520874
					s11.7859497,6.2811279,16.3032227,10.9391479c4.5172729,4.6580811,8.0449829,10.1863403,10.5872803,16.5847778
					c2.5401611,6.4026489,3.8113403,13.4110718,3.8113403,21.0337524s-1.2711792,14.6566772-3.8113403,21.1020508
					c-2.5422974,6.4453125-6.0700073,11.9970703-10.5872803,16.6572266
					c-4.5172729,4.6580811-9.9517212,8.2796021-16.3032227,10.8688354
					c-6.3515015,2.5849609-13.338562,3.8817139-20.9612427,3.8817139s-14.6097412-1.2967529-20.9612427-3.8817139
					c-6.3515625-2.5892334-11.7859497-6.2107544-16.3032227-10.8688354
					c-4.5172729-4.6601562-8.0471191-10.2119141-10.5872803-16.6572266
					C778.5024414,718.9472656,777.2312622,711.913269,777.2312622,704.2905884z M786.5473633,704.2905884
					c0,6.2107544,0.989624,11.9970703,2.9646606,17.361084c1.9771118,5.3640137,4.7987671,10.0220947,8.4693604,13.9741821
					s8.1174927,7.0574951,13.338623,9.3161011c5.2232056,2.258667,11.0820312,3.3869019,17.5743408,3.3869019
					c6.4922485,0,12.3510742-1.1282349,17.5743408-3.3869019c5.2211304-2.258606,9.6680298-5.3640137,13.338623-9.3161011
					c3.668396-3.9520874,6.4922485-8.6101685,8.4693604-13.9741821c1.9749756-5.3640137,2.9645996-11.1503296,2.9645996-17.361084
					s-0.989624-11.9992065-2.9645996-17.3632202c-1.9771118-5.3640137-4.8009644-10.0220337-8.4693604-13.9741821
					c-3.6705933-3.9520874-8.1174927-7.0574341-13.338623-9.3161011c-5.2232666-2.258667-11.0820923-3.3869019-17.5743408-3.3869019
					c-6.4923096,0-12.3511353,1.1282349-17.5743408,3.3869019c-5.2211304,2.258667-9.6680298,5.3640137-13.338623,9.3161011
					c-3.6705933,3.9521484-6.4922485,8.6101685-8.4693604,13.9741821
					C787.5369873,692.2913818,786.5473633,698.079834,786.5473633,704.2905884z"/>
				<path class="st0" d="M910.3399658,654.3209839h11.9970703l60.8384399,87.515625h0.2815552v-87.515625h9.3161011v99.9370728
					h-11.9992065l-60.8363037-87.515564h-0.2814941v87.515564h-9.3161621V654.3209839z"/>
			</g>
		</g>
		<g>
			<path class="st0" d="M4.7677474,532.6676025h22.0202045v37.2644653h42.7692528v-37.2644653h22.0202026v99.9370728H69.5572052
				V589.413147H26.7879524v43.1915283H4.7677474V532.6676025z"/>
			<path class="st0" d="M133.6407013,589.9761963l-37.5470657-57.3085938h27.3831558l21.1734772,37.4052124l22.443573-37.4052124
				h26.1141357l-37.5481415,57.3085938v42.628479h-22.0191345V589.9761963z"/>
			<path class="st0" d="M197.7231293,532.6676025h37.123703c5.1742096,0,10.0668793,0.4734497,14.6801453,1.4119263
				c4.6089935,0.942688,8.6314697,2.5635986,12.0674438,4.8692017c3.4338074,2.3076782,6.1616821,5.4130249,8.1878662,9.3161011
				c2.0218811,3.9051514,3.0349731,8.8234253,3.0349731,14.7526245c0,5.8353882-0.942688,10.7259521-2.823822,14.6780396
				c-1.8832703,3.9542236-4.4703979,7.1065063-7.7634583,9.4568481c-3.295166,2.3546143-7.1982269,4.022522-11.7155151,5.012146
				c-4.5172882,0.9874878-9.4120941,1.4822998-14.68013,1.4822998h-16.0920563v38.9578857h-22.0191498V532.6676025z
				 M219.7422791,575.0123901h14.68013c1.9771118,0,3.8817139-0.1855469,5.7180634-0.5630493
				c1.8342133-0.3753662,3.4786224-1.0109253,4.9395905-1.9067383c1.4567108-0.8914795,2.6340179-2.1157227,3.5276642-3.668396
				c0.8936462-1.5527344,1.3415375-3.5063477,1.3415375-5.8567505c0-2.5422974-0.5886536-4.5897827-1.7638245-6.1424561
				c-1.1773224-1.5526733-2.683075-2.7513428-4.5173035-3.6002197c-1.8342133-0.8446045-3.8817139-1.3862915-6.1403503-1.6209106
				c-2.2586517-0.2346191-4.4234619-0.3540649-6.4922791-0.3540649h-11.2932281V575.0123901z"/>
			<path class="st0" d="M284.6714172,532.6676025h67.8959045v20.3256836H306.692688v18.6322021h43.3323364v20.3256836H306.692688
				v20.3278198h48.4148254v20.3256836h-70.4360962V532.6676025z"/>
			<path class="st0" d="M369.9262695,532.6676025h38.6763916c5.082489,0,9.9026489,0.494812,14.4689941,1.4822998
				c4.5620728,0.9874878,8.5610962,2.6361084,11.9970398,4.9417114c3.4338379,2.305542,6.1617126,5.4109497,8.1878662,9.3161011
				c2.0219116,3.9052124,3.0350037,8.7744141,3.0350037,14.6097412c0,7.0553589-1.8363647,13.0549316-5.5069275,17.9967041
				c-3.6684265,4.9395752-9.0324402,8.0684204-16.0899048,9.3843384l25.4060364,42.2061768h-26.3956604l-20.8887634-39.9453735
				h-10.8688049v39.9453735h-22.0212708V532.6676025z M391.9475403,574.0270386h12.9845581
				c1.9771118,0,4.069397-0.0725098,6.2811279-0.2132568c2.211731-0.1408081,4.2101746-0.5630493,5.9996033-1.2711792
				c1.7872925-0.7037964,3.2695923-1.8085938,4.4468994-3.3143921c1.1751709-1.5057373,1.7638245-3.621521,1.7638245-6.3536377
				c0-2.5401611-0.5182495-4.5620728-1.5526733-6.0678101c-1.0365601-1.5057983-2.352478-2.659668-3.9520874-3.4594727
				c-1.6017456-0.7976685-3.4359741-1.3414917-5.5047913-1.6251831c-2.0709534-0.2815552-4.092865-0.4223022-6.0699768-0.4223022
				h-14.3964844V574.0270386z"/>
			<path class="st0" d="M459.4190063,532.6676025h22.0212708v79.6113892h40.7921448v20.3256836h-62.8134155V532.6676025z"/>
			<path class="st0" d="M532.3931274,532.6676025h67.895874v20.3256836h-45.8745728v18.6322021h43.3322754v20.3256836h-43.3322754
				v20.3278198h48.4147949v20.3256836h-70.4360962V532.6676025z"/>
			<path class="st0" d="M617.6479492,532.6676025h33.0308838c7.9959106,0,15.597229,0.895752,22.7954712,2.6830444
				s13.4793701,4.6815186,18.8433838,8.680542c5.3640137,4.0011597,9.6210938,9.1987915,12.7755127,15.597229
				c3.1522827,6.4005737,4.7284546,14.1640015,4.7284546,23.2903442c0,8.0939941-1.5313721,15.2218628-4.5877075,21.3856812
				c-3.0584106,6.1638184-7.1768799,11.3401489-12.3510742,15.5268555
				c-5.1763306,4.1888428-11.1503296,7.3624268-17.9262695,9.5272827
				c-6.7759399,2.1647949-13.8824463,3.2460938-21.3131714,3.2460938h-35.9954834V532.6676025z M639.6692505,612.2789917h11.4318848
				c5.0824585,0,9.8109131-0.5161133,14.187439-1.5526733c4.3743896-1.0344238,8.1622314-2.753479,11.3614502-5.1528931
				s5.7180786-5.5516968,7.5523071-9.4568481c1.8342285-3.9052124,2.7513428-8.680542,2.7513428-14.3261108
				c0-4.8926392-0.9171143-9.1518555-2.7513428-12.7755127c-1.8342285-3.621521-4.3061523-6.6096191-7.411499-8.9620972
				c-3.1054077-2.352478-6.7525024-4.116333-10.939209-5.2936401s-8.5866699-1.7659302-13.1978149-1.7659302h-12.9845581
				V612.2789917z"/>
			<path class="st0" d="M812.4396973,625.5472412c-6.4943848,3.3869019-13.2681885,5.8353271-20.3256836,7.3411255
				c-7.0595703,1.5014648-14.2578125,2.2565308-21.5968018,2.2565308c-7.8125,0-15.0107422-1.2242432-21.5968628-3.668457
				c-6.5882568-2.4484863-12.2807617-5.9505615-17.0795288-10.5169067
				c-4.7988281-4.5620728-8.5397949-10.0924683-11.2229004-16.586853
				c-2.6809082-6.4922485-4.0224609-13.7374268-4.0224609-21.7376099c0-7.9959106,1.3415527-15.2432251,4.0224609-21.7376099
				c2.6831055-6.4922485,6.4240723-12.0205078,11.2229004-16.5847168c4.7987671-4.564209,10.491272-8.0662842,17.0795288-10.5147705
				c6.5861206-2.4463501,13.7843628-3.6705933,21.5968628-3.6705933c7.9958496,0,15.3604736,0.9661865,22.0894775,2.8942261
				c6.7268677,1.9281006,12.6326294,5.2467651,17.7151489,9.9517212l-15.5268555,16.9387817
				c-3.0136719-3.1053467-6.4005737-5.4578857-10.1628418-7.0596313c-3.7644043-1.5996094-8.4694214-2.3994141-14.1149292-2.3994141
				c-4.7071533,0-8.9642334,0.7998047-12.7755737,2.3994141c-3.8113403,1.6017456-7.0809326,3.8348389-9.8087769,6.7055664
				c-2.7321167,2.8707886-4.8244019,6.2811279-6.2832642,10.2332153c-1.4588623,3.9521484-2.1861572,8.2369385-2.1861572,12.843811
				c0,4.7092285,0.7272949,9.0132446,2.1861572,12.9163208c1.4588623,3.9072876,3.5511475,7.2941895,6.2832642,10.164978
				c2.7278442,2.8707275,5.9974365,5.105957,9.8087769,6.7034302c3.8113403,1.6016846,8.0684204,2.3994141,12.7755737,2.3994141
				c4.7987671,0,8.9385986-0.541748,12.4214478-1.6231079c3.4807739-1.0812988,6.2555542-2.1882324,8.3264771-3.3165283v-16.2327881
				h-17.9262695v-20.3278198h39.1008301V625.5472412z"/>
			<path class="st0" d="M829.8007812,532.6676025h67.895874v20.3256836h-45.8745728v18.6322021h43.3322754v20.3256836h-43.3322754
				v20.3278198h48.4147949v20.3256836h-70.4360962V532.6676025z"/>
			<path class="st0" d="M915.0577393,532.6676025h38.6763916c5.0825195,0,9.9026489,0.494812,14.4689941,1.4822998
				c4.5620728,0.9874878,8.5610962,2.6361084,11.9970703,4.9417114c3.4338379,2.305542,6.1616821,5.4109497,8.1878662,9.3161011
				c2.0219116,3.9052124,3.0349731,8.7744141,3.0349731,14.6097412c0,7.0553589-1.8363037,13.0549316-5.506897,17.9967041
				c-3.668457,4.9395752-9.0324707,8.0684204-16.0899048,9.3843384l25.4060059,42.2061768h-26.3956299l-20.8887939-39.9453735
				h-10.8687744v39.9453735h-22.0213013V532.6676025z M937.0790405,574.0270386h12.9845581
				c1.9771118,0,4.069397-0.0725098,6.2811279-0.2132568c2.211731-0.1408081,4.210144-0.5630493,5.9995728-1.2711792
				c1.7872925-0.7037964,3.2695923-1.8085938,4.4468994-3.3143921c1.1752319-1.5057373,1.763855-3.621521,1.763855-6.3536377
				c0-2.5401611-0.5182495-4.5620728-1.5526733-6.0678101c-1.0365601-1.5057983-2.352478-2.659668-3.9520874-3.4594727
				c-1.6017456-0.7976685-3.4359741-1.3414917-5.5048218-1.6251831c-2.0709229-0.2815552-4.0928345-0.4223022-6.0699463-0.4223022
				h-14.3964844V574.0270386z"/>
		</g>
	</g>
</g>
</svg>
