<svg id="Layer_1" data-name="Layer 1" xmlns="http://www.w3.org/2000/svg" viewBox="0 0 1000 512.99"><defs><style>.cls-1{fill:#003b45;}</style></defs><polygon class="cls-1" points="197.98 512.48 206.26 512.48 206.26 500.32 218.63 500.32 218.63 492.56 206.26 492.56 206.26 485.05 221.68 485.05 221.68 477.29 197.98 477.29 197.98 512.48"/><path class="cls-1" d="M287.24,479.13a18.94,18.94,0,0,0-18.31,0,15.58,15.58,0,0,0-6,6.47,21.86,21.86,0,0,0,0,18.57,15.58,15.58,0,0,0,6,6.47,19,19,0,0,0,18.31,0,15.56,15.56,0,0,0,5.95-6.47,21.86,21.86,0,0,0,0-18.57A15.56,15.56,0,0,0,287.24,479.13Zm-2.66,23.62a9.75,9.75,0,0,1-13,0c-1.6-1.66-2.41-4.28-2.41-7.87s.81-6.21,2.41-7.86a9.75,9.75,0,0,1,13,0c1.6,1.65,2.4,4.28,2.4,7.86S286.18,501.09,284.58,502.75Z"/><path class="cls-1" d="M353.79,497.47a12.89,12.89,0,0,1-.62,4.4,4.6,4.6,0,0,1-2.23,2.51,12.9,12.9,0,0,1-9.21,0,4.58,4.58,0,0,1-2.22-2.51,12.65,12.65,0,0,1-.62-4.4V477.29h-8.28v22.25q0,6.63,4.29,10T346.34,513q7.14,0,11.43-3.41t4.3-10V477.29h-8.28Z"/><polygon class="cls-1" points="421.84 497.37 421.01 497.37 407.35 477.29 399.07 477.29 399.07 512.48 407.35 512.48 407.35 492.4 408.18 492.4 421.84 512.48 430.12 512.48 430.12 477.29 421.84 477.29 421.84 497.37"/><path class="cls-1" d="M480.75,477.29H467.61v35.19h13.14q17.34,0,17.34-17.6T480.75,477.29Zm8.44,23.36a5,5,0,0,1-2.56,3.06,13.3,13.3,0,0,1-5.88,1h-4.86V485.05h4.86a13.38,13.38,0,0,1,5.9,1,4.85,4.85,0,0,1,2.54,3,27.48,27.48,0,0,1,0,11.61Z"/><path class="cls-1" d="M541.18,477.29l-10.4,35.19h8.9l1.6-5.69H553.7l1.6,5.69h8.9l-10.4-35.19ZM543.46,499l3.62-13h.83l3.62,13Z"/><polygon class="cls-1" points="595.12 485.05 604.38 485.05 604.38 512.48 612.66 512.48 612.66 485.05 621.92 485.05 621.92 477.29 595.12 477.29 595.12 485.05"/><rect class="cls-1" x="659.96" y="477.29" width="8.28" height="35.19"/><path class="cls-1" d="M728.81,479.13a18.94,18.94,0,0,0-18.31,0,15.58,15.58,0,0,0-6,6.47,21.86,21.86,0,0,0,0,18.57,15.58,15.58,0,0,0,6,6.47,19,19,0,0,0,18.31,0,15.56,15.56,0,0,0,6-6.47,21.86,21.86,0,0,0,0-18.57A15.56,15.56,0,0,0,728.81,479.13Zm-2.66,23.62a9.75,9.75,0,0,1-13,0c-1.6-1.66-2.41-4.28-2.41-7.87s.81-6.21,2.41-7.86a9.75,9.75,0,0,1,13,0c1.6,1.65,2.4,4.28,2.4,7.86S727.75,501.09,726.15,502.75Z"/><polygon class="cls-1" points="793.74 497.37 792.91 497.37 779.25 477.29 770.97 477.29 770.97 512.48 779.25 512.48 779.25 492.4 780.08 492.4 793.74 512.48 802.02 512.48 802.02 477.29 793.74 477.29 793.74 497.37"/><path class="cls-1" d="M613,396.47c.07-.52.09-1,.12-1.58v0H599.2l-.05.38a6.86,6.86,0,0,1-5.38,6.19,15.93,15.93,0,0,1-3.47.4q-20,0-40,0a15.64,15.64,0,0,1-3.47-.39,6.54,6.54,0,0,1-5.11-4.61,12,12,0,0,1-.48-3.07c-.05-1.54,0-3.11,0-4.62V385.9l72,.13v-5.11c0-3.92,0-7.85,0-11.78a35.28,35.28,0,0,0-.34-4.94A16.52,16.52,0,0,0,607.37,354a21.93,21.93,0,0,0-14.91-5.55c-6.35,0-12.76,0-19.14,0-7,0-14,0-20.91,0H548.1a25.61,25.61,0,0,0-4.2.4,21.9,21.9,0,0,0-7.07,2.51,18.92,18.92,0,0,0-7.4,7.31,18.15,18.15,0,0,0-2.25,9.15v11q0,7.44,0,14.89a23.09,23.09,0,0,0,.23,3.13,17.34,17.34,0,0,0,8.69,12.92,23.74,23.74,0,0,0,12.54,3.38H592a23.61,23.61,0,0,0,10.44-2.31C608.72,407.8,612.18,403.09,613,396.47Zm-71.8-29.6a6.88,6.88,0,0,1,5.76-6.78,17.17,17.17,0,0,1,3.55-.36h39.59a13.75,13.75,0,0,1,4.42.61,6.43,6.43,0,0,1,4.6,6c.12,1.7.11,3.43.09,5.1,0,.71,0,1.42,0,2.13v1h-58v-3.13C541.18,369.92,541.17,368.39,541.23,366.87Z"/><path class="cls-1" d="M918.44,364.2A16.47,16.47,0,0,0,912.92,354,21.93,21.93,0,0,0,898,348.46c-6.35,0-12.75,0-19.13,0-7,0-14,0-20.92,0h-4.31a25.71,25.71,0,0,0-4.2.4,21.9,21.9,0,0,0-7.07,2.51,19,19,0,0,0-7.4,7.31,18.15,18.15,0,0,0-2.25,9.15v11q0,7.44,0,14.89a23.09,23.09,0,0,0,.23,3.13,17.37,17.37,0,0,0,8.69,12.92,23.79,23.79,0,0,0,12.54,3.38h43.35A23.69,23.69,0,0,0,908,410.86c6.27-3.06,9.73-7.77,10.58-14.39.07-.52.09-1,.12-1.58v0h-14l0,.38a6.85,6.85,0,0,1-5.38,6.19,15.86,15.86,0,0,1-3.47.4q-20,0-40,0a15.56,15.56,0,0,1-3.46-.39,6.53,6.53,0,0,1-5.12-4.61,11.63,11.63,0,0,1-.47-3.07c-.06-1.54,0-3.11,0-4.62V385.9l72,.13v-5.11c0-3.92,0-7.85,0-11.78A35.28,35.28,0,0,0,918.44,364.2Zm-13.65,7.2c0,.71,0,1.42,0,2.13v1h-58v-3.13c0-1.49,0-3,0-4.54a6.89,6.89,0,0,1,5.76-6.78,17.19,17.19,0,0,1,3.56-.36h39.58a13.72,13.72,0,0,1,4.42.61,6.41,6.41,0,0,1,4.6,6C904.83,368,904.81,369.73,904.79,371.4Z"/><path class="cls-1" d="M399.6,364.2A16.52,16.52,0,0,0,394.08,354a21.93,21.93,0,0,0-14.91-5.55c-6.35,0-12.76,0-19.14,0-7,0-14,0-20.91,0h-4.31a25.61,25.61,0,0,0-4.2.4,21.9,21.9,0,0,0-7.07,2.51,18.92,18.92,0,0,0-7.4,7.31,18.15,18.15,0,0,0-2.25,9.15v10.9q0,7.51,0,15a23.09,23.09,0,0,0,.23,3.13,17.34,17.34,0,0,0,8.69,12.92,23.74,23.74,0,0,0,12.54,3.38h43.35a23.61,23.61,0,0,0,10.44-2.31c6.27-3.06,9.74-7.77,10.59-14.39.07-.52.09-1,.12-1.57v0h-14l0,.38a6.86,6.86,0,0,1-5.38,6.19,15.93,15.93,0,0,1-3.47.4q-20,0-40,0a15.64,15.64,0,0,1-3.47-.39,6.54,6.54,0,0,1-5.11-4.61,12,12,0,0,1-.48-3.07c-.05-1.54,0-3.11,0-4.62v-1.48c0-.2,0-.4.06-.65l.12-1H400V380.9c0-3.92,0-7.84,0-11.76A36.86,36.86,0,0,0,399.6,364.2Zm-13.68,7.28c0,.71,0,1.43,0,2.14a1,1,0,0,1-.12.45l-.19.45-.53.11H328l-.11-.81a3.93,3.93,0,0,1,0-.45c0-.63,0-1.25,0-1.88,0-1.48,0-3,0-4.53a6.88,6.88,0,0,1,5.76-6.78,17.17,17.17,0,0,1,3.55-.36q15.33,0,30.65,0h8.94a13.51,13.51,0,0,1,4.42.62,6.42,6.42,0,0,1,4.6,6C386,368.09,385.94,369.81,385.92,371.48Z"/><path class="cls-1" d="M14.07,365.53v-50H0v97.58c1.64,0,3,0,4.46,0l9.61,0V402c0-9.74,0-7.58,0-17.32Z"/><path class="cls-1" d="M997.49,358.53a18,18,0,0,0-7.13-7.39,22.06,22.06,0,0,0-10.82-2.69c-5.67-.07-10.77-.07-15.57,0a24,24,0,0,0-9.25,2,16.41,16.41,0,0,0-5,3.6l-.08.08v-5.51H935.55s.34,64.66.11,64.52h14l.19-43.73A25.72,25.72,0,0,1,950,366a6.46,6.46,0,0,1,4-5.36,11.57,11.57,0,0,1,4.74-.82c6.08,0,12.16,0,18.24,0a19.23,19.23,0,0,1,2.91.28c3.52.54,5.79,3.14,6.06,7h14A24.54,24.54,0,0,0,997.49,358.53Z"/><path class="cls-1" d="M479.49,358.53a18,18,0,0,0-7.13-7.39,22.06,22.06,0,0,0-10.82-2.69c-5.67-.07-10.77-.07-15.57,0a24,24,0,0,0-9.25,2,16.41,16.41,0,0,0-5,3.6l-.08.08v-5.51H417.55s.34,64.66.11,64.52h14l.19-43.73A25.72,25.72,0,0,1,432,366a6.44,6.44,0,0,1,4-5.36,11.55,11.55,0,0,1,4.74-.82c6.08,0,12.16,0,18.23,0a19.24,19.24,0,0,1,2.92.28c3.51.54,5.79,3.14,6.06,7h14A24.54,24.54,0,0,0,479.49,358.53Z"/><path class="cls-1" d="M276.34,413.15a19.28,19.28,0,0,0,2.26-.18l.18,0a22.61,22.61,0,0,0,10.76-4.14,17.34,17.34,0,0,0,5.92-7.32,19.36,19.36,0,0,0,1.48-7.79q0-12.46,0-24.94v-1.08a20.5,20.5,0,0,0-.47-4.85,17.51,17.51,0,0,0-6.92-10.26,23.28,23.28,0,0,0-13.89-4.38q-16.82,0-33.63,0a27.7,27.7,0,0,0-4.11.35,22.55,22.55,0,0,0-8.76,3.5c-.18.12-1.13.75-1.87,1.31v-4.83h-14v82l6.82,0,7.22,0V368.33a18.63,18.63,0,0,1,.1-2.35,6.53,6.53,0,0,1,4.44-5.74,11.47,11.47,0,0,1,3.69-.67c4.87,0,9.74,0,14.61,0h10c4.82,0,9.64,0,14.46,0a11.78,11.78,0,0,1,3.68.69,6.64,6.64,0,0,1,4.46,6.46q0,13.88,0,27.74a6.79,6.79,0,0,1-5.53,7,15.25,15.25,0,0,1-3.47.39c-9.48,0-17.24,0-25.31,0h-7.35l-10.51,11.32c10.84,0,33.41,0,44.55,0Z"/><path class="cls-1" d="M715.27,412.88V317.63l-14,.07v75.35a18.87,18.87,0,0,1-.1,2.36,6.56,6.56,0,0,1-4.44,5.74,11.78,11.78,0,0,1-3.69.66H653.9a11.72,11.72,0,0,1-3.68-.69,6.62,6.62,0,0,1-4.46-6.46q0-13.86,0-27.74a6.82,6.82,0,0,1,5.54-7,16.47,16.47,0,0,1,3.47-.39h32.66l10.51-11.32c-10.85,0-33.43,0-44.58,0H652.2a19.33,19.33,0,0,0-2.25.19l-.18,0A22.52,22.52,0,0,0,639,352.59a17.59,17.59,0,0,0-5.92,7.31,19.23,19.23,0,0,0-1.48,7.79q0,13,0,26a20.42,20.42,0,0,0,.47,4.84A17.49,17.49,0,0,0,639,408.83a23.38,23.38,0,0,0,13.9,4.38q16.82,0,33.63,0a25,25,0,0,0,4.1-.35,22.54,22.54,0,0,0,8.77-3.5c.17-.12.91-.59,1.87-1.17h0v4.7Z"/><rect class="cls-1" x="495.7" y="316.23" width="14.07" height="96.94"/><path class="cls-1" d="M81,316.23v44.15H23.3l-9.2,11.31c11,0,50.36,0,66.94,0v41.47H95.11V316.23Z"/><path class="cls-1" d="M816.87,348.74c0-.14,0-.29,0-.44h-5.44c-2.83,0-5.66,0-8.51,0l0,5a23.73,23.73,0,0,0-15.18-5.19H754.75a26.55,26.55,0,0,0-4.22.3,23.38,23.38,0,0,0-8.85,3.3,17.78,17.78,0,0,0-7.5,9.27,20.28,20.28,0,0,0-1,6.73c0,5.69,0,11.38,0,17.08v8.54a24.1,24.1,0,0,0,.31,4.1,16.65,16.65,0,0,0,4.21,8.69,20.93,20.93,0,0,0,15.6,6.9c10.34.18,22.39.12,34,.06h1.35l10.5-11.32c-12.73,0-31.1,0-43.15,0a14.17,14.17,0,0,1-3.67-.54,6.81,6.81,0,0,1-5.06-6.45c0-.35,0-.7,0-1.05V367.83a10,10,0,0,1,.5-3.53,6.41,6.41,0,0,1,4.13-4.08,12.65,12.65,0,0,1,3.68-.65c4.87,0,9.74,0,14.61,0H780c4.89,0,9.78,0,14.67,0a11.82,11.82,0,0,1,3.58.65,6.31,6.31,0,0,1,4.16,4.49,10.65,10.65,0,0,1,.39,2.68l.06,52.43h0v.2c0,.78,0,1.55,0,2.32a5.26,5.26,0,0,1-.45,2,6.5,6.5,0,0,1-3.91,3.56,11.06,11.06,0,0,1-4.21.7H755.44L746.23,440c10.1.05,27.78,0,40.85,0l9.19,0a26.21,26.21,0,0,0,2.84-.19,21.64,21.64,0,0,0,9.08-3.15,17.57,17.57,0,0,0,7.26-8.27,19.52,19.52,0,0,0,1.43-7.9q0-24.37,0-48.75Z"/><path class="cls-1" d="M195.58,348.8c0-.1,0-.2,0-.3h-14v8.4q0,18.19,0,36.39a13.77,13.77,0,0,1-.32,3,6.43,6.43,0,0,1-3.68,4.62,11.55,11.55,0,0,1-5,1H163.7q-14.32,0-28.65,0a15.19,15.19,0,0,1-3.47-.39,7,7,0,0,1-5.31-4.68,9.71,9.71,0,0,1-.41-3.34V349c0-.15,0-.3,0-.46h-14v10q0,17.34,0,34.67a30.91,30.91,0,0,0,.26,3.94,16,16,0,0,0,4.1,8.92A20.93,20.93,0,0,0,132,413.09l36.58.05A19.94,19.94,0,0,0,179.76,410a9.26,9.26,0,0,0,1.78-1.58h0V422a6.09,6.09,0,0,1-2.92,5.16,9.76,9.76,0,0,1-5.5,1.46h-39l-9.21,11.31c12.41,0,38.83,0,50,0a25.65,25.65,0,0,0,2.94-.19,21.59,21.59,0,0,0,10.45-4.11,16.86,16.86,0,0,0,7.28-14c0-17.94,0-36.18,0-53.82Z"/><path class="cls-1" d="M485.11,175.82a.49.49,0,0,1,.12,0c3.56-.31,9.8-1,13.4-1.47q.3,0,.6,0a8.9,8.9,0,0,1,6.77,3.37L514.36,189a2.85,2.85,0,0,0,2,.88l24.22-2.56a2.8,2.8,0,0,0,1.73-1.25l9.4-21.38a3.9,3.9,0,0,0-.37-3.48L542.51,149a8.57,8.57,0,0,1-.84-8l3.61-8.19a3.25,3.25,0,0,0-.12-2.1,1.1,1.1,0,0,0-.14-.21l-5.45-6.88a1.72,1.72,0,0,0-2.92.38l-6,13.75a8.49,8.49,0,0,1-6.47,4.73l-12.24,1.33a3.83,3.83,0,0,0-2.8,2.05l-5,11.45a8.7,8.7,0,0,1-6.13,4.76c-16.43,2-70.44,7.87-85.85,10a8.44,8.44,0,0,1-7.38-3.41L393.49,153c-.94-1.33-2.5-3.4-3.49-4.68L379,133.13a8.51,8.51,0,0,1-.85-8l17.52-39.85a8.53,8.53,0,0,1,6.46-4.75l27-3a3.89,3.89,0,0,0,2.81-2.07l3.56-8.08a1.59,1.59,0,0,0-1.62-2.22c-5.73.63-14,1.59-21.52,2.38-6.29.6-15,1-21.14,2l-.21.05a4.26,4.26,0,0,0-1.94,1.76L363.26,130a3,3,0,0,0,.23,2.2c8.13,11.46,19.43,26.89,28.22,37.83l.06.07.05.07,2.56,3.44c2.52,3.29,10.93,15,13.49,18.55,2.34,3,6.65,8.55,8.94,11.61,2.77,3.47,10.54,14.6,13.22,18.31,3.29,4.59,3.83,5.1,8.6,11.17a1.35,1.35,0,0,0,1.18.51c19.76-2,27.86-3.07,43.27-4.8a1.86,1.86,0,0,0,1.29-3c-1.72-2.3-4-5.29-5.45-7.15a3.56,3.56,0,0,0-3.3-1.34l-1.25.18c-10,1.2-24.91,3-26,3.05-2.49,0-4.63-.58-6.16-2.44l-.68-.73-.09-.11-3.93-5.26c-2.51-3.25-10-13.86-12.58-17.32a41.13,41.13,0,0,1-4.07-6.45,4.08,4.08,0,0,1,.4-3.7,5.47,5.47,0,0,1,4.36-2.28l4.9-.44c3.76-.27,15.71-2,19.66-2.45"/><path class="cls-1" d="M576.59,155.77a8.38,8.38,0,0,1,1,7.95l-17.74,40.33a8.52,8.52,0,0,1-6.46,4.74l-43.56,4.81c-.24,0-.48,0-.73,0a8.53,8.53,0,0,1-6.45-3.45l-16.91-22.7a3.06,3.06,0,0,0-2-1l-11,1.69a.4.4,0,0,0-.28.61c6.31,10,10.64,14.89,14.79,20.42l11.15,15.36a4.11,4.11,0,0,0,3,1.77c4.89,0,4.72-.71,12.14-1.48,15.39-1.72,19.32-2,30-3,4.12-.31,16.71-2,21-2.47a3,3,0,0,0,1.76-1.32l50.15-114a3,3,0,0,0-.23-2.2c-8.13-11-17.56-24-26.85-36.25a.36.36,0,0,0-.61.08l-4.55,10.35a2.77,2.77,0,0,0,.23,2.11l14.28,18c3.91,5,3,15.21,1.64,17.72L588,139.77a4.46,4.46,0,0,1-8,.87L535.85,80.46a8.48,8.48,0,0,1-.87-8L540.3,60.4a4.18,4.18,0,0,0,.19-1.12,4.61,4.61,0,0,0-.79-2.9c-.28-.41-.61-.87-1-1.34l-6.24-8.32c-2.86-3.71-3.35-4.69-6.7-9a3.08,3.08,0,0,0-2.32-1.21,8.66,8.66,0,0,0-1.26,0s-3.19.31-6.14.67c-6.32.79-16.18,2.12-16.28,2.14A3,3,0,0,0,498,40.68l-6.2,14.08a9.07,9.07,0,0,1-6.39,4.79L476,60.8a3.21,3.21,0,0,0-1.84,1.34L469.86,72.6a.51.51,0,0,0,.53.7c6.6-.78,14.68-1.72,17.08-1.69a31,31,0,0,1,4.69.34c1.24.21,2.48,1.2,3.7,2.93,2.81,4,5.81,8.8,5.81,8.8,1.77,2.09,5.08,1.66,6.06,1.53l7.17-1.38c1.16-.13,2.73-.19,4.29-.2.79,0,1.53,0,2.12.06,1.63.12,4.05,1.36,6.46,5.27"/><path class="cls-1" d="M415.71,13.75a2.63,2.63,0,0,0-1.66,1.18L395.67,56.72a.24.24,0,0,0,.23.33l11.36-.91A3,3,0,0,0,409,54.8l11.32-25.73a8.48,8.48,0,0,1,6.47-4.74l34.15-3.73.66,0a4.43,4.43,0,0,1,4.08,6.5L435.54,95.59a8.52,8.52,0,0,1-6.44,4.75l-14,1.62a2.43,2.43,0,0,0-1.75,1.29l-9.81,22.29a2.93,2.93,0,0,0,.23,2.19l3.06,4.24c2.16,2.94,6,8.09,8.09,11.11a22.89,22.89,0,0,0,3.43,4l.25.15a4.5,4.5,0,0,0,2.38.58,110.1,110.1,0,0,0,13.32-1.14c2.54-.37,6.38-2,7.54-.37l7.92,10.39a1.7,1.7,0,0,0,1.51.77,72.42,72.42,0,0,0,10.3-1.47.5.5,0,0,0,.31-.79l-10.15-14a8.93,8.93,0,0,1-.86-8L455.81,122a3.06,3.06,0,0,0-.22-2.24c-.06-.18-8-11.29-8.32-11.52a8.37,8.37,0,0,1-.92-8l34.37-78.14a7.35,7.35,0,0,1,6-4.38l.9-.18c12.06-2,16.84-1.88,23.8-2.86,4.66-.29,17.19-1.56,21.77-1.36.41,0,3.74.44,6.45,4.38,1.72,2.51,3.41,4.77,5.77,8.05,5,6.9,5.85,7.69,9.5,12.43l9.3,13.41a8.34,8.34,0,0,1,.9,7.91L553.85,85.12c-.23.52-.23,1.88.18,2.21l6.75,8.54a.48.48,0,0,0,.81-.11l18.16-41.28a2.8,2.8,0,0,0-.22-2.12l-1.86-2.42c-2.32-3.23-10-13.46-12.53-16.8-2.15-3.06-8.49-11.73-10.8-14.88C552.17,14.94,544.07,4.13,541.61.75A2.45,2.45,0,0,0,539.79,0c-.26,0-6.4,1-11,1.48"/></svg>