<?xml version="1.0" encoding="UTF-8"?>
<svg id="Calque_1" data-name="Calque 1" xmlns="http://www.w3.org/2000/svg" viewBox="0 0 814 282">
  <path d="m312.01,112.94c6.19-50.18,43.62-83.18,94.48-79.99,52.03,1.03,80.72,50.38,79.16,98.33-2.09,17.43-46.48,13.23-59.21,9.95-9.06-2.77-10.36-4.36-10.71-13.74-1.79-10,.5-25.71-11.26-29.81-14.43-3.69-19.36,2-22.2,15.11-5.27,19.03,4.04,27.72-22.27,30.29-14.01,1.01-28.14,2.16-41.76-2.89-12.18-3.37-7.38-17.84-6.21-27.27h-.02Z" style="fill: #290b31;"/>
  <path d="m203.27,112.04c-2.52-25-15.66-42.72-32.75-65.01-3.35-4.36-.89-6.24,4.75-6.26,36.03-.67,66.66,23.02,82.3,54.21,6.81,11.12,12.27,22.91,16.9,35.09,1.74,4.04.25,6.56-3.28,8.46-16.12,7.66-38.23,6.58-52.95,3.35-11.3-2.48-11.67-5.11-13.39-16.24-.76-4.95-1.17-9.22-1.58-13.6Z" style="fill: #290b31;"/>
  <path d="m551.4,16c-13.78,30.25-24.31,63.09-28.25,96.94l-.02.02c-.01,2.85-.53,5.84-1.05,8.78-1.5,8.62-2.92,16.78,8.84,19.31,17.96,4.38,37.95,4.72,55.24-2.11,3.74-1.84,4.49-4.04,3.83-8.62-7.25-49.26-.51-80.52,44.08-97.71,20.89-8.07,5.92-29.15-8.03-31.42-18.46-3.15-36.23.55-54.02,4.26-4.74.99-9.47,1.97-14.22,2.83-5.78-.28-7.66,1.9-6.4,7.73Zm27.55,4.62c0-.15,0-.31.01-.46-.01-.24-.02-.48-.03-.73-.05-1.59-.1-3.3-2.26-3.24-1.95.05-2.25,2.11-2.25,3.74-.02,1.77.18,3.94,2.45,3.94,1.98,0,2.03-1.74,2.07-3.26Z" style="fill: #290b31; fill-rule: evenodd;"/>
  <path d="m108.4,228.77c0-31.01,18.71-52.84,49.92-52.84s49.53,21.65,49.53,52.65-18.71,52.84-49.72,52.84-49.72-21.44-49.72-52.65h-.02Zm79.57,0c0-20.87-9.36-36.85-29.65-36.85s-30.04,15.98-30.04,36.85,9.36,36.85,30.04,36.85,29.65-16.19,29.65-36.85Z" style="fill: #290b31;"/>
  <path d="m218.77,228.77c0-31.21,19.31-52.65,48.75-52.65,25.55,0,42.52,16.58,44.86,39.01h-19.7c-.99-10.34-6.83-23.21-24.95-23.21-21.26,0-29.05,18.14-29.05,36.85s7.8,36.67,29.05,36.67c18.32,0,23.99-12.47,24.95-23.8h19.7c-1.38,22.82-19.1,39.79-44.65,39.79-29.65,0-48.94-21.44-48.94-52.65h-.02Z" style="fill: #290b31;"/>
  <path d="m393.7,278.49l-32.56-50.91-14.43,13.85v37.06h-19.1v-99.46h19.1v42.13l43.48-42.13h22.04l-38.23,36.46,42.31,62.99h-22.61Z" style="fill: #290b31;"/>
  <path d="m509.53,209.46v69.03h-19.1v-63.77c0-13.26-5.85-22.22-20.27-22.22-16.37,0-26.92,9.95-26.92,24.95v61.05h-19.1v-99.46h19.1v12.48h.39c5.27-7.61,15.59-15.41,32.77-15.41,18.32,0,33.16,10.53,33.16,33.34l-.02.02Z" style="fill: #290b31;"/>
  <path d="m621.28,233.84h-76.43c.39,16.58,10.14,31.99,29.84,31.99,17.54,0,24.38-11.31,26.14-17.93h19.49c-5.28,19.1-19.88,33.55-46.03,33.55-31.6,0-49.14-22.43-49.14-52.84s18.71-52.65,49.14-52.65,47.19,19.88,47.19,50.7c0,2.73,0,5.66-.18,7.22l-.02-.05Zm-19.7-15.02c0-15.59-10.92-27.31-27.89-27.31-15.98,0-27.7,10.92-28.87,27.31h56.76Z" style="fill: #290b31;"/>
  <path d="m631.03,245.35h19.31c.78,11.51,7.8,20.48,26.33,20.48,16.76,0,21.26-7.41,21.26-14.63,0-12.47-13.25-13.85-26.12-16.58-17.36-4.1-37.24-9.17-37.24-29.83,0-17.15,13.85-28.67,37.84-28.67,27.31,0,40.36,14.63,41.74,31.78h-19.31c-1.35-7.61-5.46-16.37-22.04-16.37-12.86,0-18.32,5.07-18.32,12.48,0,10.34,11.12,11.31,25.16,14.42,18.32,4.29,38.23,9.56,38.23,31.79,0,19.31-14.81,31-40.96,31-30.22,0-45.25-15.59-45.82-35.89l-.05.02Z" style="fill: #290b31;"/>
  <path d="m726.2,245.35h19.31c.78,11.51,7.8,20.48,26.33,20.48,16.76,0,21.26-7.41,21.26-14.63,0-12.47-13.26-13.85-26.12-16.58-17.36-4.1-37.24-9.17-37.24-29.83,0-17.15,13.85-28.67,37.84-28.67,27.31,0,40.36,14.63,41.74,31.78h-19.31c-1.35-7.61-5.46-16.37-22.04-16.37-12.86,0-18.32,5.07-18.32,12.48,0,10.34,11.12,11.31,25.16,14.42,18.32,4.29,38.23,9.56,38.23,31.79,0,19.31-14.81,31-40.96,31-30.22,0-45.25-15.59-45.82-35.89l-.05.02Z" style="fill: #290b31;"/>
  <path d="m98.33,233.45c0,27.15-22.02,48.5-49.17,48.5S0,259.93,0,232.78v-53.75h19.19v54.42c0,16.56,13.42,29.97,29.97,29.97s29.97-13.42,29.97-29.97h19.19Z" style="fill: #290b31;"/>
</svg>