<?xml version="1.0" encoding="utf-8"?>
<!-- Generator: Adobe Illustrator 25.3.1, SVG Export Plug-In . SVG Version: 6.00 Build 0)  -->
<svg version="1.1" id="Layer_1" xmlns="http://www.w3.org/2000/svg" xmlns:xlink="http://www.w3.org/1999/xlink" x="0px" y="0px"
	 viewBox="0 0 743 203.4" style="enable-background:new 0 0 743 203.4;" xml:space="preserve">
<style type="text/css">
	.st0{fill:#FFFFFF;}
</style>
<g>
	<polygon class="st0" points="111.3,122.9 102,122.9 106.6,131 	"/>
	<polygon class="st0" points="94.6,110.2 99.5,101.8 89.8,101.8 	"/>
	<path class="st0" d="M94.6,113.1l-4.1,7.1c0.4,0.4,0.6,0.8,0.8,1.4h8.2L94.6,113.1z"/>
	<path class="st0" d="M88.5,119.3c0.3,0,0.5,0,0.8,0.1l4.5-7.8l-5.2-9l-4.2,9.1l3.6,7.7C88.1,119.3,88.3,119.3,88.5,119.3z"/>
	<polygon class="st0" points="101.1,121.5 112.1,121.5 117.8,111.6 112.1,101.8 101.1,101.8 95.4,111.6 	"/>
	<path class="st0" d="M113.8,121.5h8.2c0.1-0.5,0.4-1,0.8-1.4l-4.1-7.1L113.8,121.5z"/>
	<polygon class="st0" points="113.8,101.8 118.6,110.2 123.5,101.8 	"/>
	<path class="st0" d="M121.9,122.9h-9l-5.1,8.9l9.9-0.9l4.8-6.9C122.3,123.8,122,123.4,121.9,122.9z"/>
	<path class="st0" d="M129.6,113.4l-3.1,6.6c0.6,0.5,1.1,1.3,1.1,2.2c0,1.6-1.3,2.9-2.9,2.9c-0.4,0-0.7-0.1-1-0.2l-4.1,5.9l17.3-1.5
		L129.6,113.4z"/>
	<path class="st0" d="M107.3,133.3v11.9c0.1,0,0.2,0.1,0.3,0.1l9-12.8L107.3,133.3z"/>
	<path class="st0" d="M100.3,122.9h-9c-0.1,0.4-0.3,0.8-0.6,1.2l4.8,6.9l9.9,0.9L100.3,122.9z"/>
	<path class="st0" d="M93.7,130.8l-4.1-5.9c-0.3,0.1-0.7,0.2-1,0.2c-1.6,0-2.9-1.3-2.9-2.9c0-0.9,0.4-1.7,1.1-2.2l-3.1-6.6
		l-7.3,15.9L93.7,130.8z"/>
	<path class="st0" d="M105.9,145.2v-11.9l-9.3-0.8l9,12.8C105.7,145.3,105.8,145.2,105.9,145.2z"/>
	<path class="st0" d="M109.5,148.6c-0.3,1.3-1.4,2.4-2.9,2.4c-1.4,0-2.6-1-2.9-2.4l-21-1.6l24.2,17.5l23.7-17.1L109.5,148.6z"/>
	<path class="st0" d="M52.5,184.3l-1.9,18.8c15.1,2.3,35.7-9.1,50.5-29.5c1.7-2.3,3.3-4.7,4.7-7.1L52.7,185L52.5,184.3z"/>
	<path class="st0" d="M53.2,127.1c-2.1,2.3-4.1,4.8-5.9,7.4c-14.8,20.4-19.4,43.5-12.5,57.2l17.7-7.4l-0.7,0L53.2,127.1z"/>
	<path class="st0" d="M73.7,64.5l0-0.1h0.1l0.1-0.2c-3.1-1.4-6.4-2.7-9.8-3.8c-24-7.8-47.3-5-58.2,5.8l12.5,14.5L18.3,80L73.7,64.5z
		"/>
	<path class="st0" d="M18.5,80.7L18.5,80.7L0,84.7c2.5,15.1,19.7,31.1,43.7,38.9c3.1,1,6.1,1.8,9.1,2.5L17.9,81.1L18.5,80.7z"/>
	<path class="st0" d="M106.7,16.4L97.1,0c-13.6,7-23.5,28.3-23.5,53.5c0,3.5,0.2,6.9,0.6,10.2L106.1,16L106.7,16.4z"/>
	<path class="st0" d="M107.3,16l32.3,47.9c0.4-3.3,0.6-6.8,0.6-10.3c0-25.2-9.9-46.6-23.5-53.6l-10,16.4l0,0L107.3,16z"/>
	<path class="st0" d="M74.5,129.1V96.5c-0.8-0.2-1.5-0.7-1.8-1.5l-8.1,1.9L55,126.4L74.5,129.1z"/>
	<polygon class="st0" points="106.5,74.8 106.6,74.7 106.7,74.8 134.8,65.8 78.9,65.8 	"/>
	<path class="st0" d="M161.1,185l-53.1-18.5c1.4,2.4,3,4.8,4.7,7.1c14.8,20.4,35.3,31.8,50.5,29.5l-1.9-18.8h0L161.1,185z"/>
	<path class="st0" d="M111.3,100.3l-3.9-6.7c-0.3,0.1-0.5,0.1-0.8,0.1c-0.3,0-0.5,0-0.8-0.1l-3.9,6.7H111.3z"/>
	<path class="st0" d="M87.6,101.4l-10.2-5.7c-0.1,0.1-0.2,0.2-0.3,0.2l6.5,14.1L87.6,101.4z"/>
	<path class="st0" d="M160.7,127.3l-0.1,0.1l1.6,56.9l-0.7,0l17.7,7.4c6.9-13.7,2.4-36.8-12.5-57.2c-1.9-2.6-3.9-5.1-6-7.4l0,0
		L160.7,127.3z"/>
	<path class="st0" d="M135.9,95.7l-10.2,5.7l4,8.6l6.5-14.1C136.1,95.8,136,95.7,135.9,95.7z"/>
	<path class="st0" d="M119.5,111.6l4.5,7.8c0.2-0.1,0.5-0.1,0.8-0.1c0.2,0,0.4,0,0.5,0.1l3.6-7.7l-4.2-9.1L119.5,111.6z"/>
	<polygon class="st0" points="53.9,125.1 63.2,96.7 20.5,82.1 	"/>
	<polygon class="st0" points="54.6,128.3 53.2,182 79.4,146.2 	"/>
	<path class="st0" d="M72.3,93.6c0-1.6,1.3-2.9,2.9-2.9c0.8,0,1.6,0.3,2.1,0.9l27.5-15.9l-30.1-9.8l-9.6,29.4L72.3,93.6z"/>
	<path class="st0" d="M140.6,95c-0.4,0.7-1,1.3-1.9,1.5v32.6l20.1-2.7l-9.6-29.4L140.6,95z"/>
	<path class="st0" d="M108.4,75.7l27.5,15.9c0.5-0.5,1.3-0.9,2.1-0.9c1.6,0,2.8,1.3,2.9,2.8l7.8,1.8l-9.6-29.4L108.4,75.7z"/>
	<polygon class="st0" points="80.6,147.1 54.4,182.8 105.4,165.1 	"/>
	<polygon class="st0" points="106.2,64.3 106,18.7 75.6,64.3 	"/>
	<polygon class="st0" points="107.6,64.3 138.2,64.3 107.4,18.7 	"/>
	<polygon class="st0" points="192.9,80.7 140.7,66.1 150.2,95.4 	"/>
	<polygon class="st0" points="63.6,95.4 73.2,66.1 20.9,80.7 	"/>
	<path class="st0" d="M207.8,66.1c-10.9-10.8-34.2-13.6-58.2-5.8c-3.4,1.1-6.7,2.4-9.8,3.8l0.2,0.2h0.1l0,0.1L195.5,80l-0.2,0.7
		l0.6,0.4l-34.4,44.8c2.9-0.6,5.7-1.4,8.6-2.4c24-7.8,41.2-23.8,43.7-38.9l-18.5-4L207.8,66.1z"/>
	<polygon class="st0" points="132.7,147.5 108.5,165.1 159.4,182.8 	"/>
	<polygon class="st0" points="133.9,146.7 160.6,182.1 159.1,128.4 	"/>
	<polygon class="st0" points="150.7,96.7 160.1,125.5 193.3,82.1 	"/>
	<polygon class="st0" points="76,96.9 76,126.6 82.8,111.7 	"/>
	<polygon class="st0" points="94.7,132.3 78.4,130.9 104.2,145.8 	"/>
	<path class="st0" d="M78,94.4l10.3,5.7l5.2-7.4l-15.4,1.4C78.1,94.2,78.1,94.3,78,94.4z"/>
	<polygon class="st0" points="138.2,130.6 109.6,147.1 132.7,145.7 132.7,145.7 157.2,128 	"/>
	<path class="st0" d="M100.3,100.3l4.3-7.4c-0.3-0.3-0.6-0.7-0.7-1.1l-8.5,0.8l-5.5,7.8H100.3z"/>
	<path class="st0" d="M124.9,100.1l10.2-5.7c0-0.1-0.1-0.2-0.1-0.4l-15.4-1.4L124.9,100.1z"/>
	<path class="st0" d="M108.6,92.9l4.3,7.4h10.4l-5.5-7.8l-8.5-0.7C109.2,92.2,109,92.6,108.6,92.9z"/>
	<path class="st0" d="M96.5,91l7.2-0.7c0.2-1.4,1.4-2.4,2.9-2.4c1.4,0,2.6,1.1,2.9,2.4l7.2,0.6l-10.1-14.2L96.5,91z"/>
	<polygon class="st0" points="118.6,91.2 134.6,92.6 109.1,77.8 	"/>
	<polygon class="st0" points="94.6,91.2 104.1,77.8 78.4,92.7 	"/>
	<polygon class="st0" points="130.4,111.7 137.3,126.6 137.3,96.9 	"/>
	<polygon class="st0" points="118.5,132.3 109.1,145.8 134.8,130.9 	"/>
	<polygon class="st0" points="80.5,145.3 103.5,147 75,130.6 56.7,128.1 80.5,145.3 	"/>
	<polygon class="st0" points="303.8,16.1 293.3,16.2 293.4,34 272.9,34.1 272.8,16.3 262.3,16.4 262.5,64.1 273.1,64.1 273,43.4 
		293.4,43.3 293.5,64 304.1,63.9 	"/>
	<polygon class="st0" points="324.8,63.8 335.4,63.7 335.3,43.4 353.1,15.9 340.6,15.9 330,33.9 319.7,16 306.6,16.1 324.7,43.4 	
		"/>
	<path class="st0" d="M366.7,63.6l-0.1-18.6l7.7,0c2.5,0,4.9-0.3,7-0.7c2.2-0.5,4-1.3,5.6-2.4c1.6-1.1,2.8-2.6,3.7-4.5
		c0.9-1.9,1.3-4.2,1.3-7c0-2.8-0.5-5.2-1.5-7c-1-1.9-2.3-3.3-3.9-4.4c-1.7-1.1-3.6-1.9-5.8-2.3c-2.2-0.4-4.6-0.7-7-0.6l-17.8,0.1
		l0.3,47.8L366.7,63.6z M371.9,24.7c1,0,2,0,3.1,0.1c1.1,0.1,2.1,0.4,2.9,0.8c0.9,0.4,1.6,1,2.2,1.7c0.6,0.7,0.9,1.7,0.9,2.9
		c0,1.1-0.2,2.1-0.6,2.8s-1,1.3-1.7,1.8c-0.7,0.4-1.5,0.7-2.4,0.9c-0.9,0.2-1.8,0.3-2.7,0.3l-7,0l-0.1-11.3L371.9,24.7z"/>
	<polygon class="st0" points="432.1,63.2 432.1,53.5 408.9,53.6 408.9,43.9 429.6,43.8 429.5,34.1 408.8,34.2 408.8,25.3 
		430.7,25.2 430.7,15.5 398.2,15.6 398.4,63.4 	"/>
	<polygon class="st0" points="513.4,62.8 513.4,53.1 493.9,53.2 493.7,15.1 483.1,15.2 483.4,63 	"/>
	<polygon class="st0" points="552.6,62.6 552.6,52.9 529.4,53 529.4,43.3 550.1,43.2 550.1,33.5 529.3,33.6 529.3,24.7 551.2,24.5 
		551.2,14.8 518.7,15 519,62.8 	"/>
	<path class="st0" d="M587.8,60.9c3.2-1.1,6.1-2.6,8.5-4.6c2.5-2,4.4-4.5,5.9-7.5c1.4-3,2.2-6.4,2.1-10.2c0-4.4-0.8-8.1-2.3-11.1
		c-1.5-3.1-3.6-5.5-6.2-7.4c-2.6-1.9-5.6-3.3-9-4.1c-3.4-0.8-7.1-1.2-10.9-1.2l-15.8,0.1l0.3,47.8l17.2-0.1
		C581.2,62.4,584.6,61.9,587.8,60.9z M570.9,52.8l-0.1-28.3l6.2,0c2.2,0,4.3,0.3,6.3,0.8c2,0.5,3.8,1.4,5.2,2.5
		c1.5,1.1,2.7,2.5,3.6,4.3c0.9,1.7,1.3,3.8,1.4,6.1c0,2.7-0.4,5-1.3,6.9c-0.9,1.9-2.1,3.4-3.6,4.5c-1.5,1.2-3.3,2-5.4,2.5
		c-2.1,0.5-4.4,0.8-6.8,0.8L570.9,52.8z"/>
	<path class="st0" d="M615.7,56.7c2.3,2.2,5,3.8,8.2,5c3.2,1.2,6.6,1.7,10.3,1.7c3.5,0,7-0.4,10.3-1.1c3.4-0.7,6.6-1.9,9.7-3.6
		l-0.1-25l-18.7,0.1l0.1,9.7l8.6,0l0,7.8c-1,0.5-2.3,1.1-4,1.6c-1.7,0.5-3.6,0.8-5.9,0.8c-2.3,0-4.3-0.4-6.1-1.1
		c-1.8-0.8-3.4-1.8-4.7-3.2c-1.3-1.4-2.3-3-3-4.8c-0.7-1.9-1.1-3.9-1.1-6.2c0-2.2,0.3-4.3,1-6.1c0.7-1.9,1.7-3.5,3-4.9
		c1.3-1.4,2.9-2.5,4.7-3.2c1.8-0.8,3.9-1.2,6.1-1.2c2.7,0,5,0.4,6.8,1.1c1.8,0.8,3.4,1.9,4.9,3.4l7.4-8.1c-2.4-2.2-5.3-3.8-8.5-4.7
		c-3.2-0.9-6.7-1.3-10.6-1.3c-3.7,0-7.2,0.6-10.3,1.8c-3.1,1.2-5.9,2.9-8.1,5.1c-2.3,2.2-4.1,4.8-5.3,8c-1.3,3.1-1.9,6.6-1.9,10.4
		c0,3.8,0.7,7.3,2,10.4C611.6,51.9,613.4,54.5,615.7,56.7z"/>
	<polygon class="st0" points="673.7,52.2 673.7,42.5 694.4,42.4 694.4,32.7 673.6,32.8 673.6,23.9 695.5,23.8 695.5,14.1 663,14.2 
		663.2,62 696.9,61.8 696.9,52.1 	"/>
	<path class="st0" d="M730.8,41.5c3.4-0.7,5.9-2.2,7.7-4.5c1.7-2.4,2.6-5.2,2.6-8.6c0-2.8-0.5-5.1-1.5-7c-1-1.9-2.3-3.3-3.9-4.4
		c-1.7-1.1-3.6-1.9-5.8-2.3c-2.2-0.5-4.5-0.7-6.9-0.7L704.4,14l0.3,47.8l10.5-0.1l-0.1-19.1l5.2,0l10.1,19l12.6-0.1L730.8,41.5z
		 M729.3,31.4c-0.6,0.7-1.3,1.3-2.1,1.6c-0.9,0.3-1.8,0.5-2.9,0.6c-1.1,0.1-2.1,0.1-3,0.1l-6.2,0L715,22.9l6.9,0
		c0.9,0,1.9,0.1,2.9,0.2c1,0.1,1.9,0.4,2.6,0.8c0.8,0.4,1.4,0.9,1.9,1.6c0.5,0.7,0.8,1.7,0.8,2.9C730.1,29.6,729.8,30.6,729.3,31.4z
		"/>
	<rect x="262.3" y="90.6" class="st0" width="12.7" height="93.4"/>
	<path class="st0" d="M358.2,116.7c0-11.7-6.1-26.1-29.9-26.1h-32.8v93.4h12.7v-41.1h14.1l23.7,41.1h15.8l-26.5-42.6
		C349.4,139.8,358.2,128.5,358.2,116.7z M308.1,131.7v-30.1h16.6c10,0,20,2.4,20,15c0,12.7-10,15-20,15H308.1z"/>
	<path class="st0" d="M415.3,88.2c-28.5,0-48.7,21.4-48.7,49s20.2,49,48.7,49c28.5,0,48.7-21.4,48.7-49S443.8,88.2,415.3,88.2z
		 M415.3,174.4c-21.4,0-35.2-16.7-35.2-37.2s13.8-37.2,35.2-37.2c21.4,0,35.2,16.7,35.2,37.2S436.7,174.4,415.3,174.4z"/>
	<polygon class="st0" points="540.3,129.3 491.9,129.3 491.9,90.6 479.3,90.6 479.3,183.9 491.9,183.9 491.9,141.2 540.3,141.2 
		540.3,183.9 553,183.9 553,90.6 540.3,90.6 	"/>
	<path class="st0" d="M603.8,90.6l-41.1,93.4h14.8l9.2-23.1h44.4l9.4,23.1h14.8l-40-93.4H603.8z M591.2,149.8l17.7-42.9h0.3
		l17.4,42.9H591.2z"/>
	<path class="st0" d="M473.7,38.3c1.7-2.4,2.6-5.2,2.6-8.6c0-2.8-0.5-5.1-1.5-7c-1-1.9-2.3-3.3-3.9-4.4c-1.7-1.1-3.6-1.9-5.8-2.3
		c-2.2-0.5-4.5-0.7-6.9-0.7l-18.5,0.1l0.3,47.8l10.5-0.1L450.3,44l5.2,0l10.1,19l12.6-0.1L466,42.9
		C469.4,42.2,471.9,40.7,473.7,38.3z M464.5,32.8c-0.6,0.7-1.3,1.3-2.1,1.6c-0.9,0.3-1.8,0.5-2.9,0.6c-1.1,0.1-2.1,0.1-3,0.1l-6.2,0
		l-0.1-10.9l6.9,0c0.9,0,1.9,0.1,2.9,0.2c1,0.1,1.9,0.4,2.6,0.8s1.4,0.9,1.9,1.6c0.5,0.7,0.8,1.7,0.8,2.9
		C465.3,31,465,32,464.5,32.8z"/>
</g>
</svg>
