<?xml version="1.0" encoding="utf-8"?>
<svg viewBox="4.493 2.434 247.563 295.617" width="247.563" height="295.617" xmlns="http://www.w3.org/2000/svg">
  <defs>
    <style>
      .cls-1 {
        fill: #f99f44;
      }

      .cls-2 {
        fill: #80c88d;
      }

      .cls-3 {
        fill: #a8d04b;
      }

      .cls-4 {
        fill: #24272a;
      }
    </style>
  </defs>
  <g>
    <path class="cls-3" d="M113.2413175,237.3672041c-.0683143-.0978779-.1333307-.202175-.2023517-.2986396-2.8224413-3.9451517-6.4253147-6.9853743-10.4307715-9.1296193l2.742702-5.7439383,.6279617-1.3151095c.7565222-1.582242,.0847451-3.4776698-1.4964958-4.2331319-1.5853633-.7544021-3.4786709-.0857462-4.2331319,1.4964958l-.7584067,1.5884256-2.7786848,5.8190252c-2.7863407-.8101136-5.6652591-1.2722363-8.5707376-1.2720597-6.1587711,.0002356-12.3770817,1.8553226-17.7679645,5.712019-13.7362421,9.8272498-16.9050252,28.929287-7.0777753,42.6655291,.2083587,.2912781,.4475177,.5780804,.6695392,.867474l-4.5218188,2.3972436c-.401111,.2126578-.7346733,.5008735-.9993913,.8353192-.7580533,.9578138-.9275435,2.3084349-.3193694,3.4567633,.5704834,1.0747726,1.6701083,1.6886592,2.8069528,1.6886592,.5022869,0,1.0107574-.1198445,1.4840696-.3710174l.0681965-.0361595,5.8936998-3.1245555c3.4418637,3.2207844,7.6189307,6.1323876,12.0972874,8.4458284l-.1561807,7.0038663-.0196698,.8775445c-.0392807,1.7538523,1.351799,3.2058848,3.1045912,3.2451656,.0227322,.0010012,.0475256,.0010012,.0723189,.0010012,1.2558056,0,2.3417676-.7375001,2.8552439-1.8060892,.1896311-.3948096,.3069433-.8311968,.3175438-1.297442l.1171944-5.2503085c4.3528586,1.5735849,8.7988838,2.4919413,12.9912038,2.4919413,1.8669831,0,3.6794326-.1928702,5.415264-.578846,3.7178888-.9505113,7.373647-2.5501852,10.3427874-6.8630564-1.4614552-3.5815547-2.2738067-7.4944338-2.2738067-11.5951772v-35.6771513Zm-39.7892608,25.1708218c-1.993718,0-3.6098227-1.6162225-3.6098227-3.6098227,0-1.993718,1.6161047-3.6098227,3.6098227-3.6098227,1.9936002,0,3.6098227,1.6161047,3.6098227,3.6098227,0,1.9936002-1.6162225,3.6098227-3.6098227,3.6098227Zm17.5064856-19.5579174c0-1.9936002,1.6162225-3.6098227,3.6098227-3.6098227,1.993718,0,3.6099404,1.6162225,3.6099404,3.6098227,0,1.9936591-1.6162225,3.6099404-3.6099404,3.6099404-1.9936002,0-3.6098227-1.6162814-3.6098227-3.6099404Zm7.2197631,30.3656543c-1.993718,0-3.6099404-1.6161047-3.6099404-3.6098227,0-1.9935413,1.6162225-3.6098227,3.6099404-3.6098227,1.9935413,0,3.6098227,1.6162814,3.6098227,3.6098227,0,1.993718-1.6162814,3.6098227-3.6098227,3.6098227Z"/>
    <path class="cls-3" d="M72.778454,158.2192982c-.2154257-1.4959657-1.4703479-2.6696174-3.0333912-2.7193809-1.2020375-.0073615-2.301898,.6611766-2.8694368,1.6681649-.2356255,.417954-.3888616,.888145-.4045856,1.402328l-.1580063,4.9228709c-.4144206-.0243223-.8284878-.0510591-1.2463829-.0510591-1.9487247,.0001178-3.9320189,.267957-5.8992356,.8294889-11.3924133,3.2522326-17.9912817,15.123965-14.7392258,26.5163782,.2571209,.9003945,.6361476,1.9027893,1.1054552,2.9713783l-6.5463371,.7030485-2.2680942,.243517c-1.7424273,.1870399-3.0053587,1.7517322-2.8172588,3.4952195,.1736126,1.6287664,1.5502049,2.8358686,3.1521167,2.8358686,.1136609,0,.2273807-.0062425,.3431028-.0186098l4.4420206-.4769635,6.9198279-.7430949c5.0910066,8.2961258,13.4769422,18.1065915,21.1576502,22.981348,5.1300517-2.9286229,10.8377128-4.5626307,16.7668654-4.794546,1.229481-3.7647077,1.7825325-8.5282767,1.8788792-13.5136317l6.367542-1.2589268,.397872-.0786792c1.7196951-.3399815,2.8379298-2.0100898,2.4989494-3.730845-.2972851-1.4989103-1.6014996-2.5355212-3.0729075-2.5561921-.2166624-.0030624-.4366816,.0143696-.6579375,.0572427l-5.6377567,1.1145834c-.3753165-7.4962005-1.5479082-14.7116645-2.7743857-19.0078694-1.9364753-6.7836115-6.9346686-11.8520626-13.0619916-14.1687424l.1948136-6.0671357c.0060658-.1898078-.0120139-.3741387-.0381618-.5557605Zm3.0202583,48.0837965c0,1.9936591-1.6162225,3.6099404-3.6098227,3.6099404-1.993718,0-3.6098227-1.6162814-3.6098227-3.6099404,0-1.9936002,1.6161047-3.6098227,3.6098227-3.6098227,1.9936002,0,3.6098227,1.6162225,3.6098227,3.6098227Zm-2.3466556-25.546315c0,1.9935413-1.6162225,3.6097638-3.6098227,3.6097638-1.993718,0-3.6099404-1.6162225-3.6099404-3.6097638,0-1.993718,1.6162225-3.6099993,3.6099404-3.6099993,1.9936002,0,3.6098227,1.6162814,3.6098227,3.6099993Z"/>
    <path class="cls-2" d="M39.5505476,218.7640971c-2.900296-1.2755343-5.9253246-1.8793504-8.9027687-1.8792326-6.2858593,.0002356-12.3431012,2.7077203-16.5577411,7.4542108l-3.9725952-4.8182204c-.0355117-.0429909-.0790326-.0743802-.1163699-.1150743-1.135431-1.2383736-3.0435794-1.3964977-4.3523875-.3148348-1.3538602,1.1151134-1.5460825,3.1159573-.4299091,4.4687574l.8659428,1.0502737,4.3840123,5.3172683c-.0302114,.0667831-.0722012,.1241436-.1018237,.1914568-3.8393823,8.7298039-1.5728193,18.5803749,4.9112693,24.8373184l-4.6262926,4.3676404-.7121767,.6724249c-1.2752987,1.2039809-1.3331892,3.2130696-.1302094,4.4883683,.6241926,.6614121,1.4654599,.9952689,2.3087883,.9952689,.7833767,0,1.5667535-.2873324,2.1785789-.8660606l1.4184643-1.3391373,4.8312355-4.5612762c.3895094,.1993482,.7693016,.4108282,1.1749473,.589211,3.798806,1.6707561,8.6249179,2.5532475,13.5388373,2.5532475,5.7755631,0,11.6603703-1.2302466,16.1411416-3.8247772-.2568265-3.0392214-.1794429-6.1252029,.33262-9.2125977,.7786065-4.6930168,2.434522-9.0933421,4.8210472-13.0469153-3.5903884-7.3572162-10.448439-14.1237492-17.004611-17.00732Zm-7.8225191,17.2858775c-1.9935413,0-3.6098227-1.6161047-3.6098227-3.6098227,0-1.9936002,1.6162814-3.6098227,3.6098227-3.6098227,1.993718,0,3.6098227,1.6162225,3.6098227,3.6098227,0,1.993718-1.6161047,3.6098227-3.6098227,3.6098227Zm6.4973392,16.6864194c-1.9935413,0-3.6097638-1.6162225-3.6097638-3.6098227,0-1.993718,1.6162225-3.6098227,3.6097638-3.6098227,1.993718,0,3.6098227,1.6161047,3.6098227,3.6098227,0,1.9936002-1.6161047,3.6098227-3.6098227,3.6098227Z"/>
    <path class="cls-2" d="M15.4691625,161.6200555c.7271352,.2969906,1.5632789,.3270253,2.3520148,.019552l1.2709996-.4945132,6.618126-2.5745074c2.0869434,1.6576233,4.617341,3.1178418,7.3385476,4.2293039,3.2966369,1.3464398,6.8575794,2.1772832,10.2066299,2.2551969,3.4602379-4.1410254,8.0786978-7.2355461,13.2956148-8.8222049,2.1630904-7.8450747-1.5510294-18.9464454-7.0055153-24.5862633-1.7931919-1.8540859-3.8869079-3.2402187-6.1307387-4.1565727-2.0618556-.8420328-4.2508583-1.2429083-6.4469868-1.2890794l.0084215-5.9110728c.0000589-.1637777-.02391-.3210773-.0475845-.4782591-.2295597-1.5241159-1.526236-2.6977088-3.1236132-2.7014189-1.7540878-.0019434-3.1757912,1.4178754-3.179678,3.1711976l-.0003533,.2732573-.0095404,6.6274309c-2.3800472,.8345536-4.6261159,2.1702751-6.5577032,4.0385539-6.1677815,5.9648998-7.1474441,15.2600636-2.8729114,22.2970859l-5.6667903,2.2044912c-.108714,.0423431-.1812096,.1285605-.2825621,.1812685-1.4190532,.7373824-2.1175082,2.402956-1.5255882,3.9285443,.3289688,.8455074,.9804282,1.4699356,1.7592114,1.7880094Zm21.7092883-21.6362038c.753872-1.8456644,2.861192-2.7306881,4.7067386-1.976875,1.8457232,.753872,2.7308648,2.8611331,1.9769927,4.7067974-.7538131,1.8457232-2.8611331,2.7306881-4.7068563,1.9768161-1.8455466-.7538131-2.730747-2.8610153-1.976875-4.7067386Z"/>
    <path class="cls-2" d="M214.4953825,111.2722872c-6.2736098,7.7850052-15.7641172,11.7114293-28.2604545,11.7123716-1.1022161,0-2.2299913-.0345105-3.3780251-.0956989v12.5210129c.4531124,.0605995,.9089926,.1136609,1.3738244,.1360397,1.2089278,.0584205,2.4206824,.0876308,3.5985155,.0876308h.0065959c20.385934,.0009423,31.7242258-8.7630777,37.6491971-16.1155826,16.8043793-20.8523559,8.9722609-52.4390108,8.0233986-55.9725099-1.117528-4.1667021-3.7916801-7.6493188-7.529651-9.8052244-2.2169762-1.2793033-4.6524405-1.9856498-7.1352536-2.1262831,2.7831017,10.2110467,9.8559301,42.0340339-4.3481473,59.6582439Z"/>
    <path class="cls-2" d="M182.8569029,117.0921958c12.3691902,.7133546,21.4931559-2.4576075,27.1316193-9.4523456,12.7518681-15.8239511,5.379929-46.8392393,3.0434616-55.2804152-8.1381195,2.5842245-12.9329011,11.1572589-10.7332979,19.4903098,2.0334109,7.890539,2.7580138,21.6089958-1.9891244,27.4378559-2.436701,2.9935804-7.328006,4.3334833-14.5259791,3.999921-.2713727-.0131917-.5427455-.0197876-.8122337-.0197876-.713649,0-1.4171687,.0626607-2.1144458,.1540606v13.6704012Z"/>
    <path class="cls-2" d="M113.2413175,149.0636488v-12.5702463c-6.6285498-2.2371172-22.1217065-9.7105855-26.5794512-31.5663373-.5088239-2.4945326-.8184173-4.9855316-.9741857-7.4395467-.4237843,.8299011-.9475667,1.616458-1.5902513,2.3328161-2.0917137,2.3314616-5.0774026,3.6685965-8.191652,3.6685965-.8251309,0-1.638778-.0948156-2.4308118-.2780864,1.5037394,15.5341453,8.0322912,25.5462561,13.8210461,31.5097425,8.0753999,8.3196236,17.9361591,12.3720759,25.9453059,14.3430617Z"/>
    <path class="cls-2" d="M93.4063149,77.4379735c-.2126578,.8874972-.4176596,1.8110361-.611472,2.7673776,.0939322,.5855597,.1554151,1.1814254,.1554151,1.7927208,0,1.8019667-.4413929,3.4968685-1.2134036,5.0067915-.5645354,5.2706261-.5686578,11.048486,.5974558,16.7650986,3.4988119,17.155138,14.73422,24.0203145,20.9070073,26.5521255v-15.8221255c-1.0347263-.6844388-2.0183936-1.4784749-2.900296-2.4097875-3.6446865-3.8463315-5.2682116-9.9503334-4.8234618-18.1414554,.4220765-7.8096219-4.8073255-14.6383444-12.1112448-16.5107456Z"/>
    <path class="cls-2" d="M154.959221,259.7508607V50.4621815c0-4.1608129-.2519385-7.8401866-.6728371-11.1306399-.8126459,.1933413-1.6479062,.2953416-2.4957693,.2953416-3.1143083,0-6.100115-1.3370761-8.191652-3.6684787-1.5699336-1.7498476-2.4904101-3.8894991-2.7096638-6.1773809-1.5593331,5.1371776-2.65248,11.8696712-2.65248,20.6811579v209.2886792c0,4.8498453,.516362,15.5455114,2.4498927,24.8673531,1.272413,6.1346844,2.9697293,10.7070911,4.9097381,13.4329501h2.0031406c1.9400088-2.725859,3.6373251-7.2982657,4.9097381-13.4329501,1.9335307-9.3218417,2.4498927-20.0175078,2.4498927-24.8673531Z"/>
    <path class="cls-2" d="M177.067618,212.127538V44.394928c0-4.23961-1.0638188-8.2341129-2.9333932-11.7362816-.466363,1.1934982-1.1375511,2.3107317-2.0247539,3.2996403-2.0916548,2.3314616-5.0774026,3.6685965-8.1915931,3.6685965-1.3260044,0-2.622563-.2436348-3.8460371-.7111756,.4264344,3.4700139,.6766651,7.2901975,.6766651,11.5464738v209.2886792c0,3.4067642-.2478161,25.55986-6.4242547,38.1930615,9.2627145-.8353781,17.0817001-6.7400317,20.6566-14.9131917-1.7636872-3.3453991-3.22261-7.1071034-4.3197026-11.2725688-3.6965112-14.0350583-2.9822732-30.946856,2.0117388-47.6202604,1.2432617-4.1508014,2.7168485-8.1676831,4.3947306-12.0103634Z"/>
    <path class="cls-2" d="M138.6382832,297.4574183c-5.9495291-12.7072872-6.1907493-34.3431965-6.1907493-37.7065576V50.4621815c0-11.457783,1.7350069-19.9051426,4.2028027-26.1516033-.6802575-.9940911-1.1994463-2.093186-1.5166367-3.2781449-9.40429,3.5964543-16.1030976,12.7093484-16.1030976,23.3624947v228.6494273c0,11.9348054,8.4066065,21.9371401,19.6076808,24.4130629Z"/>
    <path class="cls-3" d="M186.4795051,288.828908c-1.1443237-41.4044821,11.6855759-71.0242148,22.9380037-88.8262187,2.3681511-3.7462157,4.7527329-7.1260076,7.0705317-10.1523907-3.0342745-2.0030228-4.8592679-5.3402949-4.8592679-9.0936365,0-.1743193,.0275024-.3415716,.0352761-.5140063-13.7132744,6.4896833-26.8358065,23.4908196-33.444981,45.5555191-7.9072642,26.3988305-4.0374349,51.8626382,8.2604375,63.0307332Z"/>
    <path class="cls-3" d="M230.2943636,219.9777951c1.0084017-6.4581174,1.5814764-12.6547558,1.874109-18.3193671-1.1199425,.3843858-2.2947721,.5890932-3.4952195,.5890932-3.1143672,0-6.100115-1.3370761-8.1917109-3.6684198-.629964-.702224-1.1449126-1.4722324-1.5646923-2.2838771-1.579003,2.1813468-3.1745545,4.5256467-4.7578565,7.0421459-10.9298193,17.3731549-23.4180296,46.4923675-21.8277194,87.3919715,25.058751-18.8867292,34.4986704-48.5650591,37.9630896-70.7515465Z"/>
    <path class="cls-3" d="M246.6671849,246.3018921c5.160911-17.2300482,5.2997186-34.0593976,1.3602794-46.7825266-1.9968392,1.7428984-4.5625718,2.7281557-7.2270068,2.7281557-.9649986,0-1.9129775-.134803-2.8302739-.3846214-.3033509,5.8051267-.8948586,12.1721976-1.9317639,18.8526899-5.0044359,32.2465359-18.3832056,57.5079919-38.8587727,73.5931864,18.4584103,3.6135328,40.2879553-17.2935334,49.4875379-48.006884Z"/>
    <path class="cls-1" d="M220.4903759,176.0442699c-4.0964444,1.8062069-4.0964444,7.6185774,0,9.4248432,2.054023,.9056358,3.2848585,3.0374547,3.042166,5.2691538-.3565889,3.2793816,2.2819337,5.7199694,5.1407111,5.7199694,1.0211223,0,2.0706894-.3115957,3.0214362-1.0075773,.9056947-.6630022,1.9739304-.9945033,3.042166-.9945033s2.1364713,.3315011,3.0421071,.9945033h.0000589c.9509235,.6961582,2.0000783,1.0075773,3.0214362,1.0075773,2.858483,0,5.4972412-2.4408823,5.1406522-5.7199694-.2426336-2.2316991,.988143-4.363518,3.042166-5.2691538,4.0964444-1.8062658,4.0964444-7.6186363,0-9.4248432-2.054023-.9056947-3.2847996-3.0374547-3.042166-5.2691538,.3566478-3.2794405-2.2818748-5.7200283-5.1406522-5.7200283-1.0211223,0-2.0706894,.3115957-3.0214362,1.0075773h-.0000589c-.9056358,.6630022-1.9738715,.9945033-3.0421071,.9945033s-2.1364713-.3315011-3.042166-.9945033c-.9509824-.6961582-2.0001372-1.0075773-3.0214362-1.0075773-2.8585419,0-5.4973001,2.4408823-5.1407111,5.7200283,.2426925,2.2316991-.988143,4.3634591-3.042166,5.2691538Zm14.2464794,8.3222148c-1.9936591,0-3.6098227-1.6161636-3.6098227-3.6098227,0-1.9936002,1.6161636-3.6097638,3.6098227-3.6097638,1.9936002,0,3.6097638,1.6161636,3.6097638,3.6097638,0,1.9936591-1.6161636,3.6098227-3.6097638,3.6098227Z"/>
    <path class="cls-1" d="M72.8843412,96.6920689c.9509824,.6961582,2.0000783,1.0075773,3.0214362,1.0075773,2.8585419,0,5.4973001-2.4408823,5.1407111-5.7200283-.2426925-2.2316402,.9880841-4.3634591,3.0421071-5.2691538h.0000589c4.0964444-1.8062658,4.0964444-7.6185774,0-9.4248432h-.0000589c-2.054023-.9056358-3.2847996-3.0374547-3.0421071-5.2691538,.3565889-3.2793816-2.2819337-5.7199694-5.1407111-5.7199694-1.0211223,0-2.0706894,.3115368-3.0214362,1.0075773-.9056947,.6630022-1.9739304,.9945033-3.042166,.9945033s-2.1364713-.3315011-3.042166-.9945033c-.9509824-.6961582-2.0000783-1.007695-3.0214362-1.0075773-2.858483,.0001767-5.4972412,2.4408823-5.1407111,5.7199694,.2426925,2.2316991-.9880841,4.363518-3.0421071,5.2691538h-.0000589c-4.0964444,1.8062658-4.0964444,7.6185774,0,9.4248432h.0000589c2.054023,.9056947,3.2847996,3.0375136,3.0421071,5.2691538-.3565889,3.2793816,2.2819337,5.7200283,5.1407111,5.7200283,1.0211223,0,2.0706894-.3115957,3.0214362-1.0075773,.9056947-.6630022,1.9739304-.9945033,3.042166-.9945033s2.1364713,.3315011,3.042166,.9945033Zm-6.6519887-14.693997c0-1.9936591,1.6161636-3.6098227,3.6098227-3.6098227s3.6098227,1.6161636,3.6098227,3.6098227-1.6161636,3.6098227-3.6098227,3.6098227-3.6098227-1.6161636-3.6098227-3.6098227Z"/>
    <path class="cls-1" d="M143.6077963,22.8484163c2.0540819,.9056947,3.2848585,3.0375136,3.042166,5.2691538v.0000589c-.3566478,3.2793816,2.2818748,5.7199694,5.1406522,5.7199694,1.0211812,0,2.0707482-.3115957,3.0214951-1.0075773,.9056947-.6630022,1.9739304-.9945033,3.042166-.9945033s2.1364124,.3315011,3.0421071,.9945033c.9509824,.6961582,2.0001372,1.0075773,3.0214951,1.0075773,2.858483,0,5.4972412-2.4408823,5.1406522-5.7199694v-.0000589c-.2426925-2.2316402,.988143-4.3634591,3.042166-5.2691538,4.0964444-1.8062069,4.0964444-7.6185774,0-9.4247843-2.054023-.9056947-3.2848585-3.0375136-3.042166-5.2692127,.3565889-3.2793816-2.2819337-5.7199694-5.1407111-5.7199694-1.0211223,0-2.0706894,.3115957-3.0214362,1.0075773-.9056947,.6630022-1.9738715,.9945033-3.0421071,.9945033s-2.1364713-.3315011-3.042166-.9945033c-.9509824-.6961582-2.0001372-1.0076362-3.0214362-1.0075773-2.8585419,.0001767-5.4973001,2.4408823-5.1407111,5.7199694,.2426925,2.2316991-.9880841,4.363518-3.042166,5.2692127-4.0964444,1.8062069-4.0964444,7.6185774,0,9.4247843Zm17.8562431-4.7123922c0,1.9936591-1.6161636,3.6098227-3.6098227,3.6098227-1.9936002,0-3.6097638-1.6161636-3.6097638-3.6098227s1.6161636-3.6098227,3.6097638-3.6098227c1.9936591,0,3.6098227,1.6161636,3.6098227,3.6098227Z"/>
  </g>
</svg>