<?xml version="1.0" encoding="utf-8"?>
<svg viewBox="2.673 21.197 102.364 60.582" width="102.364" height="60.582" xmlns="http://www.w3.org/2000/svg">
  <defs>
    <style type="text/css">
	.st0{fill:#24272A;}
	.st1{fill:#472EE0;}
	.st2{fill-rule:evenodd;clip-rule:evenodd;fill:#FFEA00;}
	.st3{fill:#462DE0;}
	.st4{fill:#231F20;}
	.st5{fill:#FFFFFF;}
</style>
  </defs>
  <g id="Group-2-Copy-2" transform="matrix(1, 0, 0, 1, 0, 0.665356)">
    <polygon id="Path-3" class="st2" points="41.3442307,61.9910088 41.3442307,71.833313 53.7470589,79.1447449 66.1200714,71.833313 &#10;&#9;&#9;66.1200714,48.929203 53.7470589,56.0727654 41.3442307,48.929203 &#9;"/>
    <path id="Combined-Shape" class="st3" d="M63.9449883,46.3943977l4.2181892,1.7192154l0.0001678,22.8760796 c0,1.4531708-0.7475739,2.7998962-1.9711685,3.5698547l-0.1379013,0.0831528l-10.2284203,5.9053802 c-1.3050957,0.7535019-2.9130402,0.7535019-4.218132,0l0,0l-10.2284279-5.9053802 c-1.3050919-0.7535019-2.1090622-2.146019-2.1090622-3.6530075l0,0l-0.0004311-22.8561172l4.2181931-1.5885506 l0.0003662,24.4446678l10.2284279,5.9053802l10.2284241-5.9053802L63.9449883,46.3943977z M51.6077232,22.6382179 c1.3050919-0.7534962,2.9130363-0.7534962,4.218132,0l0,0l10.2284203,5.9053841 c1.3050995,0.7534962,2.1090698,2.1460152,2.1090698,3.6530075l0,0l-0.0001678,4.5297585l-4.2181892-0.0871086l0.0002251-4.4426498 l-10.2284241-5.9053822l-10.2284279,5.9053822l-0.0003662,4.0204048l-4.2181931-0.0865021l0.0004311-3.9339027 c0-1.4531708,0.74757-2.7999001,1.9711647-3.5698547l0.1378975-0.0831528L51.6077232,22.6382179z"/>
    <path id="Path-2" class="st3" d="M65.0655365,57.774231l2.1090698,3.6530075L54.80159,68.5708008 c-0.6292458,0.3632889-1.3992882,0.3762741-2.0385857,0.0389252l-0.0704803-0.0389252l-12.3730164-7.1435623l2.109066-3.6530075 l11.3183022,6.5345001L65.0655365,57.774231z"/>
    <path id="Path-2-Copy" class="st3" d="M65.0655365,46.9476929l2.1090698,3.6530075L54.80159,57.7442627 c-0.6292458,0.3632927-1.3992882,0.3762703-2.0385857,0.0389252l-0.0704803-0.0389252l-12.3730164-7.1435623l2.109066-3.6530075 l11.3183022,6.5345001L65.0655365,46.9476929z"/>
    <path id="Path-4" class="st3" d="M53.7167892,33.7295303H4.7864637c-2.0276482,0-2.8872004,2.5819168-1.2641599,3.7972755 l23.658884,17.7161522c0.6173763,0.4623032,1.43787,0.5507317,2.1395721,0.2305908l25.2714405-11.5295563 c0.7514801-0.3428497,1.233654-1.0928154,1.233654-1.9188042v-6.1865959 C55.8258553,34.67379,54.8815918,33.7295303,53.7167892,33.7295303z M51.6077232,37.9476585v2.7212601L28.7080498,51.1163864 l-17.586235-13.1687279H51.6077232z"/>
    <path id="Path-4-Copy" class="st3" d="M53.9939156,33.7295303h48.9303169c2.0276489,0,2.887207,2.5819168,1.2641678,3.7972755 L80.5295105,55.2429581c-0.6173782,0.4623032-1.4378662,0.5507317-2.1395721,0.2305908L53.1184998,43.9439926 c-0.7514763-0.3428497-1.2336502-1.0928154-1.2336502-1.9188042v-6.1865959 C51.8848495,34.67379,52.8291054,33.7295303,53.9939156,33.7295303z M56.1029816,37.9476585v2.7212601l22.8996658,10.4474678 l17.586235-13.1687279H56.1029816z"/>
    <path id="Line-Copy-3" class="st3" d="M46.686573,20.5316429c1.141964,0,2.071949,0.9075947,2.1079788,2.0408077 l0.0010796,0.0682583v4.5507164c0,1.1648045-0.9442596,2.1090641-2.1090584,2.1090641 c-1.1419716,0-2.0719566-0.9075928-2.1079865-2.0408077l-0.0010796-0.0682564v-4.5507164 C44.577507,21.4759045,45.5217667,20.5316429,46.686573,20.5316429z"/>
    <path id="Line-Copy-4" class="st3" d="M61.1688194,20.5316429c1.1419678,0,2.0719528,0.9075947,2.1079826,2.0408077 l0.0010834,0.0682583v4.5507164c0,1.1648045-0.9442596,2.1090641-2.109066,2.1090641 c-1.141964,0-2.071949-0.9075928-2.1079788-2.0408077l-0.0010872-0.0682564v-4.5507164 C59.0597534,21.4759045,60.0040169,20.5316429,61.1688194,20.5316429z"/>
  </g>
</svg>