<?xml version="1.0" encoding="utf-8"?>
<svg viewBox="6.251 13.525 385.258 272.839" width="385.258" height="272.839" xmlns="http://www.w3.org/2000/svg">
  <defs>
    <style>
      .cls-1 {
        fill: #80c88e;
      }

      .cls-2 {
        fill: #24272a;
      }

      .cls-3 {
        fill: #37813f;
      }
    </style>
  </defs>
  <polygon class="cls-2" points="257.664121 264.9377421 27.677976 264.9377421 27.677976 34.9524515 257.664121 34.9524515 257.664121 117.6195048 279.0908788 117.6195048 279.0908788 13.5253885 6.2511571 13.5253885 6.2511571 286.364805 279.0908788 286.364805 279.0908788 182.2706888 257.664121 182.2706888 257.664121 264.9377421"/>
  <rect class="cls-1" x="71.3995946" y="76.915159" width="141.9400635" height="21.4230347"/>
  <rect class="cls-1" x="71.3995946" y="201.552305" width="141.9400635" height="21.4230347"/>
  <polygon class="cls-3" points="322.3965429 182.2706888 322.3965429 207.6669291 391.5094579 149.9449442 322.3965429 92.2229593 322.3965429 117.6195048 322.3965429 139.0895365 322.3965429 139.2312601 71.3995946 139.2312601 71.3995946 160.6542948 322.3965429 160.6542948 322.3965429 160.8005961 322.3965429 182.2706888"/>
</svg>