<?xml version="1.0" encoding="utf-8"?>
<svg viewBox="4.277 1.794 74.523 68.366" xmlns="http://www.w3.org/2000/svg">
  <defs>
    <style>.cls-1{fill:#2f3134;}</style>
  </defs>
  <g>
    <path class="cls-1" d="M 25.5 68.35 C 25.385 68.351 25.276 68.295 25.21 68.2 L 4.33 38.63 C 4.267 38.522 4.267 38.388 4.33 38.28 L 19.43 5.37 C 19.484 5.256 19.594 5.18 19.72 5.17 L 55.72 1.84 C 55.835 1.841 55.941 1.902 56 2 L 76.92 31.56 C 76.983 31.668 76.983 31.802 76.92 31.91 L 61.83 64.82 C 61.776 64.934 61.666 65.01 61.54 65.02 L 25.54 68.35 L 25.54 68.35 Z M 5 38.39 L 25.67 67.63 L 61.28 64.34 L 76.28 31.8 L 55.59 2.56 L 20 5.85 Z M 61.51 64.67 L 61.51 64.67 Z"/>
    <path class="cls-1" d="M 25.38 68.27 L 19.6 38.18 L 19.6 5.28 L 47.76 13.57 L 76.96 31.74 L 55.24 51 Z M 19.92 5.75 L 19.92 38.15 L 25.6 67.73 L 55 50.73 L 76.35 31.79 L 47.56 13.88 Z"/>
    <circle class="cls-1" cx="48.19" cy="13.9" r="1.05"/>
    <path class="cls-1" d="M 48.19 16.07 C 46.527 16.07 45.488 14.27 46.319 12.83 C 47.151 11.39 49.229 11.39 50.061 12.83 C 50.25 13.158 50.35 13.531 50.35 13.91 C 50.345 15.101 49.381 16.065 48.19 16.07 Z M 48.19 13.84 L 48.13 13.9 C 48.13 13.933 48.157 13.96 48.19 13.96 L 48.19 13.84 Z"/>
    <circle class="cls-1" cx="55.19" cy="50.82" r="1.05"/>
    <path class="cls-1" d="M 55.19 53 C 53.527 53 52.488 51.2 53.319 49.76 C 54.151 48.32 56.229 48.32 57.061 49.76 C 57.25 50.088 57.35 50.461 57.35 50.84 C 57.345 52.031 56.381 52.995 55.19 53 Z M 55.19 50.77 L 55.13 50.83 C 55.13 50.863 55.157 50.89 55.19 50.89 L 55.19 50.76 Z"/>
    <circle class="cls-1" cx="25.76" cy="68" r="1.05"/>
    <path class="cls-1" d="M 25.76 70.16 C 24.097 70.16 23.058 68.36 23.889 66.92 C 24.721 65.48 26.799 65.48 27.631 66.92 C 27.82 67.248 27.92 67.621 27.92 68 C 27.915 69.191 26.951 70.155 25.76 70.16 Z M 25.76 67.93 L 25.69 68 C 25.69 68.033 25.717 68.06 25.75 68.06 L 25.75 67.94 Z"/>
    <circle class="cls-1" cx="19.74" cy="38.5" r="1.05"/>
    <path class="cls-1" d="M 19.74 40.66 C 18.077 40.66 17.038 38.86 17.869 37.42 C 18.701 35.98 20.779 35.98 21.611 37.42 C 21.8 37.748 21.9 38.121 21.9 38.5 C 21.895 39.691 20.931 40.655 19.74 40.66 Z M 19.74 38.43 L 19.68 38.49 C 19.68 38.523 19.707 38.55 19.74 38.55 L 19.74 38.44 Z"/>
    <circle class="cls-1" cx="76.64" cy="31.82" r="1.05"/>
    <path class="cls-1" d="M 76.64 34 C 74.977 34 73.938 32.2 74.769 30.76 C 75.601 29.32 77.679 29.32 78.511 30.76 C 78.7 31.088 78.8 31.461 78.8 31.84 C 78.795 33.031 77.831 33.995 76.64 34 Z M 76.64 31.77 L 76.58 31.83 C 76.58 31.863 76.607 31.89 76.64 31.89 L 76.64 31.75 Z"/>
    <circle class="cls-1" cx="19.74" cy="5.52" r="1.05"/>
    <path class="cls-1" d="M 19.74 7.68 C 18.077 7.68 17.038 5.88 17.869 4.44 C 18.701 3 20.779 3 21.611 4.44 C 21.8 4.768 21.9 5.141 21.9 5.52 C 21.895 6.711 20.931 7.675 19.74 7.68 Z M 19.74 5.45 L 19.68 5.51 C 19.68 5.543 19.707 5.57 19.74 5.57 L 19.74 5.46 Z"/>
    <path class="cls-1" d="M 61.51 65 L 61.4 65 L 33.94 55.31 L 4.45 38.73 C 4.247 38.611 4.216 38.329 4.39 38.17 L 26.57 17.83 L 55.57 1.83 C 55.668 1.782 55.782 1.782 55.88 1.83 C 55.981 1.874 56.055 1.963 56.08 2.07 L 62.58 30.65 L 61.85 64.65 C 61.85 64.839 61.699 64.995 61.51 65 Z M 5.21 38.36 L 34.21 54.68 L 61.16 64.19 L 61.9 30.76 L 55.51 2.76 L 27 18.4 Z"/>
    <path class="cls-1" d="M 55.31 51 L 55.17 51 L 19.57 38.53 L 19.68 38.43 L 48.25 13.74 Z M 19.92 38.47 L 55.08 50.69 L 48.13 14.07 Z"/>
    <path class="cls-1" d="M 33.83 55.63 L 26.35 17.55 L 62.94 30.64 Z M 27.27 18.63 L 34.27 54.32 L 61.57 30.89 Z"/>
    <rect class="cls-1" x="22.93" y="4.59" width="0.7" height="14.42" transform="matrix(0.871813, -0.489839, 0.489839, 0.871813, -2.8, 12.91)"/>
    <polygon class="cls-1" points="26.05 68.19 25.46 67.81 33.76 54.79 34.35 55.17 26.05 68.19"/>
    <rect class="cls-1" x="69.1" y="24.08" width="0.7" height="14.42" transform="matrix(0.07289, -0.99734, 0.99734, 0.07289, 33.18, 98.269997)"/>
  </g>
</svg>