<?xml version="1.0" encoding="UTF-8" standalone="no"?>
<svg
   viewBox="2.673 21.197 102.364 60.582"
   version="1.1"
   id="svg961"
   xmlns="http://www.w3.org/2000/svg"
   xmlns:svg="http://www.w3.org/2000/svg">
  <defs
     id="defs950">
    <style
       type="text/css"
       id="style948">
	.st0{fill:#24272A;}
	.st1{fill:#472EE0;}
	.st2{fill-rule:evenodd;clip-rule:evenodd;fill:#FFEA00;}
	.st3{fill:#462DE0;}
	.st4{fill:#231F20;}
	.st5{fill:#FFFFFF;}
</style>
  </defs>
  <path
     id="yellow part"
     class="st2"
     d="M 40.814453 31.232422 L 40.814453 37.1875 L 51.074219 43.111328 L 61.271484 37.222656 L 61.271484 31.267578 L 52.128906 36.546875 C 51.49966 36.910165 50.729142 36.923277 50.089844 36.585938 L 50.019531 36.546875 L 40.814453 31.232422 z M 40.814453 42.058594 L 40.814453 49.792969 L 51.042969 55.697266 L 61.271484 49.792969 L 61.271484 42.095703 L 52.128906 47.373047 C 51.49966 47.736333 50.729142 47.749463 50.089844 47.412109 L 50.019531 47.373047 L 40.814453 42.058594 z "
     transform="translate(2.673,21.197)" />
  <path
     id="blue part"
     style="display:inline"
     class="st3"
     d="m 44.013672,0 c -1.164806,-1e-6 -2.109375,0.94457 -2.109375,2.109375 v 4.0566406 l -3.197266,1.8457032 -0.138672,0.083984 c -1.223595,0.769955 -1.970703,2.1151892 -1.970703,3.5683592 v 1.533204 H 2.1132812 c -2.02764805,0 -2.88671232,2.583469 -1.26367182,3.798828 L 24.507812,34.710938 c 0.617378,0.462302 1.438924,0.550609 2.140626,0.230468 l 9.949218,-4.539062 v 20.05664 c 0,1.506988 0.804283,2.898842 2.109375,3.652344 l 10.228516,5.904297 c 1.305092,0.753502 2.911702,0.753502 4.216797,0 l 10.228515,-5.904297 0.138672,-0.08398 c 1.223594,-0.769958 1.970703,-2.115189 1.970703,-3.56836 V 30.275391 l 10.226563,4.666015 c 0.701706,0.320141 1.523247,0.231834 2.140625,-0.230468 L 101.51562,16.996094 c 1.62306,-1.215359 0.76398,-3.798828 -1.26367,-3.798828 H 65.490234 v -1.533204 c 0,-1.506992 -0.804276,-2.8988473 -2.109375,-3.6523432 L 60.605469,6.4101562 V 2.109375 l -0.002,-0.068359 C 60.567533,0.90780225 59.638062,0 58.496094,0 57.331292,0 56.386719,0.94457 56.386719,2.109375 V 3.9746094 L 53.152344,2.1074219 c -1.305095,-0.753496 -2.911705,-0.753496 -4.216797,0 l -2.8125,1.6230469 V 2.109375 l -0.002,-0.068359 C 46.085111,0.90780225 45.155636,0 44.013672,0 Z m 7.029297,5.7597656 10.228515,5.9042964 v 1.533204 h -9.951172 c -0.04763,0 -0.09183,0.01056 -0.138671,0.01367 -0.04663,-0.0031 -0.09126,-0.01367 -0.138672,-0.01367 H 40.814453 V 11.664062 Z M 8.4492188,17.416016 H 48.935547 v 2.720703 L 26.035156,30.583984 Z m 44.9804692,0 H 93.916016 L 76.330078,30.583984 53.429688,20.136719 Z m -2.246094,6.332031 8.841797,4.035156 -8.951172,5.167969 -8.855469,-5.113281 z m -10.369141,8.150391 9.205078,5.314453 0.07031,0.03906 c 0.639298,0.33734 1.409816,0.32423 2.039062,-0.03906 l 9.142578,-5.279297 v 5.955078 L 51.074219,43.777344 40.814453,37.853516 Z m 0,10.826171 9.205078,5.314453 0.07031,0.03906 c 0.639298,0.337354 1.409816,0.324226 2.039062,-0.03906 l 9.142578,-5.277343 v 7.697265 L 51.042969,56.363281 40.814453,50.458984 Z"
     transform="translate(2.673,20.531644)" />
</svg>
