<?xml version="1.0" encoding="UTF-8"?>
<svg id="Layer_1" data-name="Layer 1" xmlns="http://www.w3.org/2000/svg" viewBox="0 0 300 299.9990551">
  <defs>
    <style>
      .cls-1 {
        fill: none;
      }

      .cls-2 {
        fill: #fff;
      }
    </style>
  </defs>
  <path class="cls-1" d="M163.3288722,80.6056232c.0952148,.3790283,.1611328,.7694092,.1611328,1.1776733,0,2.6799316-2.1806641,4.8596191-4.8598633,4.8596191-2.6787109,0-4.859375-2.1796875-4.859375-4.8596191,0-.4078979,.065918-.7982788,.1611328-1.1772461-3.2470703,1.703064-5.4858398,5.0661621-5.4858398,8.9859619,0,5.624939,4.5595703,10.1848145,10.1850586,10.1848145,5.6245117,0,10.1845703-4.5598755,10.1845703-10.1848145,0-3.9205933-2.2402344-7.2836914-5.4868164-8.9863892Z"/>
  <path class="cls-2" d="M98.0110011,245.3490925c-5.5709229-3.9428711-10.7766113-8.2427368-15.616333-12.843689-2.7268066-2.5921021-5.3188477-5.2910156-7.8059082-8.0684204C36.1883693,181.5630817,26.5573878,117.6499958,55.2850489,63.9577351c4.6798096-8.7456665,10.1584473-16.7876587,16.2833252-24.1036987-18.6136475,12.4432373-34.5358887,29.4953613-45.8365479,50.6161499C-3.3546,144.8318195,6.8665914,209.681612,46.4718165,252.5538044c2.5280762,2.7369385,5.1889648,5.37117,7.9539795,7.9203644,7.4678955,6.883728,15.7674561,13.0698853,24.8947754,18.3570557l18.6904297-33.4821167v-.0000153Z"/>
  <path class="cls-2" d="M185.7922511,49.4325275l-23.7929688-32.9165039-6.2485352-8.6439209c-.2768555,2.2936401-.4785156,5.1340942-.4194336,8.2341919,.2470703,13.0859375,5.3232422,30.9212646,30.4609375,33.3262329Z"/>
  <path class="cls-2" d="M208.7356105,46.9956989l7.8496094-14.0616455-8.0771484-4.1652222L156.7619777,2.0837102l10.8730469,15.0431514,9.1162109,12.6121826,14.4492188,19.9901752h-.0004883l-3.7856445,1.947998-115.6610107,59.512146h101.1478271l35.8344727-64.1936646Zm-50.1044922,52.7811279c-5.6254883,0-10.1850586-4.5598755-10.1850586-10.1848145,0-3.9197998,2.2387695-7.2828979,5.4858398-8.9859619-.0952148,.3789673-.1611328,.7693481-.1611328,1.1772461,0,2.6799316,2.1806641,4.8596191,4.859375,4.8596191,2.6791992,0,4.8598633-2.1796875,4.8598633-4.8596191,0-.4082642-.065918-.798645-.1611328-1.1776733,3.246582,1.7026978,5.4868164,5.0657959,5.4868164,8.9863892,0,5.624939-4.5600586,10.1848145-10.1845703,10.1848145Z"/>
  <path class="cls-2" d="M244.4372706,128.410738c-3.3789062-11.1643066-8.6767578-21.5020142-15.5268555-30.6152954l-26.7470703,20.9603882c4.1411133,5.6390991,7.3950195,11.9671021,9.5429688,18.7839355l32.730957-9.1290283Z"/>
  <path class="cls-2" d="M109.9318995,251.5880451c-2.8500977-1.2120972-5.6298828-2.5571289-8.3417969-4.0124512l-.0800781,.1442261-18.5360107,33.2053375c.1807861,.0997314,.354248,.2072754,.536377,.3045654,2.4311523,1.3008423,4.8881836,2.5023193,7.3581543,3.6469116,.777832,.3600464,1.5622559,.6882324,2.3432617,1.0335693,1.7230225,.7605591,3.4520264,1.4937134,5.1903076,2.1802368,.8925781,.3529053,1.7871094,.6923828,2.6831055,1.0250854,1.7084961,.6347656,3.4238281,1.2295532,5.1445312,1.7937622,.8442383,.2768555,1.6870117,.56427,2.5336914,.8242798,2.1083984,.647522,4.2250977,1.2374268,6.3466797,1.7814941,.362793,.0924683,.722168,.2038574,1.0849609,.2935791,.0732422,.0181885,.1459961,.0414429,.2192383,.0592651,.1875,.0462646,.3769531,.0760498,.5649414,.1219482,2.1982422,.5310669,4.4033203,1.0014038,6.6113281,1.4231567,.1713867,.0328979,.3422852,.0787964,.5136719,.1110229,.5219727,.09729,1.0444336,.1691895,1.5668945,.2606812,.2011719,.0352783,.4033203,.0661011,.6054688,.100708,1.5678711,.2682495,3.1376953,.5026245,4.7089844,.7163696l4.597168-37.8988037c-8.9697266-1.2689819-17.5756836-3.6801147-25.6508789-7.1149292v-.0000153Z"/>
  <path class="cls-2" d="M140.2649073,255.0423908c3.21875,.3186035,6.480957,.4882202,9.7827148,.4882202,8.440918,0,16.6357422-1.0695801,24.4604492-3.0740967l-9.1352539-32.7540894c-4.9155273,1.2004395-10.0449219,1.8513184-15.3251953,1.8513184-1.918457,0-3.8129883-.1003418-5.6889648-.2648315l-4.09375,33.753479Z"/>
  <path class="cls-2" d="M167.939712,176.3399372l20.9799805,26.7714844c4.9658203-4.1864624,9.2109375-9.1766968,12.6210938-14.7389526l-29.5712891-16.6732788c-1.1533203,1.7061157-2.5209961,3.2491455-4.0297852,4.6407471Z"/>
  <path class="cls-2" d="M179.6906886,255.3658161l10.2333984,36.690506c1.5527344-.4584351,3.1044922-.9161377,4.640625-1.4279175,.6298828-.210022,1.2646484-.4039307,1.8916016-.6228638,2.6132812-.9116211,5.2016602-1.8966064,7.7592773-2.9606934,.5517578-.2294922,1.0927734-.4837036,1.6411133-.7200928,2.0581055-.8873291,4.0957031-1.8233032,6.1118164-2.8078613,.7324219-.3583984,1.4638672-.71875,2.1904297-1.0894775,2.2075195-1.1260986,4.3911133-2.3042603,6.5405273-3.5478516,.2900391-.1678467,.5878906-.3200073,.8774414-.4899292,2.4042969-1.4141846,4.7597656-2.9188843,7.0830078-4.4786987,.6381836-.4282227,1.2641602-.8753052,1.8959961-1.3145142,1.6074219-1.1174927,3.1850586-2.2816162,4.7485352-3.4690552l-23.5341797-30.0315552c-9.5429688,7.1862183-20.3759766,12.7388916-32.0795898,16.2700195v-.0000153Z"/>
  <path class="cls-2" d="M159.1506495,181.7193317l9.1464844,32.7935181c6.2773438-1.9942627,12.0800781-5.0261841,17.2871094-8.8320312l-20.9428711-26.7248535c-1.7006836,1.1298828-3.5463867,2.0473633-5.4907227,2.7633667Z"/>
  <path class="cls-2" d="M174.0183253,168.021822l29.6191406,16.7006226c2.9604492-5.6828613,5.0073242-11.8947144,6.0327148-18.4501953l-33.7060547-4.088501c-.4145508,2.0455933-1.0878906,3.9929199-1.9458008,5.8380737Z"/>
  <path class="cls-2" d="M210.4694972,156.9219074c0-4.8901978-.6474609-9.6213379-1.7495117-14.1777954l-32.7236328,9.1265869c.3178711,1.6369019,.496582,3.3231812,.496582,5.0512085,0,.3651733-.0405273,.7200928-.0551758,1.0811768l33.7695312,4.0960083c.1459961-1.7102051,.262207-3.4293213,.262207-5.1771851Z"/>
  <path class="cls-2" d="M172.4133448,142.8743c.9765625,1.5484619,1.7905273,3.2039185,2.4316406,4.9462891l32.7939453-9.1464844c-1.9941406-6.2776489-5.0258789-12.0804443-8.8320312-17.2878418l-24.4672852,19.1741333-1.0854492,.8503418-1.171875,.9188232c.0654297,.0983276,.1201172,.2041626,.1845703,.3035278,.0507812,.0787964,.0966797,.1616821,.1464844,.2412109Z"/>
  <path class="cls-2" d="M215.080337,236.4935017l23.5390625,30.0370026c1.8574219-1.5012207,3.7075195-3.0140991,5.4941406-4.6157227,.3017578-.2703247,.5893555-.5598145,.8886719-.8331909,1.8173828-1.6577759,3.5913086-3.3728027,5.328125-5.1343994,.5874023-.5961304,1.168457-1.2004395,1.7460938-1.8082275,1.6083984-1.6913452,3.1791992-3.4286499,4.7109375-5.2104492,.3803711-.4422607,.7749023-.868103,1.1499023-1.3158569,1.8451996-2.2015381,3.625473-4.4746094,5.3481293-6.8079834,.4262695-.5776367,.8325195-1.175415,1.2509766-1.7609253,1.3320312-1.8630371,2.6235352-3.7657471,3.8740234-5.7092896,.4555664-.7074585,.9130859-1.4124756,1.3574219-2.1305542,.6625977-1.0709839,1.2714844-2.1918945,1.9086914-3.2861328l-33.15625-18.694519c-6.1757812,10.4065552-14.1225586,19.6407471-23.4399414,27.2702637l.0000153-.0000153Z"/>
  <path class="cls-2" d="M150.0476222,183.3671589c-.2973633,0-.5864258-.0346069-.8813477-.0444946-.0673828-.0020752-.1337891-.0075684-.2011719-.0103149l-.0551758,.456665-4.0405273,33.312561c1.7104492,.1463013,3.4301758,.2624512,5.1782227,.2624512,4.890625,0,9.6225586-.647522,14.1791992-1.7496338l-9.1264648-32.723938c-1.637207,.3186035-3.3237305,.4967041-5.0527344,.4967041Z"/>
  <path class="cls-2" d="M248.4914698,127.2801838l36.6415863-10.2194824c-.53125-1.7958374-1.0786133-3.5869141-1.6801758-5.3608398-1.421875-4.1906128-3.0410156-8.31604-4.8520508-12.3607178-1.4951172-3.3399048-3.152832-6.6092529-4.9072266-9.8306274-.7680664-1.4104614-1.5605469-2.8065186-2.3774414-4.1915894-2.7666016-4.6911011-5.800293-9.2396851-9.1171875-13.6083984l-29.9765625,23.4914551c7.1860352,9.5435791,12.7382812,20.3766479,16.269043,32.0802002h.0000153Z"/>
  <path class="cls-2" d="M240.6047511,205.5660725l33.1860199,18.7113037c.152832-.2816162,.3286133-.5426636,.4799805-.8256836,2.2529297-4.2104492,4.2700195-8.4838867,6.0556641-12.8053589,4.6782227-11.3192139,7.7412109-22.9672852,9.3305664-34.6722412l-37.8286133-4.5883789c-1.7270508,12.2075806-5.5898438,23.7351074-11.2236328,34.1803589h.0000153Z"/>
  <path class="cls-2" d="M289.5886226,137.5076008c-.7768555-5.5314941-1.918457-10.9971924-3.3398438-16.387207l-36.6083984,10.2106323c2.1040039,8.1845093,3.2255859,16.7588501,3.2255859,25.5908813,0,3.4724731-.1777344,6.9038696-.5161133,10.2890015l37.8212891,4.5876465c.9741211-9.2554321,1.0366211-18.5263062,.1884766-27.6793213-.2050781-2.2114258-.4628906-4.4159546-.7709961-6.6116333Z"/>
  <path class="cls-2" d="M247.6506495,170.8790607l-33.7241211-4.0905762c-1.0957031,7.12146-3.3710938,13.8551025-6.5976562,20.015564l29.6074219,16.6937866c5.3676758-9.9735107,9.0561523-20.9720459,10.7143555-32.6187744Z"/>
  <path class="cls-2" d="M234.8547511,207.1560383l-29.5869141-16.6818237c-3.6860352,6.0446777-8.3417969,11.4329834-13.7412109,15.9637451l20.9584961,26.7440186c8.8852539-7.2879028,16.4677734-16.1000366,22.3696289-26.0259399Z"/>
  <path class="cls-2" d="M150.0476222,259.7403126c-3.4731445,0-6.9052734-.1781006-10.2900391-.5159302l-4.5947266,37.8809814c1.3564453,.1431885,2.7133789,.2651978,4.0698242,.3682861,.1962891,.0147705,.3925781,.0390625,.5888672,.0531006,.3076172,.0222778,.6152344,.0418091,.9223633,.0617065,.5874023,.0383301,1.1748047,.0869751,1.762207,.1177979,1.940918,.1021118,3.8808594,.1535034,5.8188477,.1747437,.6391602,.0072021,1.2792969,.0363159,1.9179688,.0342407,2.7963867-.0068359,5.5859375-.1072388,8.3676758-.2802124,.7050781-.0438843,1.40625-.1120605,2.109375-.1665039,2.1762695-.1678467,4.3461914-.385437,6.5083008-.6536865,.7792969-.0966187,1.5585938-.1884155,2.3354492-.2980347,2.7631836-.3895264,5.5180664-.8345337,8.2495117-1.3861084,.1147461-.0229492,.2275391-.053772,.3417969-.0774536,2.59375-.5299683,5.1650391-1.1548462,7.7236328-1.8291016l-10.2387695-36.7092896c-8.1845703,2.1044922-16.7602539,3.2254639-25.5922852,3.2254639Z"/>
  <path class="cls-2" d="M103.642837,243.898592c2.7285156,1.461853,5.53125,2.8027344,8.4052734,4.0079956,7.581543,3.1781616,15.644043,5.4228516,24.0410156,6.6181641l4.0908203-33.723999c-3.7832031-.5817261-7.4516602-1.5101318-10.9902344-2.7201538-3.0942383-1.0584717-6.0827637-2.3428345-8.9470215-3.8383179l-9.4108887,16.777771-7.1889648,12.87854Z"/>
  <path class="cls-2" d="M209.1755519,235.7843342l-20.9609375-26.7468262c-5.6386719,4.1412964-11.9667969,7.3952026-18.7832031,9.5429077l9.1289062,32.7311401c11.1645508-3.3789673,21.5014648-8.6768188,30.6152344-15.5272217Z"/>
  <path class="cls-2" d="M248.6560206,156.9219074c0-8.4401245-1.0693359-16.6348877-3.0737305-24.4589844l-32.7539062,9.1351929c1.199707,4.9155273,1.8510742,10.0440674,1.8510742,15.3237915,0,1.9177856-.1005859,3.8116455-.2651367,5.6876831l33.753418,4.0939331c.3188477-3.2182617,.4882812-6.4804077,.4882812-9.7816162Z"/>
  <path class="cls-2" d="M131.3376613,214.3435993c3.0195312,.9866333,6.1518555,1.6992188,9.3588867,2.2008057l2.8413086-23.428772,1.246582-10.2774048c-2.0449219-.4145508-3.9912109-1.0874023-5.8359375-1.9452515l-.0129395,.0230713-16.6193848,29.6297607c2.8823242,1.4971924,5.8925781,2.7757568,9.0214844,3.7977905Z"/>
  <path class="cls-2" d="M181.4978175,105.4290485l-3.2480469,5.7603149-12.3925781,21.9789429-1.0327148,1.831543c1.7060547,1.1535034,3.2495117,2.5211182,4.6416016,4.0305786l9.3828125-7.3533936,17.3881836-13.6262207c-1.8520508-2.1973877-3.8833008-4.2303467-6.0258789-6.144043-.5449219-.486145-1.0585938-1.0058594-1.6196289-1.4724731-1.8666992-1.5498657-3.8491211-2.9558716-5.894043-4.2755127-.3925781-.25354-.800293-.4851074-1.199707-.7297363Z"/>
  <path class="cls-2" d="M221.0359034,35.3054523l-3.4536133,6.1248169-12.6728516,22.4760742-2.5610352,4.5427246c.0439453,.026062,.0888672,.0507202,.1328125,.0767822,3.159668,1.8814697,6.2197266,3.9137573,9.1494141,6.1124878,2.4194336,1.8153687,4.7490234,3.7424927,6.9970703,5.7596436,2.7871094,2.5002441,5.4370117,5.1494751,7.9379883,7.9364624,1.0429688,1.1627808,2.0634766,2.3464355,3.0537109,3.5557861l29.9701996-23.4863892c-.7797852-.9653931-1.5400391-1.9438477-2.3466797-2.8900757-1.2006836-1.40802-2.4511719-2.7804565-3.7114258-4.1453247-2.5283203-2.7366333-5.1889648-5.3711548-7.9541016-7.9200439-4.6401367-4.2775879-9.6010742-8.2832031-14.8896484-11.96875-2.1000977-1.463562-4.2558594-2.8709106-6.4560547-4.2323608-1.0576172-.6550903-2.1152344-1.3114624-3.1958008-1.9418335h.0000153Z"/>
  <path class="cls-2" d="M215.6452784,83.3802204c-1.9755859-1.7643433-4.0200195-3.4529419-6.1333008-5.055603-2.8779297-2.1829834-5.878418-4.2097778-8.9902344-6.0714111-.0795898-.0476074-.1611328-.0911255-.2407227-.1383667l-16.6816406,29.5864868c.3647461,.2223511,.7177734,.4621582,1.078125,.6917114,2.4111328,1.5368652,4.7177734,3.2227173,6.8984375,5.0566406,.2700195,.2268066,.5332031,.4607544,.7993164,.6920166,2.5629883,2.2268677,4.9526367,4.6455688,7.1386719,7.2444458,.0161133,.019165,.0336914,.0383911,.0498047,.0575562l26.7441406-20.958374c-.8833008-1.0777588-1.7973633-2.1295166-2.7250977-3.1682739-2.4941406-2.7935181-5.144043-5.4423828-7.9375-7.9368286Z"/>
  <path class="cls-2" d="M102.8874659,196.138277l-17.3570557-17.3566895c-8.0159912,8.0162964-8.0159912,21.0128174,0,29.0291138,.9732666,.9733276,2.0222168,1.822937,3.1243896,2.5601807,3.7498779,2.5067749,8.1394043,3.6280518,12.473877,3.4002075,4.8857422-.2572632,9.6987305-2.2285156,13.4306641-5.9603882l-3.7348633-3.7352295-7.9370117-7.9371948Z"/>
  <path class="cls-2" d="M132.1926417,158.619112c4.6826172,0,8.9853516-1.5855713,12.4394531-4.2255249,1.453125-1.1110229,2.7504883-2.4080811,3.8618164-3.8616943,2.6396484-3.4540405,4.2255859-7.7562866,4.2255859-12.4395142h-41.0537109c0,11.3366699,9.1904297,20.5267334,20.5268555,20.5267334Z"/>
  <path class="cls-2" d="M141.017837,177.2228107c1.3608398,.6074219,2.7890625,1.0849609,4.2768555,1.4107666,1.3510742,.2956543,2.7480469,.4580688,4.1777344,.4950562,.1928711,.0048218,.3808594,.0288086,.5751953,.0288086,.5258789,0,1.0410156-.0424805,1.5576172-.0787964,.7983398-.055542,1.5839844-.1497192,2.3569336-.2877808,1.402832-.2507935,2.7563477-.6337891,4.0551758-1.1350098,1.4121094-.5450439,2.7553711-1.2240601,4.012207-2.0325928,1.1860352-.7626343,2.2924805-1.6334839,3.3100586-2.6009521,1.0883789-1.0339355,2.0751953-2.1710205,2.9375-3.4050293,.8017578-1.1473389,1.4936523-2.3737793,2.0703125-3.6646729,.6079102-1.361145,1.0864258-2.7904053,1.4116211-4.2789917,.2958984-1.3504639,.4580078-2.74823,.4946289-4.1779175,.0048828-.1925049,.0292969-.3798828,.0292969-.5737915,0-1.3371582-.1396484-2.6403809-.3666992-3.9130859-.2504883-1.4025879-.6333008-2.7561646-1.1347656-4.0549316-.2416992-.6269531-.5112305-1.2380981-.8071289-1.8363037-.2397461-.4851074-.4941406-.9598999-.7675781-1.4244385-.1489258-.2528687-.2988281-.5056763-.4575195-.7520142-.7626953-1.1864014-1.6337891-2.2929688-2.6010742-3.3111572-1.034668-1.0880737-2.1713867-2.0753784-3.4052734-2.9373779-.0297852-.020813-.0585938-.0429077-.0874023-.0650635l-21.6459961,38.5912476c.0026855,.0012817,.0053711,.0027466,.0083008,.0040283Z"/>
</svg>