<?xml version="1.0" encoding="UTF-8"?>
<svg id="Layer_1" data-name="Layer 1" xmlns="http://www.w3.org/2000/svg" viewBox="0 0 300 299.9990551">
  <defs>
    <style>
      .cls-1 {
        fill: none;
      }

      .cls-2 {
        fill: #80c88e;
      }

      .cls-3 {
        fill: #24282a;
      }

      .cls-4 {
        fill: #2775bb;
      }
    </style>
  </defs>
  <path class="cls-1" d="M158.6309907,77.4234784c-6.9750977,0-12.6496582,5.6746826-12.6496582,12.6495361,0,6.9747925,5.6745605,12.6494751,12.6496582,12.6494751s12.6494141-5.6746826,12.6494141-12.6494751c0-6.9748535-5.6743164-12.6495361-12.6494141-12.6495361Zm0,21.2297363c-4.7387695,0-8.5803223-3.8414917-8.5803223-8.5802002,0-3.3022461,1.8862305-6.135498,4.6213379-7.5702515-.0800781,.3192749-.135498,.6481934-.135498,.9917603,0,2.2576904,1.8369141,4.0939941,4.0939941,4.0939941,2.2568359,0,4.0939941-1.8363037,4.0939941-4.0939941,0-.3439331-.0554199-.6727905-.1357422-.9921265,2.7351074,1.4344482,4.6223145,4.2677002,4.6223145,7.5706177,0,4.7387085-3.8415527,8.5802002-8.5800781,8.5802002Z"/>
  <path class="cls-4" d="M98.0108735,245.3492596c-5.5708008-3.9428711-10.7766113-8.2427368-15.616333-12.84375-2.7266846-2.5921021-5.3187256-5.2910156-7.8059082-8.0684204C36.1881196,181.5631268,26.5572602,117.6499188,55.2849214,63.957597c4.6798096-8.7457275,10.1585693-16.7877197,16.2833252-24.1037598-18.6135254,12.4432983-34.5358887,29.4954224-45.8366699,50.6162109C-3.3548496,144.8318036,6.8664639,209.6816571,46.471811,252.5539715c2.5279541,2.7369385,5.1888428,5.37117,7.9538574,7.9203644,7.4677734,6.883728,15.7675781,13.0698853,24.8947754,18.3571167l18.6904297-33.4821777v-.0000153Z"/>
  <path class="cls-2" d="M185.7921235,49.4323895l-23.7924805-32.9165649-6.2485352-8.6439209c-.2773438,2.2936401-.4787598,5.1340942-.4199219,8.2341919,.2475586,13.0859985,5.3232422,30.9212646,30.4609375,33.3262939Z"/>
  <path class="cls-4" d="M208.7359712,46.9954998l7.8493652-14.0616455-8.0773926-4.1652222L156.7618501,2.0834515l10.873291,15.0432129,9.1164551,12.6121826,14.4489746,19.9902344h-.0002441l-3.7856445,1.947937-115.661377,59.5123291h101.1481934l35.8344727-64.1938477Zm-50.1049805,55.7269897c-6.9750977,0-12.6496582-5.6746826-12.6496582-12.6494751,0-6.9748535,5.6745605-12.6495361,12.6496582-12.6495361s12.6494141,5.6746826,12.6494141,12.6495361c0,6.9747925-5.6743164,12.6494751-12.6494141,12.6494751Z"/>
  <path class="cls-3" d="M162.5887544,82.5023968c.0803223,.3193359,.1357422,.6481934,.1357422,.9921265,0,2.2576904-1.8371582,4.0939941-4.0939941,4.0939941-2.2570801,0-4.0939941-1.8363037-4.0939941-4.0939941,0-.3435669,.0554199-.6724854,.135498-.9917603-2.7351074,1.4347534-4.6213379,4.2680054-4.6213379,7.5702515,0,4.7387085,3.8415527,8.5802002,8.5803223,8.5802002,4.7385254,0,8.5800781-3.8414917,8.5800781-8.5802002,0-3.3029175-1.887207-6.1361694-4.6223145-7.5706177Z"/>
  <path class="cls-2" d="M244.4373872,128.410722c-3.3786621-11.1643677-8.6765137-21.5020752-15.5266113-30.6153564l-26.7470703,20.9604492c4.1411133,5.6390381,7.3950195,11.967041,9.5427246,18.7839355l32.730957-9.1290283Z"/>
  <path class="cls-2" d="M109.9320161,251.5882122c-2.8498535-1.2120972-5.6296387-2.5571289-8.3415527-4.0124512l-.0805664,.1442261-18.5360107,33.2053375c.1809082,.0997314,.354248,.2072754,.536499,.3045654,2.4310303,1.3008423,4.8881836,2.5023193,7.3581543,3.6469116,.77771,.3600464,1.5622559,.6882935,2.3432617,1.0336304,1.7229004,.760498,3.4519043,1.4936523,5.1904297,2.1802368,.892334,.3528442,1.7868652,.6923828,2.6831055,1.0250244,1.708252,.6348267,3.4238281,1.2295532,5.1442871,1.7938232,.8442383,.2767944,1.6870117,.564209,2.5339355,.8242798,2.1081543,.6474609,4.2248535,1.2374268,6.3469238,1.7814331,.3623047,.0925293,.722168,.2038574,1.0844727,.2936401,.0732422,.0181274,.1459961,.0414429,.2192383,.0592651,.1877441,.0462646,.3771973,.0760498,.5654297,.1219482,2.197998,.5310059,4.402832,1.0014038,6.6113281,1.4231567,.1711426,.0328369,.3417969,.0787964,.5134277,.1109619,.5217285,.09729,1.0446777,.1692505,1.5666504,.2607422,.201416,.0352783,.4035645,.0661011,.6054688,.100708,1.5678711,.2682495,3.1381836,.5025635,4.7092285,.7163696l4.5969238-37.8988647c-8.9694824-1.2689819-17.5756836-3.6801147-25.6506348-7.1149292v-.0000153Z"/>
  <path class="cls-2" d="M140.2647798,255.0425579c3.2189941,.3186035,6.4812012,.4881592,9.7827148,.4881592,8.4411621,0,16.6359863-1.0695801,24.4606934-3.0740356l-9.1352539-32.7542114c-4.9157715,1.2004395-10.045166,1.8513794-15.3254395,1.8513794-1.9182129,0-3.8127441-.1003418-5.6887207-.2648315l-4.0939941,33.75354Z"/>
  <path class="cls-2" d="M167.9400727,176.3399823l20.9794922,26.7714844c4.9663086-4.1864624,9.2109375-9.1766357,12.6210938-14.7389526l-29.5710449-16.6732788c-1.1530762,1.7061157-2.520752,3.2491455-4.029541,4.6407471Z"/>
  <path class="cls-2" d="M179.6910493,255.3659222l10.2331543,36.690567c1.5524902-.458374,3.1044922-.9160767,4.640625-1.4279175,.6296387-.210022,1.2648926-.4039307,1.8916016-.6228027,2.6135254-.9116821,5.201416-1.8966064,7.7592773-2.9606934,.5515137-.2295532,1.0930176-.4837646,1.6408691-.7201538,2.0583496-.8872681,4.0957031-1.8232422,6.1120605-2.8078613,.7324219-.3583374,1.4641113-.71875,2.1904297-1.0894165,2.2077637-1.1260986,4.3908691-2.3043213,6.5407715-3.5479126,.2897949-.1678467,.5878906-.3199463,.8769531-.4899292,2.4042969-1.4141846,4.7600098-2.9188232,7.0834961-4.4786987,.6379395-.4282227,1.2641602-.8753052,1.8959961-1.3145142,1.6069336-1.1174927,3.1850586-2.2816162,4.7485352-3.4690552l-23.5341797-30.0316162c-9.543457,7.1862183-20.3759766,12.7389526-32.0795898,16.2700195v-.0000153Z"/>
  <path class="cls-2" d="M159.150522,181.7193768l9.1464844,32.7935181c6.2775879-1.9942017,12.0800781-5.026123,17.2875977-8.8319702l-20.9431152-26.7249146c-1.7004395,1.1298828-3.5463867,2.0473022-5.4909668,2.7633667Z"/>
  <path class="cls-2" d="M174.0181977,168.021867l29.6191406,16.7006226c2.9606934-5.6828613,5.0073242-11.8947754,6.0332031-18.4502563l-33.7062988-4.088501c-.4145508,2.0456543-1.0881348,3.9929199-1.9460449,5.8381348Z"/>
  <path class="cls-2" d="M210.4698579,156.9218914c0-4.8901367-.6477051-9.6213379-1.7497559-14.1777954l-32.7236328,9.1265869c.3178711,1.6369019,.4963379,3.3231812,.4963379,5.0512085,0,.3651733-.0400391,.7200928-.0546875,1.0812378l33.769043,4.0960083c.1464844-1.7102051,.2626953-3.4293213,.2626953-5.1772461Z"/>
  <path class="cls-2" d="M172.4137055,142.874284c.9763184,1.5484619,1.7902832,3.2038574,2.4316406,4.9462891l32.793457-9.1464844c-1.9938965-6.2776489-5.0258789-12.0805054-8.8320312-17.2878418l-24.467041,19.1741333-1.0854492,.8503418-1.171875,.9188232c.0654297,.0983276,.1201172,.2041626,.1845703,.3035278,.0507812,.0787964,.0966797,.1616821,.1467285,.2412109Z"/>
  <path class="cls-2" d="M215.0802095,236.4936078l23.5393066,30.0370636c1.8574219-1.5012207,3.7077637-3.0140991,5.4943848-4.6157227,.3015137-.2703247,.5893555-.5598145,.8886719-.8331909,1.8171387-1.6577759,3.5910645-3.3728027,5.328125-5.1343994,.5871582-.5961304,1.1682129-1.2004395,1.7456055-1.8082275,1.6088867-1.6913452,3.1796875-3.4286499,4.7114258-5.2104492,.3803711-.4423218,.7746582-.8681641,1.1499023-1.315918,1.8451996-2.2014771,3.6252289-4.4746094,5.3481293-6.8079834,.4260254-.5775757,.8325195-1.175415,1.2507324-1.7609253,1.3320312-1.8629761,2.6235352-3.7657471,3.8740234-5.7092896,.4555664-.7074585,.9133301-1.4124756,1.3574219-2.1305542,.6623535-1.0709839,1.2717285-2.1918945,1.9089355-3.2861328l-33.1564941-18.6945801c-6.1755371,10.4065552-14.1225586,19.6408081-23.4401855,27.2703247l.0000153-.0000153Z"/>
  <path class="cls-2" d="M150.0474946,183.3672039c-.2973633,0-.5861816-.0346069-.8811035-.0444946-.067627-.0020752-.1340332-.0075684-.2011719-.0103149l-.0554199,.456665-4.0405273,33.3126221c1.7109375,.1463013,3.4304199,.2623901,5.1782227,.2623901,4.8908691,0,9.6228027-.6474609,14.1796875-1.7495728l-9.126709-32.7240601c-1.6374512,.3186035-3.3239746,.4967651-5.0529785,.4967651Z"/>
  <path class="cls-2" d="M248.4918305,127.2801678l36.6413422-10.2194824c-.5310059-1.7958984-1.0786133-3.5869751-1.6801758-5.3609009-1.4216309-4.1906128-3.0407715-8.3161011-4.8518066-12.3607178-1.4951172-3.3399048-3.1530762-6.6092529-4.9072266-9.8306885-.7680664-1.4104004-1.560791-2.8064575-2.3774414-4.1915894-2.7668457-4.6911011-5.800293-9.2396851-9.1171875-13.6083984l-29.9768066,23.4915161c7.1862793,9.5435791,12.7385254,20.3766479,16.2692871,32.0802612h.0000153Z"/>
  <path class="cls-2" d="M240.6051118,205.5661175l33.1860199,18.7113647c.152832-.2816162,.3283691-.5426636,.4797363-.8256836,2.2529297-4.2104492,4.2700195-8.4839478,6.0556641-12.8053589,4.6784668-11.3192139,7.7412109-22.9673462,9.3308105-34.6723633l-37.8286133-4.5883179c-1.7270508,12.2075806-5.5900879,23.7351074-11.2236328,34.1803589h.0000153Z"/>
  <path class="cls-2" d="M289.5889833,137.5075848c-.7770996-5.5314941-1.9187012-10.9971924-3.3398438-16.387207l-36.6083984,10.2105713c2.1040039,8.1845093,3.2253418,16.7589111,3.2253418,25.5909424,0,3.4724731-.1777344,6.9038696-.5158691,10.2890625l37.8210449,4.5876465c.9743652-9.2554932,1.0366211-18.5263672,.1884766-27.6793823-.204834-2.2114258-.4626465-4.4160156-.770752-6.6116333Z"/>
  <path class="cls-2" d="M247.6507661,170.8790448l-33.723877-4.0905151c-1.0957031,7.12146-3.3710938,13.8551025-6.5981445,20.015564l29.6079102,16.6937866c5.3674316-9.9735107,9.0561523-20.9720459,10.7141113-32.6188354Z"/>
  <path class="cls-2" d="M234.8551118,207.1560833l-29.5869141-16.6818237c-3.6862793,6.0447388-8.3422852,11.4329834-13.7414551,15.9637451l20.9584961,26.7440796c8.885498-7.2879028,16.4675293-16.1000977,22.369873-26.026001Z"/>
  <path class="cls-2" d="M150.0474946,259.7405102c-3.4729004,0-6.9047852-.1781616-10.2900391-.5159302l-4.5944824,37.8810425c1.3566895,.1431885,2.7131348,.2651367,4.0700684,.3682861,.1962891,.0147095,.3925781,.0390625,.5883789,.0531006,.3076172,.0222778,.6152344,.0418091,.9223633,.0616455,.5874023,.0383911,1.1750488,.0870361,1.762207,.1178589,1.9411621,.1021118,3.8808594,.1535034,5.8188477,.1747437,.6394043,.0072021,1.2797852,.0363159,1.9182129,.0342407,2.7963867-.0068359,5.5861816-.1072388,8.3679199-.2802124,.7045898-.0438843,1.4060059-.1120605,2.109375-.1665039,2.1760254-.1679077,4.3459473-.385437,6.5080566-.6536865,.7790527-.0966187,1.5585938-.1884155,2.3354492-.2980347,2.7634277-.3895264,5.5178223-.8345947,8.2497559-1.3861694,.1142578-.0229492,.2270508-.053772,.3415527-.0773926,2.59375-.5299683,5.1652832-1.1549072,7.7236328-1.8291016l-10.2385254-36.7094116c-8.1850586,2.1045532-16.7602539,3.2255249-25.5927734,3.2255249Z"/>
  <path class="cls-2" d="M103.6427095,243.8986981c2.7287598,1.461853,5.53125,2.8027344,8.4055176,4.0079956,7.581543,3.1782227,15.6442871,5.4229126,24.0410156,6.6181641l4.0905762-33.723999c-3.782959-.5817261-7.451416-1.5101318-10.9899902-2.7202148-3.0944824-1.0584106-6.083252-2.3427734-8.9472656-3.8383179l-9.3640137,16.6940308-7.2358398,12.9623413Z"/>
  <path class="cls-2" d="M209.1756684,235.7844403l-20.9606934-26.7468262c-5.6391602,4.1412354-11.967041,7.3952026-18.7836914,9.5429077l9.1291504,32.7312012c11.1643066-3.3789673,21.501709-8.6768188,30.6152344-15.5272827Z"/>
  <path class="cls-2" d="M248.6563813,156.9218914c0-8.4401245-1.0695801-16.6348877-3.0742188-24.4589844l-32.7536621,9.1351929c1.199707,4.9155273,1.8508301,10.0441284,1.8508301,15.3237915,0,1.9178467-.1000977,3.8116455-.2646484,5.6876831l33.753418,4.0939941c.3186035-3.2183228,.4882812-6.4804688,.4882812-9.7816772Z"/>
  <path class="cls-2" d="M131.3375337,214.3436444c3.0195312,.9866943,6.1523438,1.6992798,9.3588867,2.2008667l2.8415527-23.428833,1.246582-10.2774048c-2.0449219-.4145508-3.9912109-1.0874023-5.8359375-1.9452515l-.0314941,.055603-16.6013184,29.597168c2.8825684,1.4971313,5.8928223,2.7758179,9.0217285,3.7978516Z"/>
  <path class="cls-2" d="M181.4976899,105.4289715l-3.2475586,5.760376-12.3925781,21.9789429-1.032959,1.8314819c1.7060547,1.1535034,3.2492676,2.5211182,4.6413574,4.0305786l9.3828125-7.3533325,17.3886719-13.6262817c-1.8520508-2.1973877-3.8835449-4.2302856-6.026123-6.144043-.5446777-.486145-1.0583496-1.0058594-1.619873-1.4724731-1.8664551-1.5498657-3.8486328-2.9558716-5.8935547-4.2755127-.3930664-.25354-.8007812-.4851074-1.2001953-.7297363Z"/>
  <path class="cls-2" d="M204.9097993,63.9062054l-2.5612793,4.5427246c.0439453,.026062,.0891113,.0507202,.1330566,.0767822,3.159668,1.8814697,6.2192383,3.9137573,9.1491699,6.1124878,2.4194336,1.8154297,4.7490234,3.7424927,6.9970703,5.7596436,2.7873535,2.5002441,5.4370117,5.1495361,7.9377441,7.9365234,1.043457,1.1627197,2.0639648,2.3463745,3.0539551,3.5557251l29.9704437-23.4863892c-.7797852-.9653931-1.5400391-1.9438477-2.3469238-2.8900757-1.2006836-1.40802-2.4509277-2.7804565-3.7111816-4.1453857-2.5283203-2.7365723-5.1889648-5.3710938-7.9543457-7.9199829-4.6401367-4.2776489-9.6013184-8.2832031-14.8894043-11.968811-2.1005859-1.463562-4.2561035-2.8709106-6.4560547-4.2323608-1.0581055-.6550293-2.1152344-1.3114624-3.1958008-1.9418335l-3.4536133,6.1248779-12.6728516,22.4760742h.0000153Z"/>
  <path class="cls-2" d="M215.6456391,83.3801434c-1.9758301-1.7643433-4.0200195-3.4530029-6.1335449-5.0556641-2.8776855-2.1829834-5.878418-4.2097168-8.9902344-6.0714111-.0793457-.0476074-.1608887-.0911255-.2404785-.1383667l-16.6818848,29.5865479c.3649902,.2223511,.7177734,.4621582,1.078125,.6917114,2.411377,1.5368652,4.7180176,3.2227173,6.8984375,5.0566406,.2700195,.2268066,.5332031,.4607544,.7993164,.6920166,2.5629883,2.2268677,4.9528809,4.6455688,7.1386719,7.2444458,.0163574,.019165,.0334473,.0383911,.0500488,.0575562l26.7438965-20.958374c-.8835449-1.0778198-1.7971191-2.1295776-2.7248535-3.1682739-2.4943848-2.7935181-5.144043-5.4424438-7.9375-7.9368286Z"/>
  <path class="cls-4" d="M102.8873384,196.1383221l-17.3570557-17.3566895c-8.0159912,8.0162964-8.0159912,21.0128784,0,29.0291748,.9732666,.9732666,2.0223389,1.822937,3.1243896,2.5601807,3.75,2.5067139,8.1394043,3.6280518,12.4741211,3.4002075,4.8857422-.2572632,9.6984863-2.2285767,13.4306641-5.9603882l-3.7348633-3.7352905-7.9372559-7.9371948Z"/>
  <path class="cls-4" d="M132.1925141,158.619096c4.6831055,0,8.9855957-1.5855103,12.4396973-4.2255249,1.4533691-1.1110229,2.7502441-2.4080811,3.8615723-3.8616943,2.6396484-3.4540405,4.2255859-7.7562866,4.2255859-12.4395142h-41.0534668c0,11.3366699,9.1904297,20.5267334,20.5266113,20.5267334Z"/>
  <path class="cls-1" d="M259.5899598,68.403703c.8828125,1.0932617,1.7617188,2.1881714,2.609375,3.3046875"/>
  <path class="cls-1" d="M220.7181489,35.112077c.1052246,.0653687,.2106934,.1303711,.3181152,.1931763"/>
  <path class="cls-2" d="M141.0177095,177.2228558c1.3608398,.6074219,2.7895508,1.0849609,4.2770996,1.4107666,1.3510742,.2956543,2.748291,.4580688,4.1779785,.4950562,.1928711,.0048218,.3803711,.0287476,.574707,.0287476,.5258789,0,1.0410156-.0424805,1.5578613-.0787964,.7980957-.055481,1.5839844-.1496582,2.3569336-.2877197,1.4025879-.2507935,2.7561035-.6338501,4.0549316-1.1350098,1.4125977-.545105,2.7553711-1.2241211,4.0124512-2.0325928,1.1860352-.7626343,2.2927246-1.6334839,3.3100586-2.6010132,1.0883789-1.0339355,2.0751953-2.1709595,2.9375-3.4049683,.8015137-1.1473389,1.4936523-2.3738403,2.0705566-3.6647339,.607666-1.361084,1.0859375-2.7904053,1.411377-4.2789917,.2956543-1.3504639,.458252-2.74823,.494873-4.1778564,.0046387-.1925659,.0290527-.3799438,.0290527-.5738525,0-1.3371582-.1394043-2.6403809-.3664551-3.9130859-.2504883-1.4025879-.6335449-2.7561646-1.1347656-4.0549316-.2419434-.6269531-.5114746-1.2380981-.8076172-1.8363037-.2392578-.4851074-.4938965-.9598999-.767334-1.4244995-.1489258-.2528076-.298584-.5056152-.4572754-.7519531-.7629395-1.1864014-1.6337891-2.2929688-2.6013184-3.3111572-1.034668-1.0880737-2.1713867-2.0754395-3.4055176-2.9373779-.0297852-.020874-.0585938-.0430298-.0871582-.0652466l-21.6462402,38.5914307c.0029297,.0013428,.0056152,.0028076,.0083008,.0040894Z"/>
</svg>