<?xml version="1.0" encoding="utf-8"?>
<svg version="1.1" width="369px" height="98px" preserveAspectRatio="none" viewBox="0 0 369 98" xmlns="http://www.w3.org/2000/svg">
  <defs>
    <clipPath id="clippath15" transform="">
      <path d="M 0.06 97.57 L 368.894 97.57 L 368.894 0 L 0.06 0 Z" style="fill: none; clip-rule: nonzero;"/>
    </clipPath>
  </defs>
  <g transform="matrix(1 0 0 -1 0 98)">
    <g transform="">
      <path d="M 122.611 75.531 L 131.313 75.577 L 131.359 66.798 L 135.838 66.82 L 135.731 87.135 L 131.252 87.113 L 131.293 79.536 L 122.591 79.492 L 122.549 87.066 L 118.071 87.042 L 118.177 66.727 L 122.657 66.751 L 122.611 75.531" style="fill: rgb(33, 37, 39); fill-opacity: 1;"/>
      <path d="M 146.689 66.741 L 151.168 66.765 L 151.123 75.43 L 158.699 87.118 L 153.386 87.093 L 148.861 79.465 L 144.513 87.046 L 138.942 87.017 L 146.644 75.407 L 146.689 66.741" style="fill: rgb(33, 37, 39); fill-opacity: 1;"/>
      <path d="M 168.632 83.315 C 169.052 83.319 169.493 83.297 169.953 83.252 C 170.413 83.207 170.833 83.098 171.204 82.93 C 171.579 82.759 171.885 82.517 172.128 82.202 C 172.368 81.888 172.488 81.471 172.492 80.955 C 172.494 80.477 172.406 80.08 172.226 79.764 C 172.046 79.448 171.809 79.199 171.513 79.014 C 171.216 78.831 170.883 78.697 170.51 78.621 C 170.135 78.542 169.75 78.501 169.346 78.5 L 166.361 78.485 L 166.335 83.305 L 168.632 83.315 Z M 166.421 66.777 L 166.38 74.697 L 169.654 74.714 C 170.726 74.72 171.719 74.826 172.639 75.033 C 173.557 75.237 174.347 75.579 175.017 76.061 C 175.684 76.545 176.208 77.188 176.587 77.992 C 176.965 78.799 177.151 79.794 177.146 80.981 C 177.138 82.185 176.927 83.185 176.51 83.976 C 176.095 84.767 175.537 85.394 174.838 85.862 C 174.134 86.326 173.313 86.651 172.375 86.837 C 171.437 87.025 170.439 87.115 169.387 87.108 L 161.834 87.069 L 161.942 66.755 L 166.421 66.777" style="fill: rgb(33, 37, 39); fill-opacity: 1;"/>
      <path d="M 194.686 66.81 L 194.665 70.94 L 184.814 70.89 L 184.793 75.023 L 193.61 75.07 L 193.588 79.202 L 184.772 79.155 L 184.752 82.941 L 194.085 82.991 L 194.062 87.123 L 180.251 87.051 L 180.357 66.736 L 194.686 66.81" style="fill: rgb(33, 37, 39); fill-opacity: 1;"/>
      <path d="M 202.314 78.686 L 202.29 83.304 L 205.219 83.319 C 205.622 83.323 206.032 83.296 206.453 83.241 C 206.874 83.185 207.25 83.079 207.576 82.916 C 207.902 82.755 208.171 82.522 208.382 82.217 C 208.594 81.913 208.702 81.502 208.706 80.985 C 208.707 80.43 208.59 80 208.354 79.693 C 208.115 79.386 207.815 79.159 207.452 79.014 C 207.09 78.867 206.683 78.781 206.234 78.749 C 205.785 78.718 205.357 78.701 204.956 78.699 L 202.314 78.686 Z M 208.836 66.81 L 214.206 66.838 L 208.991 75.392 C 210.427 75.667 211.516 76.307 212.255 77.316 C 212.996 78.327 213.364 79.547 213.357 80.983 C 213.35 82.166 213.139 83.155 212.722 83.948 C 212.307 84.739 211.749 85.368 211.05 85.833 C 210.345 86.297 209.531 86.629 208.601 86.824 C 207.675 87.021 206.691 87.116 205.659 87.11 L 197.791 87.067 L 197.894 66.753 L 202.375 66.777 L 202.332 74.898 L 204.546 74.91 L 208.836 66.81" style="fill: rgb(33, 37, 39); fill-opacity: 1;"/>
      <path d="M 230.09 66.84 L 230.066 70.972 L 221.766 70.929 L 221.68 87.112 L 217.203 87.089 L 217.308 66.775 L 230.09 66.84" style="fill: rgb(33, 37, 39); fill-opacity: 1;"/>
      <path d="M 247.63 66.824 L 247.609 70.953 L 237.759 70.904 L 237.736 75.036 L 246.553 75.083 L 246.531 79.213 L 237.717 79.169 L 237.695 82.955 L 247.027 83.005 L 247.006 87.137 L 233.194 87.064 L 233.301 66.75 L 247.63 66.824" style="fill: rgb(33, 37, 39); fill-opacity: 1;"/>
      <path d="M 257.627 70.923 L 255.301 70.91 L 255.237 82.962 L 257.879 82.977 C 258.817 82.981 259.714 82.867 260.566 82.631 C 261.417 82.398 262.163 82.043 262.797 81.568 C 263.43 81.092 263.937 80.489 264.313 79.753 C 264.69 79.018 264.883 78.153 264.888 77.159 C 264.893 76.01 264.712 75.038 264.343 74.244 C 263.973 73.447 263.464 72.803 262.816 72.313 C 262.169 71.822 261.4 71.47 260.51 71.252 C 259.623 71.038 258.66 70.929 257.627 70.923 Z M 266.135 69.433 C 267.182 70.288 268.015 71.346 268.63 72.602 C 269.246 73.856 269.549 75.308 269.54 76.954 C 269.532 78.809 269.203 80.384 268.555 81.683 C 267.905 82.983 267.034 84.033 265.938 84.84 C 264.844 85.646 263.56 86.231 262.095 86.586 C 260.63 86.94 259.081 87.115 257.454 87.105 L 250.735 87.07 L 250.843 66.755 L 258.166 66.794 C 259.677 66.801 261.121 67.029 262.499 67.477 C 263.874 67.924 265.086 68.576 266.135 69.433" style="fill: rgb(33, 37, 39); fill-opacity: 1;"/>
      <path d="M 284.18 78.828 L 284.201 74.696 L 287.847 74.714 L 287.866 71.413 C 287.445 71.181 286.882 70.954 286.177 70.73 C 285.469 70.507 284.627 70.393 283.65 70.388 C 282.694 70.384 281.825 70.54 281.048 70.861 C 280.272 71.183 279.603 71.634 279.045 72.216 C 278.487 72.795 278.058 73.482 277.757 74.275 C 277.456 75.066 277.304 75.939 277.299 76.897 C 277.293 77.833 277.437 78.705 277.728 79.509 C 278.023 80.315 278.444 81.011 278.995 81.599 C 279.55 82.185 280.212 82.64 280.985 82.971 C 281.76 83.3 282.625 83.468 283.582 83.472 C 284.73 83.479 285.688 83.321 286.455 83.001 C 287.222 82.68 287.915 82.204 288.531 81.575 L 291.671 85.036 C 290.633 85.987 289.426 86.655 288.056 87.04 C 286.686 87.426 285.186 87.613 283.558 87.604 C 281.969 87.597 280.506 87.34 279.173 86.833 C 277.832 86.331 276.677 85.613 275.708 84.68 C 274.734 83.745 273.981 82.617 273.44 81.296 C 272.902 79.973 272.636 78.499 272.645 76.873 C 272.655 75.246 272.934 73.776 273.487 72.456 C 274.04 71.14 274.806 70.02 275.79 69.098 C 276.771 68.175 277.931 67.47 279.274 66.978 C 280.616 66.489 282.083 66.249 283.673 66.256 C 285.166 66.264 286.629 66.423 288.063 66.738 C 289.497 67.051 290.873 67.557 292.19 68.253 L 292.134 78.87 L 284.18 78.828" style="fill: rgb(33, 37, 39); fill-opacity: 1;"/>
      <path d="M 309.73 67.293 L 309.708 71.423 L 299.859 71.371 L 299.837 75.505 L 308.654 75.552 L 308.633 79.682 L 299.815 79.638 L 299.796 83.424 L 309.127 83.474 L 309.106 87.604 L 295.295 87.532 L 295.402 67.217 L 309.73 67.293" style="fill: rgb(33, 37, 39); fill-opacity: 1;"/>
      <path d="M 320.26 83.799 C 320.666 83.801 321.075 83.776 321.498 83.719 C 321.916 83.664 322.293 83.557 322.618 83.394 C 322.946 83.232 323.216 83 323.427 82.695 C 323.637 82.391 323.746 81.98 323.75 81.462 C 323.752 80.908 323.634 80.478 323.396 80.171 C 323.158 79.864 322.857 79.636 322.496 79.493 C 322.133 79.345 321.726 79.259 321.278 79.227 C 320.828 79.197 320.401 79.179 320.001 79.179 L 317.358 79.164 L 317.334 83.782 L 320.26 83.799 Z M 317.419 67.255 L 317.376 75.375 L 319.587 75.387 L 323.88 67.29 L 329.25 67.318 L 324.036 75.87 C 325.471 76.146 326.56 76.787 327.301 77.794 C 328.04 78.805 328.408 80.025 328.401 81.461 C 328.394 82.644 328.183 83.635 327.768 84.426 C 327.351 85.219 326.796 85.848 326.094 86.311 C 325.39 86.775 324.576 87.106 323.647 87.302 C 322.717 87.501 321.735 87.594 320.703 87.588 L 312.835 87.547 L 312.941 67.233 L 317.419 67.255" style="fill: rgb(33, 37, 39); fill-opacity: 1;"/>
      <path d="M 123.929 15.46 L 132.227 15.46 C 135.64 15.46 141.232 16.637 141.232 22.522 C 141.232 27.466 137.76 29.938 132.286 29.938 L 123.929 29.938 L 123.929 15.46 Z M 123.929 34.882 L 131.638 34.882 C 135.935 34.882 139.407 36.588 139.407 41.12 C 139.407 44.416 137.347 47.241 132.816 47.241 L 123.929 47.241 L 123.929 34.882 Z M 118.28 52.184 L 132.757 52.184 C 139.996 52.184 145.41 48.83 145.41 41.767 C 145.41 37 142.468 33.999 138.23 32.586 L 138.23 32.469 C 143.233 32.116 147.235 27.701 147.235 22.111 C 147.235 14.636 140.702 10.516 132.58 10.516 L 118.28 10.516 L 118.28 52.184" style="fill: rgb(166, 210, 89); fill-opacity: 1;"/>
      <path d="M 160.244 52.184 L 160.244 26.642 C 160.244 21.463 162.834 14.754 170.72 14.754 C 178.606 14.754 181.196 21.463 181.196 26.642 L 181.196 52.184 L 186.846 52.184 L 186.846 25.76 C 186.846 16.107 179.843 9.457 170.72 9.457 C 161.598 9.457 154.594 16.107 154.594 25.76 L 154.594 52.184 L 160.244 52.184" style="fill: rgb(166, 210, 89); fill-opacity: 1;"/>
      <path d="M 202.446 33.822 L 209.861 33.822 C 214.334 33.822 218.807 34.882 218.807 40.532 C 218.807 46.181 214.334 47.241 209.861 47.241 L 202.446 47.241 L 202.446 33.822 Z M 196.796 52.184 L 211.45 52.184 C 222.102 52.184 224.81 45.769 224.81 40.532 C 224.81 35.235 220.867 30.232 214.569 29.526 L 226.399 10.516 L 219.337 10.516 L 208.743 28.879 L 202.446 28.879 L 202.446 10.516 L 196.796 10.516 L 196.796 52.184" style="fill: rgb(166, 210, 89); fill-opacity: 1;"/>
      <path d="M 238.409 33.822 L 245.824 33.822 C 250.297 33.822 254.77 34.882 254.77 40.532 C 254.77 46.181 250.297 47.241 245.824 47.241 L 238.409 47.241 L 238.409 33.822 Z M 232.759 52.184 L 247.413 52.184 C 258.065 52.184 260.773 45.769 260.773 40.532 C 260.773 35.235 256.83 30.232 250.532 29.526 L 262.362 10.516 L 255.3 10.516 L 244.706 28.879 L 238.409 28.879 L 238.409 10.516 L 232.759 10.516 L 232.759 52.184" style="fill: rgb(166, 210, 89); fill-opacity: 1;"/>
      <path d="M 303.561 31.35 C 303.561 40.473 297.383 47.947 287.848 47.947 C 278.313 47.947 272.135 40.473 272.135 31.35 C 272.135 22.228 278.313 14.754 287.848 14.754 C 297.383 14.754 303.561 22.228 303.561 31.35 Z M 266.131 31.35 C 266.131 43.71 275.135 53.244 287.848 53.244 C 300.56 53.244 309.565 43.71 309.565 31.35 C 309.565 18.992 300.56 9.457 287.848 9.457 C 275.135 9.457 266.131 18.992 266.131 31.35" style="fill: rgb(166, 210, 89); fill-opacity: 1;"/>
      <path d="M 312.394 52.184 L 318.28 52.184 L 327.461 18.873 L 327.579 18.873 L 337.407 52.184 L 343.881 52.184 L 353.71 18.873 L 353.827 18.873 L 363.009 52.184 L 368.893 52.184 L 356.77 10.516 L 350.826 10.516 L 340.703 44.534 L 340.585 44.534 L 330.521 10.516 L 324.577 10.516 L 312.394 52.184" style="fill: rgb(166, 210, 89); fill-opacity: 1;"/>
      <path d="M 43.63 56.57 C 43.468 56.732 43.288 56.953 43.109 57.223 C 42.472 58.183 41.712 59.798 40.901 61.917 L 46.214 58.284 C 46.065 57.727 45.933 57.323 45.766 57.052 C 45.484 56.598 45.041 56.439 43.891 56.392 L 43.63 56.57" style="fill: rgb(166, 210, 89); fill-opacity: 1;"/>
      <path d="M 11.726 48.229 L 26.059 68.586 L 11.726 78.388 L 11.726 48.229 Z M 8.853 77.397 C 9.922 78.871 11.049 80.264 12.205 81.54 L 27.713 70.936 L 28.925 72.657 C 29.706 70.397 30.462 67.811 31.127 65.12 L 28.431 66.964 L 14.522 47.223 L 8.856 45.286 L 8.853 77.397" style="fill: rgb(166, 210, 89); fill-opacity: 1;"/>
      <path d="M 47.278 93.731 L 36.217 78.021 C 36.109 78.493 36.002 78.967 35.899 79.444 C 37.26 81.28 37.756 83.034 37.375 84.659 L 46.433 97.522 C 47.071 97.548 47.711 97.57 48.356 97.57 L 48.777 97.559 L 49.202 97.57 C 49.847 97.57 50.487 97.548 51.125 97.522 L 69.629 71.242 C 69.295 71.255 68.96 71.262 68.623 71.262 C 67.897 71.262 67.117 71.225 66.182 71.146 L 50.28 93.731 L 50.28 65.543 C 49.653 65.027 49.096 64.461 48.624 63.863 C 48.082 63.166 47.641 62.43 47.278 61.618 L 47.278 93.731 Z M 83.293 46.786 L 77.405 55.206 C 78.065 56.121 78.622 56.97 79.102 57.789 L 85.832 48.229 L 85.832 78.388 L 74.369 70.549 C 73.037 70.892 71.655 71.113 70.242 71.208 L 85.352 81.54 C 86.507 80.265 87.635 78.872 88.705 77.397 L 88.699 45.129 L 83.293 46.786" style="fill: rgb(166, 210, 89); fill-opacity: 1;"/>
      <path d="M 0.06 97.57 L 368.894 97.57 L 368.894 0 L 0.06 0 Z" style="fill: none;"/>
    </g>
    <g style="clip-path: url(#clippath15);">
      <g transform="">
        <path d="M 43.82 56.389 L 43.872 56.348 C 43.855 56.359 43.837 56.373 43.82 56.389" style="fill: rgb(166, 210, 89); fill-opacity: 1;"/>
        <path d="M 85.832 19.611 L 72.337 25.247 L 85.832 41.895 L 85.832 19.611 Z M 69.574 26.401 L 53.22 33.232 L 83.509 43.593 L 69.574 26.401 Z M 50.28 2.601 L 50.28 31.346 L 67.688 24.076 L 50.28 2.601 Z M 47.278 2.601 L 29.869 24.076 L 47.278 31.346 L 47.278 2.601 Z M 14.049 43.593 L 39.959 34.729 L 44.074 33.122 L 27.984 26.401 L 14.049 43.593 Z M 11.726 19.611 L 11.726 41.895 L 25.221 25.247 L 11.726 19.611 Z M 62.55 64.398 C 62.737 64.996 63.385 66.055 64.63 66.221 L 64.732 66.227 L 64.744 66.227 C 65.227 66.227 65.638 65.87 65.7 65.398 C 65.735 65.144 65.668 64.893 65.513 64.689 C 65.358 64.486 65.132 64.355 64.878 64.322 C 64.54 64.276 64.378 63.826 64.378 63.826 C 64.252 63.424 63.885 63.154 63.464 63.154 C 63.368 63.154 63.273 63.169 63.178 63.198 C 62.934 63.274 62.735 63.441 62.615 63.667 C 62.497 63.894 62.474 64.154 62.55 64.398 Z M 88.887 45.326 L 88.804 45.399 L 88.651 45.405 L 73.608 50.478 C 72.948 49.742 72.241 48.982 71.503 48.192 L 71.478 48.165 L 80.237 45.213 L 61.856 38.942 C 62.871 42.161 65.885 46.05 68.619 48.995 L 69.52 49.961 C 70.058 50.538 70.584 51.101 71.085 51.649 C 71.691 52.311 72.262 52.953 72.762 53.56 C 73.452 54.399 74.254 55.39 75.034 56.45 C 73.687 56.811 72.519 56.89 71.757 56.89 C 71.264 56.89 70.964 56.857 70.928 56.852 L 70.813 56.845 C 70.33 56.845 69.918 57.202 69.855 57.675 C 69.82 57.929 69.887 58.181 70.043 58.384 C 70.198 58.587 70.424 58.718 70.681 58.752 C 70.752 58.761 71.14 58.805 71.76 58.805 C 72.513 58.805 73.699 58.738 75.078 58.415 C 75.44 58.331 75.81 58.234 76.191 58.113 C 76.681 58.868 77.106 59.611 77.453 60.324 C 77.486 60.39 77.508 60.449 77.539 60.514 C 77.032 60.542 76.491 60.614 75.904 60.759 C 75.254 60.919 71.971 61.812 71.222 63.628 C 70.546 65.265 71.683 66.978 72.202 67.637 C 72.364 67.844 72.543 68.032 72.724 68.217 C 72.436 68.272 72.15 68.329 71.851 68.373 C 70.813 68.527 69.727 68.605 68.623 68.605 C 67.912 68.605 67.119 68.562 66.2 68.476 C 64.897 68.353 63.593 68.148 62.326 67.866 C 61.369 66.715 60.9 65.525 60.673 64.724 C 60.512 64.155 60.47 63.782 60.469 63.778 C 60.43 63.286 60.014 62.9 59.446 62.9 C 59.444 62.9 59.441 62.9 59.439 62.9 C 59.042 62.931 58.712 63.202 58.6 63.589 C 58.565 63.709 58.551 63.821 58.56 63.932 C 58.574 64.096 58.714 65.464 59.542 67.115 C 57.513 66.474 55.576 65.66 53.779 64.694 C 52.452 63.982 51.435 63.153 50.667 62.159 C 49.705 60.913 49.304 59.591 49.002 58.447 L 48.914 58.104 C 48.72 57.357 48.537 56.652 48.253 56.064 C 48.001 55.242 47.674 54.45 47.253 53.644 C 46.013 51.27 44.526 50.003 44.512 49.992 C 44.34 49.844 44.119 49.762 43.891 49.762 C 43.611 49.762 43.346 49.884 43.164 50.096 C 42.82 50.495 42.866 51.1 43.266 51.446 C 43.277 51.455 44.25 52.324 45.188 53.877 C 44.806 53.808 44.373 53.76 43.869 53.735 L 43.561 53.723 C 42.621 53.723 41.66 54.558 40.622 56.277 C 40.159 57.043 39.677 58.001 39.187 59.125 C 38.529 60.634 37.849 62.45 37.169 64.523 C 35.937 68.281 34.879 72.317 34.209 75.042 C 33.734 76.98 33.384 78.526 33.201 79.358 L 33.033 80.143 L 33.106 80.225 C 34.794 82.102 35.271 83.719 34.447 84.777 C 34.221 85.067 33.96 85.208 33.65 85.208 C 33.615 85.208 33.574 85.199 33.446 85.171 C 33.342 85.152 33.24 85.126 33.116 85.078 C 33.058 85.054 32.999 85.03 32.948 85.002 C 32.83 84.938 32.695 84.859 32.584 84.758 C 31.459 83.727 31.454 81.333 31.454 81.234 C 31.459 80.979 31.365 80.738 31.187 80.554 C 31.009 80.37 30.77 80.265 30.497 80.261 C 29.979 80.261 29.549 80.682 29.54 81.199 C 29.536 81.376 29.486 85.483 32.142 86.762 C 31.85 92.345 31.022 95.855 29.923 96.162 C 29.788 96.2 29.661 96.22 29.547 96.22 C 29.274 96.22 29.056 96.112 28.881 95.891 C 27.633 94.309 29.082 88.176 29.097 88.115 L 29.198 87.691 L 28.8 87.867 C 28.466 88.014 28.153 88.089 27.867 88.089 C 26.673 88.089 26.278 86.773 26.262 86.717 L 26.197 86.495 L 25.98 86.574 C 25.626 86.703 25.296 86.769 24.999 86.769 C 23.494 86.769 23.189 85.074 23.176 85.002 L 23.101 84.561 L 22.802 84.894 C 22.748 84.954 17.362 90.926 15.122 90.926 C 14.811 90.926 14.601 90.803 14.463 90.539 C 13.196 88.127 18.913 84.934 23.506 82.368 C 26.438 80.731 28.97 79.317 29.532 78.243 C 29.92 77.451 30.328 76.497 30.746 75.41 C 31.188 74.261 31.638 72.962 32.085 71.551 C 32.487 70.279 32.873 68.957 33.233 67.622 C 33.665 66.017 34.059 64.398 34.402 62.809 C 35.092 59.614 35.529 56.773 35.663 54.595 C 35.739 53.365 35.719 52.353 35.605 51.588 L 35.505 51.005 C 34.753 46.673 32.834 41.73 32.264 40.318 L 32.188 40.129 L 17.321 45.213 L 32.682 50.39 C 32.797 50.931 32.899 51.465 32.976 51.983 C 33.037 52.388 33.061 52.912 33.047 53.545 L 15.233 47.54 L 8.838 45.394 L 8.818 45.394 L 8.818 45.375 L 0 42.399 C 0.133 41.376 0.282 40.431 0.456 39.52 L 8.853 42.354 L 8.853 20.172 C 9.789 18.882 10.77 17.655 11.772 16.517 L 27.107 22.921 L 45.619 0.082 C 46.613 0.027 47.51 0 48.356 0 L 48.782 0.011 L 49.202 0 C 50.047 0 50.944 0.027 51.938 0.082 L 70.451 22.921 L 85.786 16.517 C 86.788 17.655 87.769 18.882 88.705 20.172 L 88.705 42.354 L 97.101 39.52 C 97.273 40.416 97.423 41.362 97.558 42.399 L 88.887 45.326" style="fill: rgb(74, 193, 135); fill-opacity: 1;"/>
      </g>
    </g>
    <g transform="">
      <path d="M 73.616 66.524 C 73.096 65.863 72.63 64.935 72.886 64.315 C 73.149 63.677 74.882 62.865 76.335 62.507 C 76.925 62.361 77.455 62.287 77.913 62.287 C 77.914 62.287 77.915 62.287 77.917 62.287 C 77.991 62.287 78.063 62.289 78.134 62.292 C 74.646 67.525 79.169 66.254 74.646 67.525 C 74.273 67.252 73.922 66.911 73.616 66.524" style="fill: rgb(74, 193, 135); fill-opacity: 1;"/>
    </g>
  </g>
</svg>