<?xml version="1.0" encoding="utf-8"?>
<svg version="1.1" width="343px" height="99px" preserveAspectRatio="none" viewBox="0 0 343 99" xmlns="http://www.w3.org/2000/svg">
  <defs>
    <clipPath id="clippath14" transform="">
      <path d="M 0 0 L 342.542 0 L 342.542 98.599 L 0 98.599 Z" style="fill: none; clip-rule: nonzero;"/>
    </clipPath>
  </defs>
  <g transform="matrix(1 0 0 -1 0 99)">
    <g transform="">
      <path d="M 0 0 L 342.542 0 L 342.542 98.599 L 0 98.599 Z" style="fill: none;"/>
    </g>
    <g style="clip-path: url(#clippath14);">
      <g transform="">
        <path d="M 14.767 62.916 L 14.767 50.849 L 23.115 50.849 L 40.602 21.993 L 40.602 50.849 L 57.997 50.849 L 57.997 21.993 L 75.484 50.849 L 83.833 50.849 L 83.833 62.916 L 60.167 62.916 L 60.167 97.382 C 56.669 98.17 53.036 98.599 49.3 98.599 C 45.564 98.599 41.931 98.17 38.433 97.382 L 38.433 62.916 L 14.767 62.916" style="fill: rgb(255, 157, 71); fill-opacity: 1;"/>
        <path d="M 63.767 96.438 L 63.767 66.516 L 87.433 66.516 L 87.433 47.25 L 77.512 47.25 L 54.398 9.106 L 54.398 47.25 L 44.202 47.25 L 44.202 9.106 L 21.088 47.25 L 11.167 47.25 L 11.167 66.516 L 34.833 66.516 L 34.833 96.438 C 14.666 90.255 0 71.492 0 49.299 C 0 22.072 22.072 0 49.3 0 C 76.527 0 98.599 22.072 98.599 49.299 C 98.599 71.492 83.934 90.255 63.767 96.438" style="fill: rgb(255, 157, 71); fill-opacity: 1;"/>
      </g>
    </g>
    <g transform="">
      <path d="M 123.555 75.495 L 132.257 75.542 L 132.304 66.762 L 136.781 66.784 L 136.676 87.1 L 132.195 87.077 L 132.236 79.501 L 123.534 79.457 L 123.493 87.03 L 119.015 87.006 L 119.121 66.691 L 123.602 66.715 L 123.555 75.495" style="fill: rgb(33, 37, 39); fill-opacity: 1;"/>
      <path d="M 147.634 66.705 L 152.111 66.729 L 152.067 75.394 L 159.644 87.083 L 154.331 87.058 L 149.806 79.429 L 145.457 87.011 L 139.887 86.981 L 147.589 75.372 L 147.634 66.705" style="fill: rgb(33, 37, 39); fill-opacity: 1;"/>
      <path d="M 169.575 83.28 C 169.996 83.283 170.437 83.261 170.897 83.216 C 171.357 83.171 171.776 83.062 172.147 82.895 C 172.522 82.723 172.829 82.481 173.072 82.166 C 173.312 81.852 173.433 81.435 173.437 80.92 C 173.437 80.441 173.351 80.044 173.17 79.729 C 172.989 79.412 172.753 79.163 172.457 78.979 C 172.159 78.795 171.826 78.662 171.454 78.585 C 171.079 78.507 170.694 78.466 170.29 78.465 L 167.305 78.449 L 167.278 83.269 L 169.575 83.28 Z M 167.365 66.742 L 167.323 74.662 L 170.598 74.678 C 171.67 74.684 172.663 74.79 173.583 74.997 C 174.501 75.202 175.292 75.544 175.962 76.025 C 176.629 76.51 177.151 77.152 177.531 77.956 C 177.908 78.764 178.096 79.758 178.09 80.945 C 178.082 82.15 177.872 83.15 177.455 83.941 C 177.039 84.731 176.48 85.358 175.781 85.826 C 175.078 86.29 174.257 86.615 173.318 86.801 C 172.381 86.989 171.384 87.079 170.332 87.073 L 162.778 87.034 L 162.887 66.719 L 167.365 66.742" style="fill: rgb(33, 37, 39); fill-opacity: 1;"/>
      <path d="M 195.63 66.774 L 195.609 70.904 L 185.759 70.855 L 185.736 74.987 L 194.554 75.034 L 194.532 79.166 L 185.717 79.12 L 185.695 82.906 L 195.028 82.956 L 195.007 87.088 L 181.195 87.016 L 181.301 66.701 L 195.63 66.774" style="fill: rgb(33, 37, 39); fill-opacity: 1;"/>
      <path d="M 203.258 78.65 L 203.233 83.269 L 206.163 83.283 C 206.565 83.287 206.977 83.261 207.397 83.205 C 207.817 83.149 208.194 83.043 208.52 82.881 C 208.846 82.719 209.115 82.486 209.326 82.181 C 209.538 81.878 209.645 81.466 209.649 80.949 C 209.651 80.394 209.534 79.964 209.298 79.657 C 209.06 79.35 208.76 79.123 208.396 78.978 C 208.033 78.831 207.628 78.746 207.178 78.713 C 206.729 78.682 206.301 78.665 205.9 78.664 L 203.258 78.65 Z M 209.779 66.775 L 215.15 66.803 L 209.935 75.356 C 211.372 75.631 212.46 76.271 213.198 77.28 C 213.94 78.291 214.309 79.512 214.301 80.947 C 214.294 82.131 214.083 83.12 213.666 83.913 C 213.252 84.703 212.693 85.333 211.993 85.798 C 211.289 86.262 210.476 86.593 209.546 86.788 C 208.619 86.985 207.636 87.08 206.603 87.075 L 198.735 87.032 L 198.839 66.717 L 203.318 66.741 L 203.275 74.862 L 205.489 74.874 L 209.779 66.775" style="fill: rgb(33, 37, 39); fill-opacity: 1;"/>
      <path d="M 231.033 66.804 L 231.01 70.937 L 222.71 70.893 L 222.625 87.076 L 218.146 87.054 L 218.253 66.739 L 231.033 66.804" style="fill: rgb(33, 37, 39); fill-opacity: 1;"/>
      <path d="M 248.574 66.788 L 248.553 70.918 L 238.702 70.868 L 238.68 75 L 247.498 75.047 L 247.476 79.177 L 238.66 79.133 L 238.64 82.919 L 247.972 82.969 L 247.95 87.101 L 234.139 87.029 L 234.245 66.714 L 248.574 66.788" style="fill: rgb(33, 37, 39); fill-opacity: 1;"/>
      <path d="M 258.571 70.887 L 256.245 70.874 L 256.181 82.926 L 258.822 82.941 C 259.761 82.945 260.658 82.832 261.511 82.595 C 262.36 82.362 263.107 82.007 263.74 81.532 C 264.375 81.056 264.881 80.453 265.257 79.718 C 265.635 78.982 265.826 78.117 265.832 77.123 C 265.838 75.974 265.655 75.002 265.287 74.208 C 264.918 73.411 264.408 72.767 263.76 72.278 C 263.113 71.786 262.344 71.434 261.454 71.216 C 260.566 71.002 259.604 70.893 258.571 70.887 Z M 267.079 69.398 C 268.127 70.252 268.959 71.31 269.574 72.566 C 270.19 73.82 270.493 75.272 270.484 76.918 C 270.477 78.774 270.146 80.349 269.499 81.648 C 268.85 82.947 267.979 83.997 266.883 84.805 C 265.788 85.611 264.505 86.195 263.039 86.551 C 261.574 86.905 260.024 87.079 258.398 87.069 L 251.679 87.035 L 251.787 66.72 L 259.109 66.759 C 260.62 66.766 262.064 66.993 263.442 67.442 C 264.818 67.889 266.03 68.54 267.079 69.398" style="fill: rgb(33, 37, 39); fill-opacity: 1;"/>
      <path d="M 285.125 78.792 L 285.145 74.66 L 288.792 74.679 L 288.81 71.378 C 288.39 71.146 287.825 70.918 287.12 70.695 C 286.412 70.471 285.571 70.358 284.594 70.353 C 283.638 70.349 282.769 70.505 281.992 70.826 C 281.217 71.147 280.547 71.598 279.988 72.18 C 279.431 72.759 279.003 73.446 278.701 74.239 C 278.399 75.03 278.249 75.903 278.242 76.862 C 278.237 77.798 278.381 78.669 278.673 79.473 C 278.967 80.279 279.388 80.976 279.938 81.563 C 280.493 82.149 281.155 82.604 281.929 82.936 C 282.703 83.265 283.568 83.433 284.525 83.437 C 285.674 83.443 286.633 83.286 287.399 82.965 C 288.166 82.644 288.858 82.168 289.475 81.54 L 292.614 85 C 291.576 85.951 290.37 86.619 289 87.005 C 287.63 87.39 286.13 87.578 284.503 87.568 C 282.913 87.561 281.45 87.304 280.116 86.798 C 278.775 86.295 277.622 85.577 276.651 84.644 C 275.678 83.709 274.925 82.582 274.384 81.26 C 273.847 79.937 273.58 78.464 273.59 76.838 C 273.599 75.211 273.879 73.74 274.431 72.42 C 274.984 71.104 275.75 69.984 276.734 69.062 C 277.715 68.139 278.876 67.434 280.218 66.942 C 281.561 66.453 283.027 66.213 284.616 66.22 C 286.109 66.228 287.572 66.387 289.007 66.703 C 290.44 67.015 291.816 67.521 293.134 68.217 L 293.078 78.835 L 285.125 78.792" style="fill: rgb(33, 37, 39); fill-opacity: 1;"/>
      <path d="M 310.674 67.258 L 310.651 71.388 L 300.804 71.335 L 300.781 75.469 L 309.598 75.516 L 309.576 79.647 L 300.759 79.602 L 300.739 83.388 L 310.071 83.438 L 310.051 87.568 L 296.239 87.496 L 296.346 67.182 L 310.674 67.258" style="fill: rgb(33, 37, 39); fill-opacity: 1;"/>
      <path d="M 321.205 83.763 C 321.609 83.765 322.019 83.741 322.441 83.683 C 322.86 83.628 323.236 83.521 323.562 83.358 C 323.891 83.197 324.159 82.964 324.372 82.659 C 324.582 82.355 324.69 81.944 324.694 81.427 C 324.695 80.872 324.578 80.442 324.34 80.135 C 324.102 79.828 323.802 79.601 323.439 79.458 C 323.076 79.309 322.67 79.223 322.222 79.191 C 321.771 79.162 321.345 79.143 320.944 79.143 L 318.302 79.128 L 318.278 83.746 L 321.205 83.763 Z M 318.362 67.219 L 318.32 75.34 L 320.531 75.352 L 324.824 67.254 L 330.194 67.282 L 324.98 75.834 C 326.416 76.111 327.504 76.751 328.245 77.758 C 328.984 78.769 329.353 79.99 329.346 81.425 C 329.338 82.608 329.127 83.599 328.713 84.39 C 328.296 85.183 327.739 85.812 327.037 86.276 C 326.335 86.739 325.521 87.071 324.591 87.266 C 323.661 87.465 322.68 87.558 321.647 87.552 L 313.779 87.511 L 313.885 67.197 L 318.362 67.219" style="fill: rgb(33, 37, 39); fill-opacity: 1;"/>
      <path d="M 148.196 42.555 C 147.022 44.081 145.536 45.254 143.737 46.075 C 141.938 46.896 140.079 47.307 138.163 47.307 C 135.817 47.307 133.694 46.867 131.798 45.987 C 129.901 45.107 128.278 43.904 126.929 42.379 C 125.579 40.854 124.532 39.064 123.79 37.011 C 123.047 34.958 122.676 32.758 122.676 30.411 C 122.676 28.22 123.027 26.147 123.731 24.192 C 124.436 22.236 125.452 20.516 126.782 19.029 C 128.111 17.542 129.735 16.369 131.651 15.509 C 133.567 14.648 135.738 14.219 138.163 14.219 C 140.549 14.219 142.642 14.708 144.441 15.686 C 146.239 16.663 147.765 18.032 149.017 19.792 L 153.77 16.213 C 153.456 15.783 152.909 15.166 152.126 14.365 C 151.344 13.563 150.308 12.761 149.017 11.96 C 147.727 11.158 146.172 10.454 144.353 9.848 C 142.534 9.242 140.432 8.938 138.046 8.938 C 134.761 8.938 131.798 9.565 129.158 10.816 C 126.519 12.067 124.269 13.71 122.411 15.744 C 120.554 17.777 119.136 20.075 118.158 22.638 C 117.181 25.199 116.691 27.79 116.691 30.411 C 116.691 33.618 117.22 36.58 118.275 39.299 C 119.331 42.017 120.808 44.364 122.705 46.339 C 124.602 48.314 126.88 49.849 129.54 50.945 C 132.198 52.039 135.132 52.587 138.34 52.587 C 141.077 52.587 143.767 52.059 146.407 51.003 C 149.047 49.947 151.208 48.324 152.89 46.134 L 148.196 42.555" style="fill: rgb(165, 166, 169); fill-opacity: 1;"/>
      <path d="M 183.701 25.189 L 175.957 44.256 L 175.84 44.256 L 167.979 25.189 L 183.701 25.189 Z M 173.61 51.531 L 178.715 51.531 L 196.491 9.995 L 189.92 9.995 L 185.755 20.261 L 165.983 20.261 L 161.877 9.995 L 155.306 9.995 L 173.61 51.531" style="fill: rgb(165, 166, 169); fill-opacity: 1;"/>
      <path d="M 201.044 51.531 L 206.675 51.531 L 206.675 15.275 L 225.743 15.275 L 225.743 9.995 L 201.044 9.995 L 201.044 51.531" style="fill: rgb(165, 166, 169); fill-opacity: 1;"/>
      <path d="M 230.454 51.531 L 236.085 51.531 L 236.085 9.994 L 230.454 9.994 Z" style="fill: rgb(165, 166, 169); fill-opacity: 1;"/>
      <path d="M 251.181 33.227 L 258.573 33.227 C 259.667 33.227 260.753 33.315 261.829 33.491 C 262.903 33.667 263.862 33.99 264.704 34.459 C 265.544 34.928 266.218 35.603 266.728 36.483 C 267.235 37.363 267.489 38.507 267.489 39.915 C 267.489 41.323 267.235 42.467 266.728 43.347 C 266.218 44.227 265.544 44.902 264.704 45.371 C 263.862 45.84 262.903 46.163 261.829 46.339 C 260.753 46.515 259.667 46.603 258.573 46.603 L 251.181 46.603 L 251.181 33.227 Z M 245.548 51.531 L 260.157 51.531 C 262.815 51.531 265.005 51.169 266.728 50.446 C 268.448 49.722 269.808 48.803 270.804 47.688 C 271.802 46.574 272.495 45.322 272.888 43.934 C 273.278 42.545 273.474 41.206 273.474 39.915 C 273.474 38.625 273.278 37.284 272.888 35.896 C 272.495 34.508 271.802 33.256 270.804 32.142 C 269.808 31.027 268.448 30.107 266.728 29.384 C 265.005 28.66 262.815 28.299 260.157 28.299 L 251.181 28.299 L 251.181 9.995 L 245.548 9.995 L 245.548 51.531" style="fill: rgb(165, 166, 169); fill-opacity: 1;"/>
      <path d="M 278.735 51.531 L 305.546 51.531 L 305.546 46.251 L 284.368 46.251 L 284.368 33.873 L 304.081 33.873 L 304.081 28.592 L 284.368 28.592 L 284.368 15.275 L 306.603 15.275 L 306.603 9.995 L 278.735 9.995 L 278.735 51.531" style="fill: rgb(165, 166, 169); fill-opacity: 1;"/>
      <path d="M 318.665 33.227 L 326.058 33.227 C 327.151 33.227 328.237 33.315 329.313 33.491 C 330.388 33.667 331.347 33.99 332.188 34.459 C 333.028 34.928 333.702 35.603 334.212 36.483 C 334.72 37.363 334.974 38.507 334.974 39.915 C 334.974 41.323 334.72 42.467 334.212 43.347 C 333.702 44.227 333.028 44.902 332.188 45.371 C 331.347 45.84 330.388 46.163 329.313 46.339 C 328.237 46.515 327.151 46.603 326.058 46.603 L 318.665 46.603 L 318.665 33.227 Z M 313.032 51.531 L 327.642 51.531 C 330.3 51.531 332.489 51.169 334.212 50.446 C 335.933 49.722 337.292 48.803 338.288 47.688 C 339.286 46.574 339.979 45.322 340.372 43.934 C 340.763 42.545 340.958 41.206 340.958 39.915 C 340.958 38.585 340.724 37.304 340.255 36.072 C 339.784 34.84 339.11 33.726 338.229 32.729 C 337.351 31.731 336.274 30.89 335.003 30.206 C 333.731 29.521 332.313 29.1 330.751 28.944 L 342.542 9.995 L 335.503 9.995 L 324.942 28.299 L 318.665 28.299 L 318.665 9.995 L 313.032 9.995 L 313.032 51.531" style="fill: rgb(165, 166, 169); fill-opacity: 1;"/>
    </g>
  </g>
</svg>