<?xml version="1.0" encoding="utf-8"?>
<svg version="1.1" width="323px" height="88px" preserveAspectRatio="none" viewBox="0 0 323 88" xmlns="http://www.w3.org/2000/svg">
  <defs>
    <clipPath id="clippath13" transform="">
      <path d="M 0 0 L 322.779 0 L 322.779 87.193 L 0 87.193 Z" style="fill: none; clip-rule: nonzero;"/>
    </clipPath>
  </defs>
  <g transform="matrix(1 0 0 -1 0 88)">
    <g transform="">
      <path d="M 112.044 80.308 L 116.513 80.332 L 116.555 72.775 L 125.239 72.819 L 125.197 80.379 L 129.668 80.401 L 129.774 60.129 L 125.305 60.107 L 125.259 68.868 L 116.575 68.821 L 116.621 60.06 L 112.151 60.036 L 112.044 80.308" style="fill: rgb(33, 37, 39); fill-opacity: 1;"/>
      <path d="M 140.558 68.698 L 132.872 80.283 L 138.431 80.313 L 142.77 72.747 L 147.286 80.359 L 152.587 80.385 L 145.027 68.721 L 145.072 60.074 L 140.603 60.05 L 140.558 68.698" style="fill: rgb(33, 37, 39); fill-opacity: 1;"/>
      <path d="M 160.233 71.77 L 163.213 71.785 C 163.615 71.786 164 71.827 164.374 71.905 C 164.745 71.982 165.077 72.115 165.375 72.298 C 165.67 72.482 165.906 72.73 166.086 73.046 C 166.266 73.361 166.353 73.757 166.351 74.235 C 166.347 74.749 166.227 75.165 165.988 75.479 C 165.746 75.793 165.44 76.034 165.065 76.205 C 164.695 76.372 164.277 76.482 163.818 76.527 C 163.359 76.571 162.919 76.593 162.499 76.59 L 160.207 76.579 L 160.233 71.77 Z M 155.716 80.336 L 163.254 80.375 C 164.303 80.381 165.299 80.292 166.234 80.104 C 167.171 79.918 167.99 79.593 168.691 79.131 C 169.389 78.664 169.947 78.038 170.362 77.25 C 170.778 76.46 170.987 75.462 170.995 74.26 C 171.001 73.075 170.814 72.083 170.437 71.277 C 170.058 70.475 169.537 69.834 168.872 69.351 C 168.203 68.87 167.414 68.528 166.498 68.324 C 165.58 68.118 164.589 68.012 163.519 68.006 L 160.252 67.99 L 160.293 60.087 L 155.824 60.064 L 155.716 80.336" style="fill: rgb(33, 37, 39); fill-opacity: 1;"/>
      <path d="M 174.094 80.318 L 187.877 80.39 L 187.898 76.266 L 178.585 76.216 L 178.605 72.438 L 187.403 72.485 L 187.425 68.361 L 178.626 68.315 L 178.647 64.191 L 188.477 64.24 L 188.498 60.119 L 174.199 60.046 L 174.094 80.318" style="fill: rgb(33, 37, 39); fill-opacity: 1;"/>
      <path d="M 196.11 71.97 L 198.747 71.984 C 199.147 71.985 199.574 72.002 200.022 72.033 C 200.47 72.065 200.876 72.151 201.238 72.297 C 201.6 72.441 201.899 72.668 202.137 72.975 C 202.373 73.281 202.49 73.71 202.489 74.264 C 202.485 74.78 202.377 75.191 202.166 75.494 C 201.955 75.798 201.686 76.03 201.361 76.191 C 201.036 76.354 200.66 76.46 200.241 76.515 C 199.821 76.57 199.411 76.597 199.01 76.593 L 196.086 76.578 L 196.11 71.97 Z M 191.596 80.334 L 199.448 80.377 C 200.478 80.382 201.46 80.287 202.385 80.091 C 203.312 79.896 204.125 79.565 204.827 79.103 C 205.525 78.638 206.083 78.01 206.497 77.221 C 206.913 76.43 207.123 75.443 207.131 74.262 C 207.137 72.83 206.77 71.611 206.03 70.603 C 205.293 69.596 204.207 68.958 202.773 68.683 L 207.977 60.147 L 202.618 60.119 L 198.337 68.201 L 196.128 68.19 L 196.171 60.086 L 191.7 60.062 L 191.596 80.334" style="fill: rgb(33, 37, 39); fill-opacity: 1;"/>
      <path d="M 210.968 80.356 L 215.436 80.378 L 215.521 64.229 L 223.803 64.273 L 223.827 60.149 L 211.073 60.084 L 210.968 80.356" style="fill: rgb(33, 37, 39); fill-opacity: 1;"/>
      <path d="M 226.926 80.331 L 240.708 80.403 L 240.73 76.279 L 231.418 76.23 L 231.438 72.452 L 240.234 72.496 L 240.257 68.375 L 231.458 68.328 L 231.48 64.204 L 241.31 64.254 L 241.331 60.132 L 227.032 60.059 L 226.926 80.331" style="fill: rgb(33, 37, 39); fill-opacity: 1;"/>
      <path d="M 248.985 64.21 L 251.307 64.223 C 252.338 64.229 253.299 64.338 254.183 64.552 C 255.072 64.769 255.839 65.12 256.485 65.611 C 257.132 66.099 257.64 66.742 258.009 67.537 C 258.377 68.33 258.558 69.299 258.553 70.445 C 258.548 71.438 258.355 72.301 257.979 73.035 C 257.604 73.769 257.098 74.371 256.466 74.846 C 255.834 75.32 255.089 75.674 254.24 75.906 C 253.389 76.142 252.494 76.256 251.557 76.252 L 248.922 76.237 L 248.985 64.21 Z M 244.429 80.337 L 251.135 80.372 C 252.758 80.381 254.303 80.207 255.766 79.854 C 257.228 79.499 258.509 78.916 259.601 78.111 C 260.694 77.305 261.564 76.258 262.212 74.962 C 262.858 73.665 263.187 72.093 263.195 70.241 C 263.204 68.599 262.901 67.151 262.287 65.899 C 261.674 64.645 260.843 63.59 259.798 62.737 C 258.75 61.881 257.541 61.231 256.169 60.785 C 254.793 60.337 253.352 60.111 251.844 60.104 L 244.537 60.065 L 244.429 80.337" style="fill: rgb(33, 37, 39); fill-opacity: 1;"/>
      <path d="M 285.798 61.559 C 284.483 60.864 283.109 60.36 281.679 60.048 C 280.248 59.733 278.788 59.574 277.298 59.566 C 275.712 59.559 274.248 59.798 272.909 60.286 C 271.569 60.777 270.411 61.481 269.431 62.403 C 268.45 63.322 267.685 64.44 267.134 65.754 C 266.582 67.07 266.303 68.538 266.294 70.161 C 266.285 71.784 266.551 73.254 267.087 74.574 C 267.627 75.893 268.378 77.019 269.349 77.951 C 270.317 78.882 271.469 79.599 272.806 80.1 C 274.137 80.606 275.598 80.862 277.184 80.869 C 278.807 80.879 280.304 80.691 281.672 80.307 C 283.039 79.922 284.243 79.255 285.279 78.306 L 282.145 74.853 C 281.531 75.481 280.84 75.955 280.074 76.276 C 279.309 76.595 278.353 76.753 277.207 76.746 C 276.252 76.742 275.388 76.575 274.616 76.246 C 273.845 75.915 273.183 75.462 272.63 74.877 C 272.08 74.29 271.66 73.595 271.366 72.791 C 271.075 71.989 270.931 71.119 270.937 70.185 C 270.943 69.229 271.094 68.358 271.394 67.568 C 271.696 66.777 272.123 66.091 272.679 65.513 C 273.237 64.933 273.905 64.483 274.678 64.162 C 275.454 63.842 276.321 63.686 277.275 63.69 C 278.251 63.695 279.09 63.808 279.797 64.031 C 280.5 64.254 281.062 64.481 281.482 64.713 L 281.464 68.007 L 277.825 67.988 L 277.804 72.111 L 285.741 72.154 L 285.798 61.559" style="fill: rgb(33, 37, 39); fill-opacity: 1;"/>
      <path d="M 288.896 80.797 L 302.678 80.869 L 302.699 76.748 L 293.387 76.697 L 293.406 72.92 L 302.205 72.965 L 302.226 68.842 L 293.428 68.796 L 293.45 64.671 L 303.278 64.723 L 303.301 60.601 L 289.003 60.525 L 288.896 80.797" style="fill: rgb(33, 37, 39); fill-opacity: 1;"/>
      <path d="M 310.912 72.447 L 313.549 72.462 C 313.949 72.462 314.375 72.48 314.824 72.51 C 315.271 72.542 315.677 72.627 316.039 72.776 C 316.4 72.918 316.7 73.145 316.937 73.452 C 317.175 73.758 317.292 74.187 317.291 74.74 C 317.287 75.257 317.178 75.668 316.97 75.97 C 316.758 76.275 316.489 76.507 316.161 76.669 C 315.837 76.831 315.461 76.938 315.043 76.992 C 314.621 77.049 314.213 77.074 313.809 77.072 L 310.888 77.055 L 310.912 72.447 Z M 306.399 80.812 L 314.25 80.853 C 315.28 80.859 316.26 80.766 317.188 80.568 C 318.115 80.373 318.928 80.042 319.63 79.579 C 320.33 79.116 320.885 78.489 321.301 77.698 C 321.715 76.908 321.926 75.92 321.932 74.739 C 321.939 73.306 321.572 72.088 320.835 71.08 C 320.095 70.075 319.009 69.436 317.576 69.159 L 322.779 60.626 L 317.421 60.598 L 313.137 68.678 L 310.93 68.667 L 310.972 60.563 L 306.505 60.541 L 306.399 80.812" style="fill: rgb(33, 37, 39); fill-opacity: 1;"/>
      <path d="M 141.162 36.38 C 139.988 37.907 138.499 39.081 136.699 39.903 C 134.898 40.726 133.037 41.137 131.119 41.137 C 128.77 41.137 126.645 40.696 124.747 39.816 C 122.847 38.935 121.223 37.731 119.872 36.203 C 118.521 34.676 117.473 32.885 116.73 30.83 C 115.985 28.774 115.614 26.571 115.614 24.222 C 115.614 22.029 115.967 19.954 116.671 17.996 C 117.376 16.038 118.394 14.316 119.725 12.828 C 121.056 11.34 122.681 10.165 124.6 9.304 C 126.518 8.443 128.691 8.012 131.119 8.012 C 133.507 8.012 135.602 8.501 137.403 9.481 C 139.204 10.459 140.731 11.83 141.985 13.592 L 146.742 10.009 C 146.428 9.578 145.88 8.961 145.097 8.159 C 144.313 7.356 143.277 6.553 141.985 5.751 C 140.693 4.948 139.136 4.243 137.316 3.637 C 135.495 3.03 133.39 2.726 131.002 2.726 C 127.713 2.726 124.747 3.353 122.104 4.606 C 119.461 5.859 117.209 7.503 115.349 9.539 C 113.49 11.575 112.07 13.875 111.092 16.44 C 110.112 19.004 109.623 21.599 109.623 24.222 C 109.623 27.432 110.152 30.398 111.209 33.12 C 112.266 35.841 113.744 38.191 115.643 40.168 C 117.542 42.145 119.822 43.682 122.486 44.778 C 125.148 45.874 128.084 46.423 131.295 46.423 C 134.035 46.423 136.728 45.894 139.371 44.837 C 142.014 43.78 144.177 42.155 145.861 39.963 L 141.162 36.38" style="fill: rgb(255, 83, 67); fill-opacity: 1;"/>
      <path d="M 151.687 45.366 L 178.527 45.366 L 178.527 40.08 L 157.325 40.08 L 157.325 27.687 L 177.059 27.687 L 177.059 22.402 L 157.325 22.402 L 157.325 9.069 L 179.585 9.069 L 179.585 3.783 L 151.687 3.783 L 151.687 45.366" style="fill: rgb(255, 83, 67); fill-opacity: 1;"/>
      <path d="M 185.762 45.366 L 191.401 45.366 L 191.401 9.069 L 210.489 9.069 L 210.489 3.783 L 185.762 3.783 L 185.762 45.366" style="fill: rgb(255, 83, 67); fill-opacity: 1;"/>
      <path d="M 214.959 45.366 L 220.596 45.366 L 220.596 9.069 L 239.684 9.069 L 239.684 3.783 L 214.959 3.783 L 214.959 45.366" style="fill: rgb(255, 83, 67); fill-opacity: 1;"/>
      <path d="M 0 0 L 322.779 0 L 322.779 87.193 L 0 87.193 Z" style="fill: none;"/>
    </g>
    <g style="clip-path: url(#clippath13);">
      <g transform="">
        <path d="M 261.662 8.012 C 264.05 8.012 266.204 8.453 268.122 9.334 C 270.041 10.215 271.684 11.399 273.055 12.887 C 274.426 14.375 275.483 16.127 276.227 18.144 C 276.97 20.16 277.344 22.303 277.344 24.574 C 277.344 26.845 276.97 28.988 276.227 31.006 C 275.483 33.022 274.426 34.774 273.055 36.262 C 271.684 37.75 270.041 38.935 268.122 39.816 C 266.204 40.696 264.05 41.137 261.662 41.137 C 259.273 41.137 257.12 40.696 255.201 39.816 C 253.283 38.935 251.637 37.75 250.267 36.262 C 248.896 34.774 247.84 33.022 247.096 31.006 C 246.351 28.988 245.98 26.845 245.98 24.574 C 245.98 22.303 246.351 20.16 247.096 18.144 C 247.84 16.127 248.896 14.375 250.267 12.887 C 251.637 11.399 253.283 10.215 255.201 9.334 C 257.12 8.453 259.273 8.012 261.662 8.012 Z M 261.662 2.726 C 258.49 2.726 255.573 3.284 252.911 4.4 C 250.248 5.516 247.968 7.052 246.068 9.01 C 244.169 10.968 242.681 13.278 241.604 15.941 C 240.527 18.603 239.99 21.481 239.99 24.574 C 239.99 27.667 240.527 30.545 241.604 33.208 C 242.681 35.87 244.169 38.18 246.068 40.139 C 247.968 42.096 250.248 43.633 252.911 44.749 C 255.573 45.865 258.49 46.423 261.662 46.423 C 264.834 46.423 267.75 45.865 270.413 44.749 C 273.075 43.633 275.356 42.096 277.255 40.139 C 279.154 38.18 280.641 35.87 281.72 33.208 C 282.795 30.545 283.334 27.667 283.334 24.574 C 283.334 21.481 282.795 18.603 281.72 15.941 C 280.641 13.278 279.154 10.968 277.255 9.01 C 275.356 7.052 273.075 5.516 270.413 4.4 C 267.75 3.284 264.834 2.726 261.662 2.726" style="fill: rgb(255, 83, 67); fill-opacity: 1;"/>
        <path d="M 41.102 51.452 C 27.328 66.417 22.272 77.005 26.848 81.582 C 28.273 83.005 29.751 83.595 31.338 83.393 C 30.15 81.699 30.309 79.348 31.822 77.834 C 33.519 76.138 36.269 76.138 37.965 77.834 C 39.661 79.53 39.661 82.281 37.965 83.977 C 37.91 84.032 37.851 84.081 37.794 84.132 C 37.589 84.338 34.715 87.171 30.786 87.193 C 28.393 87.206 26.176 86.21 24.199 84.232 C 20.532 80.565 20.528 75.055 24.186 67.853 C 27.037 62.24 32.222 55.424 39.619 47.544 C 17.236 48.093 4.993 52.066 4.993 58.875 C 4.993 60.889 5.621 62.351 6.886 63.331 C 7.244 61.293 9.019 59.742 11.159 59.742 C 13.558 59.742 15.503 61.687 15.503 64.086 C 15.503 66.485 13.558 68.429 11.159 68.429 C 11.081 68.429 11.006 68.422 10.928 68.418 C 10.638 68.419 6.603 68.39 3.81 65.627 C 2.108 63.944 1.245 61.673 1.245 58.875 C 1.245 53.69 5.138 49.791 12.818 47.285 C 19.137 45.223 28.237 44.049 39.915 43.785 L 40.87 45.157 C 40.916 47.342 40.994 49.439 41.102 51.452" style="fill: rgb(226, 226, 227); fill-opacity: 1;"/>
        <path d="M 75.947 41.974 C 70.223 44.95 62.277 46.73 52.268 47.285 C 66.529 60.139 76.625 64.767 81.065 60.327 C 82.49 58.903 83.079 57.425 82.877 55.838 C 81.183 57.026 78.832 56.867 77.318 55.353 C 75.622 53.657 75.622 50.907 77.318 49.211 C 79.014 47.514 81.764 47.514 83.461 49.211 C 83.516 49.266 83.564 49.325 83.616 49.382 C 83.822 49.587 86.655 52.461 86.676 56.389 C 86.69 58.783 85.694 61 83.716 62.977 C 80.049 66.644 74.538 66.648 67.336 62.989 C 62.386 60.475 56.497 56.142 49.771 50.08 C 49.698 48.559 49.641 46.988 49.604 45.356 L 50.577 44.678 L 52.274 43.496 C 67.081 42.534 81.667 38.435 81.667 29.205 C 81.667 26.983 80.985 25.561 80.094 24.646 C 79.631 26.546 77.922 27.958 75.879 27.958 C 73.48 27.958 71.535 26.013 71.535 23.615 C 71.535 21.216 73.48 19.271 75.879 19.271 C 75.964 19.271 76.047 19.279 76.131 19.284 L 76.131 19.262 C 76.223 19.263 85.415 19.413 85.415 29.205 C 85.415 32.135 84.184 37.69 75.947 41.974" style="fill: rgb(226, 226, 227); fill-opacity: 1;"/>
        <path d="M 39.8 39.264 L 39.017 39.81 C 27.449 29.059 12.843 20.116 5.868 27.09 C 4.297 28.662 3.773 30.149 3.757 31.426 C 5.428 30.41 7.635 30.62 9.08 32.065 C 10.776 33.761 10.776 36.511 9.08 38.207 C 7.384 39.903 4.633 39.903 2.937 38.207 C 2.877 38.147 2.824 38.083 2.768 38.02 L 2.753 38.035 C 2.688 37.969 -3.705 31.364 3.218 24.441 C 5.29 22.369 10.088 19.31 18.942 22.106 C 25.448 24.16 32.766 28.924 40.738 36.276 C 40.767 37.04 40.79 37.804 40.801 38.567 L 39.8 39.264" style="fill: rgb(226, 226, 227); fill-opacity: 1;"/>
        <path d="M 49.503 37.165 C 59.245 26.037 66.591 12.89 60.085 6.384 C 58.514 4.813 57.027 4.29 55.749 4.273 C 56.765 5.944 56.556 8.151 55.111 9.596 C 53.415 11.292 50.665 11.292 48.968 9.596 C 47.272 7.9 47.272 5.15 48.968 3.453 C 49.029 3.393 49.093 3.34 49.155 3.284 L 49.14 3.269 C 49.206 3.204 55.812 -3.189 62.735 3.735 C 64.807 5.806 67.866 10.605 65.07 19.459 C 63.033 25.909 58.331 33.158 51.086 41.051 L 49.534 38.823 C 49.528 38.263 49.515 37.715 49.503 37.165" style="fill: rgb(226, 226, 227); fill-opacity: 1;"/>
      </g>
    </g>
    <g transform="">
      <path d="M 47.089 44.073 C 47.473 67.55 51.473 80.422 58.455 80.422 C 60.469 80.422 61.931 79.794 62.91 78.529 C 60.872 78.171 59.322 76.396 59.322 74.255 C 59.322 71.856 61.267 69.912 63.666 69.912 C 66.065 69.912 68.009 71.856 68.009 74.255 C 68.009 74.333 68.002 74.409 67.998 74.486 C 67.999 74.777 67.969 78.812 65.207 81.605 C 63.524 83.307 61.252 84.17 58.455 84.17 C 53.27 84.17 49.37 80.276 46.864 72.597 C 44.737 66.074 43.557 56.58 43.346 44.354 L 41.223 41.308 L 43.305 39.858 C 43.244 23.104 39.418 3.748 28.784 3.748 C 26.562 3.748 25.14 4.429 24.225 5.32 C 26.126 5.784 27.538 7.493 27.538 9.536 C 27.538 11.935 25.594 13.879 23.195 13.879 C 20.796 13.879 18.851 11.935 18.851 9.536 C 18.851 9.451 18.859 9.368 18.863 9.284 L 18.843 9.284 C 18.843 9.191 18.993 0 28.784 0 C 31.715 0 37.27 1.23 41.554 9.468 C 45.145 16.373 46.99 26.518 47.05 39.613 L 49.154 42.634 L 47.089 44.073" style="fill: rgb(255, 83, 67); fill-opacity: 1;"/>
    </g>
  </g>
</svg>