<?xml version="1.0" encoding="utf-8"?>
<svg version="1.1" width="398px" height="79px" preserveAspectRatio="none" viewBox="0 0 398 79" xmlns="http://www.w3.org/2000/svg">
  <defs>
    <clipPath id="clippath10" transform="">
      <path d="M 0.06 78.057 L 397.333 78.057 L 397.333 0.06 L 0.06 0.06 Z" style="fill: none; clip-rule: nonzero;"/>
    </clipPath>
    <clipPath id="clippath11" transform="">
      <path d="M 0.06 78.057 L 397.333 78.057 L 397.333 0.06 L 0.06 0.06 Z" style="fill: none; clip-rule: nonzero;"/>
    </clipPath>
    <clipPath id="clippath12" transform="">
      <path d="M 0.06 78.057 L 397.333 78.057 L 397.333 0.06 L 0.06 0.06 Z" style="fill: none; clip-rule: nonzero;"/>
    </clipPath>
  </defs>
  <g transform="matrix(1 0 0 -1 0 79)">
    <g transform="">
      <path d="M 116.87 77.497 L 121.335 77.521 L 121.376 69.971 L 130.05 70.015 L 130.009 77.568 L 134.475 77.59 L 134.58 57.34 L 130.116 57.318 L 130.07 66.07 L 121.396 66.023 L 121.443 57.271 L 116.977 57.247 L 116.87 77.497" style="fill: rgb(33, 37, 39); fill-opacity: 1;"/>
      <path d="M 145.353 65.9 L 137.675 77.472 L 143.228 77.501 L 147.562 69.944 L 152.073 77.548 L 157.369 77.573 L 149.817 65.922 L 149.861 57.285 L 145.398 57.261 L 145.353 65.9" style="fill: rgb(33, 37, 39); fill-opacity: 1;"/>
      <path d="M 165.006 68.968 L 167.982 68.983 C 168.384 68.984 168.768 69.025 169.142 69.103 C 169.513 69.179 169.845 69.312 170.142 69.495 C 170.437 69.678 170.673 69.927 170.852 70.242 C 171.032 70.557 171.119 70.953 171.118 71.43 C 171.114 71.943 170.994 72.359 170.755 72.672 C 170.512 72.987 170.207 73.228 169.834 73.398 C 169.464 73.565 169.046 73.675 168.587 73.719 C 168.129 73.763 167.689 73.786 167.269 73.782 L 164.98 73.771 L 165.006 68.968 Z M 160.494 77.524 L 168.023 77.563 C 169.072 77.57 170.066 77.48 171.001 77.293 C 171.936 77.107 172.755 76.783 173.456 76.321 C 174.153 75.855 174.71 75.229 175.124 74.442 C 175.54 73.653 175.749 72.656 175.757 71.455 C 175.762 70.272 175.576 69.281 175.2 68.476 C 174.821 67.675 174.3 67.034 173.635 66.551 C 172.967 66.072 172.179 65.73 171.264 65.526 C 170.347 65.32 169.357 65.214 168.289 65.208 L 165.025 65.192 L 165.066 57.297 L 160.602 57.275 L 160.494 77.524" style="fill: rgb(33, 37, 39); fill-opacity: 1;"/>
      <path d="M 178.851 77.506 L 192.619 77.578 L 192.641 73.459 L 183.338 73.409 L 183.359 69.635 L 192.146 69.682 L 192.168 65.563 L 183.379 65.516 L 183.4 61.397 L 193.219 61.447 L 193.24 57.33 L 178.957 57.257 L 178.851 77.506" style="fill: rgb(33, 37, 39); fill-opacity: 1;"/>
      <path d="M 200.844 69.168 L 203.478 69.181 C 203.878 69.183 204.303 69.199 204.752 69.231 C 205.2 69.262 205.604 69.348 205.966 69.494 C 206.328 69.639 206.627 69.865 206.865 70.172 C 207.1 70.478 207.217 70.906 207.216 71.459 C 207.212 71.975 207.104 72.385 206.892 72.687 C 206.682 72.991 206.414 73.223 206.09 73.385 C 205.764 73.547 205.389 73.652 204.97 73.708 C 204.55 73.763 204.141 73.79 203.74 73.786 L 200.82 73.771 L 200.844 69.168 Z M 196.336 77.523 L 204.178 77.565 C 205.208 77.571 206.188 77.476 207.111 77.28 C 208.039 77.085 208.849 76.755 209.551 76.292 C 210.249 75.828 210.805 75.201 211.219 74.413 C 211.634 73.623 211.844 72.637 211.852 71.457 C 211.859 70.027 211.492 68.81 210.753 67.802 C 210.017 66.796 208.931 66.159 207.5 65.884 L 212.698 57.358 L 207.345 57.33 L 203.068 65.403 L 200.862 65.391 L 200.904 57.297 L 196.438 57.273 L 196.336 77.523" style="fill: rgb(33, 37, 39); fill-opacity: 1;"/>
      <path d="M 215.685 77.544 L 220.148 77.567 L 220.234 61.435 L 228.508 61.479 L 228.53 57.36 L 215.791 57.295 L 215.685 77.544" style="fill: rgb(33, 37, 39); fill-opacity: 1;"/>
      <path d="M 231.626 77.519 L 245.393 77.592 L 245.415 73.472 L 236.112 73.423 L 236.133 69.649 L 244.92 69.693 L 244.942 65.576 L 236.153 65.53 L 236.175 61.41 L 245.994 61.46 L 246.015 57.344 L 231.732 57.27 L 231.626 77.519" style="fill: rgb(33, 37, 39); fill-opacity: 1;"/>
      <path d="M 0.06 78.057 L 397.333 78.057 L 397.333 0.06 L 0.06 0.06 Z" style="fill: none;"/>
    </g>
    <g style="clip-path: url(#clippath10);">
      <g transform="">
        <path d="M 253.661 61.416 L 255.98 61.429 C 257.009 61.435 257.969 61.544 258.853 61.758 C 259.741 61.975 260.508 62.325 261.153 62.816 C 261.799 63.304 262.306 63.946 262.674 64.74 C 263.042 65.532 263.223 66.5 263.217 67.645 C 263.213 68.636 263.021 69.499 262.645 70.232 C 262.27 70.965 261.765 71.566 261.133 72.04 C 260.502 72.514 259.758 72.868 258.91 73.1 C 258.06 73.336 257.166 73.449 256.231 73.445 L 253.597 73.43 L 253.661 61.416 Z M 249.11 77.525 L 255.808 77.56 C 257.429 77.57 258.973 77.396 260.434 77.043 C 261.895 76.688 263.174 76.106 264.265 75.303 C 265.357 74.497 266.225 73.451 266.874 72.156 C 267.518 70.861 267.847 69.291 267.855 67.441 C 267.864 65.8 267.562 64.353 266.948 63.103 C 266.335 61.851 265.506 60.797 264.462 59.945 C 263.415 59.09 262.208 58.44 260.836 57.995 C 259.463 57.548 258.023 57.321 256.517 57.314 L 249.217 57.276 L 249.11 77.525" style="fill: rgb(33, 37, 39); fill-opacity: 1;"/>
        <path d="M 290.432 58.768 C 289.12 58.074 287.748 57.57 286.319 57.258 C 284.888 56.944 283.43 56.785 281.942 56.777 C 280.358 56.77 278.896 57.009 277.558 57.497 C 276.22 57.987 275.063 58.69 274.085 59.611 C 273.104 60.53 272.341 61.646 271.789 62.958 C 271.238 64.273 270.96 65.739 270.951 67.361 C 270.941 68.982 271.207 70.45 271.743 71.769 C 272.282 73.086 273.032 74.211 274.003 75.142 C 274.969 76.073 276.12 76.788 277.457 77.289 C 278.786 77.794 280.245 78.05 281.829 78.057 C 283.451 78.066 284.946 77.88 286.312 77.495 C 287.677 77.111 288.88 76.446 289.915 75.497 L 286.785 72.048 C 286.171 72.675 285.48 73.148 284.716 73.469 C 283.952 73.788 282.997 73.946 281.851 73.939 C 280.897 73.935 280.035 73.767 279.263 73.439 C 278.493 73.109 277.833 72.656 277.279 72.072 C 276.73 71.486 276.311 70.791 276.017 69.988 C 275.726 69.187 275.584 68.318 275.589 67.385 C 275.594 66.429 275.746 65.559 276.046 64.77 C 276.346 63.98 276.773 63.295 277.329 62.719 C 277.886 62.138 278.553 61.689 279.326 61.368 C 280.1 61.049 280.966 60.892 281.92 60.896 C 282.894 60.902 283.732 61.015 284.438 61.238 C 285.14 61.46 285.703 61.687 286.122 61.919 L 286.104 65.209 L 282.468 65.19 L 282.449 69.309 L 290.377 69.352 L 290.432 58.768" style="fill: rgb(33, 37, 39); fill-opacity: 1;"/>
      </g>
    </g>
    <g transform="">
      <path d="M 293.528 77.985 L 307.296 78.057 L 307.315 73.941 L 298.013 73.89 L 298.033 70.116 L 306.822 70.161 L 306.843 66.044 L 298.054 65.997 L 298.077 61.876 L 307.894 61.929 L 307.917 57.811 L 293.633 57.736 L 293.528 77.985" style="fill: rgb(33, 37, 39); fill-opacity: 1;"/>
      <path d="M 315.52 69.644 L 318.154 69.659 C 318.553 69.659 318.978 69.678 319.427 69.707 C 319.874 69.739 320.279 69.824 320.641 69.972 C 321.002 70.115 321.301 70.342 321.539 70.648 C 321.776 70.954 321.893 71.382 321.891 71.935 C 321.887 72.451 321.78 72.861 321.57 73.164 C 321.358 73.468 321.091 73.699 320.763 73.861 C 320.439 74.023 320.063 74.13 319.646 74.184 C 319.225 74.242 318.817 74.266 318.414 74.264 L 315.496 74.247 L 315.52 69.644 Z M 311.011 78 L 318.854 78.041 C 319.883 78.047 320.861 77.954 321.789 77.756 C 322.716 77.561 323.527 77.231 324.227 76.769 C 324.927 76.306 325.481 75.68 325.897 74.889 C 326.31 74.101 326.521 73.114 326.528 71.934 C 326.535 70.503 326.168 69.286 325.431 68.279 C 324.693 67.275 323.608 66.637 322.176 66.36 L 327.374 57.836 L 322.021 57.808 L 317.742 65.88 L 315.538 65.868 L 315.581 57.773 L 311.117 57.751 L 311.011 78" style="fill: rgb(33, 37, 39); fill-opacity: 1;"/>
      <path d="M 117.033 42.593 L 143.844 42.593 L 143.844 37.313 L 122.665 37.313 L 122.665 24.934 L 142.378 24.934 L 142.378 19.654 L 122.665 19.654 L 122.665 6.337 L 144.901 6.337 L 144.901 1.056 L 117.033 1.056 L 117.033 42.593" style="fill: rgb(90, 205, 198); fill-opacity: 1;"/>
      <path d="M 163.24 22.881 L 149.277 42.593 L 156.493 42.593 L 167.288 26.635 L 177.966 42.593 L 185.006 42.593 L 171.16 22.939 L 186.413 1.056 L 179.021 1.056 L 167.112 19.067 L 155.144 1.056 L 148.162 1.056 L 163.24 22.881" style="fill: rgb(90, 205, 198); fill-opacity: 1;"/>
      <path d="M 196.55 24.289 L 203.942 24.289 C 205.037 24.289 206.123 24.377 207.199 24.553 C 208.274 24.729 209.232 25.052 210.073 25.521 C 210.914 25.99 211.589 26.665 212.097 27.545 C 212.605 28.425 212.86 29.569 212.86 30.977 C 212.86 32.385 212.605 33.529 212.097 34.409 C 211.589 35.289 210.914 35.964 210.073 36.433 C 209.232 36.902 208.274 37.225 207.199 37.401 C 206.123 37.577 205.037 37.665 203.942 37.665 L 196.55 37.665 L 196.55 24.289 Z M 190.919 42.593 L 205.526 42.593 C 208.186 42.593 210.376 42.231 212.097 41.508 C 213.818 40.784 215.177 39.865 216.175 38.75 C 217.172 37.635 217.866 36.384 218.257 34.996 C 218.647 33.607 218.844 32.267 218.844 30.977 C 218.844 29.686 218.647 28.346 218.257 26.958 C 217.866 25.57 217.172 24.318 216.175 23.203 C 215.177 22.089 213.818 21.169 212.097 20.446 C 210.376 19.722 208.186 19.361 205.526 19.361 L 196.55 19.361 L 196.55 1.056 L 190.919 1.056 L 190.919 42.593" style="fill: rgb(90, 205, 198); fill-opacity: 1;"/>
      <path d="M 0.06 78.057 L 397.333 78.057 L 397.333 0.06 L 0.06 0.06 Z" style="fill: none;"/>
    </g>
    <g style="clip-path: url(#clippath11);">
      <g transform="">
        <path d="M 224.106 42.593 L 229.738 42.593 L 229.738 6.337 L 248.805 6.337 L 248.805 1.056 L 224.106 1.056 L 224.106 42.593" style="fill: rgb(90, 205, 198); fill-opacity: 1;"/>
        <path d="M 271.04 5.28 C 273.425 5.28 275.577 5.721 277.494 6.6 C 279.41 7.481 281.052 8.663 282.422 10.15 C 283.791 11.636 284.846 13.386 285.59 15.401 C 286.333 17.415 286.705 19.556 286.705 21.825 C 286.705 24.093 286.333 26.234 285.59 28.249 C 284.846 30.263 283.791 32.013 282.422 33.5 C 281.052 34.986 279.41 36.169 277.494 37.049 C 275.577 37.929 273.425 38.369 271.04 38.369 C 268.654 38.369 266.503 37.929 264.587 37.049 C 262.67 36.169 261.027 34.986 259.659 33.5 C 258.289 32.013 257.233 30.263 256.491 28.249 C 255.747 26.234 255.376 24.093 255.376 21.825 C 255.376 19.556 255.747 17.415 256.491 15.401 C 257.233 13.386 258.289 11.636 259.659 10.15 C 261.027 8.663 262.67 7.481 264.587 6.6 C 266.503 5.721 268.654 5.28 271.04 5.28 Z M 271.04 0 C 267.872 0 264.958 0.558 262.299 1.673 C 259.638 2.787 257.361 4.322 255.464 6.278 C 253.566 8.233 252.081 10.54 251.006 13.2 C 249.929 15.86 249.392 18.735 249.392 21.825 C 249.392 24.914 249.929 27.789 251.006 30.449 C 252.081 33.108 253.566 35.415 255.464 37.372 C 257.361 39.327 259.638 40.863 262.299 41.977 C 264.958 43.092 267.872 43.649 271.04 43.649 C 274.209 43.649 277.122 43.092 279.782 41.977 C 282.441 40.863 284.718 39.327 286.617 37.372 C 288.513 35.415 289.999 33.108 291.075 30.449 C 292.15 27.789 292.688 24.914 292.688 21.825 C 292.688 18.735 292.15 15.86 291.075 13.2 C 289.999 10.54 288.513 8.233 286.617 6.278 C 284.718 4.322 282.441 2.787 279.782 1.673 C 277.122 0.558 274.209 0 271.04 0" style="fill: rgb(90, 205, 198); fill-opacity: 1;"/>
      </g>
    </g>
    <g transform="">
      <path d="M 304.128 24.289 L 311.52 24.289 C 312.614 24.289 313.7 24.377 314.776 24.553 C 315.851 24.729 316.809 25.052 317.651 25.521 C 318.491 25.99 319.166 26.665 319.674 27.545 C 320.182 28.425 320.437 29.569 320.437 30.977 C 320.437 32.385 320.182 33.529 319.674 34.409 C 319.166 35.289 318.491 35.964 317.651 36.433 C 316.809 36.902 315.851 37.225 314.776 37.401 C 313.7 37.577 312.614 37.665 311.52 37.665 L 304.128 37.665 L 304.128 24.289 Z M 298.496 42.593 L 313.104 42.593 C 315.763 42.593 317.953 42.231 319.674 41.508 C 321.395 40.784 322.755 39.865 323.752 38.75 C 324.75 37.635 325.443 36.384 325.835 34.996 C 326.225 33.607 326.422 32.267 326.422 30.977 C 326.422 29.647 326.187 28.366 325.717 27.134 C 325.248 25.902 324.574 24.787 323.693 23.79 C 322.813 22.793 321.737 21.951 320.466 21.267 C 319.195 20.583 317.777 20.162 316.214 20.006 L 328.006 1.056 L 320.966 1.056 L 310.405 19.361 L 304.128 19.361 L 304.128 1.056 L 298.496 1.056 L 298.496 42.593" style="fill: rgb(90, 205, 198); fill-opacity: 1;"/>
      <path d="M 333.526 42.593 L 360.337 42.593 L 360.337 37.313 L 339.158 37.313 L 339.158 24.934 L 358.871 24.934 L 358.871 19.654 L 339.158 19.654 L 339.158 6.337 L 361.393 6.337 L 361.393 1.056 L 333.526 1.056 L 333.526 42.593" style="fill: rgb(90, 205, 198); fill-opacity: 1;"/>
      <path d="M 373.455 24.289 L 380.847 24.289 C 381.941 24.289 383.027 24.377 384.103 24.553 C 385.178 24.729 386.136 25.052 386.978 25.521 C 387.818 25.99 388.493 26.665 389.002 27.545 C 389.509 28.425 389.764 29.569 389.764 30.977 C 389.764 32.385 389.509 33.529 389.002 34.409 C 388.493 35.289 387.818 35.964 386.978 36.433 C 386.136 36.902 385.178 37.225 384.103 37.401 C 383.027 37.577 381.941 37.665 380.847 37.665 L 373.455 37.665 L 373.455 24.289 Z M 367.823 42.593 L 382.431 42.593 C 385.091 42.593 387.28 42.231 389.002 41.508 C 390.722 40.784 392.082 39.865 393.079 38.75 C 394.077 37.635 394.77 36.384 395.162 34.996 C 395.552 33.607 395.749 32.267 395.749 30.977 C 395.749 29.647 395.514 28.366 395.045 27.134 C 394.575 25.902 393.901 24.787 393.02 23.79 C 392.14 22.793 391.064 21.951 389.794 21.267 C 388.522 20.583 387.104 20.162 385.541 20.006 L 397.333 1.056 L 390.293 1.056 L 379.732 19.361 L 373.455 19.361 L 373.455 1.056 L 367.823 1.056 L 367.823 42.593" style="fill: rgb(90, 205, 198); fill-opacity: 1;"/>
      <path d="M 0.06 78.057 L 397.333 78.057 L 397.333 0.06 L 0.06 0.06 Z" style="fill: none;"/>
    </g>
    <g style="clip-path: url(#clippath12);">
      <g transform="">
        <path d="M 76.497 74.016 L 76.497 60.007 L 94.126 67.169 L 76.497 74.016" style="fill: rgb(33, 37, 39); fill-opacity: 1;"/>
        <path d="M 0 11.991 L 21.297 3.439 L 21.297 55.518 L 0 64.004 L 0 11.991" style="fill: rgb(33, 37, 39); fill-opacity: 1;"/>
      </g>
    </g>
    <g transform="">
      <path d="M 72.144 74.072 L 54.713 67.392 L 72.144 59.981 L 72.144 74.072" style="fill: rgb(90, 205, 198); fill-opacity: 1;"/>
      <path d="M 3.95 67.117 L 21.347 60.185 L 21.347 73.453 L 3.95 67.117" style="fill: rgb(90, 205, 198); fill-opacity: 1;"/>
      <path d="M 25.701 73.467 L 25.701 60.189 L 42.572 67.4 L 25.701 73.467" style="fill: rgb(33, 37, 39); fill-opacity: 1;"/>
      <path d="M 25.65 3.537 L 46.745 12.411 L 46.745 64.449 L 25.65 55.432 L 25.65 3.537" style="fill: rgb(90, 205, 198); fill-opacity: 1;"/>
      <path d="M 76.548 3.509 L 97.844 12.564 L 97.844 63.98 L 76.548 55.328 L 76.548 3.509" style="fill: rgb(90, 205, 198); fill-opacity: 1;"/>
      <path d="M 51.099 12.331 L 72.195 3.527 L 72.195 55.228 L 51.099 64.198 L 51.099 12.331" style="fill: rgb(33, 37, 39); fill-opacity: 1;"/>
    </g>
  </g>
</svg>