<?xml version="1.0" encoding="utf-8"?>
<svg version="1.1" width="326px" height="91px" preserveAspectRatio="none" viewBox="0 0 326 91" xmlns="http://www.w3.org/2000/svg">
  <defs>
    <clipPath id="clippath8" transform="">
      <path d="M 0.06 90.978 L 325.16 90.978 L 325.16 0.06 L 0.06 0.06 Z" style="fill: none; clip-rule: nonzero;"/>
    </clipPath>
    <clipPath id="clippath9" transform="">
      <path d="M 0.06 90.978 L 325.16 90.978 L 325.16 0.06 L 0.06 0.06 Z" style="fill: none; clip-rule: nonzero;"/>
    </clipPath>
  </defs>
  <g transform="matrix(1 0 0 -1 0 91)">
    <g transform="">
      <path d="M 118.521 71.213 L 127.223 71.259 L 127.27 62.48 L 131.747 62.501 L 131.641 82.817 L 127.161 82.795 L 127.203 75.219 L 118.501 75.174 L 118.459 82.748 L 113.981 82.724 L 114.087 62.409 L 118.567 62.433 L 118.521 71.213" style="fill: rgb(33, 37, 39); fill-opacity: 1;"/>
      <path d="M 142.6 62.423 L 147.078 62.447 L 147.033 71.112 L 154.609 82.801 L 149.296 82.775 L 144.771 75.147 L 140.423 82.728 L 134.852 82.698 L 142.555 71.089 L 142.6 62.423" style="fill: rgb(33, 37, 39); fill-opacity: 1;"/>
      <path d="M 164.542 78.997 C 164.962 79.001 165.403 78.978 165.863 78.934 C 166.323 78.889 166.743 78.779 167.114 78.612 C 167.489 78.441 167.795 78.199 168.038 77.883 C 168.278 77.57 168.398 77.153 168.402 76.637 C 168.404 76.159 168.317 75.762 168.136 75.446 C 167.956 75.129 167.719 74.88 167.423 74.696 C 167.126 74.513 166.793 74.379 166.42 74.303 C 166.045 74.224 165.66 74.183 165.256 74.182 L 162.271 74.167 L 162.245 78.986 L 164.542 78.997 Z M 162.331 62.459 L 162.29 70.379 L 165.564 70.396 C 166.636 70.402 167.629 70.508 168.549 70.715 C 169.467 70.919 170.257 71.262 170.927 71.743 C 171.594 72.227 172.118 72.87 172.497 73.674 C 172.875 74.481 173.061 75.475 173.056 76.663 C 173.048 77.867 172.837 78.867 172.42 79.658 C 172.005 80.449 171.447 81.076 170.748 81.544 C 170.044 82.008 169.223 82.333 168.285 82.519 C 167.347 82.707 166.349 82.797 165.297 82.79 L 157.744 82.751 L 157.852 62.437 L 162.331 62.459" style="fill: rgb(33, 37, 39); fill-opacity: 1;"/>
      <path d="M 190.596 62.492 L 190.575 66.622 L 180.724 66.573 L 180.703 70.705 L 189.52 70.751 L 189.498 74.884 L 180.682 74.837 L 180.662 78.623 L 189.995 78.673 L 189.972 82.805 L 176.161 82.733 L 176.267 62.418 L 190.596 62.492" style="fill: rgb(33, 37, 39); fill-opacity: 1;"/>
      <path d="M 198.224 74.368 L 198.2 78.986 L 201.129 79.001 C 201.532 79.005 201.942 78.978 202.363 78.923 C 202.784 78.867 203.16 78.761 203.486 78.598 C 203.812 78.436 204.082 78.204 204.293 77.899 C 204.503 77.596 204.612 77.184 204.616 76.666 C 204.617 76.112 204.5 75.682 204.264 75.375 C 204.025 75.068 203.725 74.84 203.362 74.696 C 203 74.549 202.593 74.463 202.144 74.431 C 201.695 74.4 201.267 74.383 200.866 74.381 L 198.224 74.368 Z M 204.746 62.492 L 210.116 62.52 L 204.901 71.074 C 206.337 71.349 207.426 71.988 208.165 72.998 C 208.906 74.008 209.274 75.229 209.267 76.665 C 209.26 77.848 209.049 78.837 208.632 79.63 C 208.217 80.421 207.659 81.05 206.96 81.515 C 206.255 81.979 205.441 82.311 204.511 82.506 C 203.585 82.703 202.601 82.798 201.569 82.792 L 193.701 82.749 L 193.804 62.435 L 198.285 62.459 L 198.242 70.579 L 200.456 70.591 L 204.746 62.492" style="fill: rgb(33, 37, 39); fill-opacity: 1;"/>
      <path d="M 226 62.522 L 225.976 66.654 L 217.676 66.611 L 217.59 82.794 L 213.113 82.771 L 213.218 62.456 L 226 62.522" style="fill: rgb(33, 37, 39); fill-opacity: 1;"/>
      <path d="M 243.54 62.506 L 243.519 66.635 L 233.669 66.586 L 233.646 70.718 L 242.463 70.765 L 242.441 74.895 L 233.627 74.85 L 233.605 78.636 L 242.937 78.686 L 242.916 82.819 L 229.104 82.746 L 229.211 62.431 L 243.54 62.506" style="fill: rgb(33, 37, 39); fill-opacity: 1;"/>
      <path d="M 253.537 66.605 L 251.211 66.591 L 251.147 78.644 L 253.789 78.658 C 254.727 78.662 255.624 78.549 256.477 78.312 C 257.327 78.08 258.073 77.725 258.707 77.25 C 259.34 76.773 259.847 76.171 260.223 75.435 C 260.6 74.7 260.793 73.835 260.798 72.84 C 260.803 71.692 260.622 70.72 260.253 69.925 C 259.883 69.129 259.374 68.485 258.726 67.995 C 258.079 67.504 257.31 67.152 256.419 66.934 C 255.533 66.72 254.57 66.61 253.537 66.605 Z M 262.045 65.116 C 263.092 65.97 263.925 67.027 264.54 68.284 C 265.156 69.538 265.459 70.99 265.45 72.635 C 265.442 74.492 265.113 76.066 264.465 77.365 C 263.815 78.665 262.944 79.715 261.848 80.522 C 260.753 81.328 259.47 81.913 258.005 82.268 C 256.54 82.622 254.991 82.797 253.364 82.787 L 246.645 82.752 L 246.753 62.437 L 254.076 62.476 C 255.586 62.483 257.031 62.711 258.409 63.159 C 259.784 63.606 260.996 64.258 262.045 65.116" style="fill: rgb(33, 37, 39); fill-opacity: 1;"/>
      <path d="M 280.09 74.509 L 280.111 70.377 L 283.757 70.396 L 283.776 67.095 C 283.355 66.863 282.792 66.635 282.086 66.412 C 281.378 66.189 280.538 66.075 279.56 66.07 C 278.604 66.066 277.735 66.222 276.958 66.543 C 276.182 66.865 275.513 67.316 274.955 67.898 C 274.397 68.477 273.968 69.164 273.667 69.956 C 273.366 70.748 273.214 71.621 273.209 72.579 C 273.203 73.515 273.347 74.387 273.638 75.191 C 273.933 75.997 274.354 76.693 274.905 77.282 C 275.46 77.867 276.122 78.322 276.895 78.653 C 277.669 78.982 278.535 79.15 279.492 79.154 C 280.64 79.161 281.598 79.003 282.365 78.682 C 283.132 78.361 283.825 77.886 284.441 77.257 L 287.581 80.717 C 286.543 81.669 285.336 82.336 283.966 82.722 C 282.596 83.108 281.096 83.295 279.469 83.286 C 277.879 83.279 276.416 83.022 275.083 82.515 C 273.742 82.013 272.587 81.295 271.618 80.362 C 270.644 79.427 269.891 78.299 269.35 76.978 C 268.812 75.654 268.546 74.181 268.555 72.555 C 268.565 70.928 268.844 69.458 269.397 68.138 C 269.95 66.822 270.716 65.702 271.7 64.78 C 272.681 63.856 273.841 63.152 275.184 62.659 C 276.526 62.17 277.993 61.931 279.583 61.938 C 281.076 61.946 282.539 62.105 283.973 62.42 C 285.407 62.733 286.783 63.239 288.1 63.935 L 288.044 74.553 L 280.09 74.509" style="fill: rgb(33, 37, 39); fill-opacity: 1;"/>
      <path d="M 305.64 62.975 L 305.618 67.105 L 295.769 67.053 L 295.747 71.187 L 304.564 71.234 L 304.543 75.365 L 295.725 75.319 L 295.706 79.106 L 305.037 79.156 L 305.017 83.286 L 291.205 83.214 L 291.312 62.899 L 305.64 62.975" style="fill: rgb(33, 37, 39); fill-opacity: 1;"/>
      <path d="M 316.171 79.481 C 316.576 79.482 316.985 79.458 317.408 79.401 C 317.826 79.346 318.203 79.239 318.528 79.076 C 318.856 78.914 319.126 78.682 319.337 78.377 C 319.547 78.073 319.656 77.662 319.66 77.144 C 319.662 76.59 319.544 76.16 319.306 75.853 C 319.068 75.545 318.767 75.318 318.406 75.175 C 318.043 75.026 317.636 74.941 317.188 74.909 C 316.738 74.879 316.311 74.861 315.911 74.861 L 313.268 74.846 L 313.244 79.464 L 316.171 79.481 Z M 313.329 62.937 L 313.286 71.057 L 315.497 71.069 L 319.79 62.971 L 325.16 63 L 319.946 71.551 C 321.381 71.828 322.47 72.468 323.211 73.476 C 323.95 74.486 324.318 75.707 324.311 77.143 C 324.304 78.326 324.093 79.317 323.678 80.108 C 323.261 80.901 322.706 81.53 322.003 81.993 C 321.3 82.457 320.486 82.788 319.557 82.984 C 318.627 83.183 317.645 83.276 316.613 83.27 L 308.745 83.229 L 308.851 62.915 L 313.329 62.937" style="fill: rgb(33, 37, 39); fill-opacity: 1;"/>
      <path d="M 114.19 47.866 L 140.379 47.866 L 140.379 42.569 L 119.839 42.569 L 119.839 29.504 L 138.967 29.504 L 138.967 24.207 L 119.839 24.207 L 119.839 6.198 L 114.19 6.198 L 114.19 47.866" style="fill: rgb(255, 83, 67); fill-opacity: 1;"/>
      <path d="M 167.63 21.441 L 159.862 40.568 L 159.744 40.568 L 151.857 21.441 L 167.63 21.441 Z M 157.508 47.866 L 162.628 47.866 L 180.46 6.198 L 173.869 6.198 L 169.69 16.497 L 149.857 16.497 L 145.737 6.198 L 139.146 6.198 L 157.508 47.866" style="fill: rgb(255, 83, 67); fill-opacity: 1;"/>
      <path d="M 189.173 11.142 L 197.472 11.142 C 200.885 11.142 206.476 12.319 206.476 18.204 C 206.476 23.148 203.004 25.619 197.531 25.619 L 189.173 25.619 L 189.173 11.142 Z M 189.173 30.563 L 196.883 30.563 C 201.179 30.563 204.652 32.27 204.652 36.802 C 204.652 40.097 202.592 42.922 198.06 42.922 L 189.173 42.922 L 189.173 30.563 Z M 183.524 47.866 L 198.002 47.866 C 205.241 47.866 210.655 44.512 210.655 37.449 C 210.655 32.682 207.712 29.68 203.475 28.268 L 203.475 28.15 C 208.477 27.797 212.479 23.383 212.479 17.792 C 212.479 10.318 205.947 6.198 197.825 6.198 L 183.524 6.198 L 183.524 47.866" style="fill: rgb(255, 83, 67); fill-opacity: 1;"/>
      <path d="M 225.078 29.504 L 232.493 29.504 C 236.965 29.504 241.439 30.563 241.439 36.213 C 241.439 41.863 236.965 42.922 232.493 42.922 L 225.078 42.922 L 225.078 29.504 Z M 219.427 47.866 L 234.082 47.866 C 244.734 47.866 247.442 41.451 247.442 36.213 C 247.442 30.916 243.499 25.914 237.201 25.208 L 249.031 6.198 L 241.968 6.198 L 231.375 24.56 L 225.078 24.56 L 225.078 6.198 L 219.427 6.198 L 219.427 47.866" style="fill: rgb(255, 83, 67); fill-opacity: 1;"/>
      <path d="M 255.389 47.866 L 261.04 47.866 L 261.04 6.198 L 255.389 6.198 Z" style="fill: rgb(255, 83, 67); fill-opacity: 1;"/>
      <path d="M 0.06 90.978 L 325.16 90.978 L 325.16 0.06 L 0.06 0.06 Z" style="fill: none;"/>
    </g>
    <g style="clip-path: url(#clippath8);">
      <g transform="">
        <path d="M 298.413 38.862 C 296.059 41.922 292.174 43.629 288.349 43.629 C 278.991 43.629 272.812 36.154 272.812 26.679 C 272.812 17.91 278.638 10.435 288.349 10.435 C 293.116 10.435 296.765 12.554 299.237 16.027 L 304.003 12.436 C 302.768 10.73 297.765 5.138 288.231 5.138 C 274.989 5.138 266.808 16.203 266.808 26.679 C 266.808 39.627 275.696 48.925 288.526 48.925 C 293.999 48.925 299.766 46.866 303.121 42.451 L 298.413 38.862" style="fill: rgb(255, 83, 67); fill-opacity: 1;"/>
        <path d="M 14.573 23.787 C 14.176 22.955 13.17 22.599 12.338 22.996 L 0.954 28.428 C 0.121 28.825 -0.234 29.831 0.163 30.663 L 2.141 34.808 C 2.538 35.64 3.543 35.996 4.375 35.599 L 15.76 30.167 C 16.592 29.77 16.948 28.764 16.551 27.932 L 14.573 23.787 Z M 51.461 6.185 C 51.064 5.353 50.059 4.997 49.226 5.394 L 30.605 14.28 C 29.772 14.676 29.417 15.682 29.813 16.514 L 31.792 20.659 C 32.189 21.491 33.194 21.847 34.026 21.45 L 52.648 12.565 C 53.48 12.168 53.836 11.162 53.439 10.33 L 51.461 6.185" style="fill: rgb(255, 83, 67); fill-opacity: 1;"/>
      </g>
    </g>
    <g transform="">
      <path d="M 59.421 70.319 C 59.023 69.487 58.018 69.131 57.186 69.528 L 38.666 78.365 C 37.834 78.762 37.478 79.767 37.875 80.599 L 39.853 84.745 C 40.25 85.577 41.255 85.933 42.087 85.536 L 60.607 76.699 C 61.439 76.301 61.796 75.296 61.398 74.464 L 59.421 70.319 Z M 89.089 56.161 C 88.692 55.329 87.687 54.973 86.855 55.37 L 75.452 60.811 C 74.62 61.208 74.264 62.214 74.661 63.046 L 76.639 67.191 C 77.036 68.023 78.042 68.379 78.874 67.982 L 90.276 62.541 C 91.108 62.144 91.464 61.138 91.067 60.306 L 89.089 56.161" style="fill: rgb(255, 83, 67); fill-opacity: 1;"/>
      <path d="M 32.174 60.675 C 31.777 59.843 30.772 59.487 29.939 59.884 L 18.555 65.316 C 17.723 65.713 17.367 66.719 17.764 67.551 L 19.742 71.696 C 20.139 72.528 21.145 72.884 21.977 72.487 L 33.361 67.055 C 34.193 66.658 34.549 65.652 34.152 64.82 L 32.174 60.675" style="fill: rgb(255, 83, 67); fill-opacity: 1;"/>
      <path d="M 69.063 43.073 C 68.666 42.241 67.66 41.885 66.828 42.282 L 48.207 51.168 C 47.375 51.565 47.019 52.57 47.416 53.403 L 49.394 57.548 C 49.791 58.38 50.796 58.736 51.629 58.339 L 70.25 49.453 C 71.082 49.056 71.438 48.05 71.041 47.218 L 69.063 43.073" style="fill: rgb(255, 83, 67); fill-opacity: 1;"/>
      <path d="M 71.51 19.261 C 71.113 18.429 70.107 18.073 69.275 18.471 L 57.85 23.923 C 57.018 24.32 56.662 25.325 57.059 26.157 L 59.037 30.303 C 59.434 31.134 60.439 31.491 61.271 31.094 L 72.697 25.642 C 73.529 25.245 73.885 24.239 73.488 23.407 L 71.51 19.261" style="fill: rgb(255, 83, 67); fill-opacity: 1;"/>
      <path d="M 41.818 33.43 C 41.421 32.597 40.415 32.242 39.583 32.639 L 21.006 41.503 C 20.174 41.9 19.818 42.906 20.215 43.738 L 22.193 47.883 C 22.59 48.716 23.596 49.072 24.428 48.674 L 43.005 39.81 C 43.837 39.413 44.193 38.407 43.796 37.575 L 41.818 33.43" style="fill: rgb(255, 83, 67); fill-opacity: 1;"/>
      <path d="M 0.06 90.978 L 325.16 90.978 L 325.16 0.06 L 0.06 0.06 Z" style="fill: none;"/>
    </g>
    <g style="clip-path: url(#clippath9);">
      <g transform="">
        <path d="M 12.682 38.447 C 12.285 37.615 11.28 37.259 10.448 37.656 L 6.301 39.635 C 5.469 40.032 5.113 41.037 5.51 41.869 L 14.395 60.489 C 14.792 61.321 15.797 61.677 16.63 61.281 L 20.776 59.302 C 21.608 58.905 21.964 57.899 21.567 57.067 L 12.682 38.447" style="fill: rgb(147, 222, 219); fill-opacity: 1;"/>
        <path d="M 30.284 75.335 C 29.887 74.503 28.881 74.147 28.049 74.544 L 23.903 76.523 C 23.071 76.92 22.715 77.925 23.112 78.758 L 28.488 90.024 C 28.885 90.856 29.891 91.212 30.723 90.815 L 34.869 88.836 C 35.701 88.439 36.057 87.434 35.66 86.601 L 30.284 75.335" style="fill: rgb(147, 222, 219); fill-opacity: 1;"/>
        <path d="M 62.723 0.953 C 62.326 0.121 61.32 -0.235 60.488 0.162 L 56.342 2.141 C 55.51 2.538 55.154 3.544 55.551 4.376 L 60.927 15.642 C 61.324 16.474 62.33 16.83 63.162 16.433 L 67.308 14.455 C 68.14 14.058 68.496 13.052 68.099 12.22 L 62.723 0.953" style="fill: rgb(147, 222, 219); fill-opacity: 1;"/>
      </g>
    </g>
    <g transform="">
      <path d="M 76.816 30.488 C 76.419 29.656 75.414 29.3 74.582 29.697 L 70.435 31.676 C 69.603 32.073 69.247 33.078 69.644 33.91 L 78.529 52.531 C 78.926 53.363 79.932 53.719 80.764 53.322 L 84.911 51.343 C 85.743 50.947 86.099 49.941 85.702 49.109 L 76.816 30.488" style="fill: rgb(147, 222, 219); fill-opacity: 1;"/>
      <path d="M 67.173 57.733 C 66.776 56.901 65.771 56.545 64.938 56.942 L 60.792 58.921 C 59.959 59.318 59.604 60.324 60.001 61.155 L 65.377 72.422 C 65.773 73.254 66.779 73.61 67.611 73.213 L 71.758 71.234 C 72.59 70.837 72.946 69.831 72.549 68.999 L 67.173 57.733" style="fill: rgb(147, 222, 219); fill-opacity: 1;"/>
      <path d="M 49.571 20.845 C 49.174 20.013 48.169 19.657 47.337 20.054 L 43.19 22.033 C 42.357 22.429 42.001 23.435 42.399 24.267 L 51.284 42.887 C 51.681 43.72 52.687 44.075 53.519 43.679 L 57.665 41.7 C 58.497 41.303 58.853 40.297 58.456 39.465 L 49.571 20.845" style="fill: rgb(147, 222, 219); fill-opacity: 1;"/>
      <path d="M 25.835 18.555 C 25.438 17.723 24.432 17.367 23.6 17.764 L 19.453 19.743 C 18.621 20.14 18.265 21.146 18.662 21.978 L 24.038 33.244 C 24.436 34.076 25.441 34.432 26.273 34.035 L 30.42 32.057 C 31.252 31.66 31.608 30.654 31.211 29.822 L 25.835 18.555" style="fill: rgb(147, 222, 219); fill-opacity: 1;"/>
      <path d="M 39.928 48.09 C 39.531 47.258 38.525 46.902 37.693 47.299 L 33.547 49.278 C 32.714 49.675 32.359 50.68 32.755 51.512 L 41.641 70.133 C 42.038 70.965 43.043 71.321 43.876 70.924 L 48.022 68.946 C 48.854 68.549 49.21 67.543 48.813 66.711 L 39.928 48.09" style="fill: rgb(147, 222, 219); fill-opacity: 1;"/>
    </g>
  </g>
</svg>