<?xml version="1.0" encoding="utf-8"?>
<svg version="1.1" width="326px" height="93px" preserveAspectRatio="none" viewBox="0 0 326 93" xmlns="http://www.w3.org/2000/svg">
  <defs>
    <clipPath id="clippath7" transform="">
      <path d="M 0.06 92.72 L 325.678 92.72 L 325.678 0 L 0.06 0 Z" style="fill: none; clip-rule: nonzero;"/>
    </clipPath>
  </defs>
  <g transform="matrix(1 0 0 -1 0 93)">
    <g transform="">
      <path d="M 118.595 73.052 L 127.314 73.097 L 127.363 64.295 L 131.847 64.318 L 131.742 84.678 L 127.253 84.656 L 127.297 77.065 L 118.573 77.02 L 118.534 84.611 L 114.045 84.584 L 114.15 64.229 L 118.64 64.251 L 118.595 73.052" style="fill: rgb(32, 37, 39); fill-opacity: 1;"/>
      <path d="M 142.724 64.24 L 147.214 64.267 L 147.17 72.947 L 154.761 84.662 L 149.434 84.639 L 144.9 76.992 L 140.544 84.589 L 134.961 84.562 L 142.68 72.924 L 142.724 64.24" style="fill: rgb(32, 37, 39); fill-opacity: 1;"/>
      <path d="M 164.716 80.849 C 165.138 80.855 165.583 80.833 166.043 80.788 C 166.504 80.744 166.925 80.632 167.297 80.466 C 167.674 80.294 167.98 80.05 168.224 79.733 C 168.463 79.418 168.585 79.001 168.59 78.485 C 168.59 78.008 168.506 77.608 168.324 77.292 C 168.14 76.976 167.908 76.726 167.608 76.543 C 167.308 76.359 166.975 76.226 166.603 76.148 C 166.226 76.071 165.843 76.026 165.438 76.026 L 162.447 76.01 L 162.42 80.838 L 164.716 80.849 Z M 162.497 64.278 L 162.458 72.214 L 165.738 72.231 C 166.814 72.236 167.807 72.342 168.729 72.553 C 169.65 72.758 170.444 73.102 171.115 73.585 C 171.781 74.067 172.308 74.712 172.685 75.522 C 173.063 76.332 173.252 77.325 173.246 78.518 C 173.241 79.728 173.03 80.727 172.608 81.521 C 172.192 82.314 171.631 82.941 170.932 83.407 C 170.227 83.874 169.406 84.195 168.463 84.384 C 167.525 84.573 166.526 84.662 165.471 84.656 L 157.902 84.617 L 158.013 64.257 L 162.497 64.278" style="fill: rgb(32, 37, 39); fill-opacity: 1;"/>
      <path d="M 190.827 64.312 L 190.804 68.452 L 180.932 68.402 L 180.91 72.542 L 189.745 72.586 L 189.722 76.726 L 180.887 76.681 L 180.871 80.477 L 190.222 80.527 L 190.2 84.667 L 176.359 84.595 L 176.464 64.234 L 190.827 64.312" style="fill: rgb(32, 37, 39); fill-opacity: 1;"/>
      <path d="M 198.468 76.21 L 198.446 80.838 L 201.381 80.855 C 201.787 80.86 202.198 80.833 202.619 80.777 C 203.041 80.721 203.419 80.616 203.746 80.449 C 204.073 80.289 204.339 80.056 204.556 79.75 C 204.767 79.445 204.878 79.034 204.878 78.513 C 204.878 77.958 204.761 77.525 204.523 77.22 C 204.284 76.915 203.984 76.681 203.618 76.537 C 203.257 76.387 202.846 76.304 202.397 76.271 C 201.948 76.237 201.52 76.221 201.115 76.221 L 198.468 76.21 Z M 205.005 64.312 L 210.388 64.34 L 205.161 72.913 C 206.604 73.191 207.691 73.829 208.429 74.839 C 209.173 75.855 209.54 77.075 209.534 78.513 C 209.528 79.7 209.317 80.688 208.896 81.482 C 208.479 82.275 207.919 82.902 207.219 83.369 C 206.515 83.835 205.699 84.168 204.767 84.362 C 203.84 84.562 202.852 84.656 201.82 84.65 L 193.934 84.606 L 194.04 64.245 L 198.529 64.267 L 198.485 72.408 L 200.705 72.419 L 205.005 64.312" style="fill: rgb(32, 37, 39); fill-opacity: 1;"/>
      <path d="M 226.304 64.34 L 226.282 68.48 L 217.963 68.435 L 217.88 84.656 L 213.39 84.634 L 213.496 64.273 L 226.304 64.34" style="fill: rgb(32, 37, 39); fill-opacity: 1;"/>
      <path d="M 243.884 64.323 L 243.863 68.463 L 233.99 68.413 L 233.968 72.553 L 242.802 72.603 L 242.781 76.737 L 233.946 76.692 L 233.929 80.488 L 243.28 80.538 L 243.257 84.678 L 229.418 84.606 L 229.523 64.251 L 243.884 64.323" style="fill: rgb(32, 37, 39); fill-opacity: 1;"/>
      <path d="M 253.901 68.429 L 251.571 68.419 L 251.505 80.5 L 254.151 80.516 C 255.089 80.522 255.988 80.405 256.842 80.167 C 257.692 79.933 258.441 79.578 259.079 79.101 C 259.717 78.624 260.222 78.019 260.599 77.281 C 260.977 76.543 261.172 75.677 261.176 74.678 C 261.182 73.529 261 72.553 260.632 71.759 C 260.261 70.96 259.751 70.316 259.101 69.822 C 258.452 69.329 257.68 68.979 256.793 68.757 C 255.905 68.546 254.939 68.435 253.901 68.429 Z M 262.431 66.937 C 263.48 67.791 264.312 68.851 264.928 70.111 C 265.545 71.371 265.849 72.825 265.839 74.473 C 265.833 76.332 265.5 77.908 264.85 79.212 C 264.201 80.516 263.325 81.565 262.225 82.375 C 261.127 83.185 259.845 83.768 258.375 84.123 C 256.904 84.479 255.355 84.65 253.724 84.645 L 246.993 84.611 L 247.103 64.251 L 254.44 64.29 C 255.955 64.295 257.403 64.523 258.785 64.972 C 260.161 65.427 261.377 66.077 262.431 66.937" style="fill: rgb(32, 37, 39); fill-opacity: 1;"/>
      <path d="M 280.511 76.354 L 280.533 72.214 L 284.19 72.231 L 284.207 68.924 C 283.785 68.69 283.219 68.463 282.514 68.241 C 281.804 68.019 280.961 67.902 279.984 67.897 C 279.024 67.891 278.153 68.052 277.376 68.368 C 276.598 68.69 275.927 69.145 275.367 69.728 C 274.806 70.311 274.379 70.999 274.074 71.793 C 273.774 72.586 273.619 73.463 273.613 74.423 C 273.607 75.361 273.752 76.232 274.046 77.042 C 274.34 77.853 274.761 78.546 275.317 79.14 C 275.872 79.728 276.538 80.183 277.309 80.516 C 278.086 80.843 278.952 81.016 279.912 81.016 C 281.06 81.021 282.026 80.866 282.792 80.544 C 283.563 80.222 284.256 79.745 284.873 79.118 L 288.019 82.586 C 286.982 83.541 285.772 84.207 284.395 84.595 C 283.025 84.984 281.521 85.167 279.889 85.161 C 278.297 85.155 276.832 84.895 275.495 84.39 C 274.151 83.885 272.997 83.169 272.02 82.231 C 271.044 81.293 270.289 80.161 269.751 78.84 C 269.213 77.514 268.946 76.038 268.957 74.406 C 268.968 72.774 269.246 71.304 269.8 69.978 C 270.355 68.657 271.122 67.536 272.109 66.615 C 273.091 65.688 274.256 64.983 275.6 64.489 C 276.943 64.001 278.414 63.757 280.006 63.768 C 281.505 63.773 282.969 63.935 284.407 64.251 C 285.844 64.562 287.22 65.072 288.541 65.771 L 288.486 76.41 L 280.511 76.354" style="fill: rgb(32, 37, 39); fill-opacity: 1;"/>
      <path d="M 306.116 64.794 L 306.093 68.935 L 296.227 68.879 L 296.205 73.024 L 305.04 73.069 L 305.017 77.209 L 296.182 77.164 L 296.161 80.96 L 305.511 81.01 L 305.495 85.15 L 291.654 85.078 L 291.759 64.717 L 306.116 64.794" style="fill: rgb(32, 37, 39); fill-opacity: 1;"/>
      <path d="M 316.672 81.337 C 317.076 81.337 317.487 81.315 317.909 81.26 C 318.331 81.204 318.708 81.099 319.03 80.932 C 319.357 80.772 319.629 80.538 319.839 80.233 C 320.05 79.928 320.156 79.517 320.162 78.996 C 320.162 78.44 320.046 78.008 319.806 77.703 C 319.568 77.398 319.268 77.164 318.902 77.025 C 318.536 76.876 318.13 76.793 317.681 76.759 C 317.231 76.732 316.804 76.709 316.399 76.709 L 313.752 76.692 L 313.73 81.321 L 316.672 81.337 Z M 313.824 64.756 L 313.78 72.897 L 315.994 72.908 L 320.295 64.794 L 325.677 64.822 L 320.45 73.391 C 321.887 73.668 322.981 74.312 323.724 75.316 C 324.463 76.332 324.835 77.553 324.829 78.99 C 324.823 80.178 324.612 81.171 324.196 81.959 C 323.78 82.753 323.219 83.385 322.514 83.846 C 321.81 84.312 320.994 84.645 320.062 84.839 C 319.13 85.039 318.147 85.133 317.109 85.128 L 309.223 85.089 L 309.329 64.733 L 313.824 64.756" style="fill: rgb(32, 37, 39); fill-opacity: 1;"/>
      <path d="M 112.28 27.87 C 112.28 40.697 121.715 49.146 133.432 49.146 C 140.77 49.146 145.827 45.94 149.404 41.499 L 145.335 38.909 C 142.745 42.239 138.365 44.583 133.432 44.583 C 124.428 44.583 117.583 37.738 117.583 27.87 C 117.583 18.127 124.428 11.159 133.432 11.159 C 138.365 11.159 142.437 13.501 144.533 15.598 L 144.533 23.923 L 130.349 23.923 L 130.349 28.486 L 149.589 28.486 L 149.589 13.686 C 145.766 9.37 140.154 6.533 133.432 6.533 C 121.715 6.533 112.28 15.106 112.28 27.87" style="fill: rgb(255, 109, 33); fill-opacity: 1;"/>
      <path d="M 182.094 36.072 C 182.094 40.759 178.702 43.904 173.831 43.904 L 163.04 43.904 L 163.04 28.178 L 173.831 28.178 C 178.702 28.178 182.094 31.447 182.094 36.072 Z M 181.724 7.335 L 171.302 23.676 L 163.04 23.676 L 163.04 7.335 L 157.92 7.335 L 157.92 48.467 L 174.447 48.467 C 181.971 48.467 187.397 43.657 187.397 36.072 C 187.397 28.671 182.28 24.602 176.669 24.108 L 187.768 7.335 L 181.724 7.335" style="fill: rgb(255, 109, 33); fill-opacity: 1;"/>
      <path d="M 195.479 48.467 L 200.598 48.467 L 200.598 7.335 L 195.479 7.335 Z" style="fill: rgb(255, 109, 33); fill-opacity: 1;"/>
      <path d="M 240.069 27.87 C 240.069 36.751 234.457 43.904 224.282 43.904 L 215.34 43.904 L 215.34 11.898 L 224.282 11.898 C 234.273 11.898 240.069 19.052 240.069 27.87 Z M 210.221 7.335 L 210.221 48.467 L 224.282 48.467 C 237.108 48.467 245.373 39.525 245.373 27.87 C 245.373 16.154 237.108 7.335 224.282 7.335 L 210.221 7.335" style="fill: rgb(255, 109, 33); fill-opacity: 1;"/>
      <path d="M 48.853 82.021 L 63.092 82.021 L 63.092 67.315 L 48.853 67.315 Z" style="fill: rgb(32, 37, 39); fill-opacity: 1;"/>
      <path d="M 68.077 82.021 L 82.021 82.021 L 82.021 67.315 L 68.077 67.315 Z" style="fill: rgb(32, 37, 39); fill-opacity: 1;"/>
      <path d="M 10.699 62.33 L 25.082 62.33 L 25.082 48.531 L 10.699 48.531 Z" style="fill: rgb(32, 37, 39); fill-opacity: 1;"/>
      <path d="M 48.853 62.33 L 63.092 62.33 L 63.092 48.531 L 48.853 48.531 Z" style="fill: rgb(32, 37, 39); fill-opacity: 1;"/>
      <path d="M 30.068 24.32 L 43.868 24.32 L 43.868 10.699 L 30.068 10.699 Z" style="fill: rgb(32, 37, 39); fill-opacity: 1;"/>
      <path d="M 30.068 82.021 L 43.868 82.021 L 43.868 67.315 L 30.068 67.315 Z" style="fill: rgb(32, 37, 39); fill-opacity: 1;"/>
      <path d="M 68.077 62.33 L 82.021 62.33 L 82.021 48.531 L 68.077 48.531 Z" style="fill: rgb(32, 37, 39); fill-opacity: 1;"/>
      <path d="M 30.068 62.33 L 43.868 62.33 L 43.868 48.531 L 30.068 48.531 Z" style="fill: rgb(32, 37, 39); fill-opacity: 1;"/>
      <path d="M 30.068 43.545 L 43.868 43.545 L 43.868 29.305 L 30.068 29.305 Z" style="fill: rgb(32, 37, 39); fill-opacity: 1;"/>
      <path d="M 48.853 43.545 L 63.092 43.545 L 63.092 29.305 L 48.853 29.305 Z" style="fill: rgb(255, 109, 33); fill-opacity: 1;"/>
      <path d="M 10.699 82.021 L 25.082 82.021 L 25.082 67.315 L 10.699 67.315 Z" style="fill: rgb(255, 109, 33); fill-opacity: 1;"/>
      <path d="M 10.699 24.32 L 25.082 24.32 L 25.082 10.699 L 10.699 10.699 Z" style="fill: rgb(32, 37, 39); fill-opacity: 1;"/>
      <path d="M 0.06 92.72 L 325.678 92.72 L 325.678 0 L 0.06 0 Z" style="fill: none;"/>
    </g>
    <g style="clip-path: url(#clippath7);">
      <g transform="">
        <path d="M 10.699 43.545 L 25.082 43.545 L 25.082 29.305 L 10.699 29.305 Z" style="fill: rgb(32, 37, 39); fill-opacity: 1;"/>
        <path d="M 0 0 L 92.72 0 L 92.72 92.72 L 0 92.72 Z M 5.02 87.7 L 87.7 87.7 L 87.7 5.019 L 5.02 5.019 Z" style="fill: rgb(255, 109, 33); fill-opacity: 1;"/>
      </g>
    </g>
  </g>
</svg>