<?xml version="1.0" encoding="utf-8"?>
<svg version="1.1" width="416px" height="123px" preserveAspectRatio="none" viewBox="0 0 416 123" xmlns="http://www.w3.org/2000/svg">
  <defs>
    <clipPath id="clippath4" transform="">
      <path d="M 0.06 122.312 L 415.327 122.312 L 415.327 0 L 0.06 0 Z" style="fill: none; clip-rule: nonzero;"/>
    </clipPath>
    <clipPath id="clippath5" transform="">
      <path d="M 0.06 122.312 L 415.327 122.312 L 415.327 0 L 0.06 0 Z" style="fill: none; clip-rule: nonzero;"/>
    </clipPath>
    <clipPath id="clippath6" transform="">
      <path d="M 0.06 122.312 L 415.327 122.312 L 415.327 0 L 0.06 0 Z" style="fill: none; clip-rule: nonzero;"/>
    </clipPath>
  </defs>
  <g transform="matrix(1 0 0 -1 0 123)">
    <g transform="">
      <path d="M 0.06 122.312 L 415.327 122.312 L 415.327 0 L 0.06 0 Z" style="fill: none;"/>
    </g>
    <g style="clip-path: url(#clippath4);">
      <g transform="">
        <path d="M 79.138 8.696 L 64.18 0 L 49.222 8.696 L 49.222 26.09 L 64.18 34.786 L 79.138 26.09 L 79.138 8.696" style="fill: rgb(8, 80, 140); fill-opacity: 1;"/>
        <path d="M 43.764 106.656 L 34.788 101.438 L 25.812 106.656 L 25.812 117.093 L 34.788 122.312 L 43.764 117.093 L 43.764 106.656" style="fill: rgb(8, 80, 140); fill-opacity: 1;"/>
      </g>
    </g>
    <g transform="">
      <path d="M 120.041 58.713 L 114.164 55.296 L 108.287 58.713 L 108.287 65.546 L 114.164 68.963 L 120.041 65.546 L 120.041 58.713" style="fill: rgb(8, 80, 140); fill-opacity: 1;"/>
      <path d="M 96.431 9.776 L 88.839 5.361 L 81.247 9.776 L 81.247 18.604 L 88.839 23.018 L 96.431 18.604 L 96.431 9.776" style="fill: rgb(8, 80, 140); fill-opacity: 1;"/>
      <path d="M 79.509 46.9 L 45.713 27.25 L 11.917 46.9 L 11.917 86.197 L 45.713 105.846 L 79.509 86.197 L 79.509 46.9" style="fill: rgb(8, 80, 140); fill-opacity: 1;"/>
      <path d="M 125.361 25.416 L 107.623 15.104 L 89.885 25.416 L 89.885 46.042 L 107.623 56.355 L 125.361 46.042 L 125.361 25.416" style="fill: rgb(8, 80, 140); fill-opacity: 1;"/>
      <path d="M 0.06 122.312 L 415.327 122.312 L 415.327 0 L 0.06 0 Z" style="fill: none;"/>
    </g>
    <g style="clip-path: url(#clippath5);">
      <g transform="">
        <path d="M 124.216 68.543 L 120.957 66.649 L 117.698 68.543 L 117.698 72.333 L 120.957 74.227 L 124.216 72.333 L 124.216 68.543" style="fill: rgb(8, 80, 140); fill-opacity: 1;"/>
        <path d="M 23.653 23.947 L 11.827 17.071 L 0 23.947 L 0 37.699 L 11.827 44.575 L 23.653 37.699 L 23.653 23.947" style="fill: rgb(8, 80, 140); fill-opacity: 1;"/>
      </g>
    </g>
    <g transform="">
      <path d="M 24.322 107.179 L 19.92 104.619 L 15.517 107.179 L 15.517 112.298 L 19.92 114.858 L 24.322 112.298 L 24.322 107.179" style="fill: rgb(8, 80, 140); fill-opacity: 1;"/>
      <path d="M 128.577 70.248 L 126.983 69.321 L 125.39 70.248 L 125.39 72.101 L 126.983 73.027 L 128.577 72.101 L 128.577 70.248" style="fill: rgb(8, 80, 140); fill-opacity: 1;"/>
      <path d="M 17.208 103.171 L 15.614 102.244 L 14.02 103.171 L 14.02 105.024 L 15.614 105.95 L 17.208 105.024 L 17.208 103.171" style="fill: rgb(8, 80, 140); fill-opacity: 1;"/>
      <path d="M 83.396 90.174 L 79.507 87.913 L 75.618 90.174 L 75.618 94.696 L 79.507 96.957 L 83.396 94.696 L 83.396 90.174" style="fill: rgb(8, 80, 140); fill-opacity: 1;"/>
      <path d="M 99.211 87.548 L 92.067 83.395 L 84.923 87.548 L 84.923 95.855 L 92.067 100.008 L 99.211 95.855 L 99.211 87.548" style="fill: rgb(8, 80, 140); fill-opacity: 1;"/>
      <path d="M 47.602 8.952 L 45.41 7.677 L 43.217 8.952 L 43.217 11.501 L 45.41 12.776 L 47.602 11.501 L 47.602 8.952" style="fill: rgb(8, 80, 140); fill-opacity: 1;"/>
      <path d="M 153.229 64.271 L 160.351 64.271 L 160.351 11.752 L 153.229 11.752 Z" style="fill: rgb(133, 148, 147); fill-opacity: 1;"/>
      <path d="M 173.852 64.271 L 183.199 64.271 L 212.128 21.099 L 212.276 21.099 L 212.276 64.271 L 219.398 64.271 L 219.398 11.752 L 210.347 11.752 L 181.122 54.924 L 180.973 54.924 L 180.973 11.752 L 173.852 11.752 L 173.852 64.271" style="fill: rgb(133, 148, 147); fill-opacity: 1;"/>
      <path d="M 238.833 18.428 L 247.81 18.428 C 259.827 18.428 270.063 25.03 270.063 38.011 C 270.063 44.688 266.578 57.596 249.516 57.596 L 238.833 57.596 L 238.833 18.428 Z M 231.712 64.271 L 250.036 64.271 C 272.214 64.271 277.63 47.73 277.63 38.011 C 277.63 24.585 267.616 11.752 248.848 11.752 L 231.712 11.752 L 231.712 64.271" style="fill: rgb(133, 148, 147); fill-opacity: 1;"/>
      <path d="M 300.256 34.154 L 280.376 64.272 L 289.5 64.272 L 303.817 41.201 L 318.579 64.272 L 327.257 64.272 L 307.377 34.154 L 307.377 11.752 L 300.256 11.752 L 300.256 34.154" style="fill: rgb(133, 148, 147); fill-opacity: 1;"/>
      <path d="M 152.535 107.677 L 158.291 107.708 L 158.344 97.974 L 169.528 98.031 L 169.475 107.768 L 175.233 107.797 L 175.369 81.687 L 169.614 81.659 L 169.554 92.943 L 158.37 92.883 L 158.43 81.599 L 152.672 81.568 L 152.535 107.677" style="fill: rgb(42, 46, 49); fill-opacity: 1;"/>
      <path d="M 186.68 92.724 L 176.781 107.645 L 183.941 107.683 L 189.529 97.939 L 195.345 107.743 L 202.173 107.775 L 192.436 92.753 L 192.493 81.617 L 186.738 81.586 L 186.68 92.724" style="fill: rgb(42, 46, 49); fill-opacity: 1;"/>
      <path d="M 209.541 96.678 L 213.377 96.698 C 213.896 96.699 214.391 96.752 214.873 96.853 C 215.351 96.951 215.779 97.123 216.162 97.358 C 216.542 97.595 216.846 97.915 217.078 98.322 C 217.31 98.728 217.422 99.238 217.42 99.853 C 217.416 100.515 217.26 101.051 216.952 101.455 C 216.64 101.861 216.246 102.172 215.764 102.391 C 215.287 102.607 214.748 102.747 214.157 102.805 C 213.566 102.862 213 102.891 212.458 102.886 L 209.506 102.872 L 209.541 96.678 Z M 203.722 107.711 L 213.43 107.761 C 214.782 107.769 216.064 107.654 217.269 107.412 C 218.475 107.173 219.53 106.755 220.434 106.159 C 221.333 105.558 222.051 104.752 222.585 103.736 C 223.121 102.719 223.391 101.434 223.401 99.886 C 223.408 98.36 223.168 97.082 222.683 96.044 C 222.195 95.011 221.523 94.185 220.667 93.563 C 219.805 92.944 218.789 92.505 217.609 92.241 C 216.427 91.975 215.15 91.84 213.772 91.831 L 209.564 91.81 L 209.617 81.632 L 203.861 81.602 L 203.722 107.711" style="fill: rgb(42, 46, 49); fill-opacity: 1;"/>
      <path d="M 226.828 107.691 L 244.579 107.784 L 244.607 102.473 L 232.612 102.409 L 232.638 97.543 L 243.968 97.603 L 243.997 92.292 L 232.665 92.232 L 232.693 86.921 L 245.353 86.985 L 245.379 81.677 L 226.963 81.582 L 226.828 107.691" style="fill: rgb(42, 46, 49); fill-opacity: 1;"/>
      <path d="M 255.301 96.937 L 258.697 96.954 C 259.212 96.956 259.762 96.978 260.339 97.018 C 260.917 97.059 261.439 97.169 261.905 97.358 C 262.373 97.544 262.757 97.836 263.064 98.231 C 263.368 98.626 263.518 99.178 263.516 99.891 C 263.511 100.556 263.373 101.085 263.1 101.475 C 262.83 101.867 262.483 102.166 262.064 102.374 C 261.645 102.583 261.162 102.719 260.622 102.791 C 260.081 102.862 259.552 102.896 259.036 102.891 L 255.27 102.872 L 255.301 96.937 Z M 249.488 107.709 L 259.6 107.764 C 260.927 107.771 262.191 107.649 263.382 107.396 C 264.578 107.145 265.624 106.719 266.528 106.123 C 267.427 105.525 268.145 104.716 268.678 103.7 C 269.214 102.681 269.485 101.41 269.495 99.889 C 269.503 98.044 269.03 96.475 268.078 95.176 C 267.128 93.879 265.729 93.057 263.882 92.703 L 270.585 81.71 L 263.683 81.674 L 258.169 92.083 L 255.325 92.068 L 255.379 81.631 L 249.622 81.6 L 249.488 107.709" style="fill: rgb(42, 46, 49); fill-opacity: 1;"/>
      <path d="M 273.253 107.722 L 279.008 107.751 L 279.119 86.952 L 289.786 87.008 L 289.815 81.697 L 273.389 81.613 L 273.253 107.722" style="fill: rgb(42, 46, 49); fill-opacity: 1;"/>
      <path d="M 292.702 107.691 L 310.453 107.784 L 310.481 102.473 L 298.487 102.409 L 298.513 97.543 L 309.842 97.6 L 309.872 92.292 L 298.539 92.232 L 298.568 86.921 L 311.228 86.985 L 311.254 81.677 L 292.838 81.582 L 292.702 107.691" style="fill: rgb(42, 46, 49); fill-opacity: 1;"/>
      <path d="M 321.228 86.943 L 324.218 86.961 C 325.545 86.967 326.783 87.109 327.923 87.383 C 329.067 87.663 330.055 88.115 330.887 88.747 C 331.72 89.377 332.375 90.204 332.849 91.229 C 333.323 92.249 333.557 93.498 333.55 94.974 C 333.543 96.253 333.296 97.364 332.811 98.309 C 332.328 99.255 331.677 100.029 330.862 100.641 C 330.048 101.253 329.088 101.708 327.996 102.007 C 326.9 102.312 325.747 102.457 324.542 102.452 L 321.146 102.433 L 321.228 86.943 Z M 315.36 107.713 L 323.996 107.758 C 326.086 107.771 328.077 107.546 329.961 107.091 C 331.844 106.634 333.493 105.883 334.9 104.847 C 336.308 103.809 337.428 102.461 338.263 100.79 C 339.095 99.12 339.519 97.096 339.529 94.712 C 339.541 92.596 339.151 90.731 338.359 89.118 C 337.569 87.504 336.5 86.145 335.153 85.046 C 333.804 83.943 332.247 83.107 330.479 82.532 C 328.708 81.955 326.852 81.663 324.91 81.654 L 315.5 81.605 L 315.36 107.713" style="fill: rgb(42, 46, 49); fill-opacity: 1;"/>
      <path d="M 366.79 83.531 C 365.096 82.636 363.328 81.986 361.486 81.584 C 359.641 81.179 357.761 80.974 355.842 80.964 C 353.799 80.955 351.915 81.263 350.19 81.892 C 348.464 82.524 346.972 83.43 345.711 84.617 C 344.448 85.802 343.462 87.241 342.751 88.933 C 342.042 90.629 341.682 92.519 341.67 94.61 C 341.659 96.7 342 98.593 342.692 100.294 C 343.386 101.992 344.355 103.442 345.606 104.643 C 346.853 105.842 348.335 106.765 350.058 107.411 C 351.773 108.062 353.654 108.392 355.697 108.401 C 357.788 108.413 359.715 108.172 361.476 107.677 C 363.237 107.181 364.788 106.323 366.122 105.1 L 362.086 100.653 C 361.294 101.461 360.405 102.072 359.418 102.485 C 358.433 102.897 357.202 103.1 355.725 103.091 C 354.496 103.086 353.383 102.87 352.388 102.447 C 351.395 102.021 350.543 101.437 349.831 100.684 C 349.123 99.928 348.582 99.033 348.204 97.997 C 347.829 96.964 347.644 95.844 347.651 94.641 C 347.659 93.409 347.853 92.287 348.24 91.27 C 348.627 90.251 349.177 89.368 349.895 88.624 C 350.613 87.876 351.472 87.297 352.469 86.883 C 353.467 86.471 354.584 86.27 355.814 86.275 C 357.07 86.282 358.151 86.428 359.061 86.715 C 359.966 87.002 360.692 87.294 361.232 87.593 L 361.208 91.835 L 356.522 91.811 L 356.496 97.122 L 366.717 97.177 L 366.79 83.531" style="fill: rgb(42, 46, 49); fill-opacity: 1;"/>
      <path d="M 0.06 122.312 L 415.327 122.312 L 415.327 0 L 0.06 0 Z" style="fill: none;"/>
    </g>
    <g style="clip-path: url(#clippath6);">
      <g transform="">
        <path d="M 371.572 107.69 L 389.323 107.783 L 389.349 102.475 L 377.356 102.41 L 377.38 97.544 L 388.712 97.602 L 388.741 92.293 L 377.409 92.233 L 377.438 86.92 L 390.095 86.987 L 390.124 81.679 L 371.708 81.581 L 371.572 107.69" style="fill: rgb(42, 46, 49); fill-opacity: 1;"/>
        <path d="M 400.043 96.936 L 403.439 96.955 C 403.955 96.955 404.502 96.979 405.082 97.017 C 405.658 97.058 406.179 97.168 406.646 97.358 C 407.112 97.543 407.498 97.835 407.803 98.23 C 408.11 98.625 408.26 99.176 408.258 99.89 C 408.253 100.555 408.115 101.084 407.844 101.474 C 407.572 101.865 407.225 102.165 406.803 102.373 C 406.385 102.582 405.902 102.72 405.364 102.79 C 404.821 102.863 404.294 102.895 403.775 102.893 L 400.012 102.871 L 400.043 96.936 Z M 394.23 107.71 L 404.342 107.763 C 405.669 107.77 406.93 107.65 408.126 107.395 C 409.321 107.144 410.368 106.717 411.27 106.122 C 412.172 105.525 412.887 104.717 413.423 103.698 C 413.957 102.682 414.227 101.408 414.237 99.888 C 414.246 98.043 413.772 96.474 412.823 95.174 C 411.871 93.88 410.471 93.058 408.626 92.702 L 415.328 81.711 L 408.425 81.674 L 402.909 92.082 L 400.067 92.067 L 400.122 81.63 L 394.367 81.602 L 394.23 107.71" style="fill: rgb(42, 46, 49); fill-opacity: 1;"/>
      </g>
    </g>
  </g>
</svg>