<?xml version="1.0" encoding="utf-8"?>
<svg version="1.1" width="744px" height="204px" preserveAspectRatio="none" viewBox="0 0 744 204" xmlns="http://www.w3.org/2000/svg">
  <defs>
    <clipPath id="clippath3" transform="">
      <path d="M 0 203.4 L 743.045 203.4 L 743.045 0.06 L 0 0.06 Z" style="fill: none; clip-rule: nonzero;"/>
    </clipPath>
  </defs>
  <g transform="matrix(1 0 0 -1 0 204)">
    <g transform="">
      <path d="M 0 203.4 L 743.045 203.4 L 743.045 0.06 L 0 0.06 Z" style="fill: none;"/>
    </g>
    <g style="clip-path: url(#clippath3);">
      <g transform="">
        <path d="M 213.845 118.698 L 195.351 122.721 L 207.839 137.264 C 196.964 148.053 173.613 150.884 149.616 143.087 C 146.121 141.951 142.769 140.641 139.585 139.184 C 139.979 142.63 140.185 146.187 140.185 149.826 C 140.185 175.058 130.276 196.392 116.655 203.4 L 106.683 187.029 L 97.142 203.375 C 83.545 196.341 73.66 175.028 73.66 149.826 C 73.66 146.187 73.867 142.63 74.26 139.184 C 71.076 140.641 67.725 141.951 64.229 143.087 C 40.232 150.884 16.88 148.053 6.006 137.264 L 18.494 122.721 L 0 118.698 C 2.488 103.594 19.704 87.606 43.672 79.819 C 47.112 78.701 50.539 77.802 53.917 77.113 C 51.593 74.573 49.353 71.836 47.23 68.914 C 32.399 48.501 27.875 25.418 34.777 11.741 L 52.467 19.124 L 50.578 0.292 C 65.712 -2.009 86.236 9.424 101.05 29.812 C 103.232 32.815 105.19 35.877 106.922 38.958 C 108.655 35.877 110.613 32.815 112.795 29.812 C 127.608 9.424 148.133 -2.009 163.267 0.292 L 161.378 19.124 L 179.068 11.741 C 185.969 25.418 181.445 48.501 166.615 68.914 C 164.492 71.836 162.252 74.573 159.927 77.113 C 163.306 77.802 166.733 78.701 170.173 79.819 C 194.142 87.606 211.357 103.594 213.845 118.698" style="fill: rgb(251, 49, 34); fill-opacity: 1;"/>
      </g>
    </g>
    <g transform="">
      <path d="M 159.807 76.392 L 106.922 38.118 L 54.038 76.392 L 74.26 138.344 L 139.585 138.344 L 159.807 76.392Z" style="fill: none; stroke: rgb(255, 255, 255); stroke-opacity: 1; stroke-miterlimit: 10; stroke-linecap: butt; stroke-linejoin: miter; stroke-width: 1.438px; stroke-dashoffset: 0px;"/>
      <path d="M 106.62 70.735 L 137.996 73.505 M 75.244 73.505 L 106.62 70.735" style="fill: none; stroke: rgb(255, 255, 255); stroke-opacity: 1; stroke-miterlimit: 10; stroke-linecap: butt; stroke-linejoin: miter; stroke-width: 1.445px; stroke-dashoffset: 0px;"/>
      <path d="M 137.996 73.505 L 106.62 55.389 L 75.244 73.505 L 75.244 109.735 L 106.62 127.849 L 137.996 109.735 L 137.996 73.505 Z M 137.995 109.826 L 106.62 112.57 M 75.244 109.735 L 106.62 112.57 M 137.996 109.735 L 124.735 81.193 M 106.62 55.389 L 124.735 81.193 M 75.244 109.735 L 88.505 81.193 M 106.62 55.389 L 88.505 81.193 M 124.735 81.194 L 106.62 112.57 L 88.505 81.194 L 124.735 81.194 Z M 88.505 102.346 L 106.62 70.971 L 124.735 102.346 L 88.505 102.346 Z M 75.244 109.735 L 88.505 102.346 M 124.735 102.346 L 137.996 109.735 M 106.62 70.971 L 106.62 55.389" style="fill: none; stroke: rgb(255, 255, 255); stroke-opacity: 1; stroke-miterlimit: 10; stroke-linecap: butt; stroke-linejoin: miter; stroke-width: 1.438px; stroke-dashoffset: 0px;"/>
      <path d="M 104.43 55.393 C 104.43 54.186 105.409 53.207 106.617 53.207 C 107.825 53.207 108.803 54.186 108.803 55.393 C 108.803 56.601 107.825 57.58 106.617 57.58 C 105.409 57.58 104.43 56.601 104.43 55.393" style="fill: rgb(255, 255, 255); fill-opacity: 1;"/>
      <path d="M 104.43 55.393 C 104.43 54.186 105.409 53.207 106.617 53.207 C 107.825 53.207 108.803 54.186 108.803 55.393 C 108.803 56.601 107.825 57.58 106.617 57.58 C 105.409 57.58 104.43 56.601 104.43 55.393Z" style="fill: none; stroke: rgb(255, 255, 255); stroke-opacity: 1; stroke-miterlimit: 10; stroke-linecap: butt; stroke-linejoin: miter; stroke-width: 1.438px; stroke-dashoffset: 0px;"/>
      <path d="M 73.052 109.747 C 73.052 108.539 74.031 107.56 75.238 107.56 C 76.446 107.56 77.425 108.539 77.425 109.747 C 77.425 110.954 76.446 111.933 75.238 111.933 C 74.031 111.933 73.052 110.954 73.052 109.747" style="fill: rgb(255, 255, 255); fill-opacity: 1;"/>
      <path d="M 73.052 109.747 C 73.052 108.539 74.031 107.56 75.238 107.56 C 76.446 107.56 77.425 108.539 77.425 109.747 C 77.425 110.954 76.446 111.933 75.238 111.933 C 74.031 111.933 73.052 110.954 73.052 109.747Z" style="fill: none; stroke: rgb(255, 255, 255); stroke-opacity: 1; stroke-miterlimit: 10; stroke-linecap: butt; stroke-linejoin: miter; stroke-width: 1.438px; stroke-dashoffset: 0px;"/>
      <path d="M 86.318 81.194 C 86.318 79.986 87.297 79.008 88.505 79.008 C 89.712 79.008 90.691 79.986 90.691 81.194 C 90.691 82.401 89.712 83.381 88.505 83.381 C 87.297 83.381 86.318 82.401 86.318 81.194" style="fill: rgb(255, 255, 255); fill-opacity: 1;"/>
      <path d="M 86.318 81.194 C 86.318 79.986 87.297 79.008 88.505 79.008 C 89.712 79.008 90.691 79.986 90.691 81.194 C 90.691 82.401 89.712 83.381 88.505 83.381 C 87.297 83.381 86.318 82.401 86.318 81.194Z" style="fill: none; stroke: rgb(255, 255, 255); stroke-opacity: 1; stroke-miterlimit: 10; stroke-linecap: butt; stroke-linejoin: miter; stroke-width: 1.438px; stroke-dashoffset: 0px;"/>
      <path d="M 122.548 81.193 C 122.548 79.986 123.527 79.007 124.735 79.007 C 125.942 79.007 126.921 79.986 126.921 81.193 C 126.921 82.401 125.942 83.38 124.735 83.38 C 123.527 83.38 122.548 82.401 122.548 81.193" style="fill: rgb(255, 255, 255); fill-opacity: 1;"/>
      <path d="M 122.548 81.193 C 122.548 79.986 123.527 79.007 124.735 79.007 C 125.942 79.007 126.921 79.986 126.921 81.193 C 126.921 82.401 125.942 83.38 124.735 83.38 C 123.527 83.38 122.548 82.401 122.548 81.193Z" style="fill: none; stroke: rgb(255, 255, 255); stroke-opacity: 1; stroke-miterlimit: 10; stroke-linecap: butt; stroke-linejoin: miter; stroke-width: 1.438px; stroke-dashoffset: 0px;"/>
      <path d="M 104.43 112.57 C 104.43 111.362 105.409 110.383 106.617 110.383 C 107.825 110.383 108.803 111.362 108.803 112.57 C 108.803 113.777 107.825 114.756 106.617 114.756 C 105.409 114.756 104.43 113.777 104.43 112.57" style="fill: rgb(255, 255, 255); fill-opacity: 1;"/>
      <path d="M 104.43 112.57 C 104.43 111.362 105.409 110.383 106.617 110.383 C 107.825 110.383 108.803 111.362 108.803 112.57 C 108.803 113.777 107.825 114.756 106.617 114.756 C 105.409 114.756 104.43 113.777 104.43 112.57Z" style="fill: none; stroke: rgb(255, 255, 255); stroke-opacity: 1; stroke-miterlimit: 10; stroke-linecap: butt; stroke-linejoin: miter; stroke-width: 1.438px; stroke-dashoffset: 0px;"/>
      <path d="M 135.809 109.735 C 135.809 108.527 136.788 107.548 137.996 107.548 C 139.203 107.548 140.182 108.527 140.182 109.735 C 140.182 110.942 139.203 111.921 137.996 111.921 C 136.788 111.921 135.809 110.942 135.809 109.735" style="fill: rgb(255, 255, 255); fill-opacity: 1;"/>
      <path d="M 135.809 109.735 C 135.809 108.527 136.788 107.548 137.996 107.548 C 139.203 107.548 140.182 108.527 140.182 109.735 C 140.182 110.942 139.203 111.921 137.996 111.921 C 136.788 111.921 135.809 110.942 135.809 109.735 Z M 137.996 73.505 L 124.735 102.346 M 106.62 127.849 L 124.735 102.346 M 75.244 73.505 L 88.505 102.346 M 106.62 127.849 L 88.505 102.346 M 106.62 55.389 L 80.465 57.418 M 132.769 56.977 L 106.62 55.389 M 64.086 107.101 L 75.244 109.735 M 149.758 107.101 L 137.996 109.735 M 75.244 73.505 L 54.038 76.441 M 137.996 73.505 L 159.807 76.441 M 74.26 138.392 L 106.62 127.849 M 139.585 138.392 L 106.62 127.849 M 106.922 138.344 L 106.683 187.029 M 64.086 107.101 L 18.494 122.721 M 52.467 19.124 L 80.465 57.418 M 161.378 19.124 L 132.769 56.977 M 195.351 122.721 L 149.758 107.101 M 159.807 76.392 L 195.351 122.721 M 139.585 138.344 L 195.351 122.721 M 74.26 138.344 L 106.683 187.029 M 139.585 138.344 L 106.683 187.029 M 53.917 77.113 L 18.494 122.721 M 74.26 138.344 L 18.494 122.721 M 53.917 77.113 L 52.467 19.124 M 106.922 38.118 L 52.467 19.124 M 159.807 76.392 L 161.378 19.124 M 106.922 38.118 L 161.378 19.124" style="fill: none; stroke: rgb(255, 255, 255); stroke-opacity: 1; stroke-miterlimit: 10; stroke-linecap: butt; stroke-linejoin: miter; stroke-width: 1.438px; stroke-dashoffset: 0px;"/>
      <path d="M 262.276 187.049 L 272.809 187.107 L 272.904 169.297 L 293.364 169.406 L 293.269 187.215 L 303.801 187.269 L 304.052 139.503 L 293.52 139.448 L 293.412 160.092 L 272.951 159.983 L 273.06 139.34 L 262.528 139.282 L 262.276 187.049" style="fill: rgb(42, 46, 49); fill-opacity: 1;"/>
      <path d="M 324.744 159.987 L 306.635 187.283 L 319.733 187.354 L 329.957 169.528 L 340.598 187.463 L 353.088 187.528 L 335.276 160.041 L 335.381 139.666 L 324.849 139.612 L 324.744 159.987" style="fill: rgb(42, 46, 49); fill-opacity: 1;"/>
      <path d="M 366.563 167.359 L 373.586 167.396 C 374.533 167.4 375.439 167.495 376.318 167.678 C 377.194 167.862 377.979 168.174 378.678 168.605 C 379.373 169.036 379.93 169.623 380.354 170.366 C 380.778 171.11 380.985 172.043 380.982 173.17 C 380.976 174.382 380.687 175.363 380.123 176.099 C 379.557 176.839 378.833 177.409 377.951 177.81 C 377.075 178.207 376.091 178.462 375.012 178.57 C 373.933 178.675 372.894 178.726 371.906 178.719 L 366.502 178.692 L 366.563 167.359 Z M 355.922 187.544 L 373.681 187.636 C 376.155 187.65 378.501 187.439 380.707 186.998 C 382.913 186.56 384.841 185.793 386.494 184.703 C 388.141 183.607 389.454 182.131 390.432 180.271 C 391.409 178.41 391.904 176.058 391.922 173.228 C 391.936 170.438 391.497 168.099 390.608 166.201 C 389.715 164.311 388.486 162.797 386.918 161.663 C 385.347 160.53 383.487 159.722 381.325 159.24 C 379.166 158.755 376.827 158.507 374.306 158.493 L 366.607 158.452 L 366.706 139.832 L 356.174 139.778 L 355.922 187.544" style="fill: rgb(42, 46, 49); fill-opacity: 1;"/>
      <path d="M 398.19 187.765 L 430.666 187.935 L 430.717 178.22 L 408.773 178.105 L 408.821 169.199 L 429.55 169.311 L 429.601 159.596 L 408.872 159.485 L 408.923 149.767 L 432.082 149.889 L 432.133 140.175 L 398.441 139.998 L 398.19 187.765" style="fill: rgb(42, 46, 49); fill-opacity: 1;"/>
      <path d="M 450.281 168.272 L 456.496 168.302 C 457.439 168.309 458.441 168.347 459.5 168.421 C 460.556 168.496 461.51 168.699 462.365 169.043 C 463.217 169.385 463.923 169.918 464.482 170.641 C 465.036 171.364 465.314 172.376 465.308 173.679 C 465.301 174.894 465.046 175.862 464.551 176.578 C 464.055 177.294 463.42 177.84 462.653 178.22 C 461.886 178.601 461.004 178.852 460.016 178.984 C 459.024 179.113 458.058 179.174 457.11 179.167 L 450.224 179.134 L 450.281 168.272 Z M 439.644 187.982 L 458.146 188.081 C 460.576 188.094 462.884 187.87 465.066 187.408 C 467.252 186.947 469.167 186.17 470.819 185.08 C 472.466 183.984 473.779 182.507 474.757 180.647 C 475.734 178.784 476.23 176.459 476.247 173.672 C 476.264 170.299 475.398 167.427 473.657 165.054 C 471.916 162.682 469.356 161.175 465.983 160.527 L 478.243 140.419 L 465.616 140.351 L 455.529 159.393 L 450.329 159.365 L 450.428 140.273 L 439.896 140.216 L 439.644 187.982" style="fill: rgb(42, 46, 49); fill-opacity: 1;"/>
      <path d="M 483.124 188.213 L 493.656 188.267 L 493.856 150.215 L 513.369 150.317 L 513.42 140.602 L 483.375 140.447 L 483.124 188.213" style="fill: rgb(42, 46, 49); fill-opacity: 1;"/>
      <path d="M 518.705 188.4 L 551.181 188.57 L 551.231 178.855 L 529.288 178.74 L 529.336 169.833 L 550.064 169.942 L 550.115 160.228 L 529.387 160.119 L 529.438 150.402 L 552.597 150.524 L 552.647 140.809 L 518.956 140.633 L 518.705 188.4" style="fill: rgb(42, 46, 49); fill-opacity: 1;"/>
      <path d="M 570.891 150.619 L 576.362 150.649 C 578.793 150.663 581.054 150.921 583.145 151.427 C 585.235 151.936 587.041 152.764 588.564 153.921 C 590.089 155.072 591.287 156.586 592.152 158.456 C 593.021 160.33 593.449 162.614 593.436 165.312 C 593.422 167.651 592.974 169.684 592.084 171.412 C 591.198 173.139 590.011 174.561 588.517 175.678 C 587.027 176.795 585.275 177.63 583.273 178.18 C 581.267 178.733 579.159 179.001 576.956 178.991 L 570.741 178.957 L 570.891 150.619 Z M 560.158 188.617 L 575.959 188.702 C 579.784 188.722 583.423 188.311 586.871 187.48 C 590.316 186.641 593.33 185.27 595.906 183.373 C 598.482 181.475 600.529 179.005 602.057 175.953 C 603.58 172.898 604.354 169.192 604.375 164.83 C 604.396 160.961 603.683 157.55 602.233 154.597 C 600.787 151.644 598.832 149.159 596.368 147.147 C 593.9 145.13 591.049 143.599 587.818 142.548 C 584.58 141.495 581.183 140.959 577.629 140.942 L 560.41 140.85 L 560.158 188.617" style="fill: rgb(42, 46, 49); fill-opacity: 1;"/>
      <path d="M 654.246 144.719 C 651.146 143.084 647.912 141.896 644.542 141.156 C 641.171 140.419 637.729 140.042 634.217 140.022 C 630.479 140.005 627.034 140.572 623.878 141.722 C 620.722 142.877 617.989 144.536 615.685 146.709 C 613.373 148.874 611.57 151.508 610.271 154.604 C 608.971 157.706 608.313 161.165 608.292 164.99 C 608.271 168.812 608.896 172.277 610.162 175.387 C 611.428 178.495 613.203 181.146 615.491 183.343 C 617.771 185.535 620.487 187.225 623.634 188.41 C 626.776 189.598 630.215 190.202 633.952 190.219 C 637.777 190.24 641.304 189.798 644.524 188.895 C 647.749 187.989 650.583 186.417 653.027 184.18 L 645.642 176.045 C 644.192 177.521 642.566 178.638 640.761 179.395 C 638.958 180.148 636.704 180.522 634.003 180.505 C 631.752 180.494 629.72 180.101 627.9 179.327 C 626.081 178.55 624.522 177.477 623.223 176.099 C 621.926 174.718 620.936 173.082 620.246 171.188 C 619.557 169.297 619.221 167.247 619.231 165.044 C 619.245 162.794 619.602 160.74 620.311 158.877 C 621.02 157.013 622.028 155.401 623.338 154.037 C 624.651 152.669 626.224 151.61 628.05 150.853 C 629.875 150.099 631.915 149.73 634.166 149.74 C 636.464 149.753 638.442 150.021 640.105 150.548 C 641.766 151.07 643.093 151.607 644.077 152.153 L 644.036 159.912 L 635.462 159.868 L 635.411 169.586 L 654.113 169.684 L 654.246 144.719" style="fill: rgb(42, 46, 49); fill-opacity: 1;"/>
      <path d="M 662.992 189.156 L 695.469 189.33 L 695.52 179.615 L 673.576 179.5 L 673.623 170.594 L 694.352 170.702 L 694.402 160.988 L 673.674 160.88 L 673.726 151.162 L 696.884 151.284 L 696.935 141.57 L 663.244 141.39 L 662.992 189.156" style="fill: rgb(42, 46, 49); fill-opacity: 1;"/>
      <path d="M 715.08 169.664 L 721.295 169.698 C 722.238 169.701 723.24 169.742 724.299 169.813 C 725.354 169.887 726.309 170.092 727.163 170.438 C 728.016 170.777 728.722 171.31 729.281 172.033 C 729.838 172.756 730.116 173.767 730.109 175.071 C 730.103 176.286 729.849 177.253 729.353 177.969 C 728.854 178.685 728.219 179.232 727.452 179.612 C 726.685 179.992 725.803 180.247 724.814 180.376 C 723.823 180.508 722.856 180.566 721.909 180.562 L 715.022 180.525 L 715.08 169.664 Z M 704.446 189.377 L 722.944 189.473 C 725.375 189.486 727.683 189.265 729.868 188.8 C 732.055 188.339 733.969 187.561 735.622 186.472 C 737.268 185.379 738.582 183.902 739.559 182.039 C 740.536 180.179 741.032 177.85 741.049 175.064 C 741.066 171.69 740.2 168.819 738.459 166.446 C 736.718 164.077 734.159 162.57 730.785 161.918 L 743.045 141.811 L 730.419 141.746 L 720.327 160.785 L 715.128 160.757 L 715.226 141.665 L 704.697 141.611 L 704.446 189.377" style="fill: rgb(42, 46, 49); fill-opacity: 1;"/>
      <path d="M 262.276 112.826 L 274.935 112.826 L 274.935 19.472 L 262.276 19.472 Z" style="fill: rgb(251, 49, 34); fill-opacity: 1;"/>
      <path d="M 308.097 71.687 L 324.709 71.687 C 334.73 71.687 344.751 74.061 344.751 86.72 C 344.751 99.377 334.73 101.75 324.709 101.75 L 308.097 101.75 L 308.097 71.687 Z M 295.438 112.826 L 328.27 112.826 C 352.136 112.826 358.201 98.454 358.201 86.72 C 358.201 74.852 349.367 63.644 335.258 62.062 L 361.761 19.473 L 345.938 19.473 L 322.205 60.612 L 308.097 60.612 L 308.097 19.473 L 295.438 19.473 L 295.438 112.826" style="fill: rgb(251, 49, 34); fill-opacity: 1;"/>
      <path d="M 450.551 66.15 C 450.551 86.588 436.706 103.333 415.347 103.333 C 393.985 103.333 380.141 86.588 380.141 66.15 C 380.141 45.713 393.985 28.967 415.347 28.967 C 436.706 28.967 450.551 45.713 450.551 66.15 Z M 366.692 66.15 C 366.692 93.84 386.865 115.2 415.347 115.2 C 443.827 115.2 464 93.84 464 66.15 C 464 38.461 443.827 17.1 415.347 17.1 C 386.865 17.1 366.692 38.461 366.692 66.15" style="fill: rgb(251, 49, 34); fill-opacity: 1;"/>
      <path d="M 479.28 112.826 L 491.938 112.826 L 491.938 74.061 L 540.329 74.061 L 540.329 112.826 L 552.987 112.826 L 552.987 19.473 L 540.329 19.473 L 540.329 62.194 L 491.938 62.194 L 491.938 19.473 L 479.28 19.473 L 479.28 112.826" style="fill: rgb(251, 49, 34); fill-opacity: 1;"/>
      <path d="M 626.509 53.624 L 609.104 96.476 L 608.841 96.476 L 591.172 53.624 L 626.509 53.624 Z M 603.83 112.826 L 615.302 112.826 L 655.253 19.473 L 640.485 19.473 L 631.124 42.549 L 586.688 42.549 L 577.459 19.473 L 562.691 19.473 L 603.83 112.826" style="fill: rgb(251, 49, 34); fill-opacity: 1;"/>
    </g>
  </g>
</svg>