<?xml version="1.0" encoding="utf-8"?>
<svg version="1.1" width="326px" height="94px" preserveAspectRatio="none" viewBox="0 0 326 94" xmlns="http://www.w3.org/2000/svg">
  <defs>
    <clipPath id="clippath2" transform="">
      <path d="M 0.06 93.7 L 325.685 93.7 L 325.685 0 L 0.06 0 Z" style="fill: none; clip-rule: nonzero;"/>
    </clipPath>
  </defs>
  <g transform="matrix(1 0 0 -1 0 94)">
    <g transform="">
      <path d="M 61.269 64.912 L 65.093 64.912 L 65.093 61.269 L 61.269 61.269 Z" style="fill: rgb(255, 255, 255); fill-opacity: 1;"/>
      <path d="M 28.816 32.427 L 32.563 32.427 L 32.563 28.784 L 28.816 28.784 Z" style="fill: rgb(255, 255, 255); fill-opacity: 1;"/>
      <path d="M 28.816 64.865 L 32.563 64.865 L 32.563 61.222 L 28.816 61.222 Z" style="fill: rgb(255, 255, 255); fill-opacity: 1;"/>
      <path d="M 61.316 32.427 L 65.062 32.427 L 65.062 28.784 L 61.316 28.784 Z" style="fill: rgb(255, 255, 255); fill-opacity: 1;"/>
      <path d="M 115.181 84.436 L 119.646 84.46 L 119.687 76.91 L 128.361 76.954 L 128.32 84.506 L 132.786 84.528 L 132.891 64.278 L 128.428 64.257 L 128.381 73.008 L 119.707 72.962 L 119.754 64.21 L 115.288 64.186 L 115.181 84.436" style="fill: rgb(33, 37, 39); fill-opacity: 1;"/>
      <path d="M 143.664 72.838 L 135.987 84.411 L 141.54 84.44 L 145.874 76.883 L 150.385 84.486 L 155.68 84.512 L 148.128 72.861 L 148.172 64.224 L 143.709 64.2 L 143.664 72.838" style="fill: rgb(33, 37, 39); fill-opacity: 1;"/>
      <path d="M 163.317 75.906 L 166.293 75.922 C 166.696 75.923 167.079 75.964 167.453 76.042 C 167.824 76.118 168.156 76.251 168.453 76.433 C 168.748 76.617 168.984 76.865 169.163 77.181 C 169.344 77.496 169.43 77.892 169.429 78.368 C 169.425 78.882 169.305 79.298 169.066 79.611 C 168.823 79.925 168.518 80.166 168.145 80.337 C 167.775 80.504 167.357 80.613 166.898 80.658 C 166.44 80.702 166 80.725 165.58 80.721 L 163.291 80.71 L 163.317 75.906 Z M 158.805 84.463 L 166.334 84.502 C 167.383 84.508 168.377 84.419 169.312 84.231 C 170.247 84.046 171.066 83.721 171.767 83.259 C 172.464 82.793 173.021 82.168 173.435 81.38 C 173.851 80.592 174.06 79.595 174.068 78.394 C 174.073 77.211 173.887 76.219 173.511 75.414 C 173.132 74.613 172.611 73.972 171.947 73.49 C 171.279 73.01 170.49 72.669 169.575 72.465 C 168.658 72.259 167.668 72.153 166.6 72.147 L 163.336 72.131 L 163.377 64.236 L 158.913 64.213 L 158.805 84.463" style="fill: rgb(33, 37, 39); fill-opacity: 1;"/>
      <path d="M 177.163 84.445 L 190.93 84.517 L 190.952 80.398 L 181.649 80.348 L 181.67 76.574 L 190.457 76.621 L 190.479 72.502 L 181.69 72.455 L 181.711 68.336 L 191.531 68.385 L 191.551 64.269 L 177.269 64.195 L 177.163 84.445" style="fill: rgb(33, 37, 39); fill-opacity: 1;"/>
      <path d="M 199.156 76.107 L 201.789 76.12 C 202.189 76.121 202.615 76.138 203.063 76.17 C 203.511 76.201 203.915 76.286 204.277 76.433 C 204.639 76.577 204.938 76.804 205.176 77.11 C 205.411 77.417 205.528 77.844 205.527 78.398 C 205.523 78.913 205.415 79.323 205.204 79.626 C 204.993 79.93 204.725 80.162 204.401 80.323 C 204.075 80.486 203.7 80.591 203.281 80.647 C 202.862 80.702 202.452 80.728 202.051 80.724 L 199.131 80.71 L 199.156 76.107 Z M 194.647 84.461 L 202.49 84.504 C 203.519 84.509 204.499 84.415 205.422 84.218 C 206.35 84.024 207.16 83.694 207.863 83.231 C 208.56 82.767 209.116 82.14 209.531 81.352 C 209.946 80.562 210.156 79.576 210.163 78.396 C 210.17 76.965 209.803 75.748 209.064 74.741 C 208.328 73.735 207.242 73.097 205.811 72.823 L 211.009 64.297 L 205.656 64.269 L 201.379 72.342 L 199.173 72.33 L 199.215 64.236 L 194.749 64.212 L 194.647 84.461" style="fill: rgb(33, 37, 39); fill-opacity: 1;"/>
      <path d="M 213.996 84.483 L 218.46 84.506 L 218.545 68.374 L 226.819 68.418 L 226.841 64.299 L 214.102 64.233 L 213.996 84.483" style="fill: rgb(33, 37, 39); fill-opacity: 1;"/>
      <path d="M 229.937 84.458 L 243.704 84.53 L 243.726 80.411 L 234.423 80.362 L 234.445 76.588 L 243.231 76.632 L 243.253 72.515 L 234.464 72.468 L 234.487 68.349 L 244.305 68.399 L 244.326 64.282 L 230.043 64.208 L 229.937 84.458" style="fill: rgb(33, 37, 39); fill-opacity: 1;"/>
      <path d="M 251.972 68.355 L 254.291 68.368 C 255.321 68.374 256.281 68.483 257.165 68.696 C 258.052 68.913 258.819 69.264 259.464 69.754 C 260.11 70.242 260.617 70.884 260.986 71.678 C 261.353 72.47 261.534 73.439 261.529 74.584 C 261.524 75.575 261.332 76.437 260.956 77.17 C 260.581 77.903 260.076 78.504 259.445 78.979 C 258.813 79.453 258.069 79.806 257.221 80.038 C 256.371 80.274 255.477 80.387 254.542 80.383 L 251.908 80.369 L 251.972 68.355 Z M 247.421 84.464 L 254.119 84.499 C 255.74 84.508 257.284 84.334 258.745 83.982 C 260.206 83.627 261.485 83.045 262.576 82.241 C 263.668 81.436 264.536 80.39 265.185 79.094 C 265.829 77.8 266.158 76.23 266.166 74.38 C 266.175 72.739 265.873 71.292 265.259 70.042 C 264.646 68.789 263.817 67.736 262.773 66.884 C 261.726 66.028 260.519 65.379 259.147 64.934 C 257.774 64.487 256.334 64.26 254.828 64.253 L 247.529 64.214 L 247.421 84.464" style="fill: rgb(33, 37, 39); fill-opacity: 1;"/>
      <path d="M 288.743 65.707 C 287.431 65.013 286.059 64.509 284.63 64.197 C 283.199 63.883 281.741 63.724 280.253 63.716 C 278.669 63.709 277.207 63.948 275.869 64.436 C 274.531 64.926 273.374 65.629 272.396 66.549 C 271.415 67.468 270.652 68.584 270.1 69.897 C 269.549 71.212 269.271 72.678 269.262 74.3 C 269.252 75.921 269.518 77.389 270.054 78.708 C 270.593 80.025 271.343 81.15 272.314 82.081 C 273.281 83.011 274.431 83.727 275.768 84.228 C 277.097 84.733 278.556 84.989 280.14 84.996 C 281.762 85.005 283.257 84.818 284.623 84.434 C 285.989 84.049 287.191 83.384 288.226 82.436 L 285.096 78.987 C 284.482 79.613 283.791 80.087 283.027 80.407 C 282.263 80.727 281.308 80.884 280.162 80.877 C 279.208 80.874 278.346 80.706 277.574 80.378 C 276.804 80.048 276.144 79.594 275.59 79.01 C 275.041 78.424 274.622 77.73 274.328 76.926 C 274.037 76.125 273.895 75.257 273.9 74.323 C 273.906 73.368 274.057 72.498 274.357 71.709 C 274.657 70.919 275.084 70.234 275.64 69.657 C 276.198 69.077 276.865 68.628 277.637 68.307 C 278.411 67.987 279.278 67.831 280.231 67.835 C 281.205 67.841 282.043 67.954 282.749 68.176 C 283.451 68.399 284.014 68.625 284.433 68.857 L 284.415 72.147 L 280.78 72.129 L 280.76 76.248 L 288.688 76.291 L 288.743 65.707" style="fill: rgb(33, 37, 39); fill-opacity: 1;"/>
      <path d="M 291.839 84.924 L 305.607 84.996 L 305.626 80.879 L 296.324 80.829 L 296.344 77.055 L 305.133 77.1 L 305.155 72.982 L 296.365 72.936 L 296.388 68.815 L 306.205 68.867 L 306.228 64.75 L 291.946 64.674 L 291.839 84.924" style="fill: rgb(33, 37, 39); fill-opacity: 1;"/>
      <path d="M 313.831 76.583 L 316.465 76.597 C 316.865 76.597 317.289 76.616 317.739 76.646 C 318.185 76.677 318.59 76.763 318.952 76.911 C 319.313 77.053 319.613 77.28 319.85 77.587 C 320.087 77.893 320.204 78.321 320.202 78.874 C 320.198 79.39 320.091 79.8 319.881 80.102 C 319.669 80.406 319.402 80.638 319.074 80.8 C 318.75 80.962 318.374 81.069 317.957 81.123 C 317.536 81.18 317.128 81.204 316.725 81.203 L 313.807 81.186 L 313.831 76.583 Z M 309.323 84.939 L 317.165 84.98 C 318.195 84.986 319.172 84.893 320.1 84.695 C 321.027 84.5 321.838 84.17 322.538 83.707 C 323.239 83.245 323.792 82.618 324.208 81.828 C 324.621 81.039 324.832 80.052 324.839 78.872 C 324.846 77.442 324.479 76.224 323.742 75.217 C 323.004 74.214 321.919 73.575 320.488 73.299 L 325.685 64.775 L 320.332 64.747 L 316.053 72.818 L 313.849 72.806 L 313.892 64.712 L 309.428 64.69 L 309.323 84.939" style="fill: rgb(33, 37, 39); fill-opacity: 1;"/>
      <path d="M 136.778 13.309 C 139.051 13.309 141.138 13.73 143.04 14.573 C 144.942 15.417 146.569 16.573 147.921 18.043 C 149.273 19.512 150.322 21.247 151.067 23.247 C 151.811 25.246 152.184 27.382 152.184 29.655 C 152.184 31.85 151.802 33.909 151.037 35.83 C 150.273 37.75 149.204 39.417 147.832 40.828 C 146.46 42.239 144.834 43.356 142.952 44.179 C 141.071 45.003 139.012 45.415 136.778 45.415 C 134.582 45.415 132.554 45.003 130.692 44.179 C 128.83 43.356 127.213 42.239 125.842 40.828 C 124.469 39.417 123.391 37.76 122.607 35.859 C 121.823 33.958 121.431 31.928 121.431 29.773 C 121.431 27.499 121.803 25.364 122.549 23.364 C 123.293 21.365 124.342 19.62 125.695 18.132 C 127.047 16.641 128.664 15.465 130.545 14.602 C 132.427 13.74 134.504 13.309 136.778 13.309 Z M 161.004 8.017 L 137.013 8.017 C 134.073 8.017 131.29 8.547 128.664 9.604 C 126.037 10.663 123.744 12.133 121.784 14.014 C 119.823 15.897 118.276 18.139 117.139 20.747 C 116.002 23.354 115.434 26.206 115.434 29.303 C 115.434 32.36 115.982 35.192 117.08 37.8 C 118.177 40.406 119.697 42.67 121.637 44.591 C 123.577 46.511 125.85 48.01 128.458 49.089 C 131.065 50.167 133.897 50.706 136.954 50.706 C 139.895 50.706 142.649 50.177 145.216 49.118 C 147.782 48.06 150.028 46.599 151.948 44.738 C 153.868 42.876 155.388 40.68 156.505 38.152 C 157.622 35.624 158.181 32.87 158.181 29.891 C 158.181 28.127 157.976 26.392 157.564 24.687 C 157.153 22.982 156.544 21.384 155.741 19.895 C 154.938 18.405 153.938 17.073 152.742 15.897 C 151.546 14.72 150.185 13.78 148.656 13.074 L 148.656 12.956 L 161.004 12.956 L 161.004 8.017" style="fill: rgb(123, 83, 122); fill-opacity: 1;"/>
      <path d="M 170.735 49.648 L 170.735 24.129 C 170.735 22.835 170.91 21.492 171.264 20.1 C 171.616 18.709 172.204 17.426 173.028 16.249 C 173.851 15.073 174.929 14.112 176.262 13.368 C 177.594 12.623 179.24 12.251 181.2 12.251 C 183.16 12.251 184.807 12.623 186.14 13.368 C 187.472 14.112 188.551 15.073 189.374 16.249 C 190.198 17.426 190.785 18.709 191.138 20.1 C 191.49 21.492 191.667 22.835 191.667 24.129 L 191.667 49.648 L 197.312 49.648 L 197.312 23.247 C 197.312 20.815 196.901 18.61 196.077 16.632 C 195.254 14.651 194.116 12.936 192.667 11.487 C 191.216 10.036 189.511 8.919 187.551 8.135 C 185.59 7.351 183.474 6.959 181.2 6.959 C 178.927 6.959 176.81 7.351 174.851 8.135 C 172.89 8.919 171.185 10.036 169.735 11.487 C 168.284 12.936 167.148 14.651 166.324 16.632 C 165.501 18.61 165.089 20.815 165.089 23.247 L 165.089 49.648 L 170.735 49.648" style="fill: rgb(123, 83, 122); fill-opacity: 1;"/>
      <path d="M 206.396 49.648 L 212.04 49.648 L 212.04 8.018 L 206.396 8.018 Z" style="fill: rgb(123, 83, 122); fill-opacity: 1;"/>
      <path d="M 221.526 49.648 L 227.17 49.648 L 227.17 13.309 L 246.281 13.309 L 246.281 8.017 L 221.526 8.017 L 221.526 49.648" style="fill: rgb(123, 83, 122); fill-opacity: 1;"/>
      <path d="M 0.06 93.7 L 325.685 93.7 L 325.685 0 L 0.06 0 Z" style="fill: none;"/>
    </g>
    <g style="clip-path: url(#clippath2);">
      <g transform="">
        <path d="M 255.017 44.356 L 241.611 44.356 L 241.611 49.648 L 274.069 49.648 L 274.069 44.356 L 260.662 44.356 L 260.662 8.017 L 255.017 8.017 L 255.017 44.356" style="fill: rgb(123, 83, 122); fill-opacity: 1;"/>
        <path d="M 65.022 93.7 L 93.817 93.7 L 93.817 64.871 L 65.022 64.871 Z" style="fill: rgb(255, 124, 96); fill-opacity: 1;"/>
        <path d="M 65.022 61.256 L 93.851 61.256 L 93.851 32.444 L 65.022 32.444 Z" style="fill: rgb(255, 189, 138); fill-opacity: 1;"/>
        <path d="M 32.528 28.829 L 61.356 28.829 L 61.356 0 L 32.528 0 Z" style="fill: rgb(88, 205, 198); fill-opacity: 1;"/>
        <path d="M 0 64.872 L 28.828 64.872 L 28.828 93.701 L 0 93.701 Z" style="fill: rgb(123, 83, 122); fill-opacity: 1;"/>
        <path d="M 0 32.427 L 28.828 32.427 L 28.828 61.255 L 0 61.255 Z" style="fill: rgb(142, 143, 169); fill-opacity: 1;"/>
        <path d="M 28.828 28.829 L 32.528 28.829 L 32.528 0 L 28.828 0 Z" style="fill: rgb(139, 216, 197); fill-opacity: 1;"/>
        <path d="M 0.06 64.872 L 28.828 64.872 L 28.828 61.256 L 0.06 61.256 Z" style="fill: rgb(190, 156, 194); fill-opacity: 1;"/>
        <path d="M 0 28.829 L 28.828 28.829 L 28.828 32.428 L 0 32.428 Z" style="fill: rgb(186, 232, 222); fill-opacity: 1;"/>
        <path d="M 32.561 61.256 L 61.273 61.256 L 61.273 64.872 L 32.545 64.872 L 32.545 61.256 L 32.561 61.256" style="fill: rgb(255, 224, 214); fill-opacity: 1;"/>
        <path d="M 61.273 64.872 L 61.289 64.872 L 61.289 93.7 L 32.561 93.7 L 32.561 64.872 L 61.273 64.872" style="fill: rgb(255, 147, 156); fill-opacity: 1;"/>
        <path d="M 32.494 64.872 L 32.561 64.872 L 32.561 93.7 L 28.828 93.7 L 28.828 64.872 L 32.494 64.872" style="fill: rgb(250, 182, 194); fill-opacity: 1;"/>
        <path d="M 61.322 64.872 L 65.022 64.872 L 65.022 93.7 L 61.289 93.7 L 61.289 64.872 L 61.322 64.872" style="fill: rgb(255, 203, 184); fill-opacity: 1;"/>
        <path d="M 28.795 28.829 L 0 28.829 L 0 0 L 28.828 0 L 28.828 28.829 L 28.795 28.829" style="fill: rgb(70, 125, 126); fill-opacity: 1;"/>
        <path d="M 65.022 28.829 L 93.851 28.829 L 93.851 0 L 65.022 0 Z" style="fill: rgb(124, 206, 145); fill-opacity: 1;"/>
        <path d="M 32.528 32.444 L 32.561 32.444 L 32.561 61.256 L 28.828 61.256 L 28.828 32.427 L 32.528 32.427 L 32.528 32.444" style="fill: rgb(241, 222, 222); fill-opacity: 1;"/>
        <path d="M 61.356 28.829 L 65.022 28.829 L 65.022 0 L 61.356 0 Z" style="fill: rgb(186, 232, 222); fill-opacity: 1;"/>
      </g>
    </g>
    <g transform="">
      <path d="M 93.817 64.872 L 65.022 64.872 L 65.022 61.256 L 93.851 61.256 L 93.851 64.872 L 93.817 64.872" style="fill: rgb(253, 226, 196); fill-opacity: 1;"/>
      <path d="M 65.022 32.4 L 65.022 28.829 L 93.851 28.829 L 93.851 32.444 L 65.022 32.444 L 65.022 32.4" style="fill: rgb(246, 223, 169); fill-opacity: 1;"/>
      <path d="M 61.289 32.444 L 61.356 32.444 L 61.356 32.4 L 65.022 32.4 L 65.022 61.283 L 61.289 61.283 L 61.289 32.444" style="fill: rgb(255, 224, 214); fill-opacity: 1;"/>
      <path d="M 32.528 28.829 L 61.356 28.829 L 61.356 32.444 L 32.528 32.444 Z" style="fill: rgb(232, 240, 219); fill-opacity: 1;"/>
    </g>
  </g>
</svg>