<?xml version="1.0" encoding="utf-8"?>
<svg version="1.1" width="433px" height="94px" preserveAspectRatio="none" viewBox="0 0 433 94" xmlns="http://www.w3.org/2000/svg">
  <defs>
    <clipPath id="clippath1" transform="">
      <path d="M 0 93.071 L 432.96 93.071 L 432.96 0 L 0 0 Z" style="fill: none; clip-rule: nonzero;"/>
    </clipPath>
  </defs>
  <g transform="matrix(1 0 0 -1 0 94)">
    <g transform="">
      <path d="M 114.787 84.047 L 119.252 84.07 L 119.293 76.521 L 127.967 76.565 L 127.926 84.117 L 132.392 84.14 L 132.497 63.889 L 128.034 63.867 L 127.987 72.619 L 119.313 72.572 L 119.359 63.821 L 114.894 63.797 L 114.787 84.047" style="fill: rgb(33, 37, 39); fill-opacity: 1;"/>
      <path d="M 143.27 72.449 L 135.592 84.022 L 141.146 84.051 L 145.48 76.494 L 149.99 84.098 L 155.286 84.123 L 147.734 72.472 L 147.778 63.835 L 143.315 63.811 L 143.27 72.449" style="fill: rgb(33, 37, 39); fill-opacity: 1;"/>
      <path d="M 162.923 75.517 L 165.899 75.532 C 166.301 75.533 166.685 75.574 167.059 75.653 C 167.43 75.729 167.762 75.862 168.059 76.045 C 168.354 76.228 168.589 76.477 168.769 76.792 C 168.95 77.107 169.036 77.503 169.035 77.98 C 169.031 78.493 168.911 78.909 168.672 79.222 C 168.429 79.536 168.124 79.778 167.751 79.948 C 167.38 80.115 166.963 80.224 166.504 80.269 C 166.046 80.313 165.606 80.336 165.186 80.332 L 162.897 80.321 L 162.923 75.517 Z M 158.411 84.074 L 165.94 84.113 C 166.989 84.119 167.983 84.03 168.918 83.842 C 169.853 83.657 170.672 83.333 171.373 82.87 C 172.07 82.404 172.627 81.779 173.041 80.991 C 173.457 80.202 173.666 79.206 173.673 78.005 C 173.679 76.821 173.493 75.83 173.117 75.025 C 172.738 74.224 172.216 73.584 171.552 73.101 C 170.884 72.621 170.096 72.28 169.181 72.076 C 168.264 71.869 167.274 71.764 166.206 71.758 L 162.942 71.741 L 162.983 63.847 L 158.519 63.824 L 158.411 84.074" style="fill: rgb(33, 37, 39); fill-opacity: 1;"/>
      <path d="M 176.769 84.056 L 190.536 84.128 L 190.558 80.009 L 181.255 79.959 L 181.276 76.185 L 190.063 76.232 L 190.085 72.112 L 181.296 72.066 L 181.317 67.947 L 191.136 67.997 L 191.157 63.88 L 176.875 63.806 L 176.769 84.056" style="fill: rgb(33, 37, 39); fill-opacity: 1;"/>
      <path d="M 198.761 75.717 L 201.395 75.731 C 201.795 75.733 202.22 75.749 202.669 75.78 C 203.117 75.812 203.521 75.898 203.882 76.044 C 204.245 76.189 204.544 76.415 204.782 76.721 C 205.017 77.027 205.133 77.456 205.132 78.008 C 205.129 78.524 205.021 78.935 204.81 79.237 C 204.599 79.541 204.331 79.773 204.006 79.934 C 203.681 80.096 203.306 80.202 202.887 80.258 C 202.467 80.313 202.058 80.34 201.657 80.336 L 198.737 80.321 L 198.761 75.717 Z M 194.253 84.072 L 202.095 84.115 C 203.125 84.12 204.105 84.026 205.028 83.829 C 205.956 83.635 206.766 83.304 207.468 82.842 C 208.166 82.378 208.722 81.751 209.136 80.963 C 209.551 80.173 209.761 79.187 209.769 78.007 C 209.776 76.576 209.409 75.359 208.67 74.352 C 207.934 73.346 206.848 72.708 205.417 72.434 L 210.615 63.908 L 205.262 63.88 L 200.985 71.953 L 198.779 71.941 L 198.821 63.846 L 194.355 63.822 L 194.253 84.072" style="fill: rgb(33, 37, 39); fill-opacity: 1;"/>
      <path d="M 213.602 84.094 L 218.066 84.116 L 218.151 67.985 L 226.424 68.029 L 226.447 63.909 L 213.708 63.844 L 213.602 84.094" style="fill: rgb(33, 37, 39); fill-opacity: 1;"/>
      <path d="M 229.543 84.069 L 243.31 84.141 L 243.332 80.022 L 234.029 79.972 L 234.05 76.198 L 242.837 76.243 L 242.859 72.126 L 234.07 72.079 L 234.092 67.96 L 243.911 68.01 L 243.932 63.893 L 229.649 63.82 L 229.543 84.069" style="fill: rgb(33, 37, 39); fill-opacity: 1;"/>
      <path d="M 251.578 67.966 L 253.897 67.979 C 254.926 67.985 255.886 68.094 256.771 68.307 C 257.658 68.525 258.424 68.875 259.07 69.365 C 259.715 69.853 260.223 70.495 260.591 71.289 C 260.959 72.081 261.14 73.05 261.134 74.195 C 261.13 75.186 260.938 76.049 260.562 76.781 C 260.187 77.514 259.682 78.115 259.05 78.59 C 258.419 79.064 257.674 79.418 256.827 79.65 C 255.977 79.885 255.083 79.999 254.148 79.995 L 251.514 79.98 L 251.578 67.966 Z M 247.027 84.075 L 253.725 84.11 C 255.346 84.119 256.89 83.945 258.351 83.592 C 259.812 83.238 261.09 82.655 262.182 81.852 C 263.274 81.047 264.142 80.001 264.791 78.706 C 265.435 77.41 265.764 75.84 265.772 73.991 C 265.781 72.35 265.479 70.903 264.865 69.653 C 264.252 68.401 263.422 67.346 262.379 66.495 C 261.332 65.639 260.125 64.99 258.753 64.545 C 257.38 64.097 255.94 63.871 254.434 63.864 L 247.134 63.825 L 247.027 84.075" style="fill: rgb(33, 37, 39); fill-opacity: 1;"/>
      <path d="M 288.349 65.318 C 287.037 64.624 285.665 64.12 284.236 63.808 C 282.805 63.494 281.347 63.335 279.859 63.327 C 278.275 63.32 276.813 63.559 275.475 64.047 C 274.137 64.537 272.98 65.239 272.002 66.16 C 271.021 67.079 270.257 68.195 269.706 69.507 C 269.155 70.823 268.877 72.289 268.868 73.911 C 268.858 75.531 269.124 77 269.66 78.319 C 270.199 79.636 270.949 80.76 271.92 81.692 C 272.886 82.622 274.037 83.338 275.374 83.839 C 276.703 84.344 278.162 84.6 279.746 84.607 C 281.368 84.616 282.863 84.429 284.229 84.045 C 285.594 83.66 286.797 82.995 287.832 82.047 L 284.702 78.597 C 284.088 79.224 283.397 79.698 282.632 80.018 C 281.869 80.338 280.914 80.495 279.768 80.488 C 278.814 80.484 277.952 80.317 277.18 79.989 C 276.41 79.658 275.75 79.206 275.196 78.622 C 274.647 78.035 274.228 77.341 273.934 76.538 C 273.643 75.736 273.501 74.868 273.505 73.935 C 273.511 72.979 273.663 72.109 273.963 71.32 C 274.263 70.53 274.69 69.845 275.246 69.268 C 275.803 68.688 276.47 68.239 277.243 67.918 C 278.017 67.598 278.883 67.442 279.837 67.446 C 280.811 67.452 281.649 67.565 282.355 67.787 C 283.057 68.01 283.62 68.236 284.039 68.468 L 284.021 71.758 L 280.385 71.74 L 280.366 75.859 L 288.294 75.902 L 288.349 65.318" style="fill: rgb(33, 37, 39); fill-opacity: 1;"/>
      <path d="M 291.445 84.535 L 305.213 84.607 L 305.232 80.49 L 295.93 80.44 L 295.95 76.666 L 304.739 76.711 L 304.76 72.593 L 295.971 72.547 L 295.994 68.426 L 305.811 68.478 L 305.834 64.361 L 291.551 64.285 L 291.445 84.535" style="fill: rgb(33, 37, 39); fill-opacity: 1;"/>
      <path d="M 313.437 76.194 L 316.071 76.209 C 316.47 76.209 316.895 76.227 317.344 76.257 C 317.791 76.288 318.196 76.374 318.558 76.522 C 318.919 76.665 319.218 76.891 319.456 77.197 C 319.693 77.504 319.81 77.932 319.808 78.485 C 319.804 79.001 319.697 79.411 319.487 79.714 C 319.275 80.018 319.007 80.249 318.68 80.411 C 318.356 80.573 317.98 80.68 317.563 80.734 C 317.142 80.792 316.734 80.816 316.331 80.814 L 313.413 80.797 L 313.437 76.194 Z M 308.928 84.55 L 316.771 84.591 C 317.8 84.596 318.778 84.504 319.706 84.306 C 320.632 84.111 321.444 83.78 322.144 83.318 C 322.844 82.856 323.398 82.23 323.814 81.439 C 324.227 80.65 324.438 79.663 324.445 78.483 C 324.452 77.052 324.085 75.836 323.348 74.828 C 322.61 73.824 321.525 73.186 320.093 72.91 L 325.291 64.385 L 319.938 64.358 L 315.659 72.429 L 313.455 72.418 L 313.498 64.323 L 309.034 64.301 L 308.928 84.55" style="fill: rgb(33, 37, 39); fill-opacity: 1;"/>
      <path d="M 93 49.087 L 65.952 29.342 L 65.952 57.842 L 26.911 29.342 L 26.911 57.842 L 0.663 38.681 C 4.397 16.721 23.512 0 46.535 0 C 72.236 0 93.07 20.835 93.07 46.535 C 93.07 47.392 93.046 48.242 93 49.087" style="fill: rgb(0, 121, 193); fill-opacity: 1;"/>
      <path d="M 92.296 55.025 C 88.304 76.672 69.336 93.07 46.535 93.07 C 20.835 93.07 0 72.236 0 46.535 C 0 45.913 0.016 45.295 0.04 44.679 L 32.123 68.099 L 32.123 39.599 L 71.163 68.099 L 71.163 39.599 L 92.296 55.025" style="fill: rgb(90, 211, 236); fill-opacity: 1;"/>
      <path d="M 118.861 16.331 C 119.88 14.802 121.184 13.674 122.772 12.949 C 124.359 12.224 125.996 11.861 127.682 11.861 C 128.622 11.861 129.583 12.008 130.563 12.303 C 131.542 12.597 132.434 13.038 133.238 13.626 C 134.041 14.213 134.698 14.939 135.208 15.801 C 135.717 16.663 135.972 17.663 135.972 18.8 C 135.972 20.407 135.463 21.632 134.443 22.475 C 133.424 23.317 132.16 24.023 130.651 24.592 C 129.142 25.16 127.495 25.709 125.712 26.238 C 123.927 26.767 122.281 27.503 120.773 28.444 C 119.263 29.384 117.999 30.648 116.98 32.236 C 115.96 33.823 115.451 35.97 115.451 38.674 C 115.451 39.889 115.716 41.183 116.245 42.555 C 116.774 43.927 117.607 45.181 118.744 46.319 C 119.88 47.455 121.34 48.406 123.125 49.17 C 124.908 49.935 127.054 50.317 129.563 50.317 C 131.836 50.317 134.012 50.003 136.09 49.376 C 138.167 48.749 139.99 47.474 141.558 45.554 L 136.972 41.379 C 136.266 42.476 135.267 43.358 133.973 44.025 C 132.68 44.692 131.21 45.025 129.563 45.025 C 127.995 45.025 126.691 44.819 125.653 44.407 C 124.614 43.996 123.78 43.466 123.154 42.82 C 122.526 42.173 122.086 41.477 121.831 40.733 C 121.576 39.987 121.449 39.301 121.449 38.674 C 121.449 36.91 121.958 35.558 122.978 34.617 C 123.997 33.676 125.261 32.912 126.77 32.324 C 128.279 31.736 129.925 31.207 131.71 30.737 C 133.493 30.266 135.139 29.609 136.649 28.767 C 138.157 27.923 139.422 26.787 140.441 25.356 C 141.46 23.925 141.969 21.955 141.969 19.447 C 141.969 17.448 141.588 15.644 140.823 14.037 C 140.059 12.429 139.03 11.077 137.736 9.98 C 136.443 8.882 134.914 8.04 133.15 7.452 C 131.386 6.864 129.505 6.569 127.505 6.569 C 124.839 6.569 122.311 7.04 119.92 7.981 C 117.528 8.921 115.628 10.371 114.216 12.332 L 118.861 16.331" style="fill: rgb(90, 211, 236); fill-opacity: 1;"/>
      <path d="M 172.075 22.857 L 164.314 41.967 L 164.196 41.967 L 156.317 22.857 L 172.075 22.857 Z M 161.962 49.258 L 167.077 49.258 L 184.893 7.628 L 178.308 7.628 L 174.133 17.918 L 154.318 17.918 L 150.202 7.628 L 143.616 7.628 L 161.962 49.258" style="fill: rgb(90, 211, 236); fill-opacity: 1;"/>
      <path d="M 180.718 49.258 L 186.598 49.258 L 195.799 15.978 L 195.918 15.978 L 205.709 49.258 L 212.176 49.258 L 221.965 15.978 L 222.084 15.978 L 231.287 49.258 L 237.167 49.258 L 225.053 7.628 L 219.056 7.628 L 209.002 41.614 L 208.884 41.614 L 198.887 7.628 L 192.89 7.628 L 180.718 49.258" style="fill: rgb(90, 211, 236); fill-opacity: 1;"/>
      <path d="M 252.965 43.966 L 239.559 43.966 L 239.559 49.258 L 272.017 49.258 L 272.017 43.966 L 258.611 43.966 L 258.611 7.628 L 252.965 7.628 L 252.965 43.966" style="fill: rgb(90, 211, 236); fill-opacity: 1;"/>
      <path d="M 293.42 11.861 C 295.81 11.861 297.966 12.303 299.887 13.185 C 301.807 14.067 303.454 15.252 304.827 16.742 C 306.198 18.232 307.256 19.986 308.002 22.005 C 308.746 24.023 309.119 26.17 309.119 28.444 C 309.119 30.716 308.746 32.862 308.002 34.882 C 307.256 36.9 306.198 38.654 304.827 40.145 C 303.454 41.634 301.807 42.82 299.887 43.702 C 297.966 44.584 295.81 45.025 293.42 45.025 C 291.028 45.025 288.872 44.584 286.952 43.702 C 285.03 42.82 283.384 41.634 282.012 40.145 C 280.639 38.654 279.582 36.9 278.837 34.882 C 278.091 32.862 277.719 30.716 277.719 28.444 C 277.719 26.17 278.091 24.023 278.837 22.005 C 279.582 19.986 280.639 18.232 282.012 16.742 C 283.384 15.252 285.03 14.067 286.952 13.185 C 288.872 12.303 291.028 11.861 293.42 11.861 Z M 293.42 6.569 C 290.244 6.569 287.324 7.128 284.658 8.245 C 281.992 9.362 279.709 10.901 277.808 12.862 C 275.906 14.821 274.417 17.133 273.339 19.799 C 272.26 22.465 271.722 25.346 271.722 28.444 C 271.722 31.54 272.26 34.421 273.339 37.087 C 274.417 39.752 275.906 42.065 277.808 44.025 C 279.709 45.985 281.992 47.524 284.658 48.641 C 287.324 49.758 290.244 50.317 293.42 50.317 C 296.594 50.317 299.514 49.758 302.18 48.641 C 304.846 47.524 307.129 45.985 309.031 44.025 C 310.931 42.065 312.421 39.752 313.5 37.087 C 314.578 34.421 315.117 31.54 315.117 28.444 C 315.117 25.346 314.578 22.465 313.5 19.799 C 312.421 17.133 310.931 14.821 309.031 12.862 C 307.129 10.901 304.846 9.362 302.18 8.245 C 299.514 7.128 296.594 6.569 293.42 6.569" style="fill: rgb(90, 211, 236); fill-opacity: 1;"/>
      <path d="M 341.429 11.861 C 343.82 11.861 345.976 12.303 347.897 13.185 C 349.817 14.067 351.464 15.252 352.837 16.742 C 354.208 18.232 355.266 19.986 356.011 22.005 C 356.755 24.023 357.129 26.17 357.129 28.444 C 357.129 30.716 356.755 32.862 356.011 34.882 C 355.266 36.9 354.208 38.654 352.837 40.145 C 351.464 41.634 349.817 42.82 347.897 43.702 C 345.976 44.584 343.82 45.025 341.429 45.025 C 339.038 45.025 336.881 44.584 334.962 43.702 C 333.04 42.82 331.394 41.634 330.022 40.145 C 328.649 38.654 327.591 36.9 326.846 34.882 C 326.101 32.862 325.729 30.716 325.729 28.444 C 325.729 26.17 326.101 24.023 326.846 22.005 C 327.591 19.986 328.649 18.232 330.022 16.742 C 331.394 15.252 333.04 14.067 334.962 13.185 C 336.881 12.303 339.038 11.861 341.429 11.861 Z M 341.429 6.569 C 338.254 6.569 335.334 7.128 332.668 8.245 C 330.002 9.362 327.718 10.901 325.818 12.862 C 323.916 14.821 322.426 17.133 321.349 19.799 C 320.27 22.465 319.732 25.346 319.732 28.444 C 319.732 31.54 320.27 34.421 321.349 37.087 C 322.426 39.752 323.916 42.065 325.818 44.025 C 327.718 45.985 330.002 47.524 332.668 48.641 C 335.334 49.758 338.254 50.317 341.429 50.317 C 344.604 50.317 347.524 49.758 350.19 48.641 C 352.856 47.524 355.138 45.985 357.041 44.025 C 358.941 42.065 360.43 39.752 361.509 37.087 C 362.588 34.421 363.127 31.54 363.127 28.444 C 363.127 25.346 362.588 22.465 361.509 19.799 C 360.43 17.133 358.941 14.821 357.041 12.862 C 355.138 10.901 352.856 9.362 350.19 8.245 C 347.524 7.128 344.604 6.569 341.429 6.569" style="fill: rgb(90, 211, 236); fill-opacity: 1;"/>
      <path d="M 0 93.071 L 432.96 93.071 L 432.96 0 L 0 0 Z" style="fill: none;"/>
    </g>
    <g style="clip-path: url(#clippath1);">
      <g transform="">
        <path d="M 376.237 43.966 L 362.831 43.966 L 362.831 49.258 L 395.289 49.258 L 395.289 43.966 L 381.882 43.966 L 381.882 7.628 L 376.237 7.628 L 376.237 43.966" style="fill: rgb(90, 211, 236); fill-opacity: 1;"/>
        <path d="M 400.122 49.258 L 405.766 49.258 L 405.766 31.971 L 427.346 31.971 L 427.346 49.258 L 432.991 49.258 L 432.991 7.628 L 427.346 7.628 L 427.346 26.679 L 405.766 26.679 L 405.766 7.628 L 400.122 7.628 L 400.122 49.258" style="fill: rgb(90, 211, 236); fill-opacity: 1;"/>
      </g>
    </g>
  </g>
</svg>