<?xml version="1.0" encoding="utf-8"?>
<svg version="1.1" width="328px" height="82px" preserveAspectRatio="none" viewBox="0 0 328 82" xmlns="http://www.w3.org/2000/svg">
  <defs>
    <clipPath id="clippath0" transform="">
      <path d="M 0.06 81.38 L 327.871 81.38 L 327.871 0 L 0.06 0 Z" style="fill: none; clip-rule: nonzero;"/>
    </clipPath>
  </defs>
  <g transform="matrix(1 0 0 -1 0 82)">
    <g transform="">
      <path d="M 121.232 66.309 L 129.933 66.356 L 129.98 57.576 L 134.458 57.598 L 134.352 77.914 L 129.872 77.891 L 129.913 70.315 L 121.211 70.271 L 121.17 77.844 L 116.691 77.82 L 116.798 57.505 L 121.278 57.529 L 121.232 66.309" style="fill: rgb(33, 37, 39); fill-opacity: 1;"/>
      <path d="M 145.31 57.519 L 149.788 57.543 L 149.744 66.208 L 157.32 77.897 L 152.007 77.872 L 147.482 70.243 L 143.134 77.825 L 137.563 77.795 L 145.265 66.186 L 145.31 57.519" style="fill: rgb(33, 37, 39); fill-opacity: 1;"/>
      <path d="M 167.252 74.093 C 167.672 74.097 168.114 74.075 168.574 74.03 C 169.034 73.985 169.453 73.875 169.824 73.708 C 170.199 73.537 170.505 73.295 170.749 72.98 C 170.988 72.665 171.109 72.248 171.113 71.733 C 171.114 71.255 171.027 70.858 170.846 70.542 C 170.666 70.226 170.429 69.977 170.133 69.792 C 169.836 69.609 169.503 69.476 169.13 69.399 C 168.755 69.321 168.371 69.279 167.967 69.279 L 164.981 69.263 L 164.955 74.082 L 167.252 74.093 Z M 165.042 57.556 L 165.001 65.476 L 168.274 65.492 C 169.346 65.498 170.34 65.604 171.259 65.811 C 172.177 66.016 172.968 66.358 173.638 66.839 C 174.305 67.323 174.828 67.966 175.208 68.77 C 175.586 69.578 175.772 70.572 175.766 71.759 C 175.758 72.964 175.548 73.963 175.131 74.755 C 174.716 75.545 174.158 76.172 173.458 76.64 C 172.754 77.104 171.933 77.429 170.995 77.615 C 170.057 77.803 169.06 77.893 168.008 77.887 L 160.455 77.848 L 160.563 57.533 L 165.042 57.556" style="fill: rgb(33, 37, 39); fill-opacity: 1;"/>
      <path d="M 193.306 57.588 L 193.286 61.718 L 183.435 61.669 L 183.413 65.801 L 192.23 65.848 L 192.209 69.98 L 183.393 69.934 L 183.372 73.72 L 192.705 73.769 L 192.683 77.902 L 178.872 77.829 L 178.977 57.515 L 193.306 57.588" style="fill: rgb(33, 37, 39); fill-opacity: 1;"/>
      <path d="M 200.934 69.464 L 200.91 74.082 L 203.839 74.097 C 204.242 74.101 204.653 74.074 205.074 74.019 C 205.494 73.963 205.871 73.857 206.197 73.695 C 206.522 73.533 206.792 73.3 207.003 72.995 C 207.214 72.692 207.322 72.28 207.326 71.763 C 207.328 71.208 207.211 70.778 206.974 70.471 C 206.736 70.164 206.436 69.937 206.073 69.792 C 205.711 69.645 205.304 69.559 204.854 69.527 C 204.405 69.496 203.977 69.479 203.577 69.478 L 200.934 69.464 Z M 207.457 57.588 L 212.827 57.617 L 207.611 66.17 C 209.048 66.445 210.136 67.085 210.875 68.094 C 211.617 69.105 211.985 70.326 211.977 71.761 C 211.97 72.945 211.759 73.934 211.342 74.727 C 210.928 75.517 210.37 76.146 209.67 76.612 C 208.965 77.075 208.152 77.407 207.222 77.602 C 206.295 77.799 205.312 77.894 204.279 77.889 L 196.412 77.846 L 196.515 57.531 L 200.995 57.555 L 200.953 65.676 L 203.166 65.688 L 207.457 57.588" style="fill: rgb(33, 37, 39); fill-opacity: 1;"/>
      <path d="M 228.71 57.618 L 228.686 61.75 L 220.386 61.707 L 220.301 77.89 L 215.823 77.868 L 215.929 57.553 L 228.71 57.618" style="fill: rgb(33, 37, 39); fill-opacity: 1;"/>
      <path d="M 246.251 57.602 L 246.229 61.732 L 236.378 61.682 L 236.356 65.814 L 245.174 65.861 L 245.152 69.991 L 236.337 69.947 L 236.316 73.733 L 245.648 73.783 L 245.627 77.915 L 231.815 77.843 L 231.921 57.528 L 246.251 57.602" style="fill: rgb(33, 37, 39); fill-opacity: 1;"/>
      <path d="M 256.248 61.701 L 253.921 61.688 L 253.857 73.74 L 256.499 73.755 C 257.437 73.759 258.335 73.645 259.187 73.409 C 260.037 73.176 260.784 72.821 261.417 72.346 C 262.051 71.87 262.557 71.267 262.933 70.531 C 263.311 69.796 263.503 68.931 263.508 67.937 C 263.514 66.788 263.332 65.816 262.963 65.022 C 262.594 64.225 262.085 63.581 261.436 63.091 C 260.79 62.6 260.02 62.248 259.13 62.03 C 258.244 61.816 257.28 61.707 256.248 61.701 Z M 264.755 60.212 C 265.803 61.066 266.635 62.124 267.251 63.38 C 267.867 64.634 268.169 66.086 268.161 67.732 C 268.153 69.588 267.823 71.163 267.175 72.462 C 266.526 73.761 265.655 74.811 264.559 75.619 C 263.464 76.425 262.181 77.009 260.716 77.364 C 259.251 77.719 257.701 77.893 256.075 77.883 L 249.355 77.849 L 249.463 57.534 L 256.786 57.573 C 258.297 57.58 259.741 57.807 261.119 58.256 C 262.495 58.702 263.707 59.354 264.755 60.212" style="fill: rgb(33, 37, 39); fill-opacity: 1;"/>
      <path d="M 282.801 69.606 L 282.821 65.474 L 286.468 65.493 L 286.486 62.192 C 286.066 61.959 285.502 61.732 284.796 61.509 C 284.088 61.285 283.248 61.172 282.27 61.167 C 281.314 61.163 280.445 61.319 279.669 61.64 C 278.893 61.961 278.223 62.412 277.665 62.994 C 277.107 63.573 276.679 64.26 276.378 65.053 C 276.076 65.844 275.925 66.717 275.919 67.676 C 275.914 68.612 276.057 69.483 276.349 70.287 C 276.643 71.093 277.064 71.79 277.615 72.377 C 278.169 72.963 278.833 73.418 279.605 73.749 C 280.379 74.079 281.245 74.247 282.202 74.25 C 283.35 74.257 284.309 74.1 285.076 73.779 C 285.842 73.457 286.535 72.982 287.151 72.353 L 290.291 75.813 C 289.253 76.765 288.046 77.433 286.676 77.819 C 285.306 78.204 283.806 78.391 282.179 78.382 C 280.589 78.375 279.127 78.118 277.793 77.612 C 276.452 77.109 275.298 76.391 274.328 75.458 C 273.354 74.523 272.601 73.395 272.06 72.074 C 271.523 70.75 271.256 69.278 271.266 67.652 C 271.276 66.024 271.555 64.554 272.107 63.234 C 272.661 61.918 273.426 60.798 274.411 59.876 C 275.391 58.953 276.552 58.248 277.894 57.756 C 279.237 57.267 280.704 57.027 282.293 57.034 C 283.786 57.042 285.249 57.201 286.684 57.517 C 288.117 57.829 289.494 58.335 290.81 59.031 L 290.754 69.649 L 282.801 69.606" style="fill: rgb(33, 37, 39); fill-opacity: 1;"/>
      <path d="M 308.35 58.071 L 308.328 62.202 L 298.48 62.149 L 298.458 66.283 L 307.274 66.33 L 307.253 70.461 L 298.435 70.416 L 298.416 74.202 L 307.748 74.252 L 307.727 78.382 L 293.916 78.31 L 294.022 57.995 L 308.35 58.071" style="fill: rgb(33, 37, 39); fill-opacity: 1;"/>
      <path d="M 318.881 74.577 C 319.286 74.579 319.695 74.555 320.118 74.497 C 320.537 74.442 320.913 74.335 321.238 74.172 C 321.567 74.011 321.836 73.778 322.048 73.473 C 322.258 73.169 322.367 72.758 322.371 72.241 C 322.372 71.686 322.254 71.256 322.016 70.949 C 321.778 70.642 321.478 70.415 321.116 70.271 C 320.753 70.123 320.346 70.037 319.898 70.005 C 319.448 69.976 319.021 69.957 318.621 69.957 L 315.978 69.942 L 315.955 74.56 L 318.881 74.577 Z M 316.04 58.033 L 315.997 66.154 L 318.208 66.166 L 322.501 58.068 L 327.871 58.096 L 322.657 66.648 C 324.092 66.925 325.181 67.565 325.921 68.572 C 326.661 69.583 327.029 70.803 327.022 72.239 C 327.015 73.422 326.804 74.413 326.389 75.204 C 325.972 75.997 325.416 76.626 324.714 77.089 C 324.011 77.553 323.197 77.885 322.268 78.08 C 321.337 78.279 320.356 78.372 319.324 78.366 L 311.456 78.325 L 311.561 58.011 L 316.04 58.033" style="fill: rgb(33, 37, 39); fill-opacity: 1;"/>
      <path d="M 116.593 16.677 L 116.593 41.785 L 121.763 41.785 L 121.763 16.8 C 121.763 9.292 125.763 4.554 133.332 4.554 C 140.901 4.554 144.963 9.292 144.963 16.8 L 144.963 41.785 L 150.132 41.785 L 150.132 16.738 C 150.132 6.523 144.471 0 133.332 0 C 122.255 0 116.593 6.584 116.593 16.677" style="fill: rgb(157, 46, 90); fill-opacity: 1;"/>
      <path d="M 183.858 29.416 C 183.858 34.092 180.473 37.231 175.612 37.231 L 164.842 37.231 L 164.842 21.539 L 175.612 21.539 C 180.473 21.539 183.858 24.8 183.858 29.416 Z M 183.489 0.738 L 173.088 17.046 L 164.842 17.046 L 164.842 0.738 L 159.734 0.738 L 159.734 41.785 L 176.227 41.785 C 183.735 41.785 189.151 36.984 189.151 29.416 C 189.151 22.031 184.043 17.969 178.443 17.477 L 189.52 0.738 L 183.489 0.738" style="fill: rgb(157, 46, 90); fill-opacity: 1;"/>
      <path d="M 194.753 6.523 L 197.83 10.461 C 200.476 7.384 204.907 4.554 210.692 4.554 C 218.014 4.554 220.353 8.492 220.353 11.692 C 220.353 22.277 196.045 16.369 196.045 31.015 C 196.045 37.785 202.076 42.461 210.2 42.461 C 216.415 42.461 221.276 40.308 224.722 36.677 L 221.645 32.923 C 218.569 36.369 214.261 37.846 209.768 37.846 C 204.907 37.846 201.337 35.2 201.337 31.323 C 201.337 22.092 225.645 27.385 225.645 12.062 C 225.645 6.154 221.584 0 210.507 0 C 203.43 0 198.137 2.708 194.753 6.523" style="fill: rgb(157, 46, 90); fill-opacity: 1;"/>
      <path d="M 0.06 81.38 L 327.871 81.38 L 327.871 0 L 0.06 0 Z" style="fill: none;"/>
    </g>
    <g style="clip-path: url(#clippath0);">
      <g transform="">
        <path d="M 248.11 36.554 L 239.433 14.4 L 256.848 14.4 L 248.11 36.554 Z M 261.957 0.738 L 258.326 9.908 L 237.895 9.908 L 234.264 0.738 L 228.418 0.738 L 244.971 41.785 L 251.31 41.785 L 267.802 0.738 L 261.957 0.738" style="fill: rgb(157, 46, 90); fill-opacity: 1;"/>
        <path d="M 68.022 75.239 C 69.376 76.983 69.43 79.3 69.821 81.38 C 70.012 79.282 69.767 76.82 71.347 75.158 C 73.21 73.323 76.035 73.623 78.451 73.477 C 76.126 73.114 73.546 73.141 71.602 71.66 C 69.712 69.961 69.975 67.191 69.812 64.883 C 69.422 67.154 69.448 69.744 67.814 71.533 C 66.178 72.95 63.88 72.986 61.872 73.423 C 63.98 73.65 66.487 73.504 68.022 75.239" style="fill: rgb(157, 46, 90); fill-opacity: 1;"/>
        <path d="M 35.156 14.221 C 32.848 9.542 29.533 5.455 25.681 1.966 C 29.006 2.048 32.339 2.084 35.665 2.203 C 37.027 3.475 38.499 4.61 40.043 5.655 C 39.089 8.853 37.309 11.696 35.156 14.221 Z M 65.733 2.148 C 68.931 2.084 72.137 2.012 75.344 1.994 C 76.625 3.248 77.979 4.437 79.368 5.573 C 76.434 9.96 70.666 10.96 67.523 15.193 C 64.253 11.586 65.624 6.527 65.733 2.148 Z M 49.436 15.947 C 49.618 11.341 49.309 6.699 48.11 2.23 C 50.036 2.257 51.98 2.157 53.905 2.366 C 55.414 3.175 56.703 4.365 58.148 5.282 C 56.377 8.107 54.051 10.569 52.615 13.612 C 55.686 14.285 58.747 15.084 61.636 16.356 C 57.567 16.247 53.506 15.774 49.436 15.947 Z M 33.712 66.31 C 37.172 65.483 40.479 67.191 43.831 67.763 C 44.394 65.038 45.067 62.077 43.859 59.424 C 42.096 56.999 39.289 55.191 38.644 52.084 C 37.59 48.168 39.625 44.462 41.669 41.283 C 40.906 44.49 40.47 47.778 40.842 51.066 C 47.183 50.285 52.761 46.497 55.904 40.965 C 55.205 43.636 54.106 46.188 52.715 48.578 C 59.12 49.15 65.979 48.795 71.583 45.325 C 77.697 41.71 81.412 34.651 81.131 27.575 C 81.031 21.452 83.02 15.22 87.399 10.824 C 87.408 7.608 87.39 4.383 87.653 1.176 C 91.296 1.094 94.938 1.04 98.572 0.813 C 92.776 0.332 86.963 0.895 81.158 0.786 C 54.106 0.804 27.044 0.731 0 0.794 C 3.824 1.022 7.649 1.23 11.464 1.594 C 13.326 4.274 17.196 4.583 18.613 7.635 C 21.103 11.777 22.047 16.637 22.247 21.416 C 24.863 19.645 27.725 18.272 30.768 17.41 C 25.627 21.361 20.73 26.049 18.559 32.335 C 14.689 41.592 16.651 52.638 22.719 60.505 C 21.857 61.486 19.722 62.513 20.921 64.039 C 22.329 66.228 24.945 64.929 26.708 64.002 C 28.915 65.047 31.113 66.9 33.712 66.31" style="fill: rgb(157, 46, 90); fill-opacity: 1;"/>
      </g>
    </g>
  </g>
</svg>