<?xml version="1.0" encoding="utf-8"?>
<!-- Generator: Adobe Illustrator 26.0.1, SVG Export Plug-In . SVG Version: 6.00 Build 0)  -->
<svg version="1.1" id="Layer_1" xmlns="http://www.w3.org/2000/svg" xmlns:xlink="http://www.w3.org/1999/xlink" x="0px" y="0px"
	 viewBox="0 0 1015 300" style="enable-background:new 0 0 1015 300;" xml:space="preserve">
<style type="text/css">
	.st0{fill:#24272A;}
	.st1{fill:#AA57A2;}
	.st2{fill:#FFFFFF;}
</style>
<g>
	<g>
		<polygon points="367.4770508,67.5200577 394.5111694,67.375206 394.6560059,94.6507416 408.5671082,94.5834885 
			408.2381592,31.4699707 394.3201904,31.5402393 394.4482117,55.0764313 367.414093,55.2143822 367.2860718,31.6850872 
			353.372406,31.7600975 353.7039185,94.8710327 367.6218872,94.7960205 		"/>
		<polygon points="442.2814941,94.8274918 456.1925659,94.7524796 456.0546265,67.8347626 479.5908203,31.5212708 
			463.0862732,31.6005917 449.0277405,55.2988777 435.5205994,31.7458725 418.2133179,31.8376961 442.1413879,67.9045944 		"/>
		<path d="M503.5792236,94.7149734l-0.1280212-24.6048813l10.1717224-0.0508728
			c3.3306885-0.0189667,6.4173584-0.3478928,9.2746582-0.9910889c2.8521118-0.635437,5.3081055-1.6989594,7.3894043-3.1952972
			c2.0714722-1.5036621,3.6958008-3.5000763,4.8753052-5.996994c1.1726074-2.5094185,1.7524414-5.5982323,1.7355957-9.2871323
			c-0.0241089-3.7419243-0.6768188-6.8479805-1.97229-9.3060989c-1.2907104-2.4559593-3.0263062-4.4040909-5.1994629-5.8568878
			c-2.1852417-1.4407272-4.7351685-2.4512215-7.6506348-3.0288925c-2.9125366-0.5849972-6.0112305-0.8626251-9.2794189-0.8432255
			l-23.4663391,0.1207085l0.3362427,63.1105042L503.5792236,94.7149734z M510.4466248,43.3372192
			c1.3075256-0.0120697,2.677948,0.058197,4.1065979,0.1957169c1.4287109,0.1401062,2.7314453,0.4811058,3.8846436,1.0010109
			c1.1652832,0.5315399,2.1175537,1.2833748,2.871521,2.2623978c0.7445068,0.9764366,1.1191406,2.2718811,1.1312256,3.8721161
			c0.0047607,1.4864235-0.2659912,2.7193642-0.826416,3.7009697c-0.5608521,0.9837646-1.2958984,1.7571564-2.2145386,2.3300819
			c-0.9255981,0.5681877-1.9602051,0.9837646-3.1155396,1.2204399c-1.1652832,0.2444305-2.3615723,0.372467-3.6160278,0.3750534
			l-9.2750854,0.0482826l-0.0819092-14.9724426L510.4466248,43.3372192z"/>
		<polygon points="591.3886108,94.6123734 591.3234863,81.7820511 560.7216187,81.9363861 560.6539307,69.0987396 
			588.0454712,68.9538879 587.9777832,56.1158066 560.5910034,56.2610893 560.5258789,44.4990273 589.5202026,44.3442612 
			589.4525146,31.5066128 546.5445557,31.7312145 546.8734741,94.8421478 		"/>
		<path d="M635.347168,94.6119461l16.6834717-0.0870819L635.8282471,67.952446
			c4.4644775-0.8552933,7.8460083-2.8422241,10.1398926-5.9775925c2.303772-3.1396828,3.4470215-6.9324799,3.4250488-11.3921814
			c-0.0215454-3.6763992-0.6763916-6.7488289-1.97229-9.211689c-1.2880859-2.4563942-3.0236816-4.4114189-5.1968384-5.8573189
			c-2.1878662-1.4402962-4.7162476-2.4701881-7.6045532-3.0767441c-2.8789062-0.6117268-5.9345093-0.9065971-9.1419067-0.8897839
			l-24.442749,0.1332092l0.3215942,63.1105042l13.9179688-0.0750122l-0.1327515-25.2282486l6.8768311-0.0362091
			L635.347168,94.6119461z M615.0859985,57.7181969l-0.0750122-14.3460579l9.1009521-0.0461273
			c1.2497559-0.0120735,2.5257568,0.0702667,3.8337402,0.2418442c1.3053589,0.1741638,2.4749146,0.5026588,3.4879761,1.0083351
			c1.0126343,0.5026627,1.848999,1.2251816,2.5042725,2.1727333c0.6574097,0.9428101,0.9932251,2.2214432,1.0053101,3.8290062
			c0.0047607,1.723526-0.3599854,3.0577736-1.0924072,4.0126534c-0.7419434,0.9544525-1.6726685,1.6605873-2.8016968,2.1102219
			c-1.1264648,0.4565353-2.3883057,0.7225189-3.7850342,0.8216743c-1.3950195,0.0965652-2.7245483,0.1500206-3.9691162,0.1547623
			L615.0859985,57.7181969z"/>
		<polygon points="701.3740234,94.5201187 701.3016357,81.6824722 675.5172729,81.8174057 675.2512817,31.5419636 
			661.34021,31.6122322 661.6691284,94.7231674 		"/>
		<polygon points="755.8664551,94.5705566 755.8013916,81.7402344 725.1995239,81.8950043 725.1292114,69.0573502 
			752.5237427,68.9120712 752.4534912,56.0817528 725.0689087,56.2192726 725.0037842,44.4572105 753.9955444,44.3024445 
			753.9278564,31.4647961 711.0202637,31.6893978 711.3513794,94.8003311 		"/>
		<path d="M813.3567505,86.4624786c3.25354-2.6542664,5.8396606-5.9392319,7.7494507-9.8428192
			c1.9144897-3.8966904,2.8546753-8.4072571,2.8280029-13.5196419c-0.0241699-5.7650681-1.0488892-10.6571579-3.0599365-14.6939545
			c-2.0184326-4.0367966-4.725708-7.2976189-8.1292114-9.8066063c-3.4009399-2.5042419-7.3868408-4.3195953-11.9388428-5.4240646
			c-4.5536499-1.1001625-9.3664551-1.6416206-14.418457-1.6123047l-20.875061,0.1086369l0.3363037,63.1109314l22.7481079-0.1211319
			c4.6942139-0.0215607,9.1806641-0.7276917,13.4614868-2.1222916
			C806.3320312,91.1519547,810.0959473,89.1283875,813.3567505,86.4624786z M786.9244385,81.8359375l-7.2272949,0.0409546
			l-0.1983032-37.4425316l8.2063599-0.0456963c2.9150391-0.0120697,5.7020874,0.3405685,8.3516235,1.0755882
			c2.6396484,0.72295,4.9597778,1.8248367,6.9273071,3.3017769c1.9700928,1.4795265,3.5436401,3.3526421,4.7114868,5.6370277
			c1.1721191,2.2843857,1.7692261,4.9722786,1.7860107,8.0615234c0.0172729,3.5677605-0.5487671,6.5867348-1.6942139,9.0547676
			c-1.145874,2.4749298-2.729248,4.4765167-4.7424927,5.996994c-2.0110474,1.5273819-4.399353,2.6202164-7.164856,3.2970352
			C793.1245117,81.4781265,790.1322632,81.8186951,786.9244385,81.8359375z"/>
		<path d="M869.4171143,57.2780457l0.0625,12.8376465l11.3296509-0.058197l0.0556641,10.2540817
			c-1.3054199,0.7225189-3.0578003,1.4282303-5.2478027,2.1222992c-2.1998901,0.693634-4.8127441,1.0462723-7.848938,1.0635147
			c-2.9707031,0.0120697-5.6706543-0.4737778-8.0831299-1.4700394c-2.40979-1.0005798-4.4885864-2.3999252-6.2241821-4.2079468
			c-1.7329712-1.7985382-3.0625-3.9328995-4.0005493-6.3961868c-0.9354858-2.4581223-1.4041138-5.1705856-1.4235229-8.1481743
			c-0.0172119-2.9081841,0.4302368-5.6154747,1.3364258-8.1123924c0.9139404-2.5042458,2.2214355-4.6674919,3.9329224-6.4949112
			c1.7235107-1.8200951,3.7807007-3.2319374,6.1832275-4.2613983c2.4050903-1.0225639,5.0929565-1.5446243,8.0662231-1.556694
			c3.5678101-0.0219841,6.5458374,0.4690361,8.9267578,1.4648705c2.3835449,0.9979897,4.534729,2.4749298,6.4492188,4.4282303
			l9.7531738-10.7494125c-3.2246094-2.9564667-6.9734497-5.0300446-11.2279663-6.2293568
			c-4.2566528-1.1962967-8.9168091-1.7787094-13.9714355-1.7498245c-4.9382324,0.021986-9.4849854,0.8195152-13.6278687,2.3930225
			c-4.1647949,1.5614319-7.7498169,3.7927933-10.7640381,6.6906319c-3.0237427,2.9034386-5.3637085,6.4082603-7.0437012,10.5127411
			c-1.670105,4.111805-2.4969482,8.6874733-2.4680176,13.7390709c0.0292969,5.054615,0.8970947,9.6229591,2.6132812,13.7226906
			c1.7183838,4.0898209,4.0993042,7.5683517,7.1549072,10.4325638c3.0479126,2.8693771,6.6544189,5.0593567,10.8240356,6.5871658
			c4.1695557,1.52005,8.7262573,2.2645569,13.6644897,2.2429962c4.6386108-0.0241394,9.1828003-0.5199051,13.6403198-1.4989243
			c4.4523926-0.9716949,8.7284546-2.5426102,12.8208618-4.7062912l-0.1741943-32.9849854L869.4171143,57.2780457z"/>
		<polygon points="948.789917,93.1117249 948.7196045,80.2809753 918.125061,80.4430618 918.0552368,67.6006699 
			945.4467163,67.4553909 945.3790283,54.6224861 917.9875488,54.7630234 917.9267578,43.0005302 946.9163208,42.8436127 
			946.8533936,30.0132923 903.9458618,30.2378941 904.2769165,93.3483963 		"/>
		<path d="M972.6757202,93.2315674l-0.1328125-25.2282486l6.8695679-0.0362091l13.3359985,25.1558228l16.6834717-0.0870819
			l-16.1980591-26.5676727c4.460144-0.8600388,7.8416748-2.8495522,10.1428833-5.9775925
			c2.2964478-3.1396828,3.4396973-6.9324799,3.4177246-11.3921814c-0.0215454-3.6763992-0.6768188-6.7535706-1.9649658-9.211689
			c-1.2958374-2.4632912-3.0241089-4.4165916-5.2042236-5.8573189c-2.1830444-1.4402962-4.713562-2.4701881-7.5997925-3.0767422
			c-2.8909302-0.6190567-5.939209-0.906599-9.1466064-0.8897858l-24.442749,0.1280365l0.3284912,63.108345L972.6757202,93.2315674z
			 M981.5058594,41.8348427c1.2570801-0.0051727,2.5283813,0.0698395,3.8411255,0.248745
			c1.3001709,0.1694221,2.4701538,0.5026588,3.4806519,1.0083351c1.0199585,0.5026627,1.8563232,1.2251816,2.5162964,2.1727333
			c0.65271,0.9428101,0.9885254,2.2214432,1.0006104,3.8290062c0.0046997,1.723526-0.3599854,3.0577736-1.0997314,4.0126534
			c-0.7397461,0.9544525-1.6726685,1.6605873-2.7965698,2.1050491c-1.1290283,0.4617043-2.3908081,0.7276917-3.7832642,0.8268471
			c-1.399353,0.0918236-2.7241211,0.1500206-3.968689,0.1500206l-8.2089844,0.0456963l-0.0750122-14.3460579L981.5058594,41.8348427
			z"/>
	</g>
	<g>
		<path d="M354.7068787,271.2267761V144.4065247h56.4717407c22.0559692,0,35.5565186,13.3094177,35.5565186,32.3224487
			c0,15.9700928-10.6487427,26.6188354-22.2471008,29.0914154c13.4975281,2.0903015,24.7166443,15.9700928,24.7166443,31.1817169
			c0,20.3448792-13.5005493,34.2246704-36.6972351,34.2246704H354.7068787z M430.382782,179.0104065
			c0-11.407196-7.6058044-20.5359955-21.8678589-20.5359955h-38.0260315v40.8808746h38.0260315
			C422.7769775,199.3552856,430.382782,190.6087494,430.382782,179.0104065z M432.8523254,235.2910309
			c0-11.5983429-7.9850464-21.8678589-23.3847656-21.8678589h-38.9786682v43.7326813h38.9786682
			C424.1088257,257.1558533,432.8523254,248.7885437,432.8523254,235.2910309z"/>
		<path d="M472.9474487,271.2267761V144.4065247h83.0905762v14.0678864h-67.3085938v40.8808746h65.9736938v14.0678864h-65.9736938
			v43.7326813h67.3085938v14.0709229H472.9474487z"/>
		<path d="M619.9365845,271.2267761l-51.1503906-126.8202515h18.0634155l42.7830811,109.5182953l42.7770386-109.5182953h18.0634766
			l-50.9562378,126.8202515H619.9365845z"/>
		<path d="M705.4117432,271.2267761V144.4065247h83.0906372v14.0678864h-67.3085938v40.8808746h65.9736938v14.0678864h-65.9736938
			v43.7326813h67.3085938v14.0709229H705.4117432z"/>
		<path d="M810.0911255,271.2267761V144.4065247h15.7819824v112.7493286h58.9412842v14.0709229H810.0911255z"/>
	</g>
	<g>
		<polygon points="37.6623573,3.987395 37.6623573,243.6903076 277.3652649,3.987395 		"/>
		<polygon points="244.0103607,54.9151802 4.307137,294.6184082 244.0103607,294.6184082 		"/>
	</g>
</g>
</svg>
