<?xml version="1.0" encoding="utf-8"?>
<svg xmlns="http://www.w3.org/2000/svg" version="1.1" viewBox="0 0 1920 1260" xmlns:bx="https://boxy-svg.com">
  <defs>
    <style>
      .cls-1 {
        fill: #fff;
      }

      .cls-2 {
        fill: #b81a56;
      }

      .cls-3 {
        display: none;
      }
    </style>
    <bx:export>
      <bx:file format="png" background="#fff" antialiasing="false" path="hiero.png"/>
    </bx:export>
  </defs>
  <g transform="matrix(1.549053, 0, 0, 1.549053, 22.82295, 313.993164)">
    <g id="Layer_1">
      <g id="Layer_2-2" class="cls-3">
        <rect class="cls-1" y="2.4" width="1200" height="394.4"/>
      </g>
      <g id="Layer_1-2">
        <g>
          <path d="M660.1,305.1h-30.6v-92.1h-96.2v92.1h-30.6V103.6h30.6v83.6h96.2v-83.6h30.6v201.5Z"/>
          <path d="M723,95.1c4.5,0,8.5,1.4,11.8,3.9,3.4,2.6,5.1,7.1,5.1,13.2s-1.8,10.5-5.1,13.2c-3.4,2.8-7.3,4.1-11.8,4.1s-8.7-1.4-12.2-4.1-5.1-7.1-5.1-13.2,1.8-10.6,5.1-13.2,7.5-3.9,12.2-3.9ZM737.8,153.1v152.2h-30v-152.2h30Z"/>
          <path d="M841.7,150.1c19.9,0,35.7,6.1,47.1,18.5,11.4,12.4,17.2,29.2,17.2,50.5v16.4h-102.1c.4,15.6,4.5,27.6,12.2,35.9s18.7,12.4,32.9,12.4,18.5-.8,26-2.8c7.7-1.8,15.4-4.5,23.7-8.1v24.8c-7.7,3.5-15.4,6.1-23.1,7.7s-17,2.4-27.6,2.4-27.6-3-39-8.7c-11.2-5.9-20.1-14.6-26.4-26-6.3-11.4-9.5-25.8-9.5-43s3-31.5,8.7-43.4c5.7-11.8,13.8-20.9,24.1-27.2,10.3-6.3,22.3-9.5,36.1-9.5h-.2ZM841.7,173.4c-10.6,0-19.3,3.5-25.8,10.5-6.5,6.9-10.3,16.8-11.4,29.6h71.8c0-11.8-3-21.5-8.7-29-5.5-7.5-14.2-11.2-25.8-11.2v.2Z"/>
          <path d="M1015.7,150.1c6.1,0,11.6.4,16.6,1.4l-3.2,28c-4.9-1.4-10.1-2-15.2-2-7.7,0-14.8,2-21.5,5.7s-11.8,9.1-16,16.2c-4.1,7.1-6.1,15.6-6.1,25.6v80.3h-30v-152.2h23.7l3.9,27h1.2c4.7-8.1,11-15.2,18.9-21.1,7.9-5.9,17-8.9,27.4-8.9h.2Z"/>
          <path d="M1186,229c0,25.2-6.5,44.8-19.5,58.4-13,13.8-30.6,20.7-52.5,20.7s-26-3-36.5-9.3c-10.6-6.1-18.9-15-25-26.8-6.1-11.8-9.3-26-9.3-43,0-25.2,6.3-44.6,19.1-58.4,12.8-13.6,30.4-20.5,52.5-20.5s26.2,3,36.9,9.3c10.6,6.1,18.9,15,25,26.6s9.3,26,9.3,43ZM1074,229c0,17.2,3.2,30.6,9.7,40,6.5,9.7,16.8,14.4,31,14.4s24.5-4.7,31-14.4c6.5-9.7,9.7-23.1,9.7-40s-3.2-30.6-9.7-40-17-14-31.2-14-24.5,4.7-30.8,14-9.7,22.7-9.7,40Z"/>
        </g>
        <path class="cls-2" d="M348.2,36.4H45.7c-12,0-21.7,9.7-21.7,21.7v290.9c0,12.4,10.1,22.7,22.7,22.7h0c12.4,0,22.7-10.1,22.7-22.7V103.2c0-12,9.7-21.7,21.7-21.7h210.8c11.8,0,21.5,9.7,21.7,21.5l2,200.9c0,12-9.7,21.9-21.7,21.9h-65.1c-12,0-21.7-9.7-21.7-21.7l-.4-143.9c0-12.4-10.1-22.5-22.7-22.5h0c-12.4,0-22.7,10.1-22.7,22.7l.4,189.5c0,12,9.7,21.7,21.7,21.7h155c12,0,21.7-9.7,21.7-21.7V58c0-12-9.7-21.7-21.7-21.7h-.2Z"/>
      </g>
    </g>
  </g>
</svg>