<?xml version="1.0" encoding="utf-8"?>
<svg version="1.1" id="Layer_1" x="0px" y="0px" viewBox="0 0 1000 200" style="enable-background:new 0 0 1000 200;" xmlns="http://www.w3.org/2000/svg">
  <style type="text/css">
	.st0{fill:#FFFFFF;}
	.st1{fill:#373A36;}
</style>
  <g>
    <g>
      <g>
        <path class="st1" d="M254.7064209,111.3527527h44.806488v6.3405914h-37.8320007v26.6301727h35.1902161v6.3406067h-35.1902161 v35.5063629h-6.9744873V111.3527527z"/>
        <path class="st1" d="M315.163208,148.7624207c0-5.7066956,0.9508667-10.953537,2.8525696-15.7469025 c1.9024963-4.7901764,4.544281-8.9288864,7.9261169-12.4161301c3.381073-3.4872513,7.4495239-6.2176514,12.2053833-8.1896057 c4.7550354-1.9719543,9.9859009-2.9587326,15.6925964-2.9587326c5.7059021,0,10.9367676,0.9867783,15.6934204,2.9587326 c4.7550354,1.9719543,8.8234863,4.7023544,12.2053528,8.1896057c3.3818665,3.4872437,6.0228577,7.6259537,7.9245605,12.4161301 c1.9032898,4.7933655,2.8533325,10.0402069,2.8533325,15.7469025s-0.9500427,10.9726868-2.8533325,15.7979889 c-1.9017029,4.8253021-4.5426941,8.9815826-7.9245605,12.4704285c-3.3818665,3.4872437-7.4503174,6.1984863-12.2053528,8.1369019 c-4.7566528,1.9352264-9.9875183,2.9060364-15.6934204,2.9060364c-5.7066956,0-10.937561-0.9708099-15.6925964-2.9060364 c-4.7558594-1.9384155-8.8243103-4.6496582-12.2053833-8.1369019c-3.3818359-3.4888458-6.0236206-7.6451263-7.9261169-12.4704285 C316.1140747,159.7351074,315.163208,154.4691162,315.163208,148.7624207z M322.1377258,148.7624207 c0,4.6496582,0.7392578,8.9815674,2.2186279,12.9973297s3.5934448,7.5030212,6.3406067,10.4617462 c2.7479553,2.958725,6.0763245,5.2835693,9.9859009,6.9744873c3.9104004,1.6909332,8.2958069,2.535614,13.1570129,2.535614 c4.8612366,0,9.2466431-0.8446808,13.1562195-2.535614c3.9103699-1.690918,7.239563-4.0157623,9.9875183-6.9744873 c2.7463684-2.958725,4.8604431-6.4459839,6.3389893-10.4617462c1.4801636-4.0157623,2.2194519-8.3476715,2.2194519-12.9973297 c0-4.6496735-0.7392883-8.9831848-2.2194519-12.9989471c-1.4785461-4.0157623-3.5926208-7.503006-6.3389893-10.461731 c-2.7479553-2.9587326-6.0771484-5.2835617-9.9875183-6.9744949c-3.9095764-1.6909332-8.2949829-2.5355988-13.1562195-2.5355988 c-4.8612061,0-9.2466125,0.8446655-13.1570129,2.5355988c-3.9095764,1.6909332-7.2379456,4.0157623-9.9859009,6.9744949 c-2.7471619,2.958725-4.8612366,6.4459686-6.3406067,10.461731S322.1377258,144.1127472,322.1377258,148.7624207z"/>
        <path class="st1" d="M468.2220764,157.5316315c0,4.0173645-0.4598694,7.8574829-1.3731995,11.5187683 c-0.9165039,3.6644897-2.4493713,6.905838-4.5969543,9.7240601c-2.1507874,2.8166199-4.9674377,5.0711975-8.4546814,6.7621307 s-7.766449,2.5371857-12.8392639,2.5371857c-5.0727844,0-9.3520203-0.8462524-12.8392639-2.5371857 s-6.3054504-3.9455109-8.4546509-6.7621307c-2.1492004-2.818222-3.6820374-6.0595703-4.5969543-9.7240601 c-0.9165344-3.6612854-1.3731995-7.5014038-1.3731995-11.5187683v-46.1788788h6.9744873v44.3841553 c0,2.6777039,0.2459106,5.5310516,0.7392883,8.5584412c0.4917908,3.0305939,1.462616,5.8488159,2.9060364,8.4546661 c1.4434509,2.6074524,3.4872437,4.7550507,6.1298218,6.4459686c2.6409912,1.6909332,6.145813,2.535614,10.5144348,2.535614 c4.3670654,0,7.8734741-0.8446808,10.5144348-2.535614c2.6425781-1.690918,4.6847839-3.8385162,6.1298218-6.4459686 c1.441864-2.6058502,2.4110718-5.4240723,2.9060364-8.4546661c0.4918213-3.0273895,0.7392883-5.8807373,0.7392883-8.5584412 v-44.3841553h6.9745178V157.5316315z"/>
        <path class="st1" d="M494.14328,111.3527527h8.9815979l45.5465698,65.5184021h0.2107544v-65.5184021h6.9744873v74.8177338 h-8.9831543l-45.5449829-65.5184097h-0.2123718v65.5184097H494.14328V111.3527527z"/>
        <path class="st1" d="M582.2218018,111.3527527h23.1429443c6.4811401,0,11.9754639,0.7935715,16.4846191,2.3775253 c4.5075073,1.5855484,8.2598267,3.6117859,11.2553101,6.0771332c2.9922485,2.4653397,5.3521729,5.1957397,7.079834,8.1895981 c1.7244873,2.993866,2.9938965,5.8647766,3.8034058,8.611145c0.8095703,2.7495575,1.3220825,5.2308655,1.5328979,7.4503174 c0.2107544,2.2194366,0.317749,3.7874298,0.317749,4.703949s-0.1069946,2.4829102-0.317749,4.7007599 c-0.2108154,2.2194366-0.7233276,4.703949-1.5328979,7.4503174c-0.8095093,2.7479553-2.0789185,5.6204681-3.8034058,8.6127319 c-1.7276611,2.9954529-4.0875854,5.7258453-7.079834,8.1911926c-2.9954834,2.4653473-6.7478027,4.4899902-11.2553101,6.0755463 c-4.5091553,1.5855408-10.003479,2.3775177-16.4846191,2.3775177h-23.1429443V111.3527527z M589.1962891,179.829895h14.3721313 c4.9307251,0,9.5452271-0.6147461,13.8436279-1.8490143c4.295166-1.2310791,8.0299072-3.1183929,11.2009888-5.654007 c3.1695557-2.5355988,5.6699829-5.7593842,7.5030518-9.669754c1.8314209-3.908783,2.7479248-8.5408783,2.7479248-13.8946991 s-0.9165039-9.9859161-2.7479248-13.8979034c-1.8330688-3.9087677-4.3334961-7.1309662-7.5030518-9.6681595 c-3.1710815-2.5372009-6.9058228-4.4213333-11.2009888-5.654007c-4.2984009-1.2310715-8.9129028-1.8490067-13.8436279-1.8490067 h-14.3721313V179.829895z"/>
        <path class="st1" d="M687.8228149,111.3527527h7.1868896l31.4906006,74.8177338h-7.8208008l-8.1369019-19.8664551h-39.6275024 l-8.4546509,19.8664551h-7.2906494L687.8228149,111.3527527z M691.0993042,118.9611435l-17.4362183,41.0022964h34.3439331 L691.0993042,118.9611435z"/>
        <path class="st1" d="M751.8818359,117.6933441h-25.5731812v-6.3405914h58.1207886v6.3405914h-25.5731201v68.4771423h-6.9744873 V117.6933441z"/>
        <path class="st1" d="M802.6273193,111.3527527h6.9744873v74.8177338h-6.9744873V111.3527527z"/>
        <path class="st1" d="M832.0022583,148.7624207c0-5.7066956,0.9516602-10.953537,2.8533325-15.7469025 c1.9017334-4.7901764,4.5443115-8.9288864,7.9261475-12.4161301c3.381897-3.4872513,7.4503174-6.2176514,12.2053833-8.1896057 s9.9859009-2.9587326,15.692627-2.9587326c5.706665,0,10.937561,0.9867783,15.692627,2.9587326 c4.7550049,1.9719543,8.8234863,4.7023544,12.2053223,8.1896057c3.381897,3.4872437,6.0228882,7.6259537,7.9261475,12.4161301 c1.9017334,4.7933655,2.8533325,10.0402069,2.8533325,15.7469025s-0.9515991,10.9726868-2.8533325,15.7979889 c-1.9032593,4.8253021-4.5442505,8.9815826-7.9261475,12.4704285c-3.3818359,3.4872437-7.4503174,6.1984863-12.2053223,8.1369019 c-4.7550659,1.9352264-9.9859619,2.9060364-15.692627,2.9060364c-5.7067261,0-10.937561-0.9708099-15.692627-2.9060364 c-4.7550659-1.9384155-8.8234863-4.6496582-12.2053833-8.1369019c-3.3818359-3.4888458-6.0244141-7.6451263-7.9261475-12.4704285 C832.9539185,159.7351074,832.0022583,154.4691162,832.0022583,148.7624207z M838.9767456,148.7624207 c0,4.6496582,0.7409058,8.9815674,2.2194824,12.9973297c1.4801636,4.0157623,3.5925903,7.5030212,6.3405762,10.4617462 s6.0771484,5.2835693,9.9859009,6.9744873c3.9104004,1.6909332,8.2966309,2.535614,13.1570435,2.535614 s9.2466431-0.8446808,13.1569824-2.535614c3.9088135-1.690918,7.2379761-4.0157623,9.9859619-6.9744873 c2.7463379-2.958725,4.8604126-6.4459839,6.3405762-10.4617462c1.4785767-4.0157623,2.2194214-8.3476715,2.2194214-12.9973297 c0-4.6496735-0.7408447-8.9831848-2.2194214-12.9989471c-1.4801636-4.0157623-3.5942383-7.503006-6.3405762-10.461731 c-2.7479858-2.9587326-6.0771484-5.2835617-9.9859619-6.9744949c-3.9103394-1.6909332-8.2965698-2.5355988-13.1569824-2.5355988 s-9.2466431,0.8446655-13.1570435,2.5355988c-3.9087524,1.6909332-7.237915,4.0157623-9.9859009,6.9744949 c-2.7479858,2.958725-4.8604126,6.4459686-6.3405762,10.461731 C839.7176514,139.7792358,838.9767456,144.1127472,838.9767456,148.7624207z"/>
        <path class="st1" d="M931.6538696,111.3527527h8.9815674l45.5465698,65.5184021h0.2107544v-65.5184021h6.9745483v74.8177338 h-8.9832153l-45.5449829-65.5184097h-0.2107544v65.5184097h-6.9744873V111.3527527z"/>
      </g>
    </g>
    <g>
      <path class="st1" d="M 4.972 107.369 C 4.913 107.285 4.868 107.195 4.838 107.1 C 4.819 107.04 4.805 106.978 4.798 106.914 C 4.792 106.861 4.79 106.808 4.793 106.755 C 4.797 106.654 4.818 106.553 4.855 106.456 C 4.865 106.428 4.877 106.4 4.89 106.374 L 44.818 19.512 C 43.207 18.419 42.145 16.572 42.145 14.481 C 42.145 11.135 44.867 8.411 48.211 8.411 C 51.028 8.411 53.403 10.344 54.081 12.954 L 149.089 4.165 C 149.118 4.161 149.147 4.158 149.177 4.156 C 149.481 4.121 149.776 4.257 149.976 4.489 C 150.007 4.524 150.035 4.561 150.06 4.599 L 205.256 82.764 C 206.038 82.396 206.911 82.19 207.831 82.19 C 211.175 82.19 213.897 84.913 213.897 88.261 C 213.897 91.606 211.175 94.33 207.831 94.33 C 207.252 94.33 206.692 94.248 206.162 94.096 L 166.287 180.846 C 166.206 181.023 166.075 181.168 165.916 181.268 C 165.875 181.293 165.833 181.315 165.789 181.334 C 165.694 181.376 165.592 181.403 165.486 181.413 L 71.141 190.137 C 70.955 193.319 68.31 195.849 65.086 195.849 C 61.742 195.849 59.021 193.126 59.021 189.778 C 59.021 188.304 59.548 186.951 60.424 185.898 Z M 53.274 134.627 L 9.083 109.786 L 61.914 184.604 C 62.191 184.433 62.483 184.284 62.787 184.159 Z M 47.768 69.627 L 7.435 106.61 L 52.791 132.114 L 49.123 113.013 C 48.825 113.058 48.521 113.081 48.211 113.081 C 44.867 113.081 42.145 110.358 42.145 107.013 C 42.145 103.805 44.644 101.17 47.794 100.955 Z M 142.207 144.24 C 141.816 143.438 141.597 142.538 141.597 141.587 C 141.597 140.976 141.688 140.386 141.856 139.83 L 115.971 130.831 L 90.277 152.892 L 113.22 160.987 Z M 147.662 135.515 C 149.293 135.515 150.776 136.163 151.868 137.216 L 165.626 124.983 L 166.447 87.49 L 141.686 108.751 L 146.773 135.58 C 147.063 135.537 147.36 135.515 147.662 135.515 Z M 202.922 91.822 C 202.295 90.959 201.889 89.924 201.789 88.803 L 168.407 86.364 L 167.612 123.218 Z M 202.497 85.371 L 162.893 60.735 L 168.273 84.387 L 201.931 86.846 C 202.056 86.325 202.248 85.83 202.497 85.371 Z M 132.652 41.923 C 131.822 42.905 130.686 43.621 129.392 43.921 L 134.83 72.598 L 166.155 83.798 L 160.571 59.29 Z M 128.021 44.078 C 126.278 44.078 124.704 43.338 123.597 42.156 L 101.975 60.851 L 134.294 72.406 L 128.91 44.013 C 128.62 44.056 128.323 44.078 128.021 44.078 Z M 121.955 38.007 C 121.955 37.566 122.002 37.136 122.092 36.722 L 103.657 31.3 L 70.412 49.566 L 101.445 60.661 L 123.276 41.785 C 122.45 40.748 121.955 39.434 121.955 38.007 Z M 73.858 84.513 L 67.396 51.629 L 48.743 68.733 L 48.768 100.966 C 50.287 101.105 51.647 101.808 52.635 102.863 Z M 86.986 153.578 L 54.388 135.253 L 63.729 183.859 C 64.165 183.759 64.619 183.706 65.086 183.706 C 65.934 183.706 66.742 183.881 67.476 184.197 Z M 204.387 93.254 C 204.092 93.05 203.815 92.819 203.561 92.567 L 167.583 124.547 L 166.478 175.73 Z M 152.511 137.944 C 153.275 138.959 153.728 140.221 153.728 141.587 C 153.728 144.935 151.006 147.658 147.662 147.658 C 145.614 147.658 143.8 146.637 142.702 145.077 L 114.431 161.414 L 164.443 179.06 L 165.597 126.312 Z M 160.843 179.87 L 112.205 162.7 L 70.402 186.856 C 70.631 187.272 70.813 187.717 70.94 188.184 Z M 122.371 35.797 C 123.256 33.54 125.455 31.937 128.021 31.937 C 131.365 31.937 134.086 34.66 134.086 38.007 C 134.086 39.145 133.771 40.212 133.225 41.123 L 160.264 57.944 L 148.57 6.623 L 104.855 30.642 Z M 203.033 84.551 C 203.218 84.312 203.421 84.086 203.639 83.877 L 151.295 9.752 L 162.587 59.389 Z M 88.773 154.428 L 69.131 185.257 C 69.396 185.495 69.641 185.756 69.861 186.037 L 110.995 162.273 Z M 66.791 49.558 L 50.29 20.186 C 49.789 20.369 49.258 20.488 48.707 20.533 L 48.741 66.098 Z M 51.999 19.219 L 68.422 48.45 L 101.024 30.525 L 53.873 16.657 C 53.483 17.669 52.831 18.552 51.999 19.219 Z M 86.991 151.345 L 80.539 118.513 L 53.855 109.236 C 53.191 110.916 51.799 112.231 50.07 112.789 L 53.905 132.74 Z M 80.43 117.953 L 73.967 85.067 L 52.955 103.234 C 53.782 104.272 54.276 105.586 54.276 107.013 C 54.276 107.624 54.185 108.213 54.017 108.77 Z M 141.255 109.121 L 116.402 130.46 L 142.017 139.366 C 142.741 137.528 144.336 136.126 146.29 135.672 Z M 69.324 51.261 L 75.568 83.035 L 99.739 62.136 Z M 89.003 151.401 L 113.828 130.085 L 82.687 119.259 Z M 165.556 85.669 L 135.254 74.835 L 141.264 106.527 Z M 82.577 118.7 L 114.259 129.715 L 140.833 106.897 L 134.718 74.643 L 100.269 62.326 L 75.677 83.588 Z M 47.765 66.992 L 47.725 20.534 C 47.339 20.503 46.963 20.436 46.601 20.336 L 8.699 102.79 Z M 144.634 6.549 L 54.261 14.907 C 54.242 15.183 54.204 15.454 54.149 15.718 L 102.222 29.867 Z"/>
    </g>
    <g>
      <path class="st1" d="M253.6988983,20.2771664h16.4853668v27.8979778h32.0191345V20.2771664h16.4853821V95.094902h-16.4853821 V62.7596283h-32.0191345V95.094902h-16.4853668V20.2771664z"/>
      <path class="st1" d="M350.1793823,63.1811638l-28.1095276-42.9039993h20.5003357l15.8515015,28.0033588l16.8023376-28.0033588 h19.550293l-28.1103516,42.9039993V95.094902h-16.4845886V63.1811638z"/>
      <path class="st1" d="M398.1545715,20.2771664h27.7926025c3.8736572,0,7.5365295,0.3544731,10.9902649,1.0570316 c3.450531,0.7057533,6.4619446,1.9192638,9.0342712,3.6453228c2.5707092,1.7276573,4.6129456,4.0524883,6.1298218,6.9744949 c1.5137024,2.9236012,2.2721252,6.6056499,2.2721252,11.0445461c0,4.3686371-0.7057495,8.0299263-2.1140442,10.9886589 c-1.4099121,2.9603271-3.3467407,5.3202858-5.8120728,7.0798759c-2.4669495,1.7627869-5.3889465,3.011425-8.770813,3.7523079 c-3.3818665,0.7392807-7.0463562,1.1097183-10.9902649,1.1097183h-12.0473022V95.094902h-16.4845886V20.2771664z M414.6391602,51.9785423h10.9902649c1.4801636,0,2.9060364-0.138916,4.2808228-0.4215355 c1.3731689-0.2810249,2.604248-0.7568474,3.6980286-1.427475c1.0905457-0.6674309,1.9719543-1.58395,2.6409607-2.7463646 c0.6690369-1.1624146,1.0043335-2.6250153,1.0043335-4.3846054c0-1.9032974-0.4406738-3.4361534-1.3204651-4.598568 c-0.8814087-1.1624146-2.0086975-2.0597763-3.3818665-2.6952705c-1.3731995-0.6323051-2.9060364-1.0378723-4.5969849-1.2135124 c-1.690918-0.1756401-3.311615-0.2650566-4.8604126-0.2650566h-8.4546814V51.9785423z"/>
      <path class="st1" d="M463.2482605,20.2771664h50.8301697v15.2167873H479.734436v13.9489899h32.4406738V64.659729H479.734436 v15.2183838h36.2456665V95.094902h-52.731842V20.2771664z"/>
      <path class="st1" d="M527.0741577,20.2771664h28.9550171c3.8049927,0,7.4135742,0.3704414,10.8321533,1.109724 c3.4154053,0.7392845,6.4092407,1.9735527,8.9815674,3.6996117c2.5707397,1.726059,4.6129761,4.05089,6.1298218,6.9744949 c1.5137329,2.9236031,2.2721558,6.568924,2.2721558,10.9375648c0,5.2819633-1.3747559,9.7735519-4.1227417,13.4731636 c-2.7463379,3.6980133-6.762146,6.0404091-12.0457153,7.025589l19.0202026,31.5975876h-19.7610474l-15.6383057-29.9050598 h-8.1369629V95.094902h-16.486145V20.2771664z M543.5603027,51.2408524h9.7208862 c1.4801636,0,3.0465698-0.054287,4.7023315-0.1596718c1.6558228-0.1053848,3.1519775-0.4215355,4.4916382-0.9516487 c1.3380127-0.5269165,2.4477539-1.3540192,3.3291626-2.481308c0.8797607-1.1272888,1.3204956-2.7112389,1.3204956-4.7566452 c0-1.9016991-0.3880005-3.4153938-1.1624146-4.5426788c-0.776062-1.1272888-1.7612305-1.9911194-2.9587402-2.5898895 c-1.1991577-0.5971756-2.5723267-1.0043411-4.1211548-1.2167053c-1.550415-0.2107658-3.0641479-0.3161507-4.5443115-0.3161507 h-10.7778931V51.2408524z"/>
      <path class="st1" d="M594.0726929,20.2771664h16.4862061v59.6009445h30.5389404V95.094902h-47.0251465V20.2771664z"/>
      <path class="st1" d="M648.7046509,20.2771664H699.53479v15.2167873h-34.3439331v13.9489899h32.4406128V64.659729h-32.4406128 v15.2183838h36.2456055V95.094902h-52.7318115V20.2771664z"/>
      <path class="st1" d="M712.5305176,20.2771664h24.7285156c5.986084,0,11.6768188,0.6706257,17.0657959,2.0086803 c5.388916,1.3380547,10.0913086,3.5048103,14.1070557,6.4986706c4.0157471,2.9954548,7.2028198,6.8866749,9.5643921,11.6768475 c2.3599243,4.7917709,3.539917,10.6038513,3.539917,17.4362335c0,6.0595703-1.1464233,11.3958282-3.4345703,16.0103607 c-2.2896729,4.6145325-5.3729858,8.4897842-9.2466431,11.6241531c-3.8752441,3.1359711-8.3476562,5.5118942-13.4204712,7.132576 c-5.0727539,1.6206741-10.3930664,2.4302139-15.9560547,2.4302139h-26.947937V20.2771664z M729.0167236,79.8781128h8.5584106 c3.8050537,0,7.3449707-0.3864059,10.62146-1.1624146c3.2748413-0.7744141,6.1106567-2.0613708,8.5057373-3.8576889 s4.2808228-4.1562729,5.6539917-7.0798798c1.3731689-2.9235992,2.0598145-6.4986687,2.0598145-10.7251968 c0-3.6628876-0.6866455-6.8515472-2.0598145-9.5643806c-1.3731689-2.7112389-3.2237549-4.9482498-5.548584-6.7094383 s-5.0552368-3.0816803-8.1896362-3.9630699c-3.1343384-0.8813934-6.4284058-1.3220901-9.8805542-1.3220901h-9.7208252V79.8781128z "/>
      <path class="st1" d="M858.3610229,89.8113403c-4.8620605,2.5355988-9.9332275,4.3686371-15.2167969,5.4959259 c-5.2851562,1.1240921-10.6741333,1.6893311-16.168457,1.6893311c-5.8488159,0-11.2377319-0.9165192-16.168396-2.7463608 c-4.932312-1.833046-9.1939697-4.4548645-12.7866211-7.8734512c-3.5925903-3.4153976-6.3932495-7.5557022-8.4019165-12.4177322 c-2.0070801-4.8604279-3.0114746-10.2845039-3.0114746-16.273819c0-5.9861183,1.0043945-11.4117928,3.0114746-16.273819 c2.008667-4.8604279,4.8093262-8.9991417,8.4019165-12.4161301c3.5926514-3.4169922,7.8543091-6.0388145,12.7866211-7.8718548 c4.9306641-1.8314419,10.3195801-2.747963,16.168396-2.747963c5.986145,0,11.4996338,0.7233162,16.5372925,2.1667557 c5.0360718,1.4434395,9.4573975,3.9279423,13.2623901,7.4503174l-11.6241455,12.6811886 c-2.2561646-2.3248291-4.791748-4.0860176-7.6083984-5.2851601c-2.8182373-1.1975403-6.3405762-1.7963142-10.5671387-1.7963142 c-3.5239868,0-6.7109985,0.598774-9.5643921,1.7963142c-2.8533325,1.1991425-5.3010864,2.8709145-7.3433228,5.0201035 c-2.0454102,2.1491928-3.6117554,4.7023544-4.7039185,7.661087c-1.0921631,2.9587288-1.6366577,6.1665497-1.6366577,9.6154747 c0,3.5255699,0.5444946,6.747757,1.6366577,9.6697693c1.0921631,2.9251938,2.6585083,5.4607925,4.7039185,7.6099854 c2.0422363,2.1491928,4.4899902,3.8225632,7.3433228,5.0185089c2.8533936,1.1991425,6.0404053,1.7963181,9.5643921,1.7963181 c3.5926514,0,6.6918945-0.405571,9.2993164-1.2151108c2.605896-0.8095398,4.6832275-1.638237,6.2336426-2.4829102V65.9291229 h-13.4204712v-15.21838h29.2727661V89.8113403z"/>
      <path class="st1" d="M871.3583374,20.2771664h50.8301392v15.2167873h-34.3439331v13.9489899h32.4406738V64.659729h-32.4406738 v15.2183838H924.09021V95.094902h-52.7318726V20.2771664z"/>
      <path class="st1" d="M935.1858521,20.2771664h28.9549561c3.8049927,0,7.4136353,0.3704414,10.8322144,1.109724 c3.4154053,0.7392845,6.4092407,1.9735527,8.9815674,3.6996117c2.5707397,1.726059,4.612915,4.05089,6.1298218,6.9744949 c1.5136719,2.9236031,2.2721558,6.568924,2.2721558,10.9375648c0,5.2819633-1.3748169,9.7735519-4.1227417,13.4731636 c-2.7463989,3.6980133-6.762146,6.0404091-12.0457153,7.025589L995.208313,95.094902h-19.7610474l-15.6383667-29.9050598 h-8.1369019V95.094902h-16.486145V20.2771664z M951.6719971,51.2408524h9.7208862 c1.4801636,0,3.0465088-0.054287,4.7023315-0.1596718s3.1519165-0.4215355,4.4915771-0.9516487 c1.3380737-0.5269165,2.4478149-1.3540192,3.3291626-2.481308c0.8798218-1.1272888,1.3204956-2.7112389,1.3204956-4.7566452 c0-1.9016991-0.3880005-3.4153938-1.1624146-4.5426788c-0.776001-1.1272888-1.7611694-1.9911194-2.9587402-2.5898895 c-1.1990967-0.5971756-2.5722656-1.0043411-4.1210938-1.2167053c-1.550415-0.2107658-3.0641479-0.3161507-4.5443115-0.3161507 h-10.7778931V51.2408524z"/>
    </g>
  </g>
</svg>