<?xml version="1.0" encoding="utf-8"?>
<svg xmlns="http://www.w3.org/2000/svg" version="1.1" viewBox="0 0 1000 1000" xmlns:bx="https://boxy-svg.com">
  <defs>
    <style>
      .cls-1 {
        fill: #003778;
      }

      .cls-2 {
        fill: #2ec3a8;
      }

      .cls-3 {
        fill: #0094ff;
      }

      .cls-4 {
        fill: #fcfdfd;
      }
    </style>
    <bx:export>
      <bx:file format="png"/>
    </bx:export>
  </defs>
  <g>
    <g id="Layer_1">
      <g>
        <path class="cls-2" d="M422.3,968.4c-29.2-13-47.9-32.9-43.5-66.5-4.2-6-9.9-5.6-14.6-7.2-20.1-7.2-30.6-21.4-30.8-42.6-.4-28-.4-56,0-84,.1-9.2-1.8-15.2-10.7-20.4-17.1-10-25.2-26.3-22.5-46.2,2.9-20.8,15.6-34.1,35.8-39.1,10.6-2.6,17.2-5.9,10.7-18.8-12.2.3-23.1,6.5-34.4,10.4-59.1,20.3-119.1,36.5-182.2,35.8-21.5-.2-42.6-3.7-62.3-13.2-33.2-16-50.3-48.6-44.7-85.1,3.9-25.4,12.8-49.1,25.7-71.1,5.2-8.9,6.9-15.6,1-26.2-13.8-25-11.4-50.5,6.9-72.9,17.6-21.6,41-29.8,67.8-22.7,11.2,3,17.8.9,25.2-7.1,10-11,21.2-20.9,33-32.2-23.5-25-46.5-48.4-68.3-72.9-31.7-35.6-59.9-73.6-78.7-117.9-6.1-14.5-10.4-29.5-12.8-44.9-7.8-51.8,29.2-91.1,90.6-96.2,59.2-4.9,116.8,5.9,171.7,26.4,34.9,13,62.9,11.6,97.7-4.6,83.4-38.8,167.8-31,248.1,14.1,10.1,5.6,18.1,6.3,28.8,2.6,61.3-21.5,123.2-40.4,189.3-39.7,96.9,1.1,134.4,58.4,95.3,147.2-25.9,58.8-67.8,105.9-111.9,151.3-10.4,10.7-20.7,21.6-31.2,32.6,15.3,14.7,31,29.9,48.4,46.7,12.1-3.9,26.8-9.9,43.7-6.6,46.7,9,71.3,60.5,45.8,100.5-7.6,11.9-7.5,19.8-1.1,31.3,6.9,12.4,12.1,26,16.1,39.7,19,64.2-11,109.5-77.2,118.4-64.2,8.6-124.8-8.1-185.2-25.9-18.5-5.5-36.7-12.2-54.4-18.2-6.9,4.3-3.5,9.9-5.4,15.2,7.6,2.3,14.4,3.8,20.8,6.4,17.1,6.9,27.1,20,29.5,38.2,2.3,18.4-4.5,34.2-20,43.6-10.7,6.5-13.4,13.9-13,25.4.7,21.5.2,43,.2,64.5,0,41.2-5.2,48.7-44.9,64,3.5,34.9-14.6,56.3-46.1,68.5h-136.3ZM615.5,606.2c12.3-52,39.8-93.6,72.9-133,91.6-109.1,77.2-269.4-30.2-362.5-12.2-10.5-22-11.7-36.3-5.6-132.7,56.5-254.6,130.9-366.7,221.7-19,15.4-21,24.3-12.4,46.8,3.5,9.3,11.6,13.7,18.5,19.4,78.7,64.3,163.9,118.6,253.3,166.4,32.4,17.4,65.4,33.7,101,46.8ZM767.3,362.4c-12.1,60.4-41.2,106.5-78.5,148.3-23.3,26.1-37.5,57.5-47.5,90.9-3.2,10.5-1.1,16.1,10.3,20.3,30.5,11.1,61.1,21.7,92.6,29.2,48.1,11.4,96.6,20.3,146,8.4,32.8-7.9,49.8-32.5,45.3-64.7-2.9-20.8-10.9-40-20.2-58.7-3.6-7.3-7.9-10.7-16.8-8.3-28,7.6-51.6-1.3-69.1-23.7-17.6-22.6-19.2-47.6-5.8-73.2,2.4-4.6,5.9-8.9,1-14-17.5-18-34.9-36.2-57.5-54.5ZM344.5,616.8c-9.9-46.1-29.5-84.3-59.6-117.1-24.5-26.6-43.7-56.7-55.9-90.7-5.4-15.1-14.4-25.4-27.3-34.2-15.2,12.6-29.6,25.5-42.5,42.1,20.2,27.7,25.4,57.2,3.4,86.1-22.9,30-53.6,33-86.8,19.8-13.1,19-21.6,38.7-26.5,59.7-9.9,42.1,6.3,68.1,48.2,78.3,8.7,2.1,17.9,3.2,26.9,3.6,77,3.5,147.9-21.2,220.2-47.6ZM315.8,87.8c-25.5-7.9-46.8-15.5-68.6-21-46.6-11.8-93.4-22.7-142-14.1-49.9,8.8-67.9,38.3-53.7,87.5,8.2,28.5,22.8,53.8,39.7,77.8,31.9,45.3,68.9,85.8,113.9,122.2,4.8-46.2,6-92.5,24.2-135.5,18.9-44.5,46.3-82.6,86.4-116.9ZM671.3,86.8c1,3,1.1,4.6,1.9,5.3,69.3,61.7,102.1,139.1,99.1,231.9-.2,7,.3,13.1,10.8,15.5,55.5-54.1,111.3-109.1,142.6-183.6,4.2-10.1,7.2-20.9,9.3-31.7,6.3-33.5-8.4-57.1-41-67.1-21.3-6.5-43.2-8.8-65.3-6.8-53.8,4.7-105.9,17.1-157.4,36.4ZM236.5,311.6c58.6-48.2,118.4-90.3,181.1-128.4,62.5-38,127.5-71.2,195.4-99.9-49.7-37.5-156.5-51-243-3.6-85,46.5-145,148.9-133.5,231.9ZM357.8,756.9c0,33.2-.4,65.6.2,97.9.2,10.1,6.4,16.8,17.7,16.8,77.1,0,154.1,0,231.2,0,10.8,0,17.6-6.1,17.8-16.6.6-32.3.2-64.7.2-98h-267.2ZM264.1,430.9c53.6,68.4,110.8,134.4,109.5,227.9h233.9c3.7-26.8,3.8-27-12.1-33.9-107.5-46.7-207.4-106.5-301.6-176.2-9.1-6.7-17-15.4-29.8-17.7ZM491.4,730.9c45.4,0,90.7,0,136.1,0,20.7,0,32.7-8.7,31.2-23.4-1.8-18-14.3-22.9-30.4-22.9-91.4.1-182.8,0-274.1.1-15.4,0-29.1,3.4-29.8,22.8-.6,15.6,9.6,23.2,31,23.3,45.4.1,90.7,0,136.1,0ZM578.5,898.6h-174.8c-2.7,32.4,7.1,43.3,37.5,43.3,33.7,0,67.4,0,101.2,0,29.2,0,38.6-10.7,36.2-43.3ZM925.3,462.8c-.1-24.5-19-42.9-43.7-42.5-23.4.4-42.5,19.2-42.6,41.9,0,23.7,19.7,43.9,43,43.9,24.2,0,43.4-19.2,43.2-43.3ZM66.6,461.5c-.4,25,17.3,44.1,41.4,44.6,23.5.5,44.2-19.4,44.2-42.5,0-24.4-18.8-43.2-43.1-43.3-24,0-42.1,17.5-42.5,41.2Z" style=""/>
      </g>
      <g>
        <polygon class="cls-3" points="435.9 411.7 435.9 334.7 396.6 334.7 396.6 450.5 513.5 450.5 513.5 411.7 435.9 411.7"/>
        <polygon class="cls-1" points="590.1 257.1 396.6 257.1 396.6 315.3 435.4 315.3 435.4 295.9 551.3 295.9 551.3 411.7 531.9 411.7 531.9 450.5 590.1 450.5 590.1 257.1"/>
      </g>
    </g>
  </g>
</svg>