<?xml version="1.0" encoding="UTF-8" standalone="no"?>
<svg
   xmlns:dc="http://purl.org/dc/elements/1.1/"
   xmlns:cc="http://creativecommons.org/ns#"
   xmlns:rdf="http://www.w3.org/1999/02/22-rdf-syntax-ns#"
   xmlns:svg="http://www.w3.org/2000/svg"
   xmlns="http://www.w3.org/2000/svg"
   viewBox="0 0 407.62668 128.65334"
   height="128.65334"
   width="407.62668"
   xml:space="preserve"
   id="svg2"
   version="1.1"><metadata
     id="metadata8"><rdf:RDF><cc:Work
         rdf:about=""><dc:format>image/svg+xml</dc:format><dc:type
           rdf:resource="http://purl.org/dc/dcmitype/StillImage" /></cc:Work></rdf:RDF></metadata><defs
     id="defs6" /><g
     transform="matrix(1.3333333,0,0,-1.3333333,0,128.65333)"
     id="g10"><g
       transform="scale(0.1)"
       id="g12"><path
         id="path14"
         style="fill:#231f20;fill-opacity:1;fill-rule:nonzero;stroke:none"
         d="m 984.988,744.281 87.022,0.465 0.46,-87.793 44.78,0.215 -1.06,203.156 -44.79,-0.226 0.41,-75.762 -87.025,-0.441 -0.41,75.734 -44.785,-0.238 1.062,-203.149 44.797,0.242 -0.461,87.797" /><path
         id="path16"
         style="fill:#231f20;fill-opacity:1;fill-rule:nonzero;stroke:none"
         d="m 1225.77,656.383 44.79,0.238 -0.45,86.649 75.76,116.886 -53.13,-0.254 -45.25,-76.277 -43.48,75.809 -55.71,-0.293 77.02,-116.098 0.45,-86.66" /><path
         id="path18"
         style="fill:#231f20;fill-opacity:1;fill-rule:nonzero;stroke:none"
         d="m 1445.19,822.125 c 4.21,0.039 8.62,-0.184 13.22,-0.629 4.6,-0.449 8.8,-1.551 12.51,-3.223 3.75,-1.71 6.81,-4.132 9.24,-7.281 2.4,-3.144 3.6,-7.312 3.64,-12.465 0.02,-4.785 -0.85,-8.754 -2.66,-11.914 -1.81,-3.164 -4.17,-5.656 -7.13,-7.5 -2.98,-1.828 -6.31,-3.164 -10.03,-3.925 -3.75,-0.793 -7.6,-1.204 -11.64,-1.211 l -29.85,-0.153 -0.26,48.196 z m -22.11,-165.383 -0.41,79.203 32.75,0.164 c 10.72,0.063 20.65,1.118 29.85,3.188 9.18,2.047 17.08,5.469 23.78,10.289 6.67,4.84 11.91,11.266 15.69,19.301 3.78,8.082 5.65,18.023 5.6,29.898 -0.08,12.039 -2.19,22.039 -6.36,29.957 -4.15,7.906 -9.73,14.172 -16.73,18.852 -7.04,4.633 -15.24,7.886 -24.62,9.746 -9.38,1.887 -19.36,2.777 -29.88,2.715 l -75.53,-0.387 1.08,-203.148 44.78,0.222" /><path
         id="path20"
         style="fill:#231f20;fill-opacity:1;fill-rule:nonzero;stroke:none"
         d="m 1705.74,657.074 -0.21,41.301 -98.51,-0.496 -0.21,41.32 88.17,0.469 -0.23,41.324 -88.15,-0.469 -0.2,37.864 93.33,0.496 -0.23,41.324 -138.11,-0.723 1.06,-203.148 143.29,0.738" /><path
         id="path22"
         style="fill:#231f20;fill-opacity:1;fill-rule:nonzero;stroke:none"
         d="m 1782.02,775.836 -0.24,46.176 29.29,0.148 c 4.03,0.039 8.13,-0.226 12.34,-0.777 4.21,-0.563 7.97,-1.617 11.23,-3.246 3.26,-1.617 5.95,-3.942 8.05,-6.992 2.12,-3.04 3.21,-7.157 3.25,-12.325 0.01,-5.547 -1.17,-9.843 -3.52,-12.922 -2.39,-3.07 -5.39,-5.339 -9.02,-6.789 -3.63,-1.472 -7.69,-2.328 -12.18,-2.644 -4.49,-0.313 -8.77,-0.481 -12.78,-0.496 z m 65.22,-118.762 53.7,0.281 -52.15,85.536 c 14.36,2.754 25.25,9.152 32.63,19.246 7.42,10.101 11.1,22.312 11.03,36.668 -0.07,11.832 -2.18,21.722 -6.35,29.648 -4.15,7.91 -9.73,14.199 -16.73,18.86 -7.04,4.632 -15.18,7.949 -24.48,9.902 -9.27,1.965 -19.1,2.918 -29.42,2.859 l -78.68,-0.426 1.03,-203.148 44.81,0.242 -0.43,81.207 22.13,0.117 42.91,-80.992" /><path
         id="path24"
         style="fill:#231f20;fill-opacity:1;fill-rule:nonzero;stroke:none"
         d="m 2059.77,657.375 -0.23,41.32 -83,-0.433 -0.86,161.832 -44.77,-0.227 1.05,-203.148 127.81,0.656" /><path
         id="path26"
         style="fill:#231f20;fill-opacity:1;fill-rule:nonzero;stroke:none"
         d="m 2235.17,657.207 -0.2,41.305 -98.51,-0.504 -0.22,41.324 88.17,0.469 -0.22,41.301 -88.15,-0.442 -0.21,37.863 93.32,0.497 -0.22,41.324 -138.11,-0.723 1.06,-203.148 143.29,0.734" /><path
         id="path28"
         style="fill:#231f20;fill-opacity:1;fill-rule:nonzero;stroke:none"
         d="m 2335.15,698.199 -23.27,-0.133 -0.63,120.528 26.41,0.148 c 9.39,0.039 18.35,-1.097 26.89,-3.465 8.5,-2.328 15.96,-5.871 22.29,-10.629 6.34,-4.757 11.41,-10.789 15.17,-18.144 3.77,-7.352 5.69,-16.004 5.75,-25.945 0.05,-11.485 -1.77,-21.207 -5.46,-29.153 -3.69,-7.961 -8.79,-14.41 -15.26,-19.301 -6.47,-4.917 -14.16,-8.433 -23.07,-10.609 -8.86,-2.144 -18.49,-3.238 -28.82,-3.297 z m 85.08,-14.89 c 10.47,8.543 18.8,19.121 24.94,31.683 6.17,12.543 9.19,27.067 9.11,43.52 -0.08,18.554 -3.37,34.301 -9.85,47.297 -6.5,12.996 -15.21,23.488 -26.17,31.566 -10.95,8.063 -23.78,13.906 -38.43,17.461 -14.66,3.539 -30.14,5.281 -46.41,5.191 l -67.19,-0.351 1.08,-203.149 73.23,0.387 c 15.1,0.074 29.55,2.344 43.33,6.832 13.75,4.469 25.87,10.981 36.36,19.563" /><path
         id="path30"
         style="fill:#231f20;fill-opacity:1;fill-rule:nonzero;stroke:none"
         d="m 2600.68,777.254 0.21,-41.324 36.46,0.183 0.19,-33.008 c -4.21,-2.324 -9.85,-4.593 -16.9,-6.828 -7.08,-2.234 -15.49,-3.367 -25.26,-3.425 -9.56,-0.039 -18.25,1.523 -26.03,4.734 -7.75,3.223 -14.44,7.723 -20.03,13.543 -5.57,5.793 -9.86,12.66 -12.88,20.59 -3,7.91 -4.52,16.64 -4.58,26.226 -0.05,9.368 1.39,18.078 4.3,26.114 2.95,8.062 7.16,15.023 12.67,20.91 5.54,5.855 12.16,10.402 19.9,13.715 7.74,3.289 16.4,4.972 25.97,5.007 11.48,0.075 21.06,-1.507 28.73,-4.711 7.67,-3.21 14.6,-7.968 20.76,-14.253 l 31.39,34.601 c -10.38,9.516 -22.45,16.192 -36.14,20.047 -13.7,3.855 -28.7,5.73 -44.97,5.637 -15.9,-0.071 -30.54,-2.637 -43.87,-7.707 -13.4,-5.024 -24.95,-12.207 -34.64,-21.532 -9.74,-9.347 -17.27,-20.628 -22.68,-33.843 -5.38,-13.235 -8.04,-27.965 -7.95,-44.223 0.1,-16.269 2.89,-30.977 8.42,-44.172 5.53,-13.164 13.19,-24.363 23.03,-33.582 9.81,-9.234 21.41,-16.285 34.84,-21.203 13.42,-4.891 28.09,-7.289 43.98,-7.223 14.94,0.082 29.56,1.676 43.91,4.828 14.34,3.129 28.1,8.18 41.27,15.149 l -0.56,106.18 -79.54,-0.43" /><path
         id="path32"
         style="fill:#231f20;fill-opacity:1;fill-rule:nonzero;stroke:none"
         d="m 2856.18,661.906 -0.22,41.305 -98.49,-0.523 -0.23,41.335 88.18,0.469 -0.22,41.305 -88.17,-0.449 -0.2,37.863 93.31,0.5 -0.2,41.305 -138.12,-0.723 1.08,-203.148 143.28,0.761" /><path
         id="path34"
         style="fill:#231f20;fill-opacity:1;fill-rule:nonzero;stroke:none"
         d="m 2961.49,826.961 c 4.05,0.019 8.14,-0.227 12.37,-0.805 4.18,-0.539 7.95,-1.613 11.2,-3.242 3.28,-1.617 5.97,-3.941 8.09,-6.996 2.1,-3.031 3.19,-7.148 3.23,-12.324 0.01,-5.547 -1.17,-9.844 -3.54,-12.914 -2.38,-3.071 -5.39,-5.348 -9,-6.778 -3.64,-1.484 -7.7,-2.343 -12.18,-2.66 -4.5,-0.293 -8.77,-0.484 -12.77,-0.484 l -26.43,-0.145 -0.24,46.176 z m -28.43,-165.441 -0.42,81.207 22.1,0.117 42.93,-80.973 53.71,0.277 -52.14,85.52 c 14.35,2.77 25.24,9.176 32.65,19.242 7.39,10.11 11.07,22.317 11,36.668 -0.07,11.836 -2.18,21.742 -6.33,29.656 -4.17,7.93 -9.73,14.211 -16.75,18.852 -7.03,4.641 -15.17,7.949 -24.46,9.902 -9.31,1.992 -19.12,2.922 -29.44,2.867 l -78.68,-0.41 1.06,-203.144 44.77,0.219" /><path
         id="path36"
         style="fill:#3da4a1;fill-opacity:1;fill-rule:nonzero;stroke:none"
         d="m 1120.54,137.527 c 47.95,0 76.23,27.047 76.23,70.696 0,37.507 -25.82,70.703 -76.23,70.703 H 995.125 V 137.527 Z m -2.47,186.895 c 46.12,0 70.71,28.273 70.71,65.777 0,36.887 -24.59,66.395 -70.71,66.395 H 995.125 V 324.422 Z M 944.102,502.086 h 182.588 c 71.31,0 114.96,-43.031 114.96,-104.512 0,-51.64 -34.42,-86.062 -71.93,-94.058 43.65,-6.762 79.92,-51.641 79.92,-100.825 0,-65.781 -43.65,-110.6597 -118.65,-110.6597 H 944.102 V 502.086" /><path
         id="path38"
         style="fill:#3da4a1;fill-opacity:1;fill-rule:nonzero;stroke:none"
         d="m 1318.5,502.086 h 268.67 V 456.594 H 1369.53 V 324.422 h 213.33 V 278.926 H 1369.53 V 137.527 h 217.64 V 92.0313 H 1318.5 V 502.086" /><path
         id="path40"
         style="fill:#3da4a1;fill-opacity:1;fill-rule:nonzero;stroke:none"
         d="m 1661.56,188.551 c 27.05,-30.121 71.31,-58.403 129.1,-58.403 73.16,0 96.53,39.344 96.53,70.7 0,49.183 -49.8,62.707 -103.9,77.465 -65.78,17.21 -138.95,35.652 -138.95,116.191 0,67.625 60.26,113.734 140.79,113.734 62.71,0 111.28,-20.902 145.7,-57.175 l -30.73,-37.5 c -30.75,33.812 -73.78,49.175 -118.66,49.175 -49.18,0 -84.22,-26.429 -84.22,-65.164 0,-41.187 47.34,-53.48 99.6,-67.621 67,-17.832 143.24,-38.73 143.24,-124.801 0,-59.632 -40.58,-120.4957 -151.24,-120.4957 -71.31,0 -123.57,27.0467 -157.39,65.1637 l 30.13,38.731" /><path
         id="path42"
         style="fill:#3da4a1;fill-opacity:1;fill-rule:nonzero;stroke:none"
         d="m 2003.99,502.086 h 51.03 V 252.492 c 0,-75.004 40.57,-122.344 116.2,-122.344 75.61,0 116.19,47.34 116.19,122.344 v 249.594 h 51.03 V 251.875 c 0,-102.055 -55.95,-167.2187 -167.22,-167.2187 -111.28,0 -167.23,65.7817 -167.23,166.6057 v 250.824" /><path
         id="path44"
         style="fill:#3da4a1;fill-opacity:1;fill-rule:nonzero;stroke:none"
         d="m 626.973,273.477 c -21.34,34.871 -57.493,72.82 -101.778,109.625 -10.168,-8.133 -20.558,-16.098 -31.105,-23.868 56.73,-46.492 93.156,-89.57 108.066,-120.039 -1.453,-4.433 -2.285,-9.164 -2.285,-14.09 v -2.343 c 0,-1.141 0.09,-2.27 0.176,-3.395 L 376.387,90.2344 c -5.735,4.1133 -12.473,6.8867 -19.785,7.9179 -28.282,46.8277 -55.403,152.9217 -55.403,297.1997 0,22.371 0.684,43.761 1.887,64.218 -12.766,6.426 -25.129,12.313 -36.965,17.59 -1.973,-26.89 -2.969,-54.371 -2.969,-81.808 0,-116.114 17.786,-233.071 52.286,-301.4262 L 109.324,212.926 c 38.457,0.039 88.567,11.902 144.531,33.738 -1.765,12.797 -3.261,25.875 -4.539,39.129 C 175.594,255.93 118.887,246.73 88.7695,252.77 c -4.6015,5.875 -10.6054,10.589 -17.539,13.589 v 257.977 c 6.9531,3.023 12.9765,7.754 17.5781,13.648 46.0744,9.18 154.1794,-17.226 289.9804,-98.363 18.145,-10.84 35.195,-21.789 51.277,-32.711 11.485,8.024 22.317,15.977 32.5,23.805 -20.711,14.461 -42.273,28.422 -64.257,41.562 C 286.777,538.91 178.945,577.691 109.336,577.781 L 315.41,696.766 c -18.097,-35.907 -31.613,-85.176 -40.344,-140.727 11.848,-4.875 23.926,-10.203 36.184,-15.926 10.418,70.563 27.645,123.102 45.32,152.434 7.325,1.023 14.075,3.797 19.817,7.906 l 223.66,-129.129 c -0.086,-1.129 -0.176,-2.242 -0.176,-3.394 v -2.336 c 0,-4.969 0.84,-9.739 2.336,-14.211 -23.449,-47.703 -99.766,-126.414 -223.418,-200.297 -19.238,-11.504 -37.91,-21.871 -55.957,-31.223 1.004,-14.242 2.266,-27.832 3.75,-40.761 23.504,11.73 47.527,24.859 71.727,39.328 98.546,58.875 189.101,134.082 228.664,198.695 z m 65.164,292.117 v 2.336 c 0,24.836 -20.137,44.961 -44.961,44.961 h -2.344 c -9.754,0 -18.75,-3.133 -26.113,-8.407 l -223.66,129.129 c 0.086,1.125 0.175,2.25 0.175,3.395 v 2.34 c 0,24.832 -20.136,44.961 -44.961,44.961 h -2.335 c -24.833,0 -44.961,-20.129 -44.961,-44.961 v -2.34 c 0,-1.145 0.089,-2.27 0.168,-3.395 L 79.4922,604.484 c -2.5703,1.836 -5.3438,3.395 -8.2617,4.668 v 260.75 c 16.1015,7.266 27.3242,23.426 27.3242,42.235 0,25.597 -20.7539,46.351 -46.3477,46.351 -25.5976,0 -46.34762,-20.754 -46.34762,-46.351 0,-18.809 11.21872,-34.969 27.32422,-42.235 V 609.188 C 17.2461,602.277 6.08203,586.418 6.08203,567.93 v -2.336 c 0,-18.485 11.16407,-34.336 27.10157,-41.258 V 266.359 C 17.2461,259.449 6.08203,243.578 6.08203,225.105 v -2.343 c 0,-24.821 20.12887,-44.957 44.96097,-44.957 h 2.3359 c 9.7539,0 18.7383,3.129 26.1133,8.406 L 303.145,57.082 c -0.079,-1.1172 -0.168,-2.2422 -0.168,-3.3945 v -2.3398 c 0,-24.8243 20.128,-44.96098 44.961,-44.96098 h 2.335 c 24.825,0 44.961,20.13668 44.961,44.96098 v 2.3398 c 0,1.1523 -0.089,2.2773 -0.175,3.3945 l 223.66,129.129 c 7.363,-5.277 16.359,-8.406 26.113,-8.406 h 2.344 c 24.824,0 44.961,20.136 44.961,44.957 v 2.343 c 0,18.473 -11.172,34.344 -27.117,41.254 v 257.977 c 15.945,6.91 27.117,22.773 27.117,41.258" /></g></g></svg>