<?xml version="1.0" encoding="utf-8"?>
<svg viewBox="4.277 1.794 353.003 68.366" width="353.003" height="68.366" xmlns="http://www.w3.org/2000/svg">
  <defs>
    <style>.cls-1{fill:#2f3134;}</style>
  </defs>
  <path class="cls-1" d="M93,23.4l5.79,0,0.05,9.79,11.25-.06L110,23.31l5.79,0L116,49.53l-5.79,0-0.06-11.35-11.25.06,0.06,11.35-5.79,0Z"/>
  <path class="cls-1" d="M127.34,38.27l-10-15,7.2,0,5.62,9.8,5.85-9.86,6.87,0-9.79,15.11,0.06,11.2-5.79,0Z"/>
  <path class="cls-1" d="M144.48,23.13l9.76-.05a19.15,19.15,0,0,1,3.86.35,8.84,8.84,0,0,1,3.18,1.26,6.5,6.5,0,0,1,2.16,2.44,8.39,8.39,0,0,1,.82,3.87,9,9,0,0,1-.72,3.86,6.36,6.36,0,0,1-2,2.49,8.25,8.25,0,0,1-3.07,1.33,18,18,0,0,1-3.86.41l-4.23,0,0.05,10.24-5.79,0Zm5.85,11.1,3.86,0a7.45,7.45,0,0,0,1.5-.15,4,4,0,0,0,1.3-.51,2.67,2.67,0,0,0,.92-1,3.05,3.05,0,0,0,.35-1.54,2.61,2.61,0,0,0-.47-1.61,3.08,3.08,0,0,0-1.19-.94,5.14,5.14,0,0,0-1.62-.42,16.48,16.48,0,0,0-1.71-.08h-3Z"/>
  <path class="cls-1" d="M167.72,23l17.85-.09,0,5.34-12.06.06,0,4.9L185,33.15l0,5.34-11.39.06,0,5.34,12.73-.07,0,5.34-18.52.1Z"/>
  <path class="cls-1" d="M190.5,22.89l10.17-.05a17.87,17.87,0,0,1,3.8.37,9.1,9.1,0,0,1,3.16,1.28,6.5,6.5,0,0,1,2.16,2.44,8.31,8.31,0,0,1,.82,3.83,7.72,7.72,0,0,1-1.42,4.74A6.51,6.51,0,0,1,205,38L211.72,49l-6.94,0L199.24,38.6h-2.86l0.05,10.49-5.79,0Zm5.85,10.83,3.42,0c0.52,0,1.07,0,1.65-.07A5.2,5.2,0,0,0,203,33.3a2.74,2.74,0,0,0,1.16-.88,2.67,2.67,0,0,0,.45-1.67,2.79,2.79,0,0,0-.42-1.59,2.72,2.72,0,0,0-1-.9,4.64,4.64,0,0,0-1.45-.42,11.71,11.71,0,0,0-1.6-.1l-3.79,0Z"/>
  <path class="cls-1" d="M214.41,22.76l5.79,0,0.11,20.92L231,43.59l0,5.34L214.54,49Z"/>
  <path class="cls-1" d="M234,22.66l17.85-.09,0,5.34L239.78,28l0,4.9,11.39-.06,0,5.34-11.39.06,0,5.34,12.73-.07,0,5.34-18.52.1Z"/>
  <path class="cls-1" d="M256.75,22.54l8.69,0a25,25,0,0,1,6,.67,13.76,13.76,0,0,1,5,2.26,11.18,11.18,0,0,1,3.38,4.08,13.73,13.73,0,0,1,1.27,6.11,12.46,12.46,0,0,1-1.18,5.63,12.06,12.06,0,0,1-3.22,4.1,14.39,14.39,0,0,1-4.7,2.53,18.3,18.3,0,0,1-5.6.88l-9.47.05Zm5.9,20.89,3,0a16.22,16.22,0,0,0,3.73-.43,8,8,0,0,0,3-1.37,6.46,6.46,0,0,0,2-2.49,8.81,8.81,0,0,0,.71-3.77A7.33,7.33,0,0,0,274.3,32a6.69,6.69,0,0,0-2-2.35,8.52,8.52,0,0,0-2.88-1.38,12.78,12.78,0,0,0-3.47-.45l-3.42,0Z"/>
  <path class="cls-1" d="M308.47,46.67a21,21,0,0,1-5.33,2,27.25,27.25,0,0,1-5.68.62,16.26,16.26,0,0,1-5.68-.93,13,13,0,0,1-4.5-2.74,12.48,12.48,0,0,1-3-4.34,14.84,14.84,0,0,1-1.09-5.71,14.81,14.81,0,0,1,1-5.71,12.52,12.52,0,0,1,2.93-4.37,13,13,0,0,1,4.48-2.79,16.13,16.13,0,0,1,5.67-1,21.07,21.07,0,0,1,5.81.73A11.39,11.39,0,0,1,307.8,25l-4.06,4.47a8.16,8.16,0,0,0-2.68-1.84,9.51,9.51,0,0,0-3.71-.61,8.59,8.59,0,0,0-3.35.65,7.58,7.58,0,0,0-2.57,1.77,7.78,7.78,0,0,0-1.64,2.7,10.23,10.23,0,0,0,0,6.77,7.79,7.79,0,0,0,1.66,2.66,7.55,7.55,0,0,0,2.59,1.75,8.64,8.64,0,0,0,3.36.61,11.1,11.1,0,0,0,3.27-.44,12.1,12.1,0,0,0,2.18-.88l0-4.27-4.71,0,0-5.34,10.28-.05Z"/>
  <path class="cls-1" d="M313.28,22.24l17.85-.1,0,5.34-12.06.06,0,4.9,11.39-.06,0,5.34-11.39.06,0,5.34,12.73-.07,0,5.34-18.52.1Z"/>
  <path class="cls-1" d="M336.06,22.12l10.17-.05a17.78,17.78,0,0,1,3.81.37,9.1,9.1,0,0,1,3.16,1.28,6.47,6.47,0,0,1,2.16,2.44,8.3,8.3,0,0,1,.82,3.83,7.72,7.72,0,0,1-1.42,4.74,6.53,6.53,0,0,1-4.22,2.49l6.74,11.05-6.94,0-5.55-10.47h-2.86L342,48.35l-5.79,0ZM341.91,33l3.42,0c0.52,0,1.07,0,1.65-.06a5.14,5.14,0,0,0,1.57-.34,2.72,2.72,0,0,0,1.16-.88,2.66,2.66,0,0,0,.46-1.67,2.79,2.79,0,0,0-.42-1.59,2.74,2.74,0,0,0-1-.9,4.59,4.59,0,0,0-1.45-.42,11.72,11.72,0,0,0-1.6-.1l-3.79,0Z"/>
  <path class="cls-1" d="M 4.33 38.63 C 4.31 38.595 4.296 38.557 4.289 38.518 C 4.258 38.405 4.285 38.279 4.373 38.187 L 18.536 7.317 C 17.647 6.718 17.266 5.484 17.869 4.44 C 18.701 3 20.779 3 21.611 4.44 C 21.708 4.608 21.781 4.788 21.83 4.975 L 55.518 1.859 L 55.57 1.83 C 55.668 1.782 55.782 1.782 55.88 1.83 C 55.981 1.874 56.055 1.963 56.08 2.07 L 56.094 2.133 L 75.729 29.878 C 76.687 29.438 77.917 29.731 78.511 30.76 C 78.7 31.088 78.8 31.461 78.8 31.84 C 78.795 33.031 77.831 33.995 76.64 34 C 76.416 34 76.203 33.967 76.004 33.907 L 61.83 64.82 C 61.776 64.934 61.666 65.01 61.54 65.02 L 27.916 68.13 C 27.844 69.261 26.907 70.155 25.76 70.16 C 24.097 70.16 23.058 68.36 23.889 66.92 C 23.951 66.812 24.02 66.713 24.095 66.621 Z M 24.628 66.156 C 24.729 66.094 24.835 66.041 24.944 65.998 L 21.553 48.346 L 5.762 39.467 Z M 20.071 40.633 C 19.963 40.65 19.853 40.66 19.74 40.66 C 18.077 40.66 17.038 38.86 17.869 37.42 C 18.258 36.746 18.92 36.388 19.6 36.344 L 19.6 25.179 L 5.21 38.36 L 21.383 47.461 Z M 19.6 7.676 C 19.457 7.667 19.32 7.645 19.188 7.611 L 5.622 37.04 L 19.6 24.222 Z M 53.232 51.753 C 53.022 51.305 52.962 50.784 53.102 50.276 L 43.844 47.033 L 34.725 54.862 L 42.879 57.739 Z M 21.747 39.293 C 21.508 39.895 21.006 40.365 20.383 40.56 L 21.748 47.667 L 33.573 54.322 L 31.277 42.631 Z M 53.319 49.76 C 53.643 49.2 54.155 48.858 54.709 48.733 L 52.909 39.251 L 44.05 46.857 L 53.186 50.032 C 53.223 49.94 53.267 49.849 53.319 49.76 Z M 48.505 16.046 C 48.402 16.061 48.297 16.07 48.19 16.07 C 47.546 16.07 46.995 15.8 46.61 15.385 L 38.911 22.044 L 50.425 26.163 Z M 21.435 37.159 C 21.499 37.24 21.557 37.327 21.611 37.42 C 21.8 37.748 21.9 38.121 21.9 38.5 C 21.899 38.718 21.866 38.927 21.806 39.125 L 31.231 42.401 L 28.929 30.678 Z M 56.662 49.255 L 61.587 44.886 L 61.883 31.548 L 53.06 39.122 L 54.875 48.702 C 55.506 48.611 56.171 48.795 56.662 49.255 Z M 59.783 21.484 L 49.84 15.298 C 49.545 15.648 49.141 15.903 48.681 16.012 L 50.617 26.232 L 61.778 30.224 Z M 46.078 13.444 L 39.54 11.521 L 27.681 18.026 L 38.72 21.975 L 46.498 15.254 C 46.106 14.757 45.932 14.095 46.078 13.444 Z M 19.92 24.885 L 19.92 36.347 C 20.434 36.39 20.936 36.613 21.314 37.018 L 28.888 30.472 L 26.591 18.775 Z M 74.88 33.093 C 74.655 32.775 74.514 32.398 74.483 32.004 L 62.569 31.134 L 62.288 44.264 Z M 74.749 30.795 L 60.613 22 L 62.53 30.429 L 74.544 31.307 C 74.589 31.134 74.657 30.962 74.749 30.795 Z M 21.756 6.291 C 21.618 6.649 21.388 6.961 21.095 7.198 L 26.951 17.62 L 38.539 11.227 Z M 19.92 7.672 L 19.92 23.928 L 26.37 18.013 L 20.487 7.545 C 20.308 7.611 20.118 7.655 19.92 7.672 Z M 25.249 65.9 C 25.699 65.792 26.178 65.829 26.607 66.01 L 33.563 55.098 L 21.917 48.551 Z M 27.454 66.658 L 42.1 58.19 L 34.202 55.403 L 27.2 66.386 C 27.291 66.468 27.376 66.558 27.454 66.658 Z M 75.434 33.636 C 75.32 33.558 75.214 33.47 75.117 33.374 L 62.277 44.76 L 61.885 63.028 Z M 56.904 49.524 C 56.96 49.598 57.013 49.677 57.061 49.76 C 57.25 50.088 57.35 50.461 57.35 50.84 C 57.345 52.031 56.381 52.995 55.19 53 C 54.421 53 53.786 52.615 53.407 52.06 L 43.319 57.894 L 61.16 64.19 L 61.576 45.381 Z M 27.651 66.956 C 27.734 67.106 27.798 67.265 27.843 67.429 L 59.893 64.468 L 42.54 58.345 Z M 21.894 5.675 C 21.887 5.767 21.875 5.856 21.857 5.944 L 38.978 10.984 L 53.977 2.709 Z M 46.184 13.106 C 46.222 13.013 46.267 12.921 46.319 12.83 C 47.151 11.39 49.229 11.39 50.061 12.83 C 50.25 13.158 50.35 13.531 50.35 13.91 C 50.348 14.306 50.24 14.678 50.053 14.997 L 59.668 20.98 L 55.51 2.76 L 39.98 11.279 Z M 74.952 30.491 C 75.022 30.401 75.099 30.319 75.179 30.245 L 56.476 3.813 L 60.498 21.497 Z M 27.27 18.63 L 29.491 29.952 L 38.109 22.504 Z M 34.27 54.32 L 43.075 46.764 L 32.029 42.895 Z M 61.57 30.89 L 50.769 27.029 L 52.909 38.324 Z M 52.758 38.453 L 50.577 26.961 L 38.3 22.572 L 29.531 30.157 L 31.984 42.663 L 43.279 46.588 Z"/>
</svg>