<?xml version="1.0" encoding="UTF-8" standalone="no"?>
<svg
   xmlns:dc="http://purl.org/dc/elements/1.1/"
   xmlns:cc="http://creativecommons.org/ns#"
   xmlns:rdf="http://www.w3.org/1999/02/22-rdf-syntax-ns#"
   xmlns:svg="http://www.w3.org/2000/svg"
   xmlns="http://www.w3.org/2000/svg"
   viewBox="0 0 529.77332 104.08"
   height="104.08"
   width="529.77332"
   xml:space="preserve"
   id="svg2"
   version="1.1"><metadata
     id="metadata8"><rdf:RDF><cc:Work
         rdf:about=""><dc:format>image/svg+xml</dc:format><dc:type
           rdf:resource="http://purl.org/dc/dcmitype/StillImage" /></cc:Work></rdf:RDF></metadata><defs
     id="defs6" /><g
     transform="matrix(1.3333333,0,0,-1.3333333,0,104.08)"
     id="g10"><g
       transform="scale(0.1)"
       id="g12"><path
         id="path14"
         style="fill:#232325;fill-opacity:1;fill-rule:nonzero;stroke:none"
         d="m 1168.7,774.969 44.65,0.238 0.41,-75.492 86.74,0.437 -0.41,75.524 44.66,0.226 1.05,-202.507 -44.64,-0.219 -0.46,87.519 -86.74,-0.468 0.47,-87.516 -44.66,-0.238 -1.07,202.496" /><path
         id="path16"
         style="fill:#232325;fill-opacity:1;fill-rule:nonzero;stroke:none"
         d="m 1453.53,658.996 -76.78,115.723 55.53,0.293 43.34,-75.571 45.11,76.039 52.96,0.254 -75.52,-116.511 0.44,-86.375 -44.63,-0.239 -0.45,86.387" /><path
         id="path18"
         style="fill:#232325;fill-opacity:1;fill-rule:nonzero;stroke:none"
         d="m 1650.06,689.676 29.76,0.152 c 4.02,0.008 7.86,0.418 11.6,1.203 3.71,0.758 7.03,2.09 10,3.918 2.95,1.836 5.31,4.321 7.1,7.477 1.8,3.148 2.67,7.101 2.66,11.875 -0.04,5.129 -1.24,9.289 -3.63,12.422 -2.43,3.144 -5.48,5.554 -9.21,7.257 -3.7,1.672 -7.88,2.766 -12.47,3.215 -4.58,0.438 -8.98,0.664 -13.18,0.625 l -22.89,-0.109 z m -45.12,85.566 75.29,0.391 c 10.49,0.062 20.43,-0.832 29.78,-2.707 9.35,-1.856 17.54,-5.098 24.55,-9.719 6.97,-4.66 12.54,-10.914 16.68,-18.789 4.16,-7.891 6.25,-17.859 6.33,-29.863 0.05,-11.836 -1.81,-21.75 -5.57,-29.797 -3.79,-8.012 -9,-14.418 -15.65,-19.242 -6.68,-4.801 -14.56,-8.215 -23.71,-10.254 -9.17,-2.063 -19.07,-3.121 -29.75,-3.18 l -32.64,-0.164 0.41,-78.945 -44.64,-0.227 -1.08,202.496" /><path
         id="path20"
         style="fill:#232325;fill-opacity:1;fill-rule:nonzero;stroke:none"
         d="m 1788.51,775.063 137.68,0.722 0.22,-41.191 -93.03,-0.5 0.21,-37.739 87.87,0.465 0.22,-41.191 -87.89,-0.465 0.21,-41.191 98.19,0.496 0.21,-41.172 -142.83,-0.731 -1.06,202.497" /><path
         id="path22"
         style="fill:#232325;fill-opacity:1;fill-rule:nonzero;stroke:none"
         d="m 2008.44,691.676 26.34,0.133 c 4,0.019 8.25,0.187 12.74,0.5 4.48,0.316 8.52,1.171 12.14,2.636 3.62,1.446 6.61,3.703 8.99,6.77 2.35,3.062 3.52,7.344 3.51,12.871 -0.04,5.164 -1.12,9.266 -3.24,12.285 -2.1,3.043 -4.78,5.363 -8.02,6.973 -3.26,1.621 -7.01,2.676 -11.2,3.238 -4.2,0.551 -8.29,0.816 -12.3,0.777 l -29.2,-0.148 z m -45.08,83.551 78.42,0.425 c 10.3,0.055 20.1,-0.894 29.33,-2.855 9.28,-1.945 17.38,-5.25 24.4,-9.875 6.98,-4.637 12.54,-10.906 16.68,-18.789 4.15,-7.906 6.25,-17.762 6.33,-29.559 0.07,-14.308 -3.6,-26.476 -10.99,-36.554 -7.36,-10.059 -18.22,-16.434 -32.53,-19.18 l 51.98,-85.258 -53.53,-0.277 -42.77,80.726 -22.06,-0.117 0.42,-80.949 -44.66,-0.238 -1.02,202.5" /><path
         id="path24"
         style="fill:#232325;fill-opacity:1;fill-rule:nonzero;stroke:none"
         d="m 2156.85,775.441 44.63,0.227 0.86,-161.316 82.74,0.437 0.22,-41.191 -127.39,-0.653 -1.06,202.496" /><path
         id="path26"
         style="fill:#232325;fill-opacity:1;fill-rule:nonzero;stroke:none"
         d="m 2316.26,775.191 137.67,0.723 0.22,-41.191 -93.03,-0.496 0.21,-37.739 87.87,0.442 0.22,-41.164 -87.89,-0.469 0.22,-41.192 98.19,0.497 0.21,-41.168 -142.83,-0.735 -1.06,202.492" /><path
         id="path28"
         style="fill:#232325;fill-opacity:1;fill-rule:nonzero;stroke:none"
         d="m 2536.61,614.164 23.19,0.129 c 10.29,0.055 19.89,1.148 28.73,3.281 8.88,2.176 16.55,5.68 23,10.582 6.46,4.879 11.53,11.301 15.21,19.239 3.68,7.921 5.49,17.609 5.43,29.058 -0.04,9.91 -1.96,18.535 -5.72,25.863 -3.75,7.329 -8.8,13.34 -15.12,18.086 -6.31,4.743 -13.75,8.278 -22.23,10.598 -8.5,2.355 -17.44,3.488 -26.79,3.449 l -26.34,-0.148 z m -45.51,161.086 66.98,0.352 c 16.21,0.093 31.65,-1.645 46.26,-5.176 14.61,-3.543 27.4,-9.367 38.31,-17.403 10.92,-8.05 19.6,-18.515 26.09,-31.464 6.44,-12.954 9.73,-28.653 9.81,-47.149 0.09,-16.406 -2.93,-30.879 -9.07,-43.379 -6.13,-12.523 -14.42,-23.066 -24.86,-31.582 -10.47,-8.554 -22.54,-15.047 -36.26,-19.496 -13.73,-4.476 -28.13,-6.742 -43.19,-6.812 l -73,-0.383 -1.07,202.492" /><path
         id="path30"
         style="fill:#232325;fill-opacity:1;fill-rule:nonzero;stroke:none"
         d="m 2904.32,587.684 c -13.12,-6.946 -26.84,-11.985 -41.13,-15.102 -14.31,-3.141 -28.89,-4.734 -43.77,-4.812 -15.84,-0.067 -30.46,2.32 -43.84,7.199 -13.38,4.902 -24.95,11.929 -34.73,21.136 -9.81,9.192 -17.44,20.352 -22.96,33.473 -5.51,13.152 -8.29,27.813 -8.38,44.031 -0.1,16.207 2.56,30.891 7.92,44.082 5.39,13.172 12.89,24.414 22.6,33.731 9.66,9.305 21.17,16.461 34.54,21.473 13.29,5.046 27.88,7.605 43.72,7.675 16.22,0.09 31.17,-1.773 44.83,-5.617 13.65,-3.848 25.68,-10.496 36.03,-19.984 l -31.3,-34.492 c -6.14,6.269 -13.05,11.003 -20.69,14.207 -7.64,3.199 -17.19,4.773 -28.65,4.703 -9.54,-0.039 -18.16,-1.715 -25.88,-4.996 -7.7,-3.305 -14.3,-7.832 -19.84,-13.672 -5.49,-5.864 -9.68,-12.805 -12.62,-20.84 -2.91,-8.012 -4.33,-16.699 -4.28,-26.027 0.05,-9.559 1.57,-18.258 4.57,-26.149 3,-7.902 7.27,-14.75 12.83,-20.519 5.57,-5.805 12.24,-10.293 19.97,-13.504 7.74,-3.196 16.4,-4.758 25.94,-4.719 9.74,0.059 18.12,1.187 25.18,3.414 7.02,2.227 12.65,4.492 16.84,6.813 l -0.18,32.898 -36.36,-0.184 -0.19,41.192 79.28,0.426 0.55,-105.836" /><path
         id="path32"
         style="fill:#232325;fill-opacity:1;fill-rule:nonzero;stroke:none"
         d="m 2935.28,779.852 137.68,0.722 0.19,-41.168 -93.02,-0.504 0.2,-37.742 87.89,0.453 0.21,-41.175 -87.89,-0.469 0.23,-41.207 98.17,0.523 0.23,-41.172 -142.84,-0.758 -1.05,202.497" /><path
         id="path34"
         style="fill:#232325;fill-opacity:1;fill-rule:nonzero;stroke:none"
         d="m 3155.2,696.441 26.34,0.149 c 3.99,0 8.24,0.183 12.73,0.476 4.47,0.321 8.52,1.172 12.14,2.657 3.61,1.425 6.6,3.691 8.98,6.754 2.37,3.062 3.54,7.343 3.52,12.875 -0.04,5.156 -1.11,9.257 -3.21,12.285 -2.12,3.043 -4.79,5.359 -8.07,6.972 -3.24,1.621 -7,2.692 -11.17,3.235 -4.21,0.574 -8.29,0.816 -12.32,0.801 l -29.18,-0.172 z m -45.09,83.563 78.43,0.41 c 10.29,0.051 20.07,-0.871 29.35,-2.851 9.27,-1.95 17.38,-5.254 24.38,-9.875 7,-4.625 12.54,-10.887 16.7,-18.793 4.13,-7.887 6.24,-17.758 6.31,-29.555 0.07,-14.313 -3.6,-26.481 -10.97,-36.555 -7.38,-10.039 -18.23,-16.422 -32.55,-19.183 l 51.98,-85.247 -53.53,-0.277 -42.79,80.719 -22.04,-0.117 0.43,-80.95 -44.64,-0.218 -1.06,202.492" /><path
         id="path36"
         style="fill:#66cbbe;fill-opacity:1;fill-rule:nonzero;stroke:none"
         d="m 1170.33,425.93 h 268.11 V 373.133 H 1226.65 V 249.344 h 197.13 V 196.543 H 1226.65 V 63.3672 h 222.36 V 10.5625 H 1170.33 V 425.93" /><path
         id="path38"
         style="fill:#66cbbe;fill-opacity:1;fill-rule:nonzero;stroke:none"
         d="M 1632.4,228.805 1492.77,425.93 h 72.16 l 107.95,-159.575 106.78,159.575 h 70.4 L 1711.6,229.391 1864.13,10.5625 h -73.92 L 1671.12,190.672 1551.44,10.5625 h -69.82 L 1632.4,228.805" /><path
         id="path40"
         style="fill:#66cbbe;fill-opacity:1;fill-rule:nonzero;stroke:none"
         d="m 1965.5,242.887 h 73.92 c 10.95,0 21.81,0.879 32.57,2.644 10.75,1.758 20.33,4.985 28.74,9.676 8.41,4.691 15.16,11.441 20.24,20.238 5.08,8.805 7.63,20.246 7.63,34.325 0,14.082 -2.55,25.523 -7.63,34.32 -5.08,8.797 -11.83,15.547 -20.24,20.238 -8.41,4.692 -17.99,7.922 -28.74,9.684 -10.76,1.758 -21.62,2.636 -32.57,2.636 h -73.92 z m -56.31,183.043 h 146.07 c 26.6,0 48.5,-3.617 65.71,-10.856 17.21,-7.238 30.8,-16.426 40.78,-27.57 9.97,-11.149 16.91,-23.668 20.82,-37.543 3.9,-13.895 5.87,-27.289 5.87,-40.191 0,-12.907 -1.97,-26.309 -5.87,-40.188 -3.91,-13.887 -10.85,-26.402 -20.82,-37.547 -9.98,-11.148 -23.57,-20.344 -40.78,-27.574 -17.21,-7.242 -39.11,-10.856 -65.71,-10.856 H 1965.5 V 10.5625 h -56.31 V 425.93" /><path
         id="path42"
         style="fill:#66cbbe;fill-opacity:1;fill-rule:nonzero;stroke:none"
         d="m 2241.06,425.93 h 56.32 V 63.3672 h 190.67 V 10.5625 H 2241.06 V 425.93" /><path
         id="path44"
         style="fill:#66cbbe;fill-opacity:1;fill-rule:nonzero;stroke:none"
         d="m 2710.4,52.8047 c 23.85,0 45.37,4.3984 64.54,13.1992 19.16,8.8047 35.58,20.625 49.28,35.4921 13.69,14.863 24.24,32.363 31.68,52.512 7.43,20.14 11.15,41.551 11.15,64.242 0,22.676 -3.72,44.09 -11.15,64.238 -7.44,20.141 -17.99,37.641 -31.68,52.512 -13.7,14.855 -30.12,26.691 -49.28,35.492 -19.17,8.797 -40.69,13.196 -64.54,13.196 -23.86,0 -45.37,-4.399 -64.53,-13.196 -19.17,-8.801 -35.6,-20.637 -49.28,-35.492 -13.7,-14.871 -24.26,-32.371 -31.68,-52.512 -7.44,-20.148 -11.15,-41.562 -11.15,-64.238 0,-22.691 3.71,-44.102 11.15,-64.242 7.42,-20.149 17.98,-37.649 31.68,-52.512 13.68,-14.8671 30.11,-26.6874 49.28,-35.4921 19.16,-8.8008 40.67,-13.1992 64.53,-13.1992 z m 0,-52.80079375 c -31.68,0 -60.82,5.57422375 -87.41,16.72269375 -26.61,11.1406 -49.38,26.4882 -68.35,46.0507 -18.98,19.5547 -33.83,42.6247 -44.58,69.2267 -10.77,26.598 -16.14,55.344 -16.14,86.246 0,30.887 5.37,59.637 16.14,86.238 10.75,26.594 25.6,49.664 44.58,69.231 18.97,19.551 41.74,34.906 68.35,46.054 26.59,11.145 55.73,16.719 87.41,16.719 31.69,0 60.82,-5.574 87.42,-16.719 26.59,-11.148 49.36,-26.503 68.35,-46.054 18.96,-19.567 33.82,-42.637 44.58,-69.231 10.75,-26.601 16.13,-55.351 16.13,-86.238 0,-30.902 -5.38,-59.648 -16.13,-86.246 -10.76,-26.602 -25.62,-49.672 -44.58,-69.2267 C 2847.18,43.2148 2824.41,27.8672 2797.82,16.7266 2771.22,5.57813 2742.09,0.00390625 2710.4,0.00390625" /><path
         id="path46"
         style="fill:#66cbbe;fill-opacity:1;fill-rule:nonzero;stroke:none"
         d="m 3041.28,242.887 h 73.92 c 10.94,0 21.8,0.879 32.56,2.644 10.75,1.758 20.33,4.985 28.75,9.676 8.4,4.691 15.15,11.441 20.23,20.238 5.08,8.805 7.63,20.246 7.63,34.325 0,14.082 -2.55,25.523 -7.63,34.32 -5.08,8.797 -11.83,15.547 -20.23,20.238 -8.42,4.692 -18,7.922 -28.75,9.684 -10.76,1.758 -21.62,2.636 -32.56,2.636 h -73.92 z m -56.32,183.043 h 146.08 c 26.59,0 48.49,-3.617 65.7,-10.856 17.21,-7.238 30.81,-16.426 40.78,-27.57 9.98,-11.149 16.91,-23.668 20.83,-37.543 3.9,-13.895 5.87,-27.289 5.87,-40.191 0,-13.301 -2.35,-26.11 -7.05,-38.43 -4.69,-12.32 -11.43,-23.465 -20.24,-33.438 -8.8,-9.976 -19.56,-18.386 -32.27,-25.23 -12.71,-6.844 -26.89,-11.055 -42.52,-12.609 L 3280.06,10.5625 h -70.4 L 3104.05,193.605 h -62.77 V 10.5625 h -56.32 V 425.93" /><path
         id="path48"
         style="fill:#66cbbe;fill-opacity:1;fill-rule:nonzero;stroke:none"
         d="m 3335.26,425.93 h 268.11 V 373.133 H 3391.58 V 249.344 h 197.13 V 196.543 H 3391.58 V 63.3672 h 222.35 V 10.5625 H 3335.26 V 425.93" /><path
         id="path50"
         style="fill:#66cbbe;fill-opacity:1;fill-rule:nonzero;stroke:none"
         d="m 3734.55,242.887 h 73.92 c 10.94,0 21.8,0.879 32.56,2.644 10.75,1.758 20.33,4.985 28.75,9.676 8.4,4.691 15.15,11.441 20.24,20.238 5.07,8.805 7.62,20.246 7.62,34.325 0,14.082 -2.55,25.523 -7.62,34.32 -5.09,8.797 -11.84,15.547 -20.24,20.238 -8.42,4.692 -18,7.922 -28.75,9.684 -10.76,1.758 -21.62,2.636 -32.56,2.636 h -73.92 z m -56.32,183.043 h 146.08 c 26.6,0 48.49,-3.617 65.71,-10.856 17.2,-7.238 30.8,-16.426 40.77,-27.57 9.98,-11.149 16.91,-23.668 20.83,-37.543 3.9,-13.895 5.87,-27.289 5.87,-40.191 0,-13.301 -2.35,-26.11 -7.04,-38.43 -4.7,-12.32 -11.44,-23.465 -20.25,-33.438 -8.8,-9.976 -19.56,-18.386 -32.26,-25.23 -12.72,-6.844 -26.9,-11.055 -42.53,-12.609 L 3973.33,10.5625 h -70.4 L 3797.32,193.605 h -62.77 V 10.5625 h -56.32 V 425.93" /><path
         id="path52"
         style="fill:#232325;fill-opacity:1;fill-rule:nonzero;stroke:none"
         d="M 764.973,740.164 V 600.07 l 176.289,71.621 z" /><path
         id="path54"
         style="fill:#232325;fill-opacity:1;fill-rule:nonzero;stroke:none"
         d="M 0,119.91 212.965,34.3906 V 555.184 L 0,640.035 V 119.91" /><path
         id="path56"
         style="fill:#66cbbe;fill-opacity:1;fill-rule:nonzero;stroke:none"
         d="M 721.438,740.715 547.125,673.918 721.438,599.809 Z" /><path
         id="path58"
         style="fill:#66cbbe;fill-opacity:1;fill-rule:nonzero;stroke:none"
         d="m 39.5,671.168 173.973,-69.32 v 132.679 z" /><path
         id="path60"
         style="fill:#232325;fill-opacity:1;fill-rule:nonzero;stroke:none"
         d="M 257.008,734.664 V 601.891 l 168.711,72.105 z" /><path
         id="path62"
         style="fill:#66cbbe;fill-opacity:1;fill-rule:nonzero;stroke:none"
         d="m 256.5,35.375 210.953,88.734 V 644.488 L 256.5,554.324 V 35.375" /><path
         id="path64"
         style="fill:#66cbbe;fill-opacity:1;fill-rule:nonzero;stroke:none"
         d="M 765.48,35.0898 978.445,125.637 V 639.801 L 765.48,553.285 V 35.0898" /><path
         id="path66"
         style="fill:#232325;fill-opacity:1;fill-rule:nonzero;stroke:none"
         d="M 510.988,123.313 721.945,35.2656 V 552.281 L 510.988,641.98 V 123.313" /></g></g></svg>