<?xml version="1.0" encoding="UTF-8" standalone="no"?>
<svg
   xmlns:dc="http://purl.org/dc/elements/1.1/"
   xmlns:cc="http://creativecommons.org/ns#"
   xmlns:rdf="http://www.w3.org/1999/02/22-rdf-syntax-ns#"
   xmlns:svg="http://www.w3.org/2000/svg"
   xmlns="http://www.w3.org/2000/svg"
   viewBox="0 0 434.23999 123.62667"
   height="123.62667"
   width="434.23999"
   xml:space="preserve"
   id="svg2"
   version="1.1"><metadata
     id="metadata8"><rdf:RDF><cc:Work
         rdf:about=""><dc:format>image/svg+xml</dc:format><dc:type
           rdf:resource="http://purl.org/dc/dcmitype/StillImage" /></cc:Work></rdf:RDF></metadata><defs
     id="defs6" /><g
     transform="matrix(1.3333333,0,0,-1.3333333,0,123.62667)"
     id="g10"><g
       transform="scale(0.1)"
       id="g12"><path
         id="path14"
         style="fill:#222325;fill-opacity:1;fill-rule:nonzero;stroke:none"
         d="m 1185.95,730.523 87.19,0.446 0.49,-88.02 44.84,0.227 -1.05,203.609 -44.89,-0.226 0.44,-75.914 -87.24,-0.446 -0.39,75.914 -44.89,-0.273 1.05,-203.555 44.9,0.223 -0.45,88.015" /><path
         id="path16"
         style="fill:#222325;fill-opacity:1;fill-rule:nonzero;stroke:none"
         d="m 1427.24,642.398 44.9,0.274 -0.44,86.797 75.91,117.148 -53.27,-0.222 -45.34,-76.473 -43.56,75.973 -55.83,-0.278 77.19,-116.375 0.44,-86.844" /><path
         id="path18"
         style="fill:#222325;fill-opacity:1;fill-rule:nonzero;stroke:none"
         d="m 1647.16,808.492 c 4.22,0.055 8.67,-0.168 13.27,-0.609 4.61,-0.445 8.82,-1.559 12.54,-3.219 3.77,-1.723 6.83,-4.164 9.27,-7.328 2.39,-3.16 3.61,-7.324 3.66,-12.484 0,-4.774 -0.84,-8.774 -2.66,-11.93 -1.84,-3.164 -4.16,-5.664 -7.16,-7.496 -3,-1.832 -6.33,-3.164 -10.05,-3.942 -3.77,-0.773 -7.6,-1.218 -11.65,-1.218 l -29.91,-0.168 -0.27,48.281 z m -22.19,-165.707 -0.39,79.356 32.8,0.172 c 10.76,0.05 20.69,1.105 29.91,3.214 9.21,2.051 17.15,5.496 23.86,10.325 6.66,4.824 11.93,11.261 15.7,19.363 3.78,8.101 5.67,18.039 5.61,29.969 -0.05,12.097 -2.16,22.089 -6.38,30.023 -4.16,7.934 -9.77,14.203 -16.76,18.867 -7.05,4.664 -15.26,7.879 -24.69,9.766 -9.38,1.89 -19.37,2.777 -29.92,2.719 l -75.69,-0.387 1.11,-203.606 44.84,0.219" /><path
         id="path20"
         style="fill:#222325;fill-opacity:1;fill-rule:nonzero;stroke:none"
         d="m 1908.27,643.117 -0.23,41.403 -98.72,-0.5 -0.22,41.398 88.35,0.441 -0.23,41.399 -88.35,-0.445 -0.16,37.96 93.51,0.5 -0.22,41.399 -138.41,-0.723 1.05,-203.609 143.63,0.777" /><path
         id="path22"
         style="fill:#222325;fill-opacity:1;fill-rule:nonzero;stroke:none"
         d="m 1984.68,762.098 -0.22,46.281 29.35,0.168 c 4.06,0.055 8.17,-0.223 12.38,-0.777 4.22,-0.555 8,-1.614 11.27,-3.278 3.27,-1.605 5.93,-3.933 8.1,-6.992 2.11,-3.051 3.22,-7.156 3.22,-12.371 0,-5.555 -1.17,-9.879 -3.55,-12.93 -2.39,-3.051 -5.39,-5.386 -9.05,-6.828 -3.61,-1.5 -7.72,-2.328 -12.21,-2.664 -4.49,-0.332 -8.77,-0.5 -12.82,-0.5 z m 65.37,-118.981 53.83,0.278 -52.27,85.738 c 14.43,2.777 25.3,9.16 32.68,19.258 7.44,10.156 11.11,22.363 11.05,36.738 -0.06,11.875 -2.17,21.754 -6.38,29.687 -4.17,7.938 -9.77,14.207 -16.77,18.872 -7.04,4.66 -15.2,7.988 -24.52,9.933 -9.27,1.996 -19.15,2.938 -29.47,2.883 l -78.86,-0.441 1.06,-203.61 44.89,0.219 -0.44,81.41 22.2,0.113 43,-81.078" /><path
         id="path24"
         style="fill:#222325;fill-opacity:1;fill-rule:nonzero;stroke:none"
         d="m 2263.04,643.395 -0.22,41.402 -83.19,-0.445 -0.83,162.207 -44.9,-0.219 1.06,-203.61 128.08,0.665" /><path
         id="path26"
         style="fill:#222325;fill-opacity:1;fill-rule:nonzero;stroke:none"
         d="m 2438.84,643.23 -0.21,41.399 -98.73,-0.5 -0.22,41.398 88.34,0.5 -0.21,41.34 -88.35,-0.441 -0.17,37.957 93.51,0.5 -0.23,41.402 -138.39,-0.722 1.05,-203.555 143.61,0.722" /><path
         id="path28"
         style="fill:#222325;fill-opacity:1;fill-rule:nonzero;stroke:none"
         d="m 2539.01,684.293 -23.3,-0.105 -0.66,120.808 26.46,0.164 c 9.38,0.055 18.37,-1.105 26.91,-3.492 8.5,-2.336 15.99,-5.887 22.37,-10.656 6.38,-4.778 11.43,-10.824 15.2,-18.203 3.78,-7.383 5.73,-16.039 5.77,-26.028 0.06,-11.488 -1.76,-21.254 -5.44,-29.191 -3.71,-7.988 -8.81,-14.426 -15.31,-19.367 -6.49,-4.938 -14.21,-8.43 -23.08,-10.653 -8.88,-2.109 -18.54,-3.218 -28.92,-3.277 z m 85.3,-14.926 c 10.49,8.543 18.81,19.145 24.97,31.742 6.17,12.598 9.21,27.137 9.11,43.618 -0.06,18.589 -3.39,34.351 -9.89,47.394 -6.49,13.039 -15.25,23.531 -26.25,31.629 -10.98,8.102 -23.8,13.934 -38.5,17.48 -14.71,3.555 -30.2,5.274 -46.51,5.223 l -67.31,-0.34 1.1,-203.605 73.37,0.39 c 15.15,0.051 29.63,2.329 43.45,6.825 13.76,4.55 25.92,11.047 36.46,19.644" /><path
         id="path30"
         style="fill:#222325;fill-opacity:1;fill-rule:nonzero;stroke:none"
         d="m 2805.11,763.543 0.22,-41.402 36.57,0.172 0.17,-33.079 c -4.22,-2.328 -9.88,-4.605 -16.93,-6.828 -7.1,-2.218 -15.53,-3.383 -25.3,-3.441 -9.6,-0.055 -18.31,1.558 -26.08,4.719 -7.78,3.222 -14.49,7.765 -20.09,13.597 -5.61,5.824 -9.88,12.703 -12.93,20.645 -3,7.933 -4.55,16.703 -4.61,26.304 -0.06,9.379 1.39,18.09 4.33,26.192 2.94,8.105 7.15,15.039 12.71,20.976 5.55,5.883 12.21,10.434 19.92,13.762 7.77,3.274 16.43,4.996 26.03,4.996 11.48,0.055 21.14,-1.5 28.8,-4.715 7.71,-3.222 14.64,-7.996 20.81,-14.261 l 31.46,34.679 c -10.37,9.547 -22.47,16.207 -36.24,20.09 -13.7,3.887 -28.74,5.719 -45.06,5.664 -15.92,-0.058 -30.57,-2.668 -43.94,-7.715 -13.44,-5.05 -24.98,-12.21 -34.75,-21.585 -9.76,-9.383 -17.31,-20.704 -22.69,-33.911 -5.38,-13.265 -8.05,-28.023 -7.94,-44.339 0.11,-16.317 2.89,-31.02 8.43,-44.286 5.55,-13.211 13.22,-24.414 23.09,-33.629 9.82,-9.265 21.47,-16.312 34.91,-21.253 13.43,-4.883 28.14,-7.325 44.06,-7.211 14.99,0.05 29.63,1.664 44.01,4.824 14.37,3.109 28.13,8.211 41.34,15.203 l -0.55,106.387 -79.75,-0.555" /><path
         id="path32"
         style="fill:#222325;fill-opacity:1;fill-rule:nonzero;stroke:none"
         d="m 3061.16,647.945 -0.23,41.403 -98.66,-0.559 -0.22,41.457 88.35,0.445 -0.23,41.395 -88.35,-0.445 -0.21,37.961 93.5,0.496 -0.16,41.402 -138.41,-0.723 1.05,-203.609 143.57,0.777" /><path
         id="path34"
         style="fill:#222325;fill-opacity:1;fill-rule:nonzero;stroke:none"
         d="m 3166.72,813.375 c 4.04,0 8.15,-0.223 12.37,-0.777 4.22,-0.555 7.99,-1.61 11.21,-3.278 3.27,-1.605 5.99,-3.937 8.09,-6.992 2.11,-3.051 3.17,-7.156 3.23,-12.371 0,-5.551 -1.16,-9.879 -3.56,-12.93 -2.38,-3.05 -5.38,-5.386 -9.04,-6.773 -3.66,-1.496 -7.72,-2.328 -12.21,-2.66 -4.5,-0.278 -8.77,-0.504 -12.82,-0.504 l -26.47,-0.164 -0.22,46.285 z m -28.48,-165.816 -0.44,81.406 22.14,0.113 43.01,-81.133 53.82,0.278 -52.27,85.683 c 14.37,2.774 25.31,9.215 32.74,19.258 7.39,10.152 11.11,22.363 11.05,36.734 -0.06,11.879 -2.17,21.813 -6.33,29.692 -4.16,7.937 -9.77,14.265 -16.82,18.867 -7.04,4.664 -15.2,7.996 -24.52,9.934 -9.32,1.996 -19.15,2.945 -29.53,2.886 l -78.86,-0.386 1.06,-203.555 44.95,0.223" /><path
         id="path36"
         style="fill:#f35f19;fill-opacity:1;fill-rule:nonzero;stroke:none"
         d="m 1122.8,278.703 c 0,128.27 94.35,212.758 211.52,212.758 73.38,0 123.95,-32.066 159.72,-76.469 l -40.69,-25.902 c -25.9,33.305 -69.7,56.742 -119.03,56.742 -90.04,0 -158.49,-68.453 -158.49,-167.129 0,-97.437 68.45,-167.113 158.49,-167.113 49.33,0 90.05,23.418 111.01,44.387 v 83.257 h -141.84 v 45.629 h 192.4 V 136.859 c -38.23,-43.1559 -94.35,-71.5309 -161.57,-71.5309 -117.17,0 -211.52,85.7269 -211.52,213.3749" /><path
         id="path38"
         style="fill:#f35f19;fill-opacity:1;fill-rule:nonzero;stroke:none"
         d="m 1820.94,360.719 c 0,46.871 -33.92,78.32 -82.63,78.32 H 1630.4 V 281.781 h 107.91 c 48.71,0 82.63,32.692 82.63,78.938 z M 1817.24,73.3477 1713.02,236.766 H 1630.4 V 73.3477 h -51.2 V 484.668 h 165.27 c 75.24,0 129.5,-48.094 129.5,-123.949 0,-74.004 -51.17,-114.696 -107.28,-119.633 L 1877.68,73.3477 h -60.44" /><path
         id="path40"
         style="fill:#f35f19;fill-opacity:1;fill-rule:nonzero;stroke:none"
         d="M 1954.79,73.3477 V 484.668 h 51.19 V 73.3477 h -51.19" /><path
         id="path42"
         style="fill:#f35f19;fill-opacity:1;fill-rule:nonzero;stroke:none"
         d="m 2400.69,278.703 c 0,88.805 -56.12,160.336 -157.87,160.336 H 2153.4 V 118.977 h 89.42 c 99.91,0 157.87,71.546 157.87,159.726 z M 2102.21,73.3477 V 484.668 h 140.61 c 128.26,0 210.91,-89.418 210.91,-205.965 0,-117.164 -82.65,-205.3553 -210.91,-205.3553 h -140.61" /><path
         id="path44"
         style="fill:#222325;fill-opacity:1;fill-rule:nonzero;stroke:none"
         d="M 488.531,673.152 V 820.211 H 630.918 V 673.152 H 488.531" /><path
         id="path46"
         style="fill:#222325;fill-opacity:1;fill-rule:nonzero;stroke:none"
         d="M 680.77,673.152 V 820.211 H 820.211 V 673.152 H 680.77" /><path
         id="path48"
         style="fill:#222325;fill-opacity:1;fill-rule:nonzero;stroke:none"
         d="M 106.988,485.305 V 623.297 H 250.82 V 485.305 H 106.988" /><path
         id="path50"
         style="fill:#222325;fill-opacity:1;fill-rule:nonzero;stroke:none"
         d="M 488.531,485.305 V 623.297 H 630.918 V 485.305 H 488.531" /><path
         id="path52"
         style="fill:#222325;fill-opacity:1;fill-rule:nonzero;stroke:none"
         d="M 300.676,106.988 V 243.199 H 438.68 V 106.988 H 300.676" /><path
         id="path54"
         style="fill:#222325;fill-opacity:1;fill-rule:nonzero;stroke:none"
         d="M 300.676,673.152 V 820.211 H 438.68 V 673.152 H 300.676" /><path
         id="path56"
         style="fill:#222325;fill-opacity:1;fill-rule:nonzero;stroke:none"
         d="M 680.77,485.305 V 623.297 H 820.211 V 485.305 H 680.77" /><path
         id="path58"
         style="fill:#222325;fill-opacity:1;fill-rule:nonzero;stroke:none"
         d="M 300.676,485.305 V 623.297 H 438.68 V 485.305 H 300.676" /><path
         id="path60"
         style="fill:#222325;fill-opacity:1;fill-rule:nonzero;stroke:none"
         d="M 300.676,293.055 V 435.449 H 438.68 V 293.055 H 300.676" /><path
         id="path62"
         style="fill:#f35f19;fill-opacity:1;fill-rule:nonzero;stroke:none"
         d="M 488.531,293.055 V 435.449 H 630.918 V 293.055 H 488.531" /><path
         id="path64"
         style="fill:#f35f19;fill-opacity:1;fill-rule:nonzero;stroke:none"
         d="M 106.988,673.152 V 820.211 H 250.82 V 673.152 H 106.988" /><path
         id="path66"
         style="fill:#222325;fill-opacity:1;fill-rule:nonzero;stroke:none"
         d="M 106.988,106.988 V 243.199 H 250.82 V 106.988 H 106.988" /><path
         id="path68"
         style="fill:#222325;fill-opacity:1;fill-rule:nonzero;stroke:none"
         d="M 106.988,293.055 V 435.449 H 250.82 V 293.055 H 106.988" /><path
         id="path70"
         style="fill:#f35f19;fill-opacity:1;fill-rule:nonzero;stroke:none"
         d="M 927.199,927.199 H 0 V 0 H 927.199 V 50.1953 877.004 Z M 876.996,877.004 V 50.1953 H 50.1953 V 877.004 H 876.996" /></g></g></svg>