<?xml version="1.0" encoding="UTF-8" standalone="no"?>
<svg
   xmlns:dc="http://purl.org/dc/elements/1.1/"
   xmlns:cc="http://creativecommons.org/ns#"
   xmlns:rdf="http://www.w3.org/1999/02/22-rdf-syntax-ns#"
   xmlns:svg="http://www.w3.org/2000/svg"
   xmlns="http://www.w3.org/2000/svg"
   viewBox="0 0 491.85333 130.09332"
   height="130.09332"
   width="491.85333"
   xml:space="preserve"
   id="svg2"
   version="1.1"><metadata
     id="metadata8"><rdf:RDF><cc:Work
         rdf:about=""><dc:format>image/svg+xml</dc:format><dc:type
           rdf:resource="http://purl.org/dc/dcmitype/StillImage" /></cc:Work></rdf:RDF></metadata><defs
     id="defs6" /><g
     transform="matrix(1.3333333,0,0,-1.3333333,0,130.09333)"
     id="g10"><g
       transform="scale(0.1)"
       id="g12"><path
         id="path14"
         style="fill:#232325;fill-opacity:1;fill-rule:nonzero;stroke:none"
         d="m 1226.11,755.313 87.02,0.46 0.46,-87.796 44.79,0.218 -1.07,203.157 -44.79,-0.227 0.41,-75.762 -87.02,-0.441 -0.42,75.734 -44.78,-0.238 1.06,-203.148 44.8,0.242 -0.46,87.801" /><path
         id="path16"
         style="fill:#232325;fill-opacity:1;fill-rule:nonzero;stroke:none"
         d="m 1466.89,667.41 44.79,0.238 -0.45,86.649 75.76,116.887 -53.13,-0.254 -45.25,-76.282 -43.48,75.813 -55.71,-0.293 77.02,-116.098 0.45,-86.66" /><path
         id="path18"
         style="fill:#232325;fill-opacity:1;fill-rule:nonzero;stroke:none"
         d="m 1686.32,833.152 c 4.2,0.039 8.61,-0.183 13.21,-0.629 4.6,-0.453 8.8,-1.546 12.51,-3.222 3.75,-1.711 6.81,-4.133 9.24,-7.281 2.4,-3.145 3.6,-7.317 3.64,-12.465 0.02,-4.785 -0.86,-8.754 -2.66,-11.914 -1.8,-3.164 -4.17,-5.657 -7.13,-7.5 -2.97,-1.832 -6.3,-3.168 -10.03,-3.93 -3.75,-0.789 -7.6,-1.199 -11.64,-1.207 l -29.85,-0.156 -0.26,48.199 z m -22.11,-165.379 -0.41,79.2 32.74,0.164 c 10.72,0.058 20.65,1.117 29.85,3.187 9.18,2.047 17.08,5.469 23.78,10.289 6.67,4.84 11.91,11.266 15.7,19.301 3.78,8.078 5.64,18.024 5.59,29.895 -0.08,12.046 -2.19,22.046 -6.36,29.957 -4.15,7.902 -9.73,14.179 -16.72,18.851 -7.04,4.637 -15.25,7.891 -24.63,9.75 -9.38,1.887 -19.36,2.778 -29.88,2.715 l -75.53,-0.391 1.08,-203.144 44.79,0.226" /><path
         id="path20"
         style="fill:#232325;fill-opacity:1;fill-rule:nonzero;stroke:none"
         d="m 1946.86,668.105 -0.21,41.297 -98.51,-0.5 -0.21,41.325 88.17,0.468 -0.22,41.325 -88.16,-0.469 -0.2,37.859 93.33,0.5 -0.23,41.324 -138.11,-0.722 1.06,-203.149 143.29,0.742" /><path
         id="path22"
         style="fill:#232325;fill-opacity:1;fill-rule:nonzero;stroke:none"
         d="m 2023.14,786.859 -0.24,46.18 29.29,0.149 c 4.03,0.039 8.13,-0.227 12.34,-0.778 4.21,-0.562 7.97,-1.621 11.23,-3.246 3.26,-1.617 5.95,-3.945 8.06,-6.992 2.12,-3.039 3.2,-7.152 3.24,-12.324 0.01,-5.551 -1.16,-9.844 -3.52,-12.922 -2.39,-3.071 -5.39,-5.34 -9.02,-6.789 -3.62,-1.473 -7.69,-2.324 -12.18,-2.649 -4.49,-0.308 -8.77,-0.476 -12.78,-0.5 z m 65.22,-118.754 53.7,0.278 -52.15,85.535 c 14.36,2.754 25.25,9.148 32.64,19.238 7.41,10.11 11.09,22.317 11.02,36.672 -0.07,11.836 -2.18,21.723 -6.35,29.652 -4.15,7.907 -9.73,14.2 -16.72,18.852 -7.05,4.641 -15.19,7.953 -24.49,9.906 -9.26,1.969 -19.1,2.918 -29.42,2.864 l -78.68,-0.43 1.03,-203.145 44.81,0.239 -0.43,81.211 22.14,0.117 42.9,-80.989" /><path
         id="path24"
         style="fill:#232325;fill-opacity:1;fill-rule:nonzero;stroke:none"
         d="m 2300.9,668.398 -0.24,41.321 -83,-0.434 -0.86,161.836 -44.77,-0.23 1.05,-203.145 127.82,0.652" /><path
         id="path26"
         style="fill:#232325;fill-opacity:1;fill-rule:nonzero;stroke:none"
         d="m 2476.3,668.234 -0.21,41.301 -98.5,-0.5 -0.23,41.324 88.17,0.469 -0.22,41.301 -88.14,-0.441 -0.22,37.863 93.32,0.496 -0.21,41.324 -138.12,-0.726 1.07,-203.149 143.29,0.738" /><path
         id="path28"
         style="fill:#232325;fill-opacity:1;fill-rule:nonzero;stroke:none"
         d="m 2576.27,709.227 -23.26,-0.133 -0.64,120.527 26.42,0.149 c 9.38,0.039 18.35,-1.098 26.87,-3.461 8.51,-2.332 15.97,-5.875 22.31,-10.633 6.33,-4.758 11.4,-10.789 15.16,-18.145 3.77,-7.351 5.7,-16.004 5.75,-25.945 0.05,-11.484 -1.76,-21.207 -5.45,-29.152 -3.7,-7.961 -8.79,-14.407 -15.27,-19.301 -6.47,-4.918 -14.16,-8.434 -23.06,-10.613 -8.87,-2.141 -18.5,-3.235 -28.83,-3.293 z m 85.08,-14.891 c 10.47,8.543 18.8,19.117 24.95,31.684 6.16,12.543 9.19,27.058 9.1,43.519 -0.08,18.555 -3.37,34.301 -9.85,47.297 -6.5,12.996 -15.21,23.488 -26.17,31.566 -10.94,8.063 -23.78,13.907 -38.43,17.461 -14.65,3.539 -30.14,5.282 -46.41,5.192 l -67.19,-0.356 1.08,-203.148 73.23,0.39 c 15.11,0.071 29.55,2.344 43.33,6.832 13.75,4.469 25.87,10.981 36.36,19.563" /><path
         id="path30"
         style="fill:#232325;fill-opacity:1;fill-rule:nonzero;stroke:none"
         d="m 2841.8,788.277 0.21,-41.32 36.46,0.184 0.19,-33.008 c -4.21,-2.324 -9.84,-4.594 -16.89,-6.828 -7.08,-2.235 -15.5,-3.371 -25.27,-3.426 -9.56,-0.039 -18.25,1.523 -26.02,4.734 -7.76,3.223 -14.45,7.723 -20.03,13.543 -5.58,5.789 -9.87,12.66 -12.88,20.59 -3.01,7.91 -4.53,16.641 -4.58,26.227 -0.06,9.359 1.38,18.078 4.29,26.113 2.95,8.062 7.16,15.023 12.67,20.906 5.55,5.863 12.17,10.403 19.9,13.719 7.75,3.289 16.4,4.969 25.97,5.008 11.48,0.074 21.06,-1.508 28.73,-4.711 7.67,-3.211 14.6,-7.969 20.76,-14.258 l 31.4,34.605 c -10.38,9.516 -22.45,16.192 -36.15,20.047 -13.7,3.856 -28.7,5.731 -44.98,5.637 -15.89,-0.074 -30.52,-2.637 -43.85,-7.707 -13.41,-5.023 -24.96,-12.207 -34.65,-21.531 -9.74,-9.348 -17.27,-20.629 -22.68,-33.844 -5.38,-13.23 -8.04,-27.965 -7.95,-44.223 0.1,-16.269 2.89,-30.976 8.42,-44.171 5.53,-13.168 13.19,-24.364 23.03,-33.583 9.81,-9.234 21.41,-16.285 34.84,-21.203 13.42,-4.89 28.09,-7.289 43.99,-7.218 14.93,0.078 29.56,1.671 43.9,4.824 14.34,3.129 28.1,8.183 41.27,15.148 l -0.56,106.172 -79.54,-0.426" /><path
         id="path32"
         style="fill:#232325;fill-opacity:1;fill-rule:nonzero;stroke:none"
         d="m 3097.3,672.934 -0.22,41.296 -98.49,-0.515 -0.22,41.336 88.17,0.465 -0.21,41.308 -88.18,-0.449 -0.19,37.863 93.31,0.5 -0.21,41.301 -138.11,-0.723 1.07,-203.144 143.28,0.762" /><path
         id="path34"
         style="fill:#232325;fill-opacity:1;fill-rule:nonzero;stroke:none"
         d="m 3202.6,837.988 c 4.06,0.02 8.15,-0.226 12.38,-0.8 4.18,-0.543 7.95,-1.618 11.2,-3.243 3.28,-1.625 5.98,-3.949 8.09,-7 2.1,-3.031 3.19,-7.148 3.23,-12.324 0.02,-5.547 -1.16,-9.844 -3.54,-12.914 -2.38,-3.07 -5.39,-5.348 -9,-6.777 -3.63,-1.485 -7.7,-2.344 -12.18,-2.66 -4.5,-0.297 -8.77,-0.485 -12.77,-0.485 l -26.43,-0.144 -0.24,46.175 z m -28.41,-165.441 -0.43,81.207 22.11,0.117 42.93,-80.973 53.7,0.278 -52.14,85.519 c 14.35,2.77 25.24,9.172 32.65,19.243 7.39,10.109 11.07,22.316 11,36.671 -0.07,11.836 -2.18,21.739 -6.33,29.653 -4.17,7.926 -9.72,14.215 -16.74,18.851 -7.04,4.633 -15.18,7.95 -24.47,9.903 -9.3,1.992 -19.12,2.922 -29.44,2.867 l -78.68,-0.414 1.06,-203.141 44.78,0.219" /><path
         id="path36"
         style="fill:#9ed638;fill-opacity:1;fill-rule:nonzero;stroke:none"
         d="m 1239.29,154.602 h 82.98 c 34.13,0 90.05,11.769 90.05,70.621 0,49.437 -34.72,74.156 -89.46,74.156 h -83.57 z m 0,194.214 h 77.09 c 42.97,0 77.69,17.067 77.69,62.383 0,32.957 -20.6,61.207 -65.91,61.207 h -88.87 z m -56.49,173.028 h 144.77 c 72.39,0 126.53,-33.543 126.53,-104.168 0,-47.672 -29.42,-77.688 -71.8,-91.813 v -1.175 c 50.03,-3.532 90.05,-47.672 90.05,-103.583 0,-74.746 -65.33,-115.941 -146.55,-115.941 h -143 v 416.68" /><path
         id="path38"
         style="fill:#9ed638;fill-opacity:1;fill-rule:nonzero;stroke:none"
         d="M 1602.44,521.844 V 266.426 c 0,-51.793 25.9,-118.891 104.76,-118.891 78.86,0 104.76,67.098 104.76,118.891 v 255.418 h 56.5 V 257.598 c 0,-96.528 -70.03,-163.0277 -161.26,-163.0277 -91.22,0 -161.26,66.4997 -161.26,163.0277 v 264.246 h 56.5" /><path
         id="path40"
         style="fill:#9ed638;fill-opacity:1;fill-rule:nonzero;stroke:none"
         d="m 2024.46,338.223 h 74.15 c 44.73,0 89.46,10.593 89.46,67.093 0,56.5 -44.73,67.09 -89.46,67.09 h -74.15 z m -56.5,183.621 h 146.54 c 106.52,0 133.6,-64.149 133.6,-116.528 0,-52.968 -39.43,-102.996 -102.41,-110.054 l 118.3,-190.098 h -70.62 l -105.94,183.621 h -62.97 V 105.164 h -56.5 v 416.68" /><path
         id="path42"
         style="fill:#9ed638;fill-opacity:1;fill-rule:nonzero;stroke:none"
         d="m 2384.09,338.223 h 74.15 c 44.73,0 89.46,10.593 89.46,67.093 0,56.5 -44.73,67.09 -89.46,67.09 h -74.15 z m -56.5,183.621 h 146.54 c 106.52,0 133.6,-64.149 133.6,-116.528 0,-52.968 -39.43,-102.996 -102.41,-110.054 l 118.3,-190.098 H 2553 l -105.94,183.621 h -62.97 V 105.164 h -56.5 v 416.68" /><path
         id="path44"
         style="fill:#9ed638;fill-opacity:1;fill-rule:nonzero;stroke:none"
         d="m 3035.61,313.504 c 0,91.223 -61.78,165.969 -157.13,165.969 -95.35,0 -157.13,-74.746 -157.13,-165.969 0,-91.223 61.78,-165.969 157.13,-165.969 95.35,0 157.13,74.746 157.13,165.969 z m -374.3,0 c 0,123.594 90.04,218.937 217.17,218.937 127.12,0 217.17,-95.343 217.17,-218.937 0,-123.59 -90.05,-218.9337 -217.17,-218.9337 -127.13,0 -217.17,95.3437 -217.17,218.9337" /><path
         id="path46"
         style="fill:#9ed638;fill-opacity:1;fill-rule:nonzero;stroke:none"
         d="m 3123.94,521.844 h 58.86 l 91.81,-333.11 h 1.18 l 98.28,333.11 h 64.74 l 98.29,-333.11 h 1.17 l 91.82,333.11 h 58.84 L 3567.7,105.164 h -59.44 l -101.23,340.172 h -1.18 L 3305.21,105.164 h -59.44 l -121.83,416.68" /><path
         id="path48"
         style="fill:#9ed638;fill-opacity:1;fill-rule:nonzero;stroke:none"
         d="m 436.301,565.699 c -1.621,1.621 -3.418,3.836 -5.215,6.531 -6.367,9.598 -13.965,25.747 -22.078,46.942 l 53.133,-36.336 c -1.493,-5.563 -2.813,-9.606 -4.481,-12.32 -2.824,-4.539 -7.246,-6.121 -18.75,-6.598 l -2.609,1.781" /><path
         id="path50"
         style="fill:#9ed638;fill-opacity:1;fill-rule:nonzero;stroke:none"
         d="M 117.258,482.293 260.59,685.863 117.258,783.879 Z M 88.5273,773.969 c 10.6954,14.742 21.9647,28.672 33.5277,41.429 L 277.133,709.359 289.25,726.57 c 7.813,-22.597 15.371,-48.461 22.023,-75.367 L 284.309,669.637 145.223,472.23 88.5586,452.855 88.5273,773.969" /><path
         id="path52"
         style="fill:#9ed638;fill-opacity:1;fill-rule:nonzero;stroke:none"
         d="M 472.777,937.313 362.172,780.215 c -1.086,4.715 -2.149,9.457 -3.184,14.226 13.614,18.36 18.575,35.895 14.766,52.145 l 90.574,128.637 c 6.387,0.257 12.785,0.472 19.231,0.472 l 4.207,-0.105 4.257,0.105 c 6.446,0 12.844,-0.215 19.231,-0.472 L 696.289,712.414 c -3.336,0.137 -6.687,0.207 -10.055,0.207 -7.265,0 -15.058,-0.367 -24.414,-1.156 L 502.805,937.313 V 655.434 c -6.278,-5.168 -11.844,-10.821 -16.563,-16.809 -5.418,-6.969 -9.832,-14.328 -13.465,-22.445 z m 360.157,-469.458 -58.879,84.208 c 6.593,9.148 12.168,17.636 16.965,25.828 l 67.304,-95.598 V 783.879 L 743.695,705.492 c -13.324,3.426 -27.14,5.633 -41.269,6.586 L 853.52,815.402 c 11.55,-12.754 22.832,-26.679 33.535,-41.433 l -0.059,-322.676 -54.062,16.562" /><path
         id="path54"
         style="fill:#9ed638;fill-opacity:1;fill-rule:nonzero;stroke:none"
         d="m 438.195,563.891 0.528,-0.414 c -0.176,0.117 -0.352,0.257 -0.528,0.414" /><path
         id="path56"
         style="fill:#4fc17b;fill-opacity:1;fill-rule:nonzero;stroke:none"
         d="m 858.324,196.113 -134.953,56.36 134.953,166.476 z M 695.746,264.012 532.199,332.316 835.09,435.926 Z M 502.805,26.0078 V 313.461 l 174.074,-72.707 z m -30.028,0 -174.082,214.7462 174.082,72.707 z M 140.492,435.926 399.594,347.293 440.746,331.219 279.836,264.012 Z M 117.258,196.113 V 418.949 L 252.211,252.473 Z M 625.5,643.977 c 1.867,5.988 8.352,16.57 20.801,18.226 l 1.015,0.07 h 0.129 c 4.825,0 8.934,-3.57 9.559,-8.296 0.344,-2.532 -0.32,-5.047 -1.875,-7.082 -1.551,-2.032 -3.809,-3.34 -6.348,-3.68 -3.379,-0.453 -5,-4.961 -5,-4.953 -1.258,-4.02 -4.929,-6.719 -9.14,-6.719 -0.957,0 -1.914,0.145 -2.86,0.437 -2.441,0.758 -4.433,2.426 -5.625,4.692 -1.183,2.273 -1.418,4.863 -0.656,7.305 z m 263.371,-190.723 -0.832,0.734 -1.531,0.063 -150.43,50.73 c -6.594,-7.367 -13.664,-14.965 -21.047,-22.859 l -0.254,-0.274 87.59,-29.515 -183.808,-62.715 c 10.156,32.191 40.293,71.082 67.636,100.527 l 9.004,9.668 c 5.379,5.766 10.645,11.403 15.653,16.879 6.054,6.621 11.769,13.031 16.769,19.113 6.902,8.387 14.918,18.29 22.723,28.895 -13.477,3.613 -25.156,4.402 -32.774,4.402 -4.929,0 -7.929,-0.336 -8.289,-0.382 l -1.152,-0.075 c -4.824,0 -8.945,3.575 -9.582,8.305 -0.344,2.535 0.324,5.055 1.887,7.086 1.55,2.031 3.808,3.34 6.375,3.684 0.714,0.085 4.589,0.531 10.793,0.531 7.527,0 19.394,-0.676 33.183,-3.899 3.613,-0.843 7.313,-1.816 11.121,-3.019 4.903,7.547 9.153,14.972 12.629,22.101 0.32,0.668 0.551,1.25 0.86,1.903 -5.075,0.285 -10.481,1 -16.356,2.453 -6.504,1.601 -39.324,10.527 -46.816,28.687 -6.762,16.375 4.605,33.5 9.797,40.094 1.625,2.067 3.414,3.945 5.218,5.797 -2.875,0.555 -5.742,1.121 -8.73,1.562 -10.379,1.536 -21.238,2.317 -32.274,2.317 -7.113,0 -15.039,-0.426 -24.23,-1.289 -13.035,-1.231 -26.074,-3.281 -38.738,-6.102 -9.571,-11.504 -14.27,-23.402 -16.536,-31.414 -1.609,-5.691 -2.031,-9.426 -2.039,-9.465 -0.39,-4.918 -4.55,-8.781 -10.226,-8.781 -0.027,0 -0.059,0 -0.078,0 -3.965,0.313 -7.266,3.02 -8.391,6.891 -0.348,1.203 -0.484,2.32 -0.398,3.433 0.136,1.633 1.543,15.321 9.824,31.825 -20.293,-6.411 -39.656,-14.543 -57.625,-24.204 -13.274,-7.121 -23.449,-15.414 -31.125,-25.351 -9.617,-12.457 -13.633,-25.684 -16.649,-37.117 l -0.878,-3.43 c -1.946,-7.473 -3.774,-14.527 -6.614,-20.406 -2.519,-8.223 -5.789,-16.137 -10,-24.199 -12.402,-23.739 -27.273,-36.411 -27.41,-36.516 -1.719,-1.484 -3.926,-2.301 -6.211,-2.301 -2.805,0 -5.449,1.215 -7.265,3.332 -3.442,3.996 -2.981,10.051 1.015,13.504 0.106,0.094 9.844,8.777 19.219,24.316 -3.82,-0.695 -8.145,-1.171 -13.184,-1.425 l -3.086,-0.121 c -9.394,0 -19.004,8.351 -29.386,25.539 -4.629,7.664 -9.453,17.246 -14.356,28.488 -6.582,15.082 -13.379,33.246 -20.176,53.98 -12.324,37.571 -22.898,77.938 -29.597,105.184 -4.758,19.379 -8.254,34.84 -10.078,43.16 l -1.692,7.856 0.735,0.816 c 16.882,18.77 21.648,34.938 13.406,45.516 -2.254,2.906 -4.863,4.316 -7.969,4.316 -0.351,0 -0.762,-0.094 -2.031,-0.371 -1.043,-0.195 -2.059,-0.449 -3.301,-0.938 -0.586,-0.238 -1.172,-0.472 -1.68,-0.75 -1.179,-0.64 -2.539,-1.429 -3.64,-2.441 -11.25,-10.312 -11.301,-34.25 -11.301,-35.246 0.051,-2.543 -0.898,-4.953 -2.676,-6.797 -1.777,-1.844 -4.168,-2.891 -6.894,-2.934 -5.184,0 -9.481,4.215 -9.571,9.383 -0.039,1.774 -0.547,42.844 26.016,55.625 -2.922,55.836 -11.199,90.942 -22.188,94.012 -1.347,0.375 -2.617,0.57 -3.757,0.57 -2.735,0 -4.914,-1.074 -6.66,-3.285 -12.481,-15.816 2.011,-77.148 2.156,-77.765 l 1.015,-4.239 -3.984,1.758 c -3.34,1.477 -6.473,2.227 -9.324,2.227 -11.946,0 -15.899,-13.164 -16.055,-13.719 l -0.656,-2.227 -2.168,0.793 c -3.535,1.289 -6.836,1.95 -9.805,1.95 -15.047,0 -18.105,-16.95 -18.23,-17.668 l -0.754,-4.411 -2.988,3.329 c -0.536,0.601 -54.395,60.324 -76.797,60.32 -3.114,0 -5.215,-1.227 -6.59,-3.863 -12.676,-24.125 44.5,-56.055 90.43,-81.715 29.316,-16.371 54.636,-30.512 60.261,-41.246 3.879,-7.93 7.961,-17.465 12.141,-28.332 4.414,-11.497 8.914,-24.481 13.387,-38.594 4.023,-12.723 7.882,-25.938 11.476,-39.289 4.324,-16.043 8.262,-32.235 11.688,-48.129 6.906,-31.953 11.269,-60.356 12.617,-82.141 0.762,-12.304 0.558,-22.422 -0.586,-30.07 l -0.996,-5.832 c -7.52,-43.317 -26.707,-92.742 -32.41,-106.863 l -0.762,-1.899 -148.672,50.848 153.613,51.765 c 1.153,5.407 2.168,10.75 2.938,15.93 0.613,4.047 0.851,9.289 0.715,15.617 L 152.328,475.402 88.3828,453.938 h -0.207 v -0.192 L 0.00390625,423.988 C 1.33203,413.762 2.82422,404.305 4.5625,395.199 l 83.9648,28.344 V 201.723 C 97.8945,188.82 107.699,176.547 117.719,165.168 L 271.066,229.211 456.195,0.824219 c 9.942,-0.558594 18.907,-0.82812525 27.364,-0.82812525 l 4.265,0.10937525 4.199,-0.10937525 c 8.45,0 17.415,0.26953125 27.356,0.82812525 L 704.516,229.211 857.863,165.168 c 10.02,11.379 19.825,23.652 29.192,36.555 v 221.82 l 83.953,-28.344 c 1.719,8.965 3.222,18.422 4.57,28.789 l -86.707,29.266" /><path
         id="path58"
         style="fill:#4fc17b;fill-opacity:1;fill-rule:nonzero;stroke:none"
         d="m 736.164,665.238 c -5.203,-6.613 -9.863,-15.89 -7.301,-22.09 2.629,-6.378 19.957,-14.496 34.489,-18.082 5.894,-1.461 11.195,-2.199 15.777,-2.199 0.016,0 0.023,0 0.039,0 0.742,0 1.461,0.024 2.172,0.055 0,0 10.351,39.613 -34.883,52.324 -3.73,-2.726 -7.242,-6.137 -10.293,-10.008" /></g></g></svg>