<?xml version="1.0" encoding="UTF-8" standalone="no"?>
<svg
   xmlns:dc="http://purl.org/dc/elements/1.1/"
   xmlns:cc="http://creativecommons.org/ns#"
   xmlns:rdf="http://www.w3.org/1999/02/22-rdf-syntax-ns#"
   xmlns:svg="http://www.w3.org/2000/svg"
   xmlns="http://www.w3.org/2000/svg"
   version="1.1"
   id="Layer_1"
   x="0px"
   y="0px"
   viewBox="0 0 1072.14 300"
   style="enable-background:new 0 0 1072.14 300;"
   xml:space="preserve"><metadata
   id="metadata85"><rdf:RDF><cc:Work
       rdf:about=""><dc:format>image/svg+xml</dc:format><dc:type
         rdf:resource="http://purl.org/dc/dcmitype/StillImage" /><dc:title></dc:title></cc:Work></rdf:RDF></metadata><defs
   id="defs83" />
<style
   type="text/css"
   id="style10">
	.st0{fill:none;}
	.st1{fill:#24272A;}
	.st2{fill:#AA9F84;}
	.st3{fill:#A8D04B;}
	.st4{fill:#80C88D;}
	.st5{fill:#FFFFFF;}
</style>
<g
   id="g78">
	<polygon
   class="st0"
   points="538.76,166.58 511.94,235.08 565.78,235.08 "
   id="polygon12" />
	<path
   class="st0"
   d="m 520.64,65.27 c 1.25,0 2.45,-0.13 3.61,-0.37 1.15,-0.24 2.19,-0.65 3.11,-1.22 0.92,-0.57 1.65,-1.34 2.21,-2.33 0.56,-0.98 0.83,-2.21 0.83,-3.7 -0.01,-1.6 -0.39,-2.89 -1.13,-3.87 -0.75,-0.98 -1.7,-1.73 -2.87,-2.26 -1.15,-0.52 -2.45,-0.86 -3.88,-1 -1.43,-0.14 -2.79,-0.21 -4.1,-0.2 l -7.12,0.03 0.08,14.95 z"
   id="path14" />
	<path
   class="st0"
   d="m 631.09,64.65 c 1.24,0 2.57,-0.06 3.96,-0.15 1.39,-0.1 2.65,-0.36 3.78,-0.82 1.13,-0.45 2.06,-1.15 2.8,-2.11 0.73,-0.95 1.1,-2.29 1.09,-4.01 -0.01,-1.61 -0.35,-2.88 -1,-3.82 -0.65,-0.95 -1.49,-1.67 -2.5,-2.17 -1.01,-0.5 -2.18,-0.83 -3.48,-1.01 -1.31,-0.17 -2.58,-0.25 -3.83,-0.24 l -9.09,0.05 0.07,14.32 z"
   id="path16" />
	<path
   class="st0"
   d="m 810.49,55.75 c -1.96,-1.47 -4.28,-2.57 -6.92,-3.3 -2.65,-0.73 -5.43,-1.09 -8.34,-1.07 l -8.19,0.05 0.2,37.38 7.22,-0.04 c 3.2,-0.02 6.19,-0.36 8.94,-1.02 2.76,-0.68 5.15,-1.77 7.15,-3.29 2.01,-1.52 3.59,-3.52 4.74,-5.99 1.14,-2.46 1.71,-5.48 1.69,-9.04 -0.02,-3.08 -0.61,-5.77 -1.78,-8.05 -1.17,-2.28 -2.74,-4.15 -4.71,-5.63 z"
   id="path18" />
	<path
   class="st0"
   d="m 991.89,63.01 c 1.39,-0.1 2.65,-0.36 3.78,-0.83 1.12,-0.44 2.05,-1.15 2.79,-2.1 0.74,-0.95 1.1,-2.29 1.1,-4.01 -0.01,-1.61 -0.35,-2.88 -1,-3.82 -0.66,-0.95 -1.49,-1.67 -2.51,-2.17 -1.01,-0.5 -2.18,-0.84 -3.48,-1.01 -1.31,-0.18 -2.58,-0.25 -3.84,-0.25 l -9.08,0.05 0.08,14.32 8.2,-0.05 c 1.24,0.02 2.56,-0.04 3.96,-0.13 z"
   id="path20" />
	<polygon
   class="st1"
   points="402.66,74.33 402.81,101.56 416.7,101.5 416.37,38.48 402.47,38.55 402.6,62.05 375.61,62.19 375.48,38.7 361.59,38.77 361.92,101.78 375.82,101.71 375.67,74.48 "
   id="polygon22" />
	<polygon
   class="st1"
   points="464.11,74.79 487.61,38.53 471.13,38.61 457.1,62.27 443.61,38.76 426.33,38.85 450.22,74.86 450.36,101.74 464.25,101.67 "
   id="polygon24" />
	<path
   class="st1"
   d="m 511.56,101.63 -0.13,-24.57 10.16,-0.05 c 3.33,-0.02 6.41,-0.35 9.26,-0.99 2.85,-0.63 5.3,-1.7 7.38,-3.19 2.07,-1.5 3.69,-3.49 4.87,-5.99 1.17,-2.51 1.75,-5.59 1.73,-9.27 -0.02,-3.74 -0.68,-6.84 -1.97,-9.29 -1.29,-2.45 -3.02,-4.4 -5.19,-5.85 -2.18,-1.44 -4.73,-2.45 -7.64,-3.02 -2.91,-0.58 -6,-0.86 -9.26,-0.84 l -23.43,0.12 0.34,63.01 z m 6.86,-51.3 c 1.31,-0.01 2.67,0.06 4.1,0.2 1.43,0.14 2.73,0.48 3.88,1 1.16,0.53 2.11,1.28 2.87,2.26 0.74,0.97 1.12,2.27 1.13,3.87 0,1.48 -0.27,2.72 -0.83,3.7 -0.56,0.98 -1.29,1.75 -2.21,2.33 -0.92,0.57 -1.96,0.98 -3.11,1.22 -1.16,0.24 -2.36,0.37 -3.61,0.37 l -9.26,0.05 -0.08,-14.95 z"
   id="path26" />
	<polygon
   class="st1"
   points="568.61,88.87 568.55,76.05 595.89,75.91 595.83,63.09 568.48,63.23 568.42,51.49 597.37,51.34 597.3,38.52 554.46,38.74 554.79,101.75 599.23,101.53 599.17,88.72 "
   id="polygon28" />
	<path
   class="st1"
   d="m 623.08,101.63 -0.13,-25.19 6.87,-0.04 13.31,25.12 16.66,-0.09 -16.19,-26.52 c 4.46,-0.85 7.83,-2.84 10.12,-5.97 2.3,-3.13 3.44,-6.92 3.42,-11.37 -0.02,-3.67 -0.68,-6.74 -1.97,-9.2 -1.29,-2.45 -3.02,-4.4 -5.19,-5.85 -2.18,-1.44 -4.71,-2.47 -7.59,-3.07 -2.87,-0.61 -5.93,-0.91 -9.13,-0.89 l -24.4,0.13 0.32,63.01 z m 8.82,-51.31 c 1.25,-0.01 2.52,0.07 3.83,0.24 1.3,0.17 2.47,0.5 3.48,1.01 1.01,0.5 1.85,1.22 2.5,2.17 0.66,0.94 0.99,2.22 1,3.82 0,1.72 -0.36,3.05 -1.09,4.01 -0.74,0.95 -1.67,1.66 -2.8,2.11 -1.12,0.46 -2.38,0.72 -3.78,0.82 -1.39,0.1 -2.72,0.15 -3.96,0.15 l -8.2,0.04 -0.07,-14.32 z"
   id="path30" />
	<polygon
   class="st1"
   points="683.23,88.75 682.96,38.55 669.07,38.62 669.4,101.64 709.04,101.43 708.97,88.62 "
   id="polygon32" />
	<polygon
   class="st1"
   points="732.76,76.01 760.11,75.87 760.04,63.06 732.7,63.19 732.64,51.45 761.58,51.29 761.52,38.48 718.68,38.7 719.01,101.71 763.45,101.48 763.39,88.67 732.83,88.83 "
   id="polygon34" />
	<path
   class="st1"
   d="m 820.24,45.6 c -3.4,-2.5 -7.38,-4.31 -11.92,-5.42 -4.55,-1.1 -9.35,-1.64 -14.4,-1.61 l -20.84,0.11 0.34,63.01 22.71,-0.12 c 4.69,-0.02 9.17,-0.73 13.44,-2.12 4.27,-1.39 8.02,-3.41 11.28,-6.07 3.25,-2.65 5.83,-5.93 7.74,-9.83 1.91,-3.89 2.85,-8.39 2.82,-13.5 -0.02,-5.76 -1.05,-10.64 -3.06,-14.67 -2.01,-4.02 -4.71,-7.27 -8.11,-9.78 z m -4.95,32.87 c -1.14,2.47 -2.72,4.47 -4.74,5.99 -2.01,1.52 -4.39,2.62 -7.15,3.29 -2.75,0.66 -5.74,1 -8.94,1.02 l -7.22,0.04 -0.2,-37.38 8.19,-0.05 c 2.91,-0.01 5.69,0.34 8.34,1.07 2.64,0.72 4.95,1.82 6.92,3.3 1.97,1.48 3.54,3.35 4.7,5.63 1.17,2.28 1.77,4.96 1.78,8.05 0.03,3.56 -0.54,6.57 -1.68,9.04 z"
   id="path36" />
	<path
   class="st1"
   d="m 861.6,101.01 c 4.16,1.52 8.71,2.26 13.64,2.24 4.63,-0.02 9.17,-0.52 13.62,-1.5 4.45,-0.97 8.71,-2.54 12.8,-4.7 l -0.17,-32.93 -24.67,0.13 0.06,12.82 11.31,-0.06 0.06,10.24 c -1.3,0.72 -3.05,1.43 -5.24,2.12 -2.2,0.69 -4.81,1.04 -7.84,1.06 -2.97,0.01 -5.66,-0.47 -8.07,-1.47 -2.41,-1 -4.48,-2.4 -6.21,-4.2 -1.73,-1.8 -3.06,-3.93 -3.99,-6.39 -0.93,-2.45 -1.4,-5.16 -1.42,-8.14 -0.02,-2.9 0.43,-5.61 1.33,-8.1 0.91,-2.5 2.22,-4.66 3.93,-6.48 1.72,-1.82 3.77,-3.23 6.17,-4.25 2.4,-1.02 5.09,-1.54 8.05,-1.55 3.56,-0.02 6.54,0.47 8.91,1.46 2.38,1 4.53,2.47 6.44,4.42 L 900.05,45 c -3.22,-2.95 -6.96,-5.02 -11.21,-6.22 -4.25,-1.19 -8.9,-1.78 -13.95,-1.75 -4.93,0.02 -9.47,0.82 -13.61,2.39 -4.16,1.56 -7.74,3.79 -10.75,6.68 -3.02,2.9 -5.36,6.4 -7.03,10.5 -1.67,4.11 -2.49,8.67 -2.46,13.72 0.03,5.05 0.9,9.61 2.61,13.7 1.72,4.08 4.09,7.56 7.14,10.42 3.05,2.85 6.65,5.04 10.81,6.57 z"
   id="path38" />
	<polygon
   class="st1"
   points="952.73,74.41 952.67,61.6 925.32,61.74 925.26,49.99 954.2,49.84 954.14,37.03 911.3,37.25 911.63,100.26 956.07,100.03 956,87.22 925.45,87.38 925.38,74.56 "
   id="polygon40" />
	<path
   class="st1"
   d="m 979.79,74.96 6.86,-0.04 13.32,25.12 16.66,-0.09 -16.17,-26.53 c 4.45,-0.86 7.83,-2.84 10.13,-5.97 2.29,-3.13 3.43,-6.92 3.41,-11.37 -0.02,-3.67 -0.68,-6.74 -1.96,-9.2 -1.29,-2.46 -3.02,-4.41 -5.2,-5.85 -2.18,-1.44 -4.71,-2.47 -7.59,-3.07 -2.89,-0.62 -5.93,-0.91 -9.13,-0.89 l -24.4,0.13 0.33,63.01 13.89,-0.07 z m -0.13,-26.08 9.08,-0.05 c 1.26,-0.01 2.52,0.07 3.84,0.25 1.3,0.17 2.47,0.5 3.48,1.01 1.02,0.5 1.85,1.22 2.51,2.17 0.65,0.94 0.99,2.22 1,3.82 0,1.72 -0.36,3.05 -1.1,4.01 -0.74,0.95 -1.67,1.66 -2.79,2.1 -1.13,0.46 -2.39,0.73 -3.78,0.83 -1.4,0.09 -2.72,0.15 -3.96,0.15 l -8.2,0.05 z"
   id="path42" />
	<path
   class="st2"
   d="m 423.08,265.52 c -27.78,0 -48.9,-21.5 -48.9,-51.56 0,-30.44 21.12,-51.56 48.9,-51.56 14.46,0 27.78,7.61 35.01,18.45 l 13.13,-7.42 c -10.08,-14.46 -25.68,-25.12 -48.14,-25.12 -36.53,0 -65.26,26.64 -65.26,65.64 0,39 28.73,65.64 65.26,65.64 22.45,0 37.67,-10.65 48.33,-25.3 l -13.32,-7.23 c -7.23,10.66 -20.55,18.46 -35.01,18.46 z"
   id="path44" />
	<path
   class="st2"
   d="m 529.06,150.41 -51.18,126.91 h 18.07 l 11.23,-28.35 h 63.17 l 11.23,28.35 h 18.07 L 548.66,150.41 Z m -17.12,84.67 26.83,-68.49 27.02,68.49 z"
   id="path46" />
	<path
   class="st2"
   d="m 669.28,265.52 c -27.78,0 -48.9,-21.5 -48.9,-51.56 0,-30.44 21.12,-51.56 48.9,-51.56 14.46,0 27.78,7.61 35.01,18.45 l 13.13,-7.42 c -10.08,-14.46 -25.69,-25.12 -48.14,-25.12 -36.53,0 -65.26,26.64 -65.26,65.64 0,39 28.73,65.64 65.26,65.64 22.45,0 37.67,-10.65 48.33,-25.3 l -13.32,-7.23 c -7.23,10.66 -20.55,18.46 -35.01,18.46 z"
   id="path48" />
	<polygon
   class="st2"
   points="769.17,277.32 784.96,277.32 784.96,164.49 825.29,164.49 825.29,150.41 729.02,150.41 729.02,164.49 769.17,164.49 "
   id="polygon50" />
	<path
   class="st2"
   d="m 933.93,227.66 c 0,23.21 -12.56,37.86 -35.96,37.86 -23.4,0 -35.77,-14.65 -35.77,-37.86 v -77.25 h -15.98 v 77.63 c 0,31.2 17.5,51.56 51.75,51.56 34.44,0 51.94,-20.17 51.94,-51.75 v -77.44 h -15.98 z"
   id="path52" />
	<path
   class="st2"
   d="m 992.34,182.75 c 0,-11.99 11.03,-20.17 26.07,-20.17 13.89,0 27.21,4.57 36.72,15.22 l 9.51,-11.61 c -10.66,-11.23 -25.69,-17.89 -44.9,-17.89 -25.11,0 -43.76,14.46 -43.76,35.39 0,45.28 75.15,27.02 75.15,59.74 0,9.89 -7.23,22.07 -29.87,22.07 -17.88,0 -31.58,-8.75 -39.76,-18.27 l -9.51,12.18 c 10.47,11.8 26.83,20.17 48.71,20.17 34.25,0 46.81,-19.03 46.81,-37.29 -0.01,-47.36 -75.17,-31 -75.17,-59.54 z"
   id="path54" />
	<path
   class="st3"
   d="m 89.92,230.32 c 4.51,1.63 9.12,2.58 13.46,2.58 1.93,0 3.81,-0.2 5.61,-0.6 0.08,-0.37 0.15,-0.76 0.24,-1.12 2.57,-10.77 8.54,-19.93 16.59,-26.52 -0.15,-10.45 -3.48,-21.51 -8.68,-28.77 -2.93,-4.09 -6.66,-7.24 -10.81,-9.46 l 2.84,-5.95 0.65,-1.36 c 0.78,-1.64 0.09,-3.6 -1.55,-4.39 -1.64,-0.78 -3.61,-0.09 -4.39,1.55 l -0.79,1.65 -2.88,6.03 c -2.89,-0.84 -5.87,-1.32 -8.88,-1.32 -6.38,0 -12.83,1.92 -18.41,5.92 -14.24,10.18 -17.52,29.98 -7.34,44.22 0.22,0.3 0.46,0.6 0.69,0.9 l -4.69,2.48 c -0.42,0.22 -0.76,0.52 -1.04,0.87 -0.79,0.99 -0.96,2.39 -0.33,3.58 0.59,1.11 1.73,1.75 2.91,1.75 0.52,0 1.05,-0.12 1.54,-0.38 l 0.07,-0.04 6.11,-3.24 c 3.57,3.34 7.9,6.36 12.54,8.75 l -0.16,7.26 -0.02,0.91 c -0.04,1.82 1.4,3.32 3.22,3.36 0.02,0 0.05,0 0.07,0 1.3,0 2.43,-0.76 2.96,-1.87 0.2,-0.41 0.32,-0.86 0.33,-1.34 z m 11.82,-16.84 c -2.07,0 -3.74,-1.67 -3.74,-3.74 0,-2.07 1.68,-3.74 3.74,-3.74 2.07,0 3.74,1.68 3.74,3.74 0.01,2.07 -1.67,3.74 -3.74,3.74 z M 98,178.27 c 2.07,0 3.74,1.68 3.74,3.74 0,2.07 -1.68,3.74 -3.74,3.74 -2.07,0 -3.74,-1.68 -3.74,-3.74 0,-2.07 1.68,-3.74 3.74,-3.74 z m -21.88,24.01 c -2.07,0 -3.74,-1.68 -3.74,-3.74 0,-2.07 1.67,-3.74 3.74,-3.74 2.07,0 3.74,1.67 3.74,3.74 0,2.06 -1.68,3.74 -3.74,3.74 z"
   id="path56" />
	<path
   class="st3"
   d="m 259.65,215.63 c 4.09,-10.51 2.43,-22.87 -5.4,-32.06 -6.27,-7.36 -15.18,-11.15 -24.15,-11.15 -1.48,0 -2.96,0.13 -4.43,0.34 l -2.57,-6.26 -0.28,-0.67 c -0.69,-1.68 -2.61,-2.49 -4.29,-1.8 -1.66,0.68 -2.46,2.57 -1.81,4.24 0.01,0.02 0.01,0.04 0.02,0.05 l 2.47,6.03 c -3.43,1.26 -6.7,3.12 -9.64,5.63 -7.75,6.6 -14.39,18.53 -16.38,29.98 6.73,7.55 11.06,17.11 12.17,27.34 3.77,1.55 8.1,2.28 12.64,2.28 5.47,0 11.21,-1.04 16.59,-2.79 l 2.08,5.8 c 0.05,0.14 0.15,0.26 0.21,0.39 0.57,1.1 1.68,1.79 2.88,1.79 0.37,0 0.74,-0.06 1.11,-0.19 1.61,-0.58 2.48,-2.29 2.06,-3.92 -0.03,-0.1 -0.04,-0.2 -0.07,-0.29 l -2.14,-5.97 c 3.76,-1.73 7.18,-3.81 9.93,-6.15 2.29,-1.95 4.2,-4.16 5.79,-6.54 l 6.88,1.34 1.18,0.23 c 0.21,0.04 0.43,0.06 0.64,0.06 1.54,0 2.92,-1.09 3.22,-2.66 0.32,-1.66 -0.67,-3.25 -2.24,-3.75 -0.12,-0.04 -0.23,-0.08 -0.36,-0.11 z m -41.34,-19.77 c -2.07,0 -3.74,-1.67 -3.74,-3.74 0,-2.07 1.68,-3.74 3.74,-3.74 2.07,0 3.74,1.67 3.74,3.74 0,2.07 -1.67,3.74 -3.74,3.74 z m 10.56,29.73 c -2.07,0 -3.74,-1.68 -3.74,-3.74 0,-2.07 1.67,-3.74 3.74,-3.74 2.07,0 3.74,1.68 3.74,3.74 0,2.06 -1.67,3.74 -3.74,3.74 z M 247.77,206 c -2.07,0 -3.74,-1.68 -3.74,-3.74 0,-2.07 1.67,-3.74 3.74,-3.74 2.07,0 3.74,1.67 3.74,3.74 0,2.06 -1.67,3.74 -3.74,3.74 z"
   id="path58" />
	<path
   class="st3"
   d="m 50.53,137.26 c 5.28,8.6 13.97,18.77 21.93,23.82 5.32,-3.04 11.23,-4.73 17.38,-4.97 1.27,-3.9 1.85,-8.84 1.95,-14.01 l 6.6,-1.3 0.41,-0.08 c 1.78,-0.35 2.94,-2.08 2.59,-3.87 -0.31,-1.55 -1.66,-2.63 -3.18,-2.65 -0.22,0 -0.45,0.01 -0.68,0.06 l -5.84,1.16 c -0.39,-7.77 -1.6,-15.25 -2.88,-19.7 -2.01,-7.03 -7.19,-12.28 -13.54,-14.68 l 0.2,-6.29 c 0.01,-0.2 -0.01,-0.39 -0.04,-0.58 -0.22,-1.55 -1.52,-2.77 -3.14,-2.82 -1.25,-0.01 -2.39,0.69 -2.97,1.73 -0.24,0.43 -0.4,0.92 -0.42,1.45 l -0.16,5.1 c -0.43,-0.03 -0.86,-0.05 -1.29,-0.05 -2.02,0 -4.08,0.28 -6.11,0.86 -11.81,3.37 -18.65,15.67 -15.28,27.48 0.27,0.93 0.66,1.97 1.15,3.08 l -6.78,0.73 -2.35,0.25 c -1.81,0.19 -3.11,1.82 -2.92,3.62 0.18,1.69 1.61,2.94 3.27,2.94 0.12,0 0.24,-0.01 0.36,-0.02 l 4.6,-0.49 z M 78.55,144 c 0,2.07 -1.68,3.74 -3.74,3.74 -2.07,0 -3.74,-1.68 -3.74,-3.74 0,-2.07 1.67,-3.74 3.74,-3.74 2.06,0 3.74,1.67 3.74,3.74 z m -6.17,-22.74 c -2.07,0 -3.74,-1.68 -3.74,-3.74 0,-2.07 1.68,-3.74 3.74,-3.74 2.07,0 3.74,1.68 3.74,3.74 0,2.07 -1.68,3.74 -3.74,3.74 z"
   id="path60" />
	<path
   class="st3"
   d="m 107.49,57.54 c -4.29,9.04 -4.29,19.95 1.02,29.32 5.66,9.99 18.23,19.89 30.53,23.13 6.69,-5.61 15.27,-8.92 24.57,-8.92 v 0 c 0.34,0 0.68,0.05 1.02,0.06 7.5,-12.38 6.12,-33.39 -0.8,-45.59 -5.85,-10.33 -16.61,-16.13 -27.69,-16.13 -1.18,0 -2.36,0.08 -3.54,0.21 l -0.09,-6.6 -0.04,-2.96 c -0.02,-1.8 -1.49,-3.25 -3.29,-3.25 -0.01,0 -0.03,0 -0.04,0 -1.82,0.02 -3.27,1.52 -3.25,3.33 l 0.05,4.08 0.09,6.84 c -1.88,0.64 -3.74,1.45 -5.53,2.47 -3.77,2.13 -6.93,4.93 -9.43,8.15 l -6.8,-1.8 -3.32,-0.88 c -1.74,-0.46 -3.56,0.58 -4.02,2.34 -0.46,1.76 0.58,3.56 2.34,4.02 l 1.77,0.47 z m 41.55,0.02 c 2.07,0 3.74,1.68 3.74,3.74 0,2.07 -1.68,3.74 -3.74,3.74 -2.07,0 -3.74,-1.68 -3.74,-3.74 0,-2.06 1.68,-3.74 3.74,-3.74 z m -10.86,26.4 c 2.07,0 3.74,1.67 3.74,3.74 0,2.07 -1.68,3.74 -3.74,3.74 -2.07,0 -3.74,-1.68 -3.74,-3.74 -0.01,-2.06 1.67,-3.74 3.74,-3.74 z M 120.72,70.95 c 0,2.07 -1.68,3.74 -3.74,3.74 -2.07,0 -3.74,-1.68 -3.74,-3.74 0,-2.07 1.67,-3.74 3.74,-3.74 2.07,0 3.74,1.67 3.74,3.74 z"
   id="path62" />
	<path
   class="st3"
   d="m 201.35,88.2 c -1.39,0.92 -2.71,1.99 -3.9,3.26 -4.27,4.5 -7.67,11.73 -8.86,18.9 6.62,5.71 11.14,13.57 12.71,22.22 1.12,0.17 2.28,0.25 3.47,0.25 9.04,0 19.51,-4.64 25.14,-10.56 6.31,-6.64 7.72,-16.14 4.39,-24.08 l 5.7,-3.36 0.93,-0.55 c 1.57,-0.92 2.09,-2.94 1.16,-4.51 -0.92,-1.56 -2.94,-2.08 -4.51,-1.16 l -1,0.59 -5.71,3.36 c -0.56,-0.67 -1.14,-1.32 -1.79,-1.93 -4.33,-4.11 -9.87,-6.15 -15.4,-6.14 -2.13,0 -4.26,0.31 -6.32,0.92 l -1.87,-5.72 c -0.06,-0.18 -0.14,-0.34 -0.22,-0.51 -0.73,-1.4 -2.38,-2.11 -3.93,-1.6 -1.73,0.56 -2.67,2.42 -2.11,4.15 l 0.02,0.06 z m 9.68,9.38 c 2.07,0 3.74,1.67 3.74,3.74 0,2.07 -1.68,3.74 -3.74,3.74 -2.07,0 -3.74,-1.68 -3.74,-3.74 -0.01,-2.06 1.67,-3.74 3.74,-3.74 z"
   id="path64" />
	<path
   class="st4"
   d="m 170.76,108.47 c -2.4,-0.55 -4.79,-0.82 -7.15,-0.82 -14.43,0 -27.48,9.92 -30.86,24.58 -3.11,13.47 1.6,47.29 12.11,62.86 3.82,-0.95 7.79,-1.47 11.88,-1.47 v 0 c 3.81,0 7.64,0.45 11.37,1.34 0.66,0.16 1.31,0.34 1.95,0.52 11.63,-12.53 21.71,-37.14 24.45,-49.02 3.94,-17.04 -6.7,-34.06 -23.75,-37.99 z m -21.64,49.93 c -2.07,0 -3.74,-1.68 -3.74,-3.74 0,-2.07 1.67,-3.74 3.74,-3.74 2.07,0 3.74,1.67 3.74,3.74 0,2.07 -1.68,3.74 -3.74,3.74 z m 10.71,-30.22 c -2.07,0 -3.74,-1.67 -3.74,-3.74 0,-2.07 1.68,-3.74 3.74,-3.74 2.07,0 3.74,1.67 3.74,3.74 0,2.07 -1.67,3.74 -3.74,3.74 z m 20.89,22.26 c -2.07,0 -3.74,-1.67 -3.74,-3.74 0,-2.07 1.68,-3.74 3.74,-3.74 2.07,0 3.74,1.68 3.74,3.74 0,2.07 -1.67,3.74 -3.74,3.74 z"
   id="path66" />
	<path
   class="st4"
   d="m 186.97,274.75 c 5.27,-7.18 9.2,-15.09 10.95,-22.42 5.42,-22.72 -8.61,-45.54 -31.33,-50.96 -3.3,-0.79 -6.6,-1.16 -9.85,-1.16 -19.13,0 -36.48,13.07 -41.11,32.49 -1.61,6.73 -1.8,14.73 -0.71,22.79 l -5.59,-3.35 c -0.44,-0.26 -0.92,-0.4 -1.4,-0.44 -1.22,-0.11 -2.44,0.46 -3.11,1.57 -0.93,1.56 -0.43,3.58 1.13,4.51 l 2.97,1.78 7.68,4.6 c 4.06,16.05 13.27,30.62 26.84,33.85 1.92,0.46 3.86,0.67 5.81,0.67 11.17,0 22.7,-7.09 31.83,-16.85 l 9.29,-0.79 2.93,-0.25 c 1.81,-0.15 3.15,-1.75 3,-3.56 -0.09,-1.01 -0.64,-1.87 -1.42,-2.41 -0.61,-0.42 -1.35,-0.66 -2.14,-0.59 z m -4.89,-22.25 c 2.07,0 3.74,1.68 3.74,3.74 0,2.07 -1.67,3.74 -3.74,3.74 -2.07,0 -3.74,-1.68 -3.74,-3.74 0,-2.07 1.67,-3.74 3.74,-3.74 z m -46.43,10.31 c -2.07,0 -3.74,-1.67 -3.74,-3.74 0,-2.07 1.68,-3.74 3.74,-3.74 2.07,0 3.74,1.68 3.74,3.74 0,2.06 -1.68,3.74 -3.74,3.74 z m 7.48,-35.28 c -2.07,0 -3.74,-1.67 -3.74,-3.74 0,-2.07 1.68,-3.74 3.74,-3.74 2.07,0 3.74,1.67 3.74,3.74 0,2.07 -1.67,3.74 -3.74,3.74 z m 16.38,57.01 c -2.07,0 -3.74,-1.68 -3.74,-3.74 0,-2.07 1.67,-3.74 3.74,-3.74 2.07,0 3.74,1.67 3.74,3.74 0.01,2.07 -1.67,3.74 -3.74,3.74 z m 3.75,-48.36 c -2.07,0 -3.74,-1.68 -3.74,-3.74 0,-2.07 1.67,-3.74 3.74,-3.74 2.07,0 3.74,1.68 3.74,3.74 0,2.07 -1.68,3.74 -3.74,3.74 z"
   id="path68" />
	<path
   class="st4"
   d="m 21.29,198.32 c 0.4,0.21 0.8,0.43 1.22,0.61 3.94,1.73 8.94,2.65 14.03,2.65 5.99,0 12.08,-1.28 16.73,-3.96 -0.27,-3.15 -0.19,-6.35 0.34,-9.55 0.81,-4.86 2.52,-9.42 5,-13.52 -3.72,-7.62 -10.83,-14.64 -17.62,-17.63 -3.01,-1.32 -6.14,-1.95 -9.23,-1.95 -6.51,0 -12.79,2.81 -17.16,7.73 l -4.12,-4.99 c -0.04,-0.04 -0.08,-0.08 -0.12,-0.12 -1.18,-1.28 -3.15,-1.45 -4.51,-0.33 -1.4,1.16 -1.6,3.23 -0.45,4.63 l 0.9,1.09 4.54,5.51 c -0.03,0.07 -0.07,0.13 -0.11,0.2 -3.98,9.05 -1.63,19.26 5.09,25.74 l -4.79,4.53 -0.74,0.7 c -1.32,1.25 -1.38,3.33 -0.13,4.65 0.65,0.69 1.52,1.03 2.39,1.03 0.81,0 1.62,-0.3 2.26,-0.9 l 1.47,-1.39 z m 18.32,-13.68 c 2.07,0 3.74,1.67 3.74,3.74 0,2.07 -1.67,3.74 -3.74,3.74 -2.07,0 -3.74,-1.68 -3.74,-3.74 0,-2.07 1.67,-3.74 3.74,-3.74 z m -6.73,-17.3 c 2.07,0 3.74,1.68 3.74,3.74 0,2.07 -1.67,3.74 -3.74,3.74 -2.07,0 -3.74,-1.67 -3.74,-3.74 -0.01,-2.06 1.67,-3.74 3.74,-3.74 z"
   id="path70" />
	<path
   class="st4"
   d="m 20.59,113.77 c 2.65,0.77 5.65,1.18 8.7,1.18 3.69,0 7.43,-0.6 10.68,-1.84 1.7,-5.33 4.92,-10.11 9.3,-13.67 -1,-8.37 -8.91,-17.57 -16.36,-20.84 -2.45,-1.08 -5,-1.59 -7.51,-1.59 -2.31,0 -4.57,0.47 -6.69,1.29 L 16.4,72.63 c -0.06,-0.16 -0.15,-0.3 -0.23,-0.44 -0.82,-1.37 -2.52,-1.99 -4.06,-1.37 -1.68,0.69 -2.49,2.6 -1.81,4.29 l 0.11,0.26 2.59,6.37 c -1.96,1.73 -3.59,3.9 -4.71,6.44 -3.58,8.14 -0.88,17.44 5.98,22.52 l -4.57,4.34 c -0.09,0.08 -0.12,0.19 -0.2,0.28 -1.07,1.26 -1.09,3.14 0.08,4.37 0.65,0.68 1.52,1.03 2.39,1.03 0.81,0 1.63,-0.3 2.26,-0.9 l 1.03,-0.97 z m 7.46,-26.06 c 2.07,0 3.74,1.67 3.74,3.74 0,2.07 -1.68,3.74 -3.74,3.74 -2.07,0 -3.74,-1.67 -3.74,-3.74 0,-2.07 1.68,-3.74 3.74,-3.74 z"
   id="path72" />
	<path
   class="st4"
   d="m 301.2,165.18 -4.53,-0.54 c 0.77,-0.86 1.49,-1.68 2.07,-2.42 7.63,-9.62 6.01,-23.61 -3.61,-31.23 -1.42,-1.13 -2.94,-2.04 -4.52,-2.77 l 1.25,-6.09 c 0.03,-0.16 0.04,-0.32 0.05,-0.49 0.09,-1.6 -0.99,-3.07 -2.61,-3.4 -1.46,-0.3 -2.9,0.44 -3.57,1.7 -0.14,0.27 -0.26,0.55 -0.32,0.86 l -1.14,5.58 c -0.97,-0.13 -1.95,-0.21 -2.93,-0.21 -6.55,0 -13.05,2.89 -17.44,8.42 -1.86,2.35 -3.83,6.16 -5.62,10.68 l -4.36,-4.6 c -0.19,-0.2 -0.43,-0.32 -0.66,-0.47 -1.24,-0.78 -2.88,-0.71 -3.99,0.34 -1.32,1.25 -1.37,3.33 -0.12,4.65 l 1.54,1.63 5.17,5.45 c -2.07,6.86 -3.51,14.37 -3.55,20.69 2.54,1.81 4.9,3.9 6.96,6.33 2.08,2.45 3.76,5.1 5.13,7.86 8.09,-1.68 18.67,-9.46 26.39,-16.59 l 8.38,1 1.26,0.15 c 0.13,0.02 0.26,0.02 0.39,0.02 1.64,0 3.06,-1.23 3.26,-2.9 0.09,-0.78 -0.11,-1.52 -0.5,-2.14 -0.51,-0.8 -1.35,-1.39 -2.38,-1.51 z m -32.46,-1.57 c -2.07,0 -3.74,-1.67 -3.74,-3.74 0,-2.07 1.68,-3.74 3.74,-3.74 2.07,0 3.74,1.67 3.74,3.74 0,2.07 -1.67,3.74 -3.74,3.74 z m 7.48,-22.2 c -2.07,0 -3.74,-1.67 -3.74,-3.74 0,-2.07 1.68,-3.74 3.74,-3.74 2.07,0 3.74,1.68 3.74,3.74 0,2.07 -1.67,3.74 -3.74,3.74 z m 19.83,9.04 c 0,2.07 -1.68,3.74 -3.74,3.74 -2.07,0 -3.74,-1.68 -3.74,-3.74 0,-2.07 1.68,-3.74 3.74,-3.74 2.06,0 3.74,1.68 3.74,3.74 z"
   id="path74" />
	<path
   class="st4"
   d="m 165.78,28.29 c -1.46,5.02 -2.57,10.34 -3.04,15.25 2.65,2.54 4.97,5.47 6.82,8.75 1.68,2.97 3.08,6.43 4.17,10.17 8.62,-1.35 20.46,-10.27 28.5,-17.95 0.13,0 0.27,-0.01 0.41,-0.03 l 10.01,-1.34 3.61,-0.48 c 1.8,-0.24 3.07,-1.9 2.83,-3.7 -0.15,-1.13 -0.86,-2.05 -1.82,-2.51 -0.56,-0.28 -1.21,-0.4 -1.88,-0.31 l -6.18,0.83 c 5.48,-7.21 5.9,-16.73 1.75,-24.22 l 4.88,-4.62 0.18,-0.17 c 1.32,-1.25 1.38,-3.33 0.13,-4.65 -1.18,-1.25 -3.08,-1.32 -4.4,-0.28 -0.08,0.06 -0.17,0.09 -0.25,0.16 l -4.57,4.33 c -0.5,-0.48 -1.03,-0.95 -1.59,-1.39 -4.09,-3.24 -8.96,-4.81 -13.8,-4.81 -6.55,0 -13.05,2.89 -17.44,8.42 -2.02,2.55 -4.17,6.81 -6.06,11.84 l -3.4,-2.9 c -0.65,-0.55 -1.45,-0.8 -2.25,-0.77 -0.89,0.03 -1.77,0.41 -2.39,1.15 -1.17,1.37 -1.01,3.42 0.34,4.6 0.01,0.01 0.02,0.03 0.04,0.04 z m 24.8,-15.72 c 2.07,0 3.74,1.67 3.74,3.74 0,2.07 -1.68,3.74 -3.74,3.74 -2.07,0 -3.74,-1.68 -3.74,-3.74 0,-2.07 1.67,-3.74 3.74,-3.74 z m -7.49,27.7 c 2.07,0 3.74,1.67 3.74,3.74 0,2.07 -1.67,3.74 -3.74,3.74 -2.07,0 -3.74,-1.67 -3.74,-3.74 0,-2.07 1.68,-3.74 3.74,-3.74 z"
   id="path76" />
</g>
</svg>
