<?xml version="1.0" encoding="UTF-8"?>
<svg id="Layer_1" data-name="Layer 1" xmlns="http://www.w3.org/2000/svg" viewBox="0 0 997.6892076 300">
  <defs>
    <style>
      .cls-1 {
        fill: #24272a;
      }

      .cls-2 {
        fill: #2374bb;
      }
    </style>
  </defs>
  <g>
    <polygon class="cls-1" points="356.8620868 80.4553397 381.2844392 80.3244848 381.4152941 104.9649286 393.9824267 104.9041746 393.6852771 47.8880491 381.1119132 47.9515293 381.2275796 69.2138917 356.8052273 69.3385154 356.6895609 48.0823842 344.1200916 48.1501483 344.4195779 105.1639371 356.9929417 105.096173 356.8620868 80.4553397"/>
    <polygon class="cls-1" points="424.4396822 105.1246027 437.0068148 105.0568386 436.8821911 80.7396375 458.1445535 47.9343935 443.2344952 48.0060522 430.5341709 69.4148475 418.3319521 48.1372965 402.6967395 48.2202492 424.3131112 80.8027283 424.4396822 105.1246027"/>
    <path class="cls-1" d="M479.8154481,105.0229565l-.1156664-22.2278067,9.1890512-.045955c3.0088837-.0171358,5.7973391-.3142854,8.3786077-.8953435,2.5765952-.574048,4.7952866-1.5348189,6.6755468-2.8865966,1.8713029-1.3583984,3.338747-3.1619372,4.4042797-5.4176263,1.0593015-2.2669831,1.5831105-5.0573859,1.567922-8.3899017-.0218091-3.3804181-.6114351-6.1863988-1.7817296-8.4070375-1.1660106-2.2186915-2.7339326-3.9786119-4.6971455-5.2910553-1.9741174-1.3015389-4.2777088-2.2144075-6.911553-2.7362693-2.631118-.5284824-5.4304781-.7792876-8.3828916-.7617624l-21.1992717,.1090457,.3037703,57.0133993,12.5690799-.0630908Zm6.203924-46.4141529c1.1811991-.0109046,2.4192577,.0525756,3.709892,.1768099,1.2906343,.126571,2.4675494,.4346252,3.5093257,.9043008,1.0526809,.4801907,1.9129739,1.1593899,2.5941204,2.0438288,.6725786,.8821022,1.0110098,2.0523967,1.0219144,3.4980317,.0042839,1.3428205-.2402901,2.4566449-.7465739,3.3434204-.5066733,.8887228-1.170684,1.5873945-2.0006,2.1049723-.8361472,.5132939-1.770825,.8887228-2.8145486,1.1025304-1.0526809,.2208176-2.1334021,.336484-3.266699,.3388207l-8.3789971,.0436183-.0739953-13.5259563,6.4461613-.030377Z"/>
    <polygon class="cls-1" points="559.141554 104.9302676 559.0827472 93.3394839 531.4373142 93.4789066 531.3761707 81.8815022 556.1213764 81.7506473 556.0602328 70.1528535 531.3193111 70.2840978 531.2605043 59.6583689 557.4536817 59.5185567 557.3925382 47.9211523 518.6298915 48.1240552 518.9270411 105.137844 559.141554 104.9302676"/>
    <path class="cls-1" d="M598.8532882,104.9298782l15.0716797-.0786687-14.6370545-24.0052524c4.0331348-.772667,7.0879734-2.5676378,9.160232-5.4001011,2.0812159-2.8363577,3.1140349-6.2627308,3.094173-10.2915816-.0194725-3.3212218-.6110456-6.0968255-1.7817296-8.3217481-1.1636739-2.2190809-2.7315959-3.9852325-4.6948088-5.2914448-1.9764541-1.3011494-4.260573-2.2315433-6.8698819-2.7794981-2.600741-.5526283-5.3611562-.8190114-8.2586574-.8038229l-22.0813739,.1203398,.290529,57.0133993,12.5733638-.0677641-.1199503-22.7909501,6.2124919-.0327137,12.0409869,22.7298066Zm-18.3037177-33.3294425l-.0677641-12.9600868,8.2216597-.0416711c1.1290129-.0109046,2.2817822,.0634802,3.4633707,.2184809,1.1792518,.1573374,2.2358272,.4540976,3.1510326,.9109214,.9148159,.4540976,1.6703471,1.1068143,2.2623098,1.9628234,.5939099,.8517252,.8972907,2.0068312,.9081953,3.4590868,.0042839,1.5570175-.32519,2.7623624-.986864,3.6249921-.6702419,.8622403-1.5110625,1.5001579-2.5310296,1.9063533-1.0176305,.4124266-2.157548,.6527167-3.419363,.74229-1.2602573,.0872366-2.4613182,.1355283-3.5856578,.1398122l-7.4158895,.0369977Z"/>
    <polygon class="cls-1" points="658.5013106 104.8469255 658.4358831 93.2495211 635.1425437 93.3714187 634.9022536 47.9530871 622.335121 48.0165673 622.6322706 105.0303561 658.5013106 104.8469255"/>
    <polygon class="cls-1" points="707.7292332 104.8924911 707.6704264 93.3017073 680.0249934 93.4415195 679.9615132 81.8441151 704.7094449 81.7128708 704.6459647 70.122087 679.9069903 70.2463213 679.8481835 59.6205923 706.0390241 59.4807801 705.9778806 47.8833757 667.2156234 48.0862787 667.5147203 105.1000675 707.7292332 104.8924911"/>
    <path class="cls-1" d="M759.6653847,97.5677326c2.9391723-2.397838,5.2754774-5.3654401,7.0007368-8.8919016,1.7295434-3.5202303,2.5789319-7.5950361,2.554786-12.2135129-.0218091-5.2081027-.9475296-9.6275709-2.7643096-13.2743722-1.8234006-3.6468013-4.2691409-6.5925942-7.3438415-8.8591879-3.0723639-2.2623098-6.6732101-3.9022799-10.7854031-4.9000484-4.1137507-.9938741-8.4615603-1.4830221-13.0255142-1.4565396l-18.8582932,.0981412,.3037703,57.0137888,20.5504495-.1094352c4.2407111-.0194725,8.2937078-.6573901,12.1609372-1.9172579,3.8606088-1.2532472,7.2608888-3.0813212,10.2066817-5.4896744Zm-23.8786814-4.1795676l-6.529114,.0369977-.1791466-33.8252111,7.4135529-.0412816c2.6334547-.0109046,5.1512431,.3076648,7.5447972,.9716755,2.3845968,.6531061,4.4806118,1.648538,6.2580574,2.9827906,1.7797823,1.3365893,3.2012715,3.0287456,4.2562891,5.0924363,1.0589121,2.0636907,1.5982991,4.4919058,1.6134876,7.282698,.015578,3.2230807-.4957687,5.9503926-1.5305349,8.1799887-1.0351557,2.2358272-2.4656022,4.0440393-4.2843294,5.4176263-1.81678,1.3798181-3.9743279,2.3670716-6.4726439,2.9785066-2.4893586,.6005305-5.1925247,.9081953-8.0904154,.9237732Z"/>
    <path class="cls-1" d="M810.3097337,71.2028082l.0564701,11.5974044,10.2351115-.0525756,.0502389,9.263436c-1.1792518,.6527167-2.7623624,1.2902448-4.7407638,1.9172579-1.9873587,.6266236-4.3478096,.9451929-7.0906996,.9607709-2.6836937,.0109046-5.1228133-.4280045-7.3021704-1.3280214-2.1770204-.9039113-4.0549439-2.1680631-5.6228659-3.8014126-1.5655853-1.6247816-2.7666463-3.552944-3.6140875-5.7782561-.8451045-2.2206387-1.2684357-4.6710524-1.2859609-7.3609772-.015578-2.6272236,.3886702-5.0729638,1.2072922-7.328653,.8256321-2.2623098,2.0068312-4.2165653,3.552944-5.86744,1.5570175-1.6442541,3.4154685-2.9196998,5.5858683-3.8497042,2.1727365-.9237732,4.6009515-1.3953961,7.2869819-1.4063007,3.2230807-.0198619,5.913395,.4237206,8.0643223,1.323348,2.153264,.9015746,4.096615,2.2358272,5.8261584,4.000421l8.8108962-9.710913c-2.9130792-2.6708418-6.2997285-4.544092-10.1432015-5.6275393-3.8454203-1.0807212-8.0553649-1.6068669-12.6216555-1.5807739-4.4611393,.0198619-8.5686588,.7403427-12.3112646,2.1618319-3.7624676,1.4105846-7.0011263,3.4263731-9.7241543,6.0442499-2.7315959,2.6229396-4.8455256,5.7891607-6.3632087,9.4971055-1.5087258,3.7145654-2.2556891,7.848178-2.229596,12.4117425,.0264825,4.5662906,.8104436,8.6932826,2.3608404,12.3969434,1.5523441,3.6947035,3.7032714,6.8371682,6.4636865,9.4246679,2.7534051,2.5921731,6.0115361,4.5705745,9.7782877,5.9507821,3.7667516,1.3731975,7.8832285,2.0457761,12.3443678,2.0263036,4.1904722-.0218091,8.295655-.4696756,12.3225586-1.3541145,4.0222302-.8778182,7.8851757-2.2969707,11.5822159-4.2516157l-.1573374-29.7983076-22.3212745,.1203398Z"/>
    <polygon class="cls-1" points="882.014321 103.5745954 881.9508408 91.9834221 854.3120284 92.129855 854.2489377 80.5281667 878.9941433 80.3969223 878.9329998 68.8038018 854.1877941 68.9307622 854.1328818 58.3046439 880.3217752 58.1628844 880.2649157 46.5721006 841.5026584 46.7750036 841.8017553 103.7884029 882.014321 103.5745954"/>
    <path class="cls-1" d="M903.5925266,103.6828622l-.1199503-22.7909501,6.2058712-.0327137,12.0476076,22.7255227,15.0716797-.0786687-14.6331601-24.0009684c4.0292403-.7769509,7.0840789-2.5742585,9.1629582-5.4001011,2.0745953-2.8363577,3.1074143-6.2627308,3.0875524-10.2915816-.0194725-3.3212218-.6114351-6.1011094-1.7751089-8.3217481-1.170684-2.2253121-2.7319854-3.9899059-4.7014294-5.2914448-1.9721702-1.3011494-4.2582363-2.2315433-6.865598-2.7794981-2.6116456-.5592489-5.3654401-.8190114-8.2629413-.8038229l-22.0813739,.1156664,.2967602,57.0114521,12.5671326-.0611435Zm7.9770857-46.4312887c1.1356335-.0046734,2.2841189,.0630908,3.4699914,.2247121,1.1745785,.1530535,2.2315433,.4540976,3.1444119,.9109214,.9214365,.4540976,1.6769678,1.1068143,2.2732143,1.9628234,.5896259,.8517252,.8930068,2.0068312,.9039113,3.4590868,.0042839,1.5570175-.32519,2.7623624-.9934846,3.6249921-.6682946,.8622403-1.5110625,1.5001579-2.5263562,1.9016799-1.0199672,.4171-2.1598846,.6573901-3.4178052,.7469634-1.2641517,.0829527-2.4609288,.1355283-3.5852683,.1355283l-7.4158895,.0412816-.0677641-12.9600868,8.2150391-.0479022Z"/>
  </g>
  <g>
    <path class="cls-2" d="M338.4545947,248.3347211l8.5894584-10.9930816c7.3862765,8.5894584,19.7524655,16.4909927,35.8981258,16.4909927,20.4403896,0,26.9688165-10.9930816,26.9688165-19.9251317,0-29.5451058-67.8495956-13.0541131-67.8495956-53.9348922,0-18.8946159,16.8335844-31.948729,39.5076717-31.948729,17.3488423,0,30.9182133,6.0104283,40.5354467,16.1456603l-8.5867177,10.4778237c-8.5894584-9.6199742-20.6130558-13.7420372-33.151911-13.7420372-13.569371,0-23.5319368,7.3862765-23.5319368,18.2066918,0,25.7656345,67.8495956,10.9930816,67.8495956,53.7649667,0,16.488252-11.338414,33.6644281-42.2566273,33.6644281-19.7524655,0-34.5250184-7.5562019-43.9723264-18.2066918Z"/>
    <path class="cls-2" d="M437.680106,207.2840166c0-33.839835,23.0166789-59.2601371,56.8537732-59.2601371,33.839835,0,57.0264394,25.4203021,57.0264394,59.2601371,0,33.8370943-23.1866044,59.2573964-57.0264394,59.2573964-33.8370943,0-56.8537732-25.4203021-56.8537732-59.2573964Zm99.1076598,0c0-26.7961503-16.6609182-46.5513565-42.2538865-46.5513565-25.7628938,0-42.0812203,19.7552062-42.0812203,46.5513565,0,26.6234841,16.3183265,46.5486157,42.0812203,46.5486157,25.5929683,0,42.2538865-19.9251317,42.2538865-46.5486157Z"/>
    <path class="cls-2" d="M571.016785,264.4803815v-114.5681368h14.257295v101.8593561h53.2469681v12.7087807h-67.5042632Z"/>
    <path class="cls-2" d="M741.986474,264.4803815l-10.1324913-25.5929683h-57.0264394l-10.135232,25.5929683h-16.3183265l46.2060241-114.5681368h17.691434l46.0333579,114.5681368h-16.3183265Zm-38.6470814-99.96825l-24.2198609,61.8364265h48.6096472l-24.3897864-61.8364265Z"/>
    <path class="cls-2" d="M852.8710651,264.4803815l-66.8190798-91.3787916v91.3787916h-14.257295v-114.5681368h14.6026275l65.9584895,89.4904263v-89.4904263h14.2545543v114.5681368h-13.7392964Z"/>
    <path class="cls-2" d="M886.8369739,207.2840166c0-35.7282003,26.2808924-59.2601371,58.9175455-59.2601371,20.4403896,0,34.5250184,8.9320501,44.4875842,21.2982391l-11.338414,7.2136103c-7.2136103-9.2746418-19.4098738-15.8030687-33.1491702-15.8030687-25.0777104,0-44.1449926,19.0672821-44.1449926,46.5513565,0,27.1387419,19.0672821,46.5486157,44.1449926,46.5486157,13.7392964,0,25.0777104-6.5284269,30.9182133-12.3689297v-23.1866044h-39.5076717v-12.7115214h53.5923005v41.2233708c-10.6504899,12.0235973-26.2808924,19.9251317-45.0028421,19.9251317-32.6366531,0-58.9175455-23.8745285-58.9175455-59.4300626Z"/>
  </g>
  <g>
    <path class="cls-2" d="M80.2785381,232.5059581c-2.7266871-2.5920486-5.3187357-5.2909858-7.8059513-8.0683765C34.0721714,181.5636042,24.4412343,117.6503869,53.1689165,63.9580496c4.6798022-8.7456802,10.1585283-16.7876771,16.2833822-24.1037223-18.6136908,12.4432721-34.5359813,29.49543-45.8367102,50.6162067C-5.4707872,144.8322954,4.7504354,209.6821583,44.3557457,252.5544228c2.527984,2.7369649,5.1888935,5.3711522,7.9539509,7.9203769,7.4678133,6.8836945,15.7674391,13.0698723,24.8947665,18.3570896l18.6904313-33.4821693c-5.5708832-3.9428876-10.7765637-8.2427556-15.6163562-12.8437618Z"/>
    <path class="cls-1" d="M183.6761308,49.4328479l-23.7926491-32.9165505-6.2485295-8.6439305c-.2771567,2.2936512-.4786006,5.1340788-.4196748,8.2341908,.2473512,13.0859741,5.3231894,30.9212966,30.4608534,33.3262901Z"/>
    <path class="cls-2" d="M206.6198377,46.9959933l7.8494604-14.0616752-8.0772839-4.1652296L154.6459402,2.083938l10.8731745,15.0432003,9.1163644,12.6121698,14.4491464,19.9902241h-.0003426l-3.785638,1.9479763-115.6613468,59.5122846h101.1481358l35.8344038-64.1937998Zm-50.1047173,55.7269892c-6.9751665,0-12.6498549-5.6746885-12.6498549-12.6495123s5.6746885-12.6495123,12.6498549-12.6495123c6.9748239,0,12.6491697,5.6746885,12.6491697,12.6495123s-5.6743459,12.6495123-12.6491697,12.6495123Z"/>
    <path class="cls-1" d="M160.4727394,82.5028794c.0801665,.3192954,.1356663,.6481834,.1356663,.9921455,0,2.2576791-1.8369765,4.0939705-4.0939705,4.0939705s-4.0939705-1.8362914-4.0939705-4.0939705c0-.3436194,.0554999-.6725075,.1356663-.9918029-2.7352519,1.4347739-4.6215617,4.2680071-4.6215617,7.5702482,0,4.738728,3.8414804,8.5802084,8.580551,8.5802084,4.7383854,0,8.5798658-3.8414804,8.5798658-8.5802084,0-3.3029263-1.8869949-6.1361594-4.6222468-7.5705908Z"/>
    <path class="cls-1" d="M209.5904501,137.5402316l32.7308658-9.1290403c-3.3786391-11.1643774-8.6764767-21.5020811-15.5265972-30.6153622l-26.7471597,20.9604437c4.1412481,5.6390589,7.3951838,11.9670697,9.542891,18.7839588Z"/>
    <path class="cls-1" d="M133.4665804,258.7036007c-8.9693926-1.2689596-17.575638-3.6801197-25.6505237-7.1149439-2.8500201-1.2120893-5.629809-2.5571042-8.3417646-4.0124337l-.080509,.1442311-18.5359224,33.2053553c.1808884,.0996942,.3542398,.207268,.5364986,.304564,2.4310305,1.3008206,4.888098,2.5022896,7.3581839,3.6468884,.7776831,.3600638,1.562218,.6882667,2.343327,1.0335991,1.7228935,.7605535,3.4519537,1.4936997,5.1902638,2.1802534,.8924513,.3528694,1.7869582,.6923778,2.683178,1.0250343,1.7081621,.6348224,3.4238612,1.2295615,5.1443566,1.79381,.8441459,.2768141,1.6869214,.5642485,2.533808,.8242756,2.1083092,.6474983,4.2248405,1.2374411,6.3468533,1.7814767,.362462,.0924998,.7221832,.203842,1.0846452,.2936011,.0733146,.0181574,.1459441,.0414536,.2192587,.0592684,.1877402,.0462499,.3771934,.0760554,.5652763,.1219626,2.1980682,.5310171,4.4029882,1.0013955,6.6113341,1.4231258,.1712958,.0328888,.3419065,.0787961,.5135449,.1109997,.5217671,.097296,1.044562,.1692403,1.5666717,.2607123,.2014439,.0352869,.403573,.0661202,.6053595,.100722,1.5680421,.2682493,3.1381397,.502582,4.7092651,.7163592l4.5968951-37.8988612Z"/>
    <path class="cls-1" d="M147.931486,221.5543301c-1.9181708,0-3.8127027-.1003794-5.6887347-.2648234l-4.0939705,33.7535019c3.2189914,.3186103,6.4811493,.4881931,9.7827052,.4881931,8.4411162,0,16.635909-1.0695712,24.4607028-3.0740751l-9.1352069-32.754162c-4.9158479,1.2004412-10.0451304,1.8513654-15.3254959,1.8513654Z"/>
    <path class="cls-1" d="M199.4247274,188.3729562l-29.5711428-16.6732515c-1.1531636,1.7061065-2.5207895,3.2491394-4.0295633,4.6407468l20.9796288,26.7714837c4.9662089-4.1864702,9.2109197-9.1766605,12.6210772-14.7389789Z"/>
    <path class="cls-1" d="M209.6545147,239.0963941c-9.5432336,7.1862029-20.3759823,12.7389288-32.079599,16.2700211l10.2332133,36.6905404c1.5526255-.4583877,3.1045657-.9160901,4.6407468-1.4279221,.6296835-.2100087,1.2648485-.4039156,1.8914486-.6228317,2.6136319-.9116364,5.2015694-1.8965875,7.7593588-2.9606772,.5515726-.2295364,1.0928674-.4837394,1.6410141-.7201277,2.0582908-.8873124,4.0956834-1.8232729,6.1118354-2.8078813,.732461-.3583509,1.4642368-.7187573,2.1905312-1.0894415,2.2076607-1.1260988,4.3909975-2.3042716,6.5407602-3.5478794,.2898326-.1678699,.5878873-.3199806,.8770347-.4899061,2.4043084-1.4142184,4.7599687-2.9188811,7.0834254-4.4787009,.6379057-.4282396,1.2641633-.8753217,1.8959023-1.3145242,1.6070975-1.117534,3.1850748-2.2816605,4.7486632-3.4690833l-23.5343349-30.031586Z"/>
    <path class="cls-1" d="M162.5255487,178.9564815c-1.7006251,1.1298673-3.546509,2.0473278-5.4910593,2.7633444l9.1465125,32.7935601c6.2776498-1.9942261,12.080125-5.0261624,17.2875184-8.8320133l-20.9429715-26.7248912Z"/>
    <path class="cls-1" d="M173.8482035,162.184221c-.4145359,2.0456149-1.0880712,3.9929059-1.9459207,5.8381047l29.6191056,16.7006589c2.9606772-5.6829107,5.0073199-11.8947829,6.0330394-18.4502745l-33.7062243-4.088489Z"/>
    <path class="cls-1" d="M174.3768224,156.9223555c0,.3652027-.0400832,.7201277-.0548147,1.0812193l33.7692612,4.096026c.1462866-1.7102176,.2624252-3.4293426,.2624252-5.1772454,0-4.8901535-.6474983-9.6213445-1.7496157-14.1778138l-32.7236714,9.1266422c.3179251,1.636903,.4964153,3.3231392,.4964153,5.0511716Z"/>
    <path class="cls-1" d="M196.6908458,121.3866917l-24.4672121,19.1741707-1.0853304,.8503125-1.1720061,.9188309c.065435,.0983238,.1202497,.2041846,.1846569,.3035362,.0507036,.0787961,.0966109,.1617033,.1466292,.2411845,.9763863,1.5485144,1.7903841,3.2039173,2.4317157,4.9463386l32.7935601-9.1465125c-1.9938835-6.2776498-5.0258198-12.0804676-8.8320133-17.287861Z"/>
    <path class="cls-1" d="M236.4044151,209.2237706c-6.1755575,10.4065646-14.1226565,19.6407806-23.4401222,27.2702971l23.5391312,30.0370675c1.857532-1.5012367,3.7078697-3.0141215,5.4944852-4.6157376,.3014807-.2703048,.5892577-.5597948,.8886828-.8331829,1.8171062-1.6578011,3.5910459-3.372815,5.3279857-5.1344214,.5872021-.5961095,1.1682376-1.2004412,1.7458472-1.8081988,1.6088105-1.6913751,3.1795933-3.4286575,4.7113207-5.2104767,.3802768-.4422858,.7745998-.8681273,1.1497377-1.3158946,1.8451987-2.2014941,3.6253051-4.4745898,5.3481986-6.8079817,.426184-.5776096,.8324978-1.175432,1.2508022-1.7609212,1.3319964-1.8630135,2.623567-3.7657677,3.8740266-5.7092902,.4556469-.7074518,.9133494-1.4125055,1.3573482-2.1305776,.6625723-1.0709416,1.2717003-2.1919015,1.9089208-3.2861393l-33.1563647-18.6945424Z"/>
    <path class="cls-1" d="M162.1110128,215.5949479l-9.1266422-32.724014c-1.6372456,.3186103-3.3238244,.4967579-5.0528846,.4967579-.2973696,0-.5861744-.0346018-.8811458-.0445369-.0674906-.0020556-.1339533-.007537-.2011013-.0102778l-.0554999,.4566747-4.0405262,33.3125865c1.7109028,.1462866,3.4303704,.2624252,5.1782731,.2624252,4.8908387,0,9.6227149-.6474983,14.1795267-1.7496157Z"/>
    <path class="cls-1" d="M246.3758883,127.2806388l36.6412072-10.2195096c-.5310171-1.7958655-1.0784786-3.5869348-1.6800696-5.3608745-1.4217554-4.1905813-3.0408437-8.3160703-4.8517833-12.3607075-1.4950701-3.3399262-3.1532138-6.6092785-4.9072831-9.830668-.7680905-1.4104499-1.5608477-2.806511-2.3775862-4.1916091-2.7667703-4.6911078-5.800077-9.2396974-9.1170496-13.6084264l-29.9767713,23.491511c7.1862029,9.5435762,12.7385862,20.3766675,16.2693359,32.0802842Z"/>
    <path class="cls-1" d="M238.4890854,205.5666045l33.1861701,18.7113294c.1527959-.2816104,.3282028-.5426652,.4796283-.8256459,2.2528828-4.2104517,4.2700626-8.4839402,6.0556504-12.8053915,4.6784319-11.3192289,7.7412014-22.9673457,9.3308268-34.6723328l-37.8286299-4.5883303c-1.7270046,12.2075691-5.5900683,23.7350937-11.2236458,34.1803712Z"/>
    <path class="cls-1" d="M287.4728428,137.508028c-.7769979-5.5314851-1.9185134-10.9971927-3.3395836-16.3871875l-36.6086609,10.2106022c2.1041981,8.1845151,3.2255006,16.7588994,3.2255006,25.5909128,0,3.4725092-.1778051,6.9039074-.5159431,10.2890557l37.8210929,4.5876451c.9743307-9.2554566,1.0366824-18.5263299,.1884254-27.6793516-.2048698-2.2114292-.4624988-4.4160067-.7708313-6.6116767Z"/>
    <path class="cls-1" d="M205.2128137,186.8045716l29.6078001,16.693807c5.3673837-9.9735288,9.0560683-20.9720918,10.714212-32.6188383l-33.7240391-4.0905446c-1.0956082,7.1214531-3.3711021,13.8550924-6.597973,20.0155759Z"/>
    <path class="cls-1" d="M189.4107728,206.4385003l20.9583882,26.7440763c8.8854576-7.2879527,16.4676965-16.1000957,22.3698659-26.0260042l-29.586902-16.6818163c-3.6862864,6.0446875-8.3421072,11.4329693-13.741352,15.9637442Z"/>
    <path class="cls-1" d="M173.5241118,256.5154677c-8.1848576,2.1045406-16.7602698,3.2255006-25.5926257,3.2255006-3.4728518,0-6.9049352-.1781477-10.2900835-.5159431l-4.5944969,37.8810464c1.356663,.1432033,2.713326,.265166,4.0699891,.368286,.196305,.0147314,.3926101,.0390555,.5885725,.0531017,.3076473,.0222685,.6152946,.0417962,.9222568,.0616665,.5875447,.0383703,1.1750894,.0870183,1.7622916,.1178515,1.9411244,.1020923,3.8808785,.1534811,5.8189196,.1747218,.6392761,.0071944,1.2795799,.0363147,1.9181708,.0342592,2.7962332-.0068518,5.5859572-.1072312,8.3678016-.28024,.7047111-.0438517,1.4059962-.1120275,2.1093369-.1664996,2.1761423-.1678699,4.346118-.3854156,6.508214-.6536649,.7790535-.0966109,1.5584495-.1884254,2.3354474-.2980548,2.7633444-.3895267,5.5177815-.8345533,8.2496075-1.3861259,.1144256-.0229536,.2271383-.0537869,.3415639-.0774257,2.5937616-.5299893,5.1652546-1.1548765,7.7237293-1.8290969l-10.2386947-36.7093829Z"/>
    <path class="cls-1" d="M127.0738198,218.0811357c-3.1069639-1.0627194-6.1077243-2.352577-8.9824111-3.8558693l-16.56465,29.6739203c2.7287427,1.4618387,5.5311426,2.8027425,8.4054867,4.00798,7.5815537,3.1782229,15.6441061,5.4228836,24.041028,6.6181859l4.0905446-33.7240391c-3.7828972-.5817207-7.4513689-1.5101441-10.9899983-2.7201779Z"/>
    <path class="cls-1" d="M167.3153229,218.580977l9.1290403,32.7312084c11.1643774-3.3789817,21.5017386-8.6768193,30.6153622-15.5272824l-20.9607863-26.7468171c-5.6390589,4.1412481-11.9670697,7.3951838-18.7836162,9.542891Z"/>
    <path class="cls-1" d="M243.4662573,132.4633656l-32.7538194,9.1352069c1.199756,4.9155053,1.8510228,10.0441027,1.8510228,15.3237829,0,1.9178282-.1003794,3.8116749-.2648234,5.6877069l33.7535019,4.0939705c.3186103-3.2183062,.4881931-6.4804641,.4881931-9.7816774,0-8.4400884-1.0695712-16.6348813-3.0740751-24.4589899Z"/>
    <path class="cls-1" d="M138.5804463,216.5449547l2.8414553-23.4288167,1.2466911-10.2774076c-2.0449297-.4145359-3.991193-1.087386-5.8360491-1.9452355l-13.5131859,23.966343-3.1624637,5.6650959c2.8952422,1.5067182,5.9203267,2.7921221,9.0646331,3.819212,3.019603,.986664,6.1522613,1.6992547,9.3589193,2.2008089Z"/>
    <path class="cls-1" d="M163.7414065,133.1687619l-1.0329139,1.8314951c1.7061065,1.1535062,3.249482,2.5211321,4.641432,4.030591l9.3829007-7.3533877,17.3885829-13.6262412c-1.8520506-2.197383-3.8836192-4.230322-6.0261875-6.1440391-.5447208-.4861376-1.0582657-1.0058492-1.6197734-1.472459-1.8664394-1.5498847-3.8486748-2.955881-5.8936045-4.2755441-.3929526-.2535178-.8006367-.4851098-1.2000986-.7297203l-3.2477691,5.7603364-12.3925686,21.9789688Z"/>
    <path class="cls-1" d="M222.1159442,37.2475473c-1.0579231-.6550353-2.115161-1.3114409-3.1956951-1.9418096l-3.4536667,6.1248539-12.6728086,22.4760693-2.5612153,4.5427656c.0438517,.026037,.0890738,.0507036,.1329256,.0767405,3.159723,1.8815135,6.2194092,3.9137673,9.1492532,6.1125206,2.4193824,1.8153933,4.7490058,3.7424714,6.9970923,5.7596512,2.7873258,2.500234,5.4369298,5.1494954,7.9378491,7.9364787,1.0431916,1.1627561,2.0637722,2.3464104,3.0538622,3.555759l29.9702621-23.4863721c-.7797386-.9654233-1.5399496-1.9438651-2.346753-2.8901033-1.2007838-1.4080518-2.4509008-2.780474-3.7112956-4.1453592-2.5283265-2.7366223-5.1888935-5.3711522-7.9542935-7.9200343-4.6400616-4.2775996-9.6011316-8.2831815-14.8893767-11.9687827-2.1004295-1.4635516-4.2560163-2.8709182-6.4561401-4.2323775Z"/>
    <path class="cls-1" d="M182.5616801,102.3934094c2.4111602,1.5368662,4.7178299,3.2227599,6.8984259,5.0566531,.2699622,.2267957,.5330726,.4607858,.7992664,.6920352,2.5629283,2.2268459,4.9528478,4.6455431,7.1385827,7.2444435,.0164444,.0191851,.033574,.0383703,.0500184,.0575554l26.7440763-20.9583882c-.8835439-1.0777934-1.7972359-2.1295498-2.7249742-3.1682878-2.49441-2.7934925-5.144014-5.4424113-7.9375065-7.9368213-1.9757262-1.7643471-4.0199707-3.4529815-6.1334187-5.0556253-2.87777-2.1829941-5.8785305-4.2097665-8.9902907-6.0714096-.0794813-.0476202-.1610181-.0911294-.2404994-.138407l-16.6818163,29.5865594c.3648601,.222342,.7177296,.4621562,1.078136,.6916926Z"/>
    <path class="cls-1" d="M260.0833237,71.7088436c3.3169726,4.368729,6.3502792,8.9173186,9.1170496,13.6084264"/>
    <path class="cls-1" d="M255.12705,65.514101c.8068034,.9462382,1.5670143,1.92468,2.346753,2.8901033"/>
    <path class="cls-1" d="M278.2105343,210.6468964c-1.7855878,4.3214514-3.8027676,8.5949399-6.0556504,12.8053915"/>
    <path class="cls-1" d="M251.4157544,61.3687418c1.2603948,1.3648852,2.5105118,2.7373075,3.7112956,4.1453592"/>
    <path class="cls-1" d="M226.5442842,273.9115876c-2.3234567,1.5598199-4.6791171,3.0644825-7.0834254,4.4787009"/>
    <path class="cls-1" d="M203.7406973,286.3253969c2.0582908-.8873124,4.0956834-1.8232729,6.1118354-2.8078813"/>
    <path class="cls-1" d="M248.2145778,255.9477933c-1.7369398,1.7616064-3.5108795,3.4766203-5.3279857,5.1344214"/>
    <path class="cls-1" d="M261.1696819,240.8052414c-1.7228935,2.3333919-3.5029999,4.6064876-5.3481986,6.8079817"/>
    <path class="cls-1" d="M254.6717457,248.9291177c-1.5317274,1.7818193-3.1025102,3.5191017-4.7113207,5.2104767"/>
    <path class="cls-1" d="M266.2945108,233.3350299c-1.2504596,1.9435226-2.5420302,3.8462767-3.8740266,5.7092902"/>
    <path class="cls-1" d="M271.5779595,89.5088792c1.7540694,3.2213895,3.4122131,6.4907418,4.9072831,9.830668"/>
    <path class="cls-1" d="M194.3403244,290.0062018c2.6136319-.9116364,5.2015694-1.8965875,7.7593588-2.9606772"/>
    <path class="cls-1" d="M218.5838241,278.8801947c-2.1497627,1.2436078-4.3330995,2.4217805-6.5407602,3.5478794"/>
    <path class="cls-1" d="M98.969312,289.1161487c1.7081621,.6348224,3.4238612,1.2295615,5.1443566,1.79381"/>
    <path class="cls-1" d="M96.286134,288.0911144c-1.7383101-.6865537-3.4673703-1.4196999-5.1902638-2.1802534"/>
    <path class="cls-1" d="M88.7525431,284.8772619c-2.470086-1.1445988-4.9271534-2.3460678-7.3581839-3.6468884"/>
    <path class="cls-1" d="M175.6975133,295.1313732c-2.731826,.5515726-5.486263,.9965992-8.2496075,1.3861259"/>
    <path class="cls-1" d="M158.6042444,297.4692188c2.1761423-.1678699,4.346118-.3854156,6.508214-.6536649"/>
    <path class="cls-1" d="M251.4157544,61.3687418c-2.5283265-2.7366223-5.1888935-5.3711522-7.9542935-7.9200343"/>
    <path class="cls-2" d="M108.708508,204.0759881l-7.9371639-7.9371639-17.3570645-17.3567219c-8.01596,8.0163025-8.01596,21.0128602,0,29.0291628,.9733029,.9733029,2.0223186,1.8229303,3.1244361,2.5601876,3.7500084,2.5067433,8.139293,3.6280458,12.4741054,3.4002223,4.8856998-.2572863,9.6984277-2.2285588,13.4306213-5.9604099l-3.7349344-3.735277Z"/>
    <path class="cls-2" d="M146.3778328,150.5323356c2.6396688-3.4540092,4.2255257-7.7562755,4.2255257-12.4395036h-41.0534453c0,11.336701,9.1903642,20.5267227,20.5267227,20.5267227,4.6828856,0,8.9854944-1.5855143,12.4395036-4.2255257,1.4532739-1.1110248,2.7503259-2.4080769,3.8616933-3.8616933Z"/>
    <path class="cls-1" d="M257.473803,68.4042043c.8828587,1.09321,1.761949,2.188133,2.6095208,3.3046393"/>
    <path class="cls-1" d="M218.2090288,34.8737296c.2418697,.1390922,.470721,.2915455,.7112203,.4320081"/>
    <path class="cls-1" d="M218.2090288,34.8737296c-.0390555-.0226111-.0760554-.0476202-.115796-.0702313"/>
    <path class="cls-1" d="M138.7798347,177.1643845c.041111,.0188425,.0808516,.0404258,.1219626,.0589258,1.3607741,.607415,2.7893814,1.0849878,4.2769144,1.4107925,1.3511816,.2956566,2.7482704,.4580451,4.1779054,.495045,.1928791,.0047963,.3806193,.0287777,.5748688,.0287777,.5258782,0,1.0411361-.0424814,1.5577643-.0787961,.7982386-.0554999,1.5841439-.1497126,2.3570307-.287777,1.4025703-.2507771,2.75615-.6337946,4.054915-1.1350062,1.4125055-.5450634,2.7554648-1.22408,4.0124337-2.0325964,1.1860524-.7626091,2.2926235-1.6334771,3.3101207-2.600956,1.0884137-1.0339417,2.0750778-2.1710034,2.937381-3.4050186,.8016645-1.1473395,1.4936997-2.3738177,2.0706241-3.6647031,.6077576-1.3611167,1.0860156-2.7904092,1.4114777-4.27897,.2956566-1.3504964,.4580451-2.7482704,.4947024-4.1779054,.0047963-.1925365,.0291203-.3799342,.0291203-.5738411,0-1.3371353-.1394348-2.640354-.3665731-3.9130821-.2504345-1.4025703-.633452-2.75615-1.1346636-4.054915-.2418697-.6269428-.5114894-1.2381263-.8074886-1.8362914-.2394716-.4851098-.4940172-.9599419-.7674053-1.4244962-.1490274-.2528327-.2987399-.5056653-.4573599-.7519887-.7629517-1.186395-1.6338197-2.2929661-2.6012986-3.3111485-1.0346269-1.0880712-2.171346-2.0754204-3.4053612-2.937381-.089759-.0626943-.1716384-.1349811-.2624252-.1959624-.3912397-.265166-.8037201-.4988135-1.2124319-.7389702-.0572128-.0339166-.1127127-.0705739-.1702681-.1038053l-.3706842,.6447575-7.9262009,13.7913704-.0616665,.1068886-1.2244226,2.1309202-.0027407,.0044537-.3467028,.6026188-.0013704,.0027407-.0863331,.1500552-2.0973462,3.6496291-.0774257,.1349811-.0157592,.0270647-.3179251,.5536281-.0465925,.0801665-1.1548765,2.0099853-.1613607,.28024-7.9330528,13.8033611-.3114158,.54198c.6266002,.362462,1.2706725,.6940907,1.93393,.9952288Z"/>
  </g>
</svg>