<?xml version="1.0" encoding="utf-8"?>
<svg id="svg87" version="1.1" viewBox="225.51 0.69 576 383.99998" width="6in" height="4in" xmlns="http://www.w3.org/2000/svg">
  <defs id="defs81">
    <style id="style79" type="text/css">
	.st0{fill:#35813F;}
	.st1{fill:#24272A;}
</style>
  </defs>
  <g transform="matrix(1, 0, 0, 1, -0.962488, -29.701506)">
    <path d="M 285.512 72.67 L 333.015 100.095 L 333.015 154.946 L 285.512 182.372 L 238.01 154.946 L 238.01 100.095 Z" id="path12-60" style="fill:none;stroke:#000000;stroke-width:1.00000024;stroke-miterlimit:4;stroke-dasharray:none;stroke-opacity:1"/>
    <path d="M 399.992 72.67 L 447.495 100.095 L 447.495 154.946 L 399.992 182.372 L 352.49 154.946 L 352.49 100.095 Z" id="path12-3-6" style="fill:none;stroke:#000000;stroke-width:1.00000024;stroke-miterlimit:4;stroke-dasharray:none;stroke-opacity:1"/>
    <path d="M 628.952 72.67 L 676.455 100.095 L 676.455 154.946 L 628.952 182.372 L 581.45 154.946 L 581.45 100.095 Z" id="path12-6-2" style="fill:none;stroke:#000000;stroke-width:1.00000024;stroke-miterlimit:4;stroke-dasharray:none;stroke-opacity:1"/>
    <path d="M 514.472 72.67 L 561.975 100.095 L 561.975 154.946 L 514.472 182.372 L 466.97 154.946 L 466.97 100.095 Z" id="path12-7-6" style="fill:none;stroke:#000000;stroke-width:1.00000024;stroke-miterlimit:4;stroke-dasharray:none;stroke-opacity:1"/>
    <path d="M 743.432 72.715 L 790.935 100.14 L 790.935 154.991 L 743.432 182.417 L 695.93 154.991 L 695.93 100.14 Z" id="path12-5-1" style="fill:none;stroke:#000000;stroke-width:1.00000024;stroke-miterlimit:4;stroke-dasharray:none;stroke-opacity:1"/>
    <path d="M 285.512 262.366 L 333.015 289.791 L 333.015 344.642 L 285.512 372.068 L 238.01 344.642 L 238.01 289.791 Z" id="path12-60-3" style="fill:none;stroke:#000000;stroke-width:1.00000024;stroke-miterlimit:4;stroke-dasharray:none;stroke-opacity:1"/>
    <path d="M 399.992 262.366 L 447.495 289.791 L 447.495 344.642 L 399.992 372.068 L 352.49 344.642 L 352.49 289.791 Z" id="path12-3-6-7" style="fill:none;stroke:#000000;stroke-width:1.00000024;stroke-miterlimit:4;stroke-dasharray:none;stroke-opacity:1"/>
    <path d="M 628.952 262.366 L 676.455 289.791 L 676.455 344.642 L 628.952 372.068 L 581.45 344.642 L 581.45 289.791 Z" id="path12-6-2-5" style="fill:none;stroke:#000000;stroke-width:1.00000024;stroke-miterlimit:4;stroke-dasharray:none;stroke-opacity:1"/>
    <path d="M 514.472 261.994 L 561.975 289.419 L 561.975 344.27 L 514.472 371.696 L 466.97 344.27 L 466.97 289.419 Z" id="path12-7-6-9" style="fill:none;stroke:#000000;stroke-width:1.00000024;stroke-miterlimit:4;stroke-dasharray:none;stroke-opacity:1"/>
    <path d="M 743.432 262.411 L 790.935 289.836 L 790.935 344.687 L 743.432 372.113 L 695.93 344.687 L 695.93 289.836 Z" id="path12-5-1-2" style="fill:none;stroke:#000000;stroke-width:1.00000024;stroke-miterlimit:4;stroke-dasharray:none;stroke-opacity:1"/>
    <path d="M 343.01 167.262 L 390.512 194.687 L 390.512 249.538 L 343.01 276.964 L 295.508 249.538 L 295.508 194.687 Z" id="path12-60-9" style="fill:none;stroke:#000000;stroke-width:1.00000024;stroke-miterlimit:4;stroke-dasharray:none;stroke-opacity:1"/>
    <path d="M 457.49 167.262 L 504.992 194.687 L 504.992 249.538 L 457.49 276.964 L 409.988 249.538 L 409.988 194.687 Z" id="path12-3-6-73" style="fill:none;stroke:#000000;stroke-width:1.00000024;stroke-miterlimit:4;stroke-dasharray:none;stroke-opacity:1"/>
    <path d="M 686.45 167.262 L 733.952 194.687 L 733.952 249.538 L 686.45 276.964 L 638.948 249.538 L 638.948 194.687 Z" id="path12-6-2-6" style="fill:none;stroke:#000000;stroke-width:1.00000024;stroke-miterlimit:4;stroke-dasharray:none;stroke-opacity:1"/>
    <path d="M 571.97 167.262 L 619.472 194.687 L 619.472 249.538 L 571.97 276.964 L 524.468 249.538 L 524.468 194.687 Z" id="path12-7-6-1" style="fill:none;stroke:#000000;stroke-width:1.00000024;stroke-miterlimit:4;stroke-dasharray:none;stroke-opacity:1"/>
  </g>
</svg>